<svg viewBox="0 0 288 288" xmlns="http://www.w3.org/2000/svg" xmlns:xlink="http://www.w3.org/1999/xlink" id="Layer_1" overflow="hidden"><defs><radialGradient cx="144" cy="144" r="201.63" fx="144" fy="144" gradientUnits="userSpaceOnUse" id="radial-gradient"><stop offset="0.51" stop-color="#FFCC00"/><stop offset="0.89" stop-color="#FFAA00"/></radialGradient><radialGradient cx="144" cy="144" r="144" fx="144" fy="144" gradientUnits="userSpaceOnUse" id="radial-gradient-2"><stop offset="0" stop-color="#FFFFFF" stop-opacity="0"/><stop offset="0.57" stop-color="#F7F7F7" stop-opacity="0"/><stop offset="1" stop-color="#FF5C00" stop-opacity="0.2"/></radialGradient></defs><rect x="0" y="0" width="288" height="288" fill="url(#radial-gradient)"/><path d="M96.26 67.94C84.01 45.3 71.76 22.66 59.5 0L50.23 0C65.49 22.72 80.74 45.41 95.98 68.1 96.07 68.05 96.16 67.99 96.26 67.94ZM15.77 154.01C15.77 153.85 15.76 153.68 15.75 153.52 12.94 153.75 10.12 154.06 7.32 154.21 4.88 154.34 2.44 154.47 0 154.6L0 155.83C4.6 155.3 9.2 154.78 13.79 154.25 14.45 154.17 15.11 154.08 15.77 154ZM86.72 96.65C57.82 70.1 28.91 43.55 0 16.99L0 29.02C28.87 51.61 57.73 74.19 86.58 96.77 86.63 96.73 86.67 96.69 86.72 96.65ZM100.7 52.91C93.77 35.28 86.84 17.64 79.91-7.10543e-15L72.95-7.10543e-15C82.13 17.67 91.29 35.34 100.46 53L100.7 52.91ZM39.5 80.59C26.33 71.73 13.17 62.86 0 53.99L0 58.92C13.11 66.21 26.22 73.5 39.32 80.79 39.38 80.72 39.44 80.65 39.49 80.58ZM23.23 143.55C21.77 143.31 20.3 143.26 18.83 143.21 12.56 143 6.28 142.78 0.01 142.57L0.01 144.39C5.18 144.21 10.34 144.04 15.51 143.86 18.08 143.77 20.66 143.65 23.24 143.55ZM42.88 115.47C42.91 115.42 42.93 115.36 42.96 115.31 28.64 110.67 14.32 106.03 0.01 101.39L0.01 105.01C10.25 107.51 20.49 110.01 30.73 112.51 34.78 113.5 38.83 114.48 42.89 115.46ZM36.73 101.93C24.49 96.55 12.25 91.17 0 85.79L0 89.31C12.2 93.58 24.4 97.85 36.6 102.12 36.64 102.06 36.69 102 36.73 101.94ZM111.95 0 109.14 0C111.55 9.08 113.96 18.16 116.37 27.23 116.5 27.02 116.52 26.83 116.49 26.66 115.47 20.69 114.43 14.72 113.42 8.74 112.92 5.83 112.43 2.91 111.94-1.77636e-15ZM7.01 0C34.84 28.72 62.63 57.39 90.41 86.05 90.48 85.98 90.55 85.92 90.62 85.85 67.21 57.25 43.79 28.64 20.36 0L7.01 0ZM231.2 93.08C250.13 83.27 269.07 73.46 288 63.65L288 58.16C269 69.76 250.01 81.36 231.02 92.95 231.08 92.99 231.14 93.04 231.19 93.08ZM241.64 132.75C257.1 131.63 272.55 130.5 288.01 129.38L288.01 126.09C272.55 128.27 257.1 130.45 241.64 132.64 241.64 132.68 241.64 132.72 241.64 132.76ZM268.54 85.49C275.03 82.79 281.52 80.09 288.01 77.38L288.01 75.56C281.49 78.81 274.97 82.07 268.46 85.33 268.49 85.38 268.52 85.43 268.54 85.49ZM282.45 0C256.08 27.74 229.74 55.45 203.4 83.16 203.46 83.2 203.52 83.24 203.58 83.28 231.71 57.92 259.84 32.56 288 7.17L288 0 282.45 0ZM75.64 208.64C50.44 231.77 25.22 254.92 0 278.06L0 288 1.98 288C26.64 261.58 51.27 235.19 75.89 208.81 75.81 208.75 75.73 208.69 75.64 208.64ZM209.88 58.38C226.67 38.92 243.46 19.47 260.26 0L252.7 0C238.33 19.43 223.97 38.84 209.62 58.24 209.71 58.29 209.8 58.33 209.89 58.38ZM258 62.13C268 55.7 278 49.27 288 42.83L288 39.01C277.94 46.66 267.89 54.31 257.83 61.95 257.88 62.01 257.94 62.07 257.99 62.13ZM234.84 0 230.54 0C223.04 12.84 215.55 25.68 208.06 38.52 208.14 38.55 208.22 38.58 208.31 38.62 217.15 25.75 226 12.87 234.84 7.10543e-15ZM198.24 0C191.19 19.24 184.15 38.45 177.1 57.67 177.19 57.69 177.27 57.71 177.36 57.73 186.29 38.49 195.23 19.25 204.16 7.10543e-15L198.24 7.10543e-15ZM179.78 0C177.46 10.18 175.15 20.36 172.83 30.54 172.92 30.55 173.01 30.56 173.1 30.57 176.44 20.38 179.77 10.18 183.11-0.01L179.78-0.01ZM8.06 193.38C7.29 193.47 6.58 193.7 5.88 193.93 3.92 194.59 1.96 195.24 8.88178e-16 195.9L8.88178e-16 196.71C0.1 196.67 0.19 196.63 0.29 196.59 2.88 195.52 5.47 194.45 8.06 193.38ZM203.04 247.38C210.23 260.92 217.43 274.46 224.62 288L229.91 288C221.03 274.42 212.15 260.85 203.27 247.28 203.19 247.31 203.11 247.34 203.03 247.38ZM0 183.24 0 183.63C1.08 183.29 2.15 182.95 3.23 182.6 2.14 182.77 1.07 182.99 0 183.23ZM178.95 228.63C186.48 248.42 194.01 268.21 201.54 288L208.89 288C198.98 268.16 189.09 248.34 179.19 228.53 179.11 228.56 179.03 228.59 178.95 228.63ZM244.36 202.16C258.9 211.19 273.44 220.21 287.99 229.24L287.99 224.76C273.49 217.16 259 209.56 244.51 201.97 244.46 202.03 244.41 202.1 244.36 202.16ZM157.56 249.93C158.87 262.62 160.18 275.31 161.49 288.01L165.26 288.01C162.75 275.3 160.24 262.6 157.74 249.9 157.68 249.91 157.62 249.92 157.56 249.93ZM278.49 159.39C281.66 159.88 284.83 160.37 288 160.86L288 159.91C284.85 159.66 281.7 159.41 278.55 159.17 278.53 159.25 278.51 159.32 278.49 159.4ZM277.07 103.86C280.71 102.91 284.36 101.96 288 101.01L288 100.13C284.33 101.32 280.66 102.52 276.99 103.71 277.02 103.76 277.04 103.81 277.07 103.87ZM258.17 194.98C268.11 199.9 278.05 204.82 288 209.74L288 206.38C278.11 202.51 268.21 198.63 258.32 194.76 258.27 194.83 258.22 194.9 258.18 194.98ZM272.85 173.3C277.9 174.65 282.95 176 288 177.35L288 175.94C282.98 174.99 277.96 174.05 272.94 173.1 272.91 173.17 272.88 173.23 272.85 173.3ZM213.39 203.07C238.25 225.59 263.11 248.12 287.99 270.67L287.99 259.5C263.17 240.62 238.36 221.76 213.57 202.91 213.51 202.96 213.44 203.02 213.38 203.07ZM48.27 198.52C32.18 207.3 16.09 216.09 7.10543e-15 224.87L7.10543e-15 229.6C16.13 219.29 32.26 208.98 48.38 198.68 48.34 198.63 48.3 198.58 48.27 198.52ZM51.94 186.11C34.63 193.7 17.31 201.29 1.42109e-14 208.88L1.42109e-14 213.2C17.35 204.22 34.7 195.25 52.04 186.28 52.01 186.23 51.98 186.17 51.95 186.12ZM44.41 221.23C29.61 232.23 14.81 243.23 1.42109e-14 254.23L1.42109e-14 260.03C14.88 247.15 29.75 234.29 44.62 221.42 44.55 221.36 44.48 221.29 44.41 221.23ZM38.8 161.9C38.53 161.82 38.26 161.82 38 161.86 28.73 163.18 19.46 164.5 10.19 165.83 6.79 166.31 3.39 166.8 1.59872e-14 167.28L1.59872e-14 170.34C5.54 169.15 11.08 167.95 16.62 166.75 24.02 165.15 31.41 163.52 38.8 161.9ZM83.29 224C66.69 245.32 50.07 266.65 33.45 288L40.82 288C55.06 266.69 69.29 245.4 83.52 224.11 83.44 224.07 83.37 224.04 83.29 224ZM92.83 288 96.74 288C100.09 275.8 103.43 263.6 106.77 251.41 106.71 251.39 106.65 251.36 106.58 251.34 101.99 263.56 97.41 275.78 92.82 288ZM129.99 288 133.94 288C134.29 273.39 134.64 258.78 134.99 244.18 134.93 244.18 134.87 244.18 134.82 244.18 133.21 258.78 131.6 273.39 129.99 288ZM145.22 37.1C145.91 30.33 146.45 23.57 146.99 16.8 147.43 11.2 147.88 5.59 148.32-0.01L144.81-0.01C144.95 12.36 145.09 24.73 145.22 37.09ZM68.65 288 72.69 288C78.33 275.24 83.97 262.49 89.61 249.74 89.53 249.72 89.45 249.69 89.37 249.67 82.46 262.44 75.56 275.22 68.65 288Z" fill="url(#radial-gradient-2)"/></svg>