<svg viewBox="0 0 274.74 210.71" xmlns="http://www.w3.org/2000/svg" xmlns:xlink="http://www.w3.org/1999/xlink" id="Layer_1" overflow="hidden"><defs></defs><g><g><path d="M120.41 32.15C120.19 32.15 120 32 119.95 31.78L112.77 0.58C112.71 0.32 112.87 0.07 113.13 0.01 113.39-0.05 113.64 0.11 113.7 0.37L120.88 31.56C120.94 31.82 120.78 32.07 120.52 32.13 120.48 32.13 120.45 32.14 120.41 32.14Z" fill="#003F4B"/><path d="M124.03 47.88C123.81 47.88 123.62 47.73 123.57 47.51L121.45 38.3C121.39 38.04 121.55 37.79 121.81 37.73 122.07 37.67 122.32 37.83 122.38 38.09L124.5 47.3C124.56 47.56 124.4 47.81 124.14 47.87 124.1 47.87 124.07 47.88 124.03 47.88Z" fill="#003F4B"/></g><g><path d="M74.59 48.51C74.48 48.51 74.36 48.47 74.27 48.39L47.7 24.12C47.51 23.94 47.49 23.64 47.67 23.45 47.85 23.26 48.15 23.24 48.34 23.42L74.91 47.69C75.1 47.87 75.12 48.17 74.94 48.36 74.85 48.46 74.72 48.51 74.59 48.51Z" fill="#003F4B"/><path d="M88 60.75C87.89 60.75 87.77 60.71 87.68 60.63L79.83 53.46C79.64 53.28 79.62 52.98 79.8 52.79 79.98 52.6 80.28 52.58 80.47 52.76L88.32 59.93C88.51 60.11 88.53 60.41 88.35 60.6 88.26 60.7 88.13 60.75 88 60.75Z" fill="#003F4B"/></g><g><path d="M45.6 80.24C45.6 80.24 45.51 80.24 45.47 80.22L6.62 69.39C6.37 69.32 6.22 69.06 6.29 68.81 6.36 68.56 6.63 68.41 6.87 68.48L45.72 79.32C45.97 79.39 46.12 79.65 46.05 79.9 45.99 80.11 45.8 80.25 45.59 80.25Z" fill="#003F4B"/><path d="M65.19 85.71C65.19 85.71 65.1 85.71 65.06 85.69L53.59 82.49C53.34 82.42 53.19 82.16 53.26 81.91 53.33 81.66 53.6 81.51 53.84 81.58L65.31 84.78C65.56 84.85 65.71 85.11 65.64 85.36 65.58 85.57 65.39 85.71 65.18 85.71Z" fill="#003F4B"/></g><g><path d="M0.47 124.33C0.24 124.33 0.03 124.16 0 123.92-0.04 123.66 0.15 123.42 0.41 123.39L41.13 117.89C41.39 117.85 41.63 118.04 41.66 118.3 41.7 118.56 41.51 118.8 41.25 118.83L0.54 124.32C0.54 124.32 0.5 124.32 0.48 124.32Z" fill="#003F4B"/><path d="M49.71 117.67C49.48 117.67 49.27 117.5 49.24 117.26 49.2 117 49.39 116.76 49.65 116.73L61.67 115.11C61.93 115.08 62.17 115.26 62.2 115.52 62.24 115.78 62.05 116.02 61.79 116.05L49.77 117.67C49.77 117.67 49.73 117.67 49.71 117.67Z" fill="#003F4B"/></g><g><path d="M30.88 174.29C30.72 174.29 30.57 174.21 30.48 174.07 30.34 173.85 30.4 173.56 30.62 173.41L62.29 153.05C62.51 152.91 62.8 152.97 62.95 153.19 63.09 153.41 63.03 153.7 62.81 153.85L31.14 174.21C31.06 174.26 30.97 174.29 30.88 174.29Z" fill="#003F4B"/><path d="M69.18 149.67C69.02 149.67 68.87 149.59 68.78 149.45 68.64 149.23 68.7 148.94 68.92 148.79L78.27 142.78C78.49 142.64 78.78 142.7 78.93 142.92 79.07 143.14 79.01 143.43 78.79 143.58L69.44 149.59C69.36 149.64 69.27 149.67 69.18 149.67Z" fill="#003F4B"/></g><g><path d="M89.83 205.91C89.76 205.91 89.69 205.9 89.63 205.86 89.39 205.75 89.29 205.46 89.4 205.23L103.54 175.47C103.65 175.23 103.94 175.13 104.17 175.24 104.41 175.35 104.51 175.64 104.4 175.87L90.26 205.63C90.18 205.8 90.01 205.9 89.83 205.9Z" fill="#003F4B"/><path d="M106.92 169.92C106.85 169.92 106.78 169.91 106.72 169.87 106.48 169.76 106.38 169.47 106.49 169.24L110.67 160.45C110.78 160.21 111.07 160.11 111.3 160.22 111.54 160.33 111.64 160.62 111.53 160.85L107.35 169.64C107.27 169.81 107.1 169.91 106.92 169.91Z" fill="#003F4B"/></g><g><path d="M161.51 210.71C161.29 210.71 161.1 210.56 161.05 210.34L153.87 179.15C153.81 178.89 153.97 178.64 154.23 178.58 154.49 178.52 154.74 178.68 154.8 178.94L161.98 210.13C162.04 210.39 161.88 210.64 161.62 210.7 161.58 210.7 161.55 210.71 161.51 210.71Z" fill="#003F4B"/><path d="M152.83 173C152.61 173 152.42 172.85 152.37 172.63L150.25 163.42C150.19 163.16 150.35 162.91 150.61 162.85 150.87 162.79 151.12 162.95 151.18 163.21L153.3 172.42C153.36 172.68 153.2 172.93 152.94 172.99 152.9 172.99 152.87 173 152.83 173Z" fill="#003F4B"/></g><g><path d="M226.72 187.42C226.61 187.42 226.49 187.38 226.4 187.3L199.83 163.03C199.64 162.85 199.62 162.55 199.8 162.36 199.98 162.17 200.28 162.15 200.47 162.33L227.04 186.6C227.23 186.78 227.25 187.08 227.07 187.27 226.98 187.37 226.85 187.42 226.72 187.42Z" fill="#003F4B"/><path d="M194.59 158.08C194.48 158.08 194.36 158.04 194.27 157.96L186.42 150.79C186.23 150.61 186.21 150.31 186.39 150.12 186.57 149.93 186.87 149.91 187.06 150.09L194.91 157.26C195.1 157.44 195.12 157.74 194.94 157.93 194.85 158.03 194.72 158.08 194.59 158.08Z" fill="#003F4B"/></g><g><path d="M267.99 142.26C267.99 142.26 267.9 142.26 267.86 142.24L229.01 131.41C228.76 131.34 228.61 131.08 228.68 130.83 228.75 130.58 229.02 130.43 229.27 130.5L268.12 141.33C268.37 141.4 268.52 141.66 268.45 141.91 268.39 142.12 268.2 142.26 267.99 142.26Z" fill="#003F4B"/><path d="M221.02 129.16C221.02 129.16 220.93 129.16 220.89 129.14L209.42 125.94C209.17 125.87 209.02 125.61 209.09 125.36 209.16 125.11 209.43 124.96 209.67 125.03L221.14 128.23C221.39 128.3 221.54 128.56 221.47 128.81 221.41 129.02 221.22 129.16 221.01 129.16Z" fill="#003F4B"/></g><g><path d="M233.55 92.84C233.32 92.84 233.11 92.67 233.08 92.43 233.04 92.17 233.23 91.93 233.49 91.9L274.21 86.4C274.47 86.37 274.71 86.55 274.74 86.81 274.78 87.07 274.59 87.31 274.33 87.34L233.61 92.84C233.61 92.84 233.57 92.84 233.55 92.84Z" fill="#003F4B"/><path d="M213.01 95.61C212.78 95.61 212.57 95.44 212.54 95.2 212.5 94.94 212.69 94.7 212.95 94.67L224.98 93.05C225.24 93.02 225.48 93.2 225.51 93.46 225.55 93.72 225.36 93.96 225.1 93.99L213.07 95.61C213.07 95.61 213.03 95.61 213.01 95.61Z" fill="#003F4B"/></g><g><path d="M212.18 57.73C212.02 57.73 211.87 57.65 211.78 57.51 211.64 57.29 211.7 57 211.92 56.85L243.59 36.49C243.81 36.35 244.1 36.41 244.25 36.63 244.39 36.85 244.33 37.14 244.11 37.29L212.44 57.65C212.36 57.7 212.27 57.73 212.18 57.73Z" fill="#003F4B"/><path d="M196.21 68.01C196.05 68.01 195.9 67.93 195.81 67.79 195.67 67.57 195.73 67.28 195.95 67.13L205.3 61.12C205.52 60.98 205.81 61.04 205.96 61.26 206.1 61.48 206.04 61.77 205.82 61.92L196.47 67.93C196.39 67.98 196.3 68.01 196.21 68.01Z" fill="#003F4B"/></g><g><path d="M170.77 35.52C170.7 35.52 170.63 35.51 170.57 35.47 170.33 35.36 170.23 35.07 170.34 34.84L184.48 5.07C184.59 4.83 184.88 4.73 185.11 4.84 185.35 4.95 185.45 5.24 185.34 5.47L171.2 35.24C171.12 35.41 170.95 35.51 170.77 35.51Z" fill="#003F4B"/><path d="M163.64 50.54C163.57 50.54 163.5 50.53 163.44 50.49 163.2 50.38 163.1 50.09 163.21 49.86L167.39 41.07C167.5 40.83 167.79 40.73 168.02 40.84 168.26 40.95 168.36 41.24 168.25 41.47L164.07 50.26C163.99 50.43 163.82 50.53 163.64 50.53Z" fill="#003F4B"/></g><g><path d="M50.32 59.13C50.24 59.13 50.17 59.11 50.1 59.07L47.6 57.73C47.37 57.61 47.28 57.32 47.41 57.09 47.53 56.86 47.82 56.77 48.05 56.9L50.55 58.24C50.78 58.36 50.87 58.65 50.74 58.88 50.65 59.04 50.49 59.13 50.32 59.13Z" fill="#003F4B"/><path d="M59.91 64.28C59.83 64.28 59.76 64.26 59.69 64.22L55.01 61.71C54.78 61.59 54.69 61.3 54.82 61.07 54.94 60.84 55.23 60.75 55.46 60.88L60.14 63.39C60.37 63.51 60.46 63.8 60.33 64.03 60.24 64.19 60.08 64.28 59.91 64.28Z" fill="#003F4B"/><path d="M73.58 71.61C73.5 71.61 73.43 71.59 73.36 71.55L63.36 66.19C63.13 66.07 63.04 65.78 63.17 65.55 63.29 65.32 63.58 65.23 63.81 65.36L73.81 70.72C74.04 70.84 74.13 71.13 74 71.36 73.91 71.52 73.75 71.61 73.58 71.61Z" fill="#003F4B"/></g><g><path d="M31.51 98.74C31.51 98.74 31.49 98.74 31.48 98.74L28.44 98.54C28.18 98.52 27.98 98.3 28 98.03 28.02 97.77 28.24 97.58 28.51 97.59L31.55 97.79C31.81 97.81 32.01 98.03 31.99 98.3 31.97 98.55 31.76 98.74 31.52 98.74Z" fill="#003F4B"/><path d="M43.17 99.52C43.17 99.52 43.15 99.52 43.14 99.52L37.45 99.14C37.19 99.12 36.99 98.9 37.01 98.63 37.03 98.37 37.26 98.17 37.52 98.19L43.21 98.57C43.47 98.59 43.67 98.81 43.65 99.08 43.63 99.33 43.42 99.52 43.18 99.52Z" fill="#003F4B"/><path d="M59.8 100.63C59.8 100.63 59.78 100.63 59.77 100.63L47.61 99.81C47.35 99.79 47.15 99.57 47.17 99.3 47.19 99.04 47.42 98.85 47.68 98.86L59.84 99.68C60.1 99.7 60.3 99.92 60.28 100.19 60.26 100.44 60.05 100.63 59.81 100.63Z" fill="#003F4B"/></g><g><path d="M38.29 141.23C38.1 141.23 37.91 141.11 37.84 140.92 37.75 140.67 37.88 140.4 38.13 140.31L40.89 139.32C41.14 139.23 41.41 139.36 41.5 139.61 41.59 139.86 41.46 140.13 41.21 140.22L38.45 141.21C38.4 141.23 38.34 141.24 38.29 141.24Z" fill="#003F4B"/><path d="M46.5 138.3C46.3 138.3 46.12 138.18 46.05 137.98 45.96 137.73 46.09 137.46 46.34 137.37L51.51 135.52C51.76 135.43 52.03 135.56 52.12 135.81 52.21 136.06 52.08 136.33 51.83 136.42L46.66 138.27C46.61 138.29 46.55 138.3 46.5 138.3Z" fill="#003F4B"/><path d="M55.73 135C55.53 135 55.35 134.88 55.28 134.68 55.19 134.43 55.32 134.16 55.57 134.07L66.63 130.12C66.88 130.03 67.15 130.16 67.24 130.41 67.33 130.66 67.2 130.93 66.95 131.02L55.89 134.97C55.84 134.99 55.78 135 55.73 135Z" fill="#003F4B"/></g><g><path d="M74.67 174.44C74.56 174.44 74.44 174.4 74.35 174.32 74.16 174.14 74.14 173.84 74.32 173.65L76.07 171.73C76.25 171.54 76.55 171.52 76.74 171.7 76.93 171.88 76.95 172.18 76.77 172.37L75.02 174.29C74.93 174.39 74.8 174.44 74.67 174.44Z" fill="#003F4B"/><path d="M79.86 168.76C79.75 168.76 79.63 168.72 79.54 168.64 79.35 168.46 79.33 168.16 79.51 167.97L82.78 164.39C82.96 164.2 83.26 164.18 83.45 164.36 83.64 164.54 83.66 164.84 83.48 165.03L80.21 168.61C80.12 168.71 79.99 168.76 79.86 168.76Z" fill="#003F4B"/><path d="M85.7 162.36C85.59 162.36 85.47 162.32 85.38 162.24 85.19 162.06 85.17 161.76 85.35 161.57L92.35 153.91C92.53 153.72 92.83 153.7 93.02 153.88 93.21 154.06 93.23 154.36 93.05 154.55L86.05 162.21C85.96 162.31 85.83 162.36 85.7 162.36Z" fill="#003F4B"/></g><g><path d="M127.84 189.27C127.84 189.27 127.8 189.27 127.79 189.27 127.53 189.24 127.34 189 127.37 188.74L127.63 186.41C127.66 186.15 127.88 185.96 128.16 185.99 128.42 186.02 128.61 186.26 128.58 186.52L128.32 188.85C128.29 189.09 128.09 189.27 127.85 189.27Z" fill="#003F4B"/><path d="M128.63 182.36C128.63 182.36 128.59 182.36 128.58 182.36 128.32 182.33 128.13 182.09 128.16 181.83L128.66 177.47C128.69 177.21 128.93 177.02 129.19 177.05 129.45 177.08 129.64 177.32 129.61 177.58L129.11 181.94C129.08 182.18 128.88 182.36 128.64 182.36Z" fill="#003F4B"/><path d="M129.52 174.58C129.52 174.58 129.48 174.58 129.47 174.58 129.21 174.55 129.02 174.31 129.05 174.05L130.11 164.73C130.14 164.47 130.38 164.28 130.64 164.31 130.9 164.34 131.09 164.58 131.06 164.84L129.99 174.16C129.96 174.4 129.76 174.58 129.52 174.58Z" fill="#003F4B"/></g><g><path d="M183.57 181.74C183.41 181.74 183.25 181.66 183.16 181.51L181.87 179.39C181.73 179.17 181.8 178.87 182.03 178.74 182.25 178.6 182.55 178.67 182.68 178.9L183.97 181.02C184.11 181.24 184.04 181.54 183.81 181.67 183.73 181.72 183.65 181.74 183.56 181.74Z" fill="#003F4B"/><path d="M179.74 175.45C179.58 175.45 179.42 175.37 179.33 175.22L176.92 171.26C176.78 171.04 176.85 170.74 177.08 170.61 177.3 170.47 177.6 170.54 177.73 170.77L180.14 174.73C180.28 174.95 180.21 175.25 179.98 175.38 179.9 175.43 179.82 175.45 179.73 175.45Z" fill="#003F4B"/><path d="M175.44 168.38C175.28 168.38 175.12 168.3 175.03 168.15L169.87 159.67C169.73 159.45 169.8 159.15 170.03 159.02 170.25 158.88 170.55 158.95 170.68 159.18L175.84 167.66C175.98 167.88 175.91 168.18 175.68 168.31 175.6 168.36 175.52 168.38 175.43 168.38Z" fill="#003F4B"/></g><g><path d="M226.92 153.87C226.84 153.87 226.77 153.85 226.7 153.81L224.2 152.47C223.97 152.35 223.88 152.06 224.01 151.83 224.13 151.6 224.42 151.51 224.65 151.64L227.15 152.98C227.38 153.1 227.47 153.39 227.34 153.62 227.25 153.78 227.09 153.87 226.92 153.87Z" fill="#003F4B"/><path d="M219.5 149.89C219.42 149.89 219.35 149.87 219.28 149.83L214.6 147.32C214.37 147.2 214.28 146.91 214.41 146.68 214.53 146.45 214.82 146.36 215.05 146.49L219.73 149C219.96 149.12 220.05 149.41 219.92 149.64 219.83 149.8 219.67 149.89 219.5 149.89Z" fill="#003F4B"/><path d="M211.15 145.42C211.07 145.42 211 145.4 210.93 145.36L200.93 139.99C200.7 139.87 200.61 139.58 200.74 139.35 200.86 139.12 201.15 139.03 201.38 139.16L211.38 144.53C211.61 144.65 211.7 144.94 211.57 145.17 211.48 145.33 211.32 145.42 211.15 145.42Z" fill="#003F4B"/></g><g><path d="M246.27 113.13C246.27 113.13 246.25 113.13 246.24 113.13L243.2 112.93C242.94 112.91 242.74 112.69 242.76 112.42 242.78 112.16 243.01 111.97 243.27 111.98L246.31 112.18C246.57 112.2 246.77 112.42 246.75 112.69 246.73 112.94 246.52 113.13 246.28 113.13Z" fill="#003F4B"/><path d="M237.25 112.53C237.25 112.53 237.23 112.53 237.22 112.53L231.53 112.15C231.27 112.13 231.07 111.91 231.09 111.64 231.11 111.38 231.34 111.18 231.6 111.2L237.29 111.58C237.55 111.6 237.75 111.82 237.73 112.09 237.71 112.34 237.5 112.53 237.26 112.53Z" fill="#003F4B"/><path d="M227.1 111.85C227.1 111.85 227.08 111.85 227.07 111.85L214.91 111.03C214.65 111.01 214.45 110.79 214.47 110.52 214.49 110.26 214.72 110.07 214.98 110.08L227.14 110.9C227.4 110.92 227.6 111.14 227.58 111.41 227.56 111.66 227.35 111.85 227.11 111.85Z" fill="#003F4B"/></g><g><path d="M233.68 71.42C233.49 71.42 233.3 71.3 233.23 71.11 233.14 70.86 233.27 70.59 233.52 70.5L236.28 69.51C236.53 69.42 236.8 69.55 236.89 69.8 236.98 70.05 236.85 70.32 236.6 70.41L233.84 71.4C233.79 71.42 233.73 71.43 233.68 71.43Z" fill="#003F4B"/><path d="M223.07 75.22C222.87 75.22 222.69 75.1 222.62 74.9 222.53 74.65 222.66 74.38 222.91 74.29L228.08 72.44C228.33 72.35 228.6 72.48 228.69 72.73 228.78 72.98 228.65 73.25 228.4 73.34L223.23 75.19C223.18 75.21 223.12 75.22 223.07 75.22Z" fill="#003F4B"/><path d="M207.94 80.62C207.74 80.62 207.56 80.5 207.49 80.3 207.4 80.05 207.53 79.78 207.78 79.69L218.84 75.74C219.09 75.65 219.36 75.78 219.45 76.03 219.54 76.28 219.41 76.55 219.16 76.64L208.1 80.59C208.05 80.61 207.99 80.62 207.94 80.62Z" fill="#003F4B"/></g><g><path d="M198.32 39.14C198.21 39.14 198.09 39.1 198 39.02 197.81 38.84 197.79 38.54 197.97 38.35L199.72 36.43C199.9 36.24 200.2 36.22 200.39 36.4 200.58 36.58 200.6 36.88 200.42 37.07L198.67 38.99C198.58 39.09 198.45 39.14 198.32 39.14Z" fill="#003F4B"/><path d="M191.61 46.49C191.5 46.49 191.38 46.45 191.29 46.37 191.1 46.19 191.08 45.89 191.26 45.7L194.53 42.12C194.71 41.93 195.01 41.91 195.2 42.09 195.39 42.27 195.41 42.57 195.23 42.76L191.96 46.34C191.87 46.44 191.74 46.49 191.61 46.49Z" fill="#003F4B"/><path d="M182.03 56.96C181.92 56.96 181.8 56.92 181.71 56.84 181.52 56.66 181.5 56.36 181.68 56.17L188.68 48.51C188.86 48.32 189.16 48.3 189.35 48.48 189.54 48.66 189.56 48.96 189.38 49.15L182.38 56.81C182.29 56.91 182.16 56.96 182.03 56.96Z" fill="#003F4B"/></g><g><path d="M146.63 24.72C146.63 24.72 146.59 24.72 146.58 24.72 146.32 24.69 146.13 24.46 146.16 24.19L146.42 21.86C146.45 21.6 146.68 21.41 146.95 21.44 147.21 21.47 147.4 21.7 147.37 21.97L147.11 24.3C147.08 24.54 146.88 24.72 146.64 24.72Z" fill="#003F4B"/><path d="M145.61 33.66C145.61 33.66 145.57 33.66 145.56 33.66 145.3 33.63 145.11 33.39 145.14 33.13L145.64 28.77C145.67 28.51 145.91 28.32 146.17 28.35 146.43 28.38 146.62 28.62 146.59 28.88L146.09 33.24C146.06 33.48 145.86 33.66 145.62 33.66Z" fill="#003F4B"/><path d="M144.16 46.4C144.16 46.4 144.12 46.4 144.11 46.4 143.85 46.37 143.66 46.13 143.69 45.87L144.76 36.55C144.79 36.29 145.03 36.1 145.29 36.13 145.55 36.16 145.74 36.4 145.71 36.66L144.65 45.98C144.62 46.22 144.42 46.4 144.18 46.4Z" fill="#003F4B"/></g><g><path d="M92.46 32.04C92.3 32.04 92.14 31.96 92.05 31.81L90.76 29.69C90.62 29.47 90.69 29.17 90.92 29.04 91.14 28.9 91.44 28.97 91.57 29.2L92.86 31.32C93 31.54 92.93 31.84 92.7 31.97 92.62 32.02 92.54 32.04 92.45 32.04Z" fill="#003F4B"/><path d="M97.41 40.17C97.25 40.17 97.09 40.09 97 39.94L94.59 35.98C94.45 35.76 94.52 35.46 94.75 35.33 94.97 35.19 95.27 35.26 95.4 35.49L97.81 39.45C97.95 39.67 97.88 39.97 97.65 40.1 97.57 40.15 97.49 40.17 97.4 40.17Z" fill="#003F4B"/><path d="M104.46 51.76C104.3 51.76 104.14 51.68 104.05 51.53L98.89 43.05C98.75 42.83 98.82 42.53 99.05 42.4 99.27 42.26 99.57 42.33 99.7 42.56L104.86 51.04C105 51.26 104.93 51.56 104.7 51.69 104.62 51.74 104.54 51.76 104.45 51.76Z" fill="#003F4B"/></g></g><path d="M227.64 161.89 182.23 191.91 190.55 140.51 227.64 161.89Z" fill="#AA4805"/><path d="M36.28 49.4 46.36 164.32 227.64 161.89 239.68 47.91 36.28 49.4Z" fill="#FF5C00"/><g><g><path d="M144.52 102.5C141.06 102.5 138.11 101.65 135.72 99.96 133.29 101.64 130.26 102.5 126.67 102.5 123.08 102.5 119.82 101.52 117.34 99.57 114.86 101.51 111.63 102.5 107.73 102.5 105.64 102.5 103.68 102.18 101.88 101.56 101.79 101.53 101.7 101.5 101.61 101.46L101.61 101.88 87.34 101.88C86.23 102.18 85.06 102.34 83.84 102.34 82.62 102.34 81.5 102.19 80.44 101.88L67.76 101.88C66.54 102.24 65.25 102.42 63.92 102.42 61.82 102.42 59.82 102.01 57.98 101.2 56.11 100.37 54.47 99.18 53.1 97.64 51.42 95.78 50.25 93.37 49.62 90.5 49.12 88.23 48.88 84.78 48.88 79.96 48.88 76.54 49.04 73.82 49.37 71.64 49.78 68.9 50.49 66.76 51.55 65.08 53.02 62.75 55.01 60.97 57.46 59.78 59.71 58.7 62.29 58.15 65.14 58.15 69.92 58.15 73.74 59.64 76.47 62.58 77.5 63.69 78.34 65 78.98 66.49L101.6 66.49 101.6 66.99C101.74 66.93 101.88 66.88 102.02 66.83 103.79 66.2 105.8 65.88 107.99 65.88 110.18 65.88 112.35 66.24 114.17 66.95 115.38 67.43 116.48 68.07 117.47 68.86 119.98 66.88 123.12 65.87 126.83 65.87 130.54 65.87 133.43 66.75 135.82 68.48 138.24 66.75 141.21 65.87 144.68 65.87 148.74 65.87 152.08 67 154.6 69.22 156.49 70.89 158.73 73.94 158.73 79.03L158.73 85.68 158.62 85.68C158.85 86.72 158.97 87.83 158.97 88.99 158.97 94.17 156.67 97.3 154.74 99.01 152.14 101.32 148.7 102.48 144.5 102.48Z" fill="#FFFFFF"/><path d="M54.73 96.2C55.89 97.5 57.29 98.52 58.87 99.22 60.44 99.91 62.15 100.26 63.94 100.26 65.18 100.26 66.36 100.08 67.45 99.72L78.55 99.72 78.55 98.6C79.79 99.49 81.5 100.17 83.85 100.17 84.98 100.17 86.05 100.02 87.04 99.71L99.45 99.71 99.45 97.75C100.35 98.45 101.36 99.07 102.58 99.5 104.14 100.04 105.87 100.32 107.72 100.32 111.58 100.32 114.63 99.25 116.81 97.15 117 96.97 117.13 96.75 117.3 96.56 117.55 96.84 117.8 97.11 118.04 97.33 120.2 99.31 123.1 100.32 126.65 100.32 130.2 100.32 133.27 99.33 135.45 97.39 135.53 97.32 135.62 97.23 135.7 97.15 135.76 97.21 135.82 97.28 135.88 97.33 138.04 99.31 140.94 100.32 144.49 100.32 148.04 100.32 151.11 99.33 153.29 97.39 154.89 95.97 156.79 93.36 156.79 88.98 156.79 86.9 156.36 85.06 155.51 83.49L156.55 83.49C156.55 83.49 156.55 79.01 156.55 79.01 156.55 74.73 154.7 72.19 153.15 70.82 151.04 68.95 148.18 68.01 144.66 68.01 141.14 68.01 138.41 68.97 136.23 70.88 136.08 71.01 135.97 71.18 135.82 71.32 135.65 71.14 135.47 70.97 135.3 70.82 133.19 68.95 130.33 68.01 126.81 68.01 123.29 68.01 120.56 68.97 118.38 70.88 118.04 71.18 117.77 71.53 117.48 71.86 116.38 70.59 115.01 69.59 113.37 68.94 111.8 68.33 109.99 68.01 107.98 68.01 105.97 68.01 104.27 68.29 102.73 68.84 101.48 69.28 100.41 69.97 99.43 70.77L99.43 68.63 77.46 68.63C76.9 66.84 76.05 65.3 74.88 64.04 72.57 61.56 69.29 60.3 65.13 60.3 62.61 60.3 60.34 60.78 58.39 61.72 56.31 62.73 54.62 64.24 53.36 66.23 52.47 67.65 51.86 69.52 51.49 71.95 51.18 74.03 51.03 76.65 51.03 79.95 51.03 84.61 51.26 87.91 51.72 90.03 52.27 92.53 53.28 94.61 54.7 96.19Z"/><path d="M208.51 102.5C206.5 102.5 204.6 102.21 202.85 101.63L202.85 101.89 177.07 101.89C176.59 101.97 176.15 102.04 175.75 102.09 174.85 102.2 174.11 102.25 173.47 102.25 171.31 102.25 169.35 101.85 167.64 101.07 165.51 100.09 163.89 98.61 162.82 96.66 162.14 95.37 161.74 94.07 161.52 92.53 161.37 91.44 161.29 89.95 161.29 88L161.29 83.67 158.81 83.67 158.81 66.5 161.29 66.5 161.29 60.15 173.76 60.15 173.76 58.9 192.57 58.9 192.57 66.09C195.13 66.29 197.38 67.25 199.1 68.85 200.21 67.99 201.45 67.32 202.82 66.84 204.59 66.21 206.61 65.89 208.8 65.89 210.99 65.89 213.15 66.25 214.98 66.96 217.09 67.79 218.85 69.06 220.21 70.74 221.36 72.15 222.19 73.82 222.66 75.69 223.05 77.22 223.23 79.31 223.23 82.3L223.23 91.27 222.87 91.27C222.37 94.28 221.12 96.78 219.12 98.72 216.52 101.23 212.96 102.5 208.53 102.5Z" fill="#FFFFFF"/><path d="M220.56 76.22C220.16 74.65 219.48 73.27 218.52 72.1 217.39 70.71 215.93 69.66 214.18 68.97 212.61 68.36 210.8 68.04 208.79 68.04 206.78 68.04 205.08 68.32 203.54 68.87 201.81 69.48 200.34 70.43 199.12 71.74 199.04 71.83 198.99 71.95 198.92 72.04 198.86 71.94 198.81 71.82 198.75 71.73 197.18 69.46 194.61 68.21 191.53 68.21 191.15 68.21 190.78 68.23 190.42 68.26L190.42 61.06 175.93 61.06 175.93 62.31 163.46 62.31 163.46 68.66 160.98 68.66 160.98 81.51 163.46 81.51 163.46 88C163.46 89.85 163.53 91.23 163.67 92.23 163.85 93.5 164.18 94.58 164.72 95.62 165.57 97.15 166.85 98.33 168.55 99.11 169.97 99.76 171.63 100.1 173.48 100.1 174.03 100.1 174.69 100.05 175.48 99.96 175.9 99.91 176.38 99.83 176.9 99.75L200.7 99.75 200.7 98.17C201.49 98.71 202.37 99.19 203.38 99.54 204.94 100.08 206.67 100.36 208.52 100.36 212.38 100.36 215.43 99.29 217.61 97.19 219.64 95.22 220.76 92.51 220.93 89.13L221.07 89.13 221.07 82.32C221.07 79.52 220.91 77.59 220.57 76.24Z"/><path d="M63.36 143.11C60.8 143.11 58.49 142.64 56.49 141.7 54.26 140.66 52.43 139.07 51.07 136.98 50.06 135.4 49.4 133.53 49.04 131.24 48.77 129.5 48.64 126.99 48.64 123.59 48.64 120.19 48.77 117.68 49.04 115.94 49.4 113.65 50.05 111.79 51.03 110.26 52.39 108.16 54.2 106.57 56.41 105.52 58.41 104.57 60.72 104.08 63.25 104.08 67.5 104.08 70.95 105.34 73.51 107.81L74.19 104.69 100.72 104.69C103.39 104.69 105.31 104.83 106.74 105.12 108.7 105.52 110.4 106.29 111.79 107.41 113.35 108.68 114.51 110.25 115.27 112.08 115.94 113.69 116.27 115.53 116.27 117.54 116.27 119.87 115.83 121.97 114.95 123.78 115.59 125.37 115.95 127.2 116.02 129.24L116.06 130.79C116.06 131.45 116.11 131.91 116.14 132.24L116.67 132.67 116.67 104.69 129.26 104.69C131.62 104.69 133.3 104.8 134.54 105.02 135.13 105.13 135.7 105.27 136.25 105.44L136.25 104.68 149.14 104.68C151.81 104.68 153.73 104.82 155.16 105.11 157.12 105.51 158.82 106.28 160.21 107.4 160.25 107.44 160.3 107.47 160.34 107.51L160.96 104.68 207.34 104.68C210.53 104.68 212.88 104.99 214.75 105.66 217.17 106.52 219.12 108.03 220.55 110.13 221.58 111.64 222.28 113.47 222.65 115.56 222.94 117.22 223.07 119.69 223.07 123.58 223.07 127.47 222.94 129.94 222.64 131.59 222.27 133.66 221.58 135.47 220.57 136.98 219.11 139.13 217.15 140.64 214.74 141.51 212.86 142.18 210.51 142.49 207.32 142.49L136.24 142.49 136.24 141.78C136.24 141.78 136.19 141.79 136.17 141.8 134.59 142.27 132.61 142.49 129.92 142.49L68.09 142.49C66.63 142.89 65.04 143.1 63.33 143.1Z" fill="#FFFFFF"/><path d="M218.77 111.36C217.6 109.64 216 108.41 214.03 107.71 212.4 107.13 210.27 106.86 207.34 106.86L176.76 106.86 176.76 109.06 176.28 106.86 162.69 106.86 161.46 112.52C160.85 111.21 160 110.05 158.85 109.11 157.73 108.21 156.34 107.59 154.72 107.25 153.43 106.98 151.66 106.86 149.14 106.86L138.41 106.86 138.41 109.03C138.15 108.84 137.94 108.6 137.66 108.43 136.64 107.83 135.45 107.4 134.15 107.16 133.04 106.96 131.49 106.86 129.26 106.86L118.83 106.86 118.83 137.19 114.16 133.43C114.07 133.11 113.91 132.35 113.89 130.85L113.86 129.33C113.78 126.94 113.27 125.11 112.54 123.72 112.67 123.52 112.78 123.31 112.89 123.1 113.7 121.53 114.11 119.67 114.11 117.56 114.11 115.84 113.83 114.27 113.27 112.92 112.66 111.43 111.71 110.15 110.44 109.11 109.32 108.21 107.93 107.59 106.31 107.25 105.02 106.98 103.25 106.86 100.73 106.86L90 106.86 90 109.06 89.52 106.86 75.93 106.86 74.53 113.29C74.02 112.02 73.38 110.86 72.52 109.9 70.33 107.47 67.22 106.24 63.25 106.24 61.03 106.24 59.04 106.65 57.34 107.47 55.49 108.35 53.99 109.67 52.85 111.43 52.03 112.71 51.48 114.3 51.17 116.28 50.92 117.91 50.79 120.31 50.79 123.6 50.79 126.89 50.91 129.29 51.17 130.92 51.48 132.9 52.03 134.49 52.87 135.81 54.01 137.55 55.54 138.88 57.4 139.75 59.11 140.55 61.11 140.96 63.35 140.96 65.36 140.96 67.14 140.65 68.69 140.04L68.62 140.35 129.93 140.35C132.4 140.35 134.19 140.16 135.56 139.75 136.62 139.44 137.55 138.91 138.41 138.3L138.41 140.34 207.33 140.34C210.26 140.34 212.39 140.07 214.02 139.49 215.99 138.78 217.59 137.56 218.78 135.8 219.62 134.54 220.2 133.01 220.52 131.23 220.79 129.73 220.91 127.3 220.91 123.59 220.91 119.88 220.78 117.45 220.52 115.95 220.2 114.16 219.61 112.61 218.76 111.35Z"/></g><g><path d="M74.44 78.62 74.44 95.37 69.52 95.37 69.2 93.46C68.49 94.28 67.69 94.89 66.83 95.3 65.97 95.71 64.98 95.91 63.88 95.91 62.64 95.91 61.49 95.68 60.44 95.22 59.39 94.76 58.47 94.09 57.69 93.22 56.72 92.15 56.04 90.71 55.65 88.89 55.26 87.07 55.05 84.01 55.05 79.68 55.05 76.6 55.19 74.13 55.47 72.28 55.75 70.43 56.18 69.04 56.76 68.11 57.61 66.77 58.73 65.77 60.12 65.09 61.51 64.41 63.17 64.08 65.09 64.08 68.09 64.08 70.36 64.9 71.88 66.53 73.4 68.16 74.16 70.6 74.16 73.84 74.16 73.96 74.16 74.14 74.14 74.39 74.12 74.64 74.12 74.83 74.12 74.98L67.33 74.98 67.33 74.6C67.33 72.84 67.14 71.58 66.76 70.83 66.38 70.08 65.77 69.7 64.92 69.7 63.91 69.7 63.22 70.16 62.85 71.09 62.48 72.02 62.28 74.18 62.28 77.58L62.28 82.7C62.28 86.1 62.46 88.24 62.82 89.13 63.18 90.02 63.84 90.46 64.8 90.46 65.76 90.46 66.47 90.07 66.9 89.29 67.33 88.51 67.56 87.25 67.56 85.5 67.56 85.1 67.56 84.8 67.56 84.59 67.56 84.38 67.54 84.17 67.53 83.97L64.73 83.97 64.73 78.63 74.44 78.63Z" fill="#FFC200"/><path d="M95.34 72.41 95.34 95.38 89.33 95.38 89.33 92.66C88.62 93.76 87.81 94.56 86.93 95.07 86.05 95.58 85 95.83 83.79 95.83 82.02 95.83 80.71 95.23 79.88 94.04 79.05 92.85 78.63 90.98 78.63 88.42L78.63 72.4 85.06 72.4 85.06 86.59C85.06 88.43 85.18 89.57 85.42 90.01 85.66 90.45 86.08 90.67 86.69 90.67 87.4 90.67 87.96 90.33 88.37 89.64 88.78 88.95 88.98 87.99 88.98 86.74L88.98 72.39 95.35 72.39Z" fill="#FFC200"/><path d="M110.03 87.32 116.04 87.32 116.04 87.9C116.04 90.59 115.34 92.61 113.94 93.96 112.54 95.31 110.45 95.99 107.67 95.99 106.27 95.99 105 95.79 103.86 95.39 102.72 94.99 101.84 94.44 101.2 93.74 100.49 92.93 99.98 91.86 99.67 90.52 99.36 89.18 99.21 87.05 99.21 84.11 99.21 80.87 99.37 78.6 99.68 77.32 99.99 76.04 100.52 74.98 101.28 74.14 102.01 73.36 102.93 72.77 104.05 72.37 105.17 71.97 106.47 71.77 107.95 71.77 109.43 71.77 110.76 71.99 111.86 72.42 112.96 72.85 113.85 73.49 114.54 74.34 115.12 75.05 115.54 75.91 115.79 76.9 116.04 77.89 116.17 79.59 116.17 81.98L116.17 84.74 105.73 84.74C105.72 84.81 105.71 84.89 105.71 85 105.66 85.97 105.63 86.64 105.63 87.02 105.63 88.63 105.8 89.76 106.15 90.38 106.5 91 107.08 91.32 107.92 91.32 108.65 91.32 109.2 91.08 109.57 90.6 109.94 90.12 110.13 89.39 110.13 88.41 110.13 88.21 110.11 87.91 110.07 87.5 110.06 87.42 110.05 87.35 110.05 87.3ZM105.88 80.79 110.19 80.79 110.19 80.67C110.24 80.09 110.27 79.68 110.27 79.44 110.27 78.32 110.09 77.48 109.72 76.95 109.35 76.42 108.79 76.15 108.02 76.15 107.25 76.15 106.68 76.41 106.34 76.93 106 77.45 105.83 78.32 105.83 79.52 105.83 79.85 105.83 80.11 105.83 80.29 105.83 80.47 105.85 80.64 105.86 80.79Z" fill="#FFC200"/><path d="M118.65 88.09 124.39 88.11C124.46 89.3 124.69 90.17 125.08 90.72 125.47 91.27 126.07 91.54 126.87 91.54 127.51 91.54 128.03 91.35 128.44 90.97 128.85 90.59 129.06 90.11 129.06 89.51 129.06 88.99 128.92 88.57 128.63 88.23 128.34 87.89 127.71 87.49 126.73 87.03 126.52 86.92 126.19 86.77 125.74 86.55 123.42 85.48 121.81 84.47 120.9 83.53 120.25 82.89 119.76 82.15 119.41 81.31 119.06 80.47 118.89 79.58 118.89 78.65 118.89 76.56 119.6 74.89 121.02 73.65 122.44 72.41 124.36 71.78 126.79 71.78 129.22 71.78 131.24 72.38 132.6 73.58 133.96 74.78 134.63 76.49 134.63 78.73L134.63 79.15 129.01 79.13C128.98 77.98 128.81 77.16 128.48 76.67 128.15 76.18 127.63 75.94 126.9 75.94 126.25 75.94 125.74 76.12 125.35 76.47 124.96 76.82 124.77 77.28 124.77 77.85 124.77 78.86 125.73 79.78 127.65 80.63 127.91 80.75 128.12 80.84 128.27 80.91 130.89 82.09 132.64 83.23 133.53 84.34 134.42 85.45 134.86 86.91 134.86 88.71 134.86 91.03 134.15 92.82 132.72 94.09 131.29 95.36 129.25 96 126.61 96 123.97 96 122.14 95.36 120.74 94.07 119.34 92.78 118.65 90.99 118.65 88.67L118.65 88.09Z" fill="#FFC200"/><path d="M136.49 88.09 142.23 88.11C142.3 89.3 142.53 90.17 142.92 90.72 143.31 91.27 143.91 91.54 144.71 91.54 145.35 91.54 145.87 91.35 146.28 90.97 146.69 90.59 146.9 90.11 146.9 89.51 146.9 88.99 146.76 88.57 146.47 88.23 146.18 87.89 145.55 87.49 144.57 87.03 144.36 86.92 144.03 86.77 143.58 86.55 141.26 85.48 139.65 84.47 138.74 83.53 138.09 82.89 137.6 82.15 137.25 81.31 136.9 80.47 136.73 79.58 136.73 78.65 136.73 76.56 137.44 74.89 138.86 73.65 140.28 72.41 142.2 71.78 144.63 71.78 147.06 71.78 149.08 72.38 150.44 73.58 151.8 74.78 152.47 76.49 152.47 78.73L152.47 79.15 146.85 79.13C146.82 77.98 146.65 77.16 146.32 76.67 145.99 76.18 145.47 75.94 144.74 75.94 144.09 75.94 143.58 76.12 143.19 76.47 142.8 76.82 142.61 77.28 142.61 77.85 142.61 78.86 143.57 79.78 145.49 80.63 145.75 80.75 145.96 80.84 146.11 80.91 148.73 82.09 150.48 83.23 151.37 84.34 152.26 85.45 152.7 86.91 152.7 88.71 152.7 91.03 151.99 92.82 150.56 94.09 149.13 95.36 147.09 96 144.45 96 141.81 96 139.98 95.36 138.58 94.07 137.18 92.78 136.49 90.99 136.49 88.67L136.49 88.09Z" fill="#FFC200"/><path d="M176.95 95.3C176.17 95.45 175.49 95.55 174.91 95.63 174.33 95.71 173.83 95.74 173.42 95.74 172.15 95.74 171.07 95.53 170.17 95.12 169.27 94.71 168.62 94.12 168.19 93.35 167.91 92.82 167.72 92.16 167.6 91.36 167.48 90.56 167.43 89.34 167.43 87.7L167.43 77.16 164.95 77.16 164.95 72.42 167.43 72.42 167.43 66.07 173.88 66.07 173.88 72.42 176.94 72.42 176.94 77.16 173.88 77.16 173.88 86.53C173.88 88.53 174.03 89.76 174.32 90.22 174.61 90.68 175.17 90.91 176.01 90.91 176.16 90.91 176.39 90.89 176.72 90.85 176.81 90.84 176.89 90.83 176.94 90.83L176.94 95.3Z" fill="#FFC200"/><path d="M179.9 95.37 179.9 64.8 186.29 64.8 186.29 74.84C186.83 73.87 187.53 73.15 188.38 72.67 189.23 72.19 190.26 71.95 191.45 71.95 193.22 71.95 194.52 72.54 195.34 73.73 196.16 74.92 196.57 76.79 196.57 79.36L196.57 95.38 190.2 95.38 190.2 81.19C190.2 79.35 190.08 78.21 189.84 77.76 189.6 77.31 189.18 77.09 188.57 77.09 187.86 77.09 187.3 77.44 186.89 78.13 186.48 78.82 186.28 79.79 186.28 81.04L186.28 95.39 179.89 95.39Z" fill="#FFC200"/><path d="M210.81 87.32 216.82 87.32 216.82 87.9C216.82 90.59 216.12 92.61 214.72 93.96 213.32 95.32 211.23 95.99 208.45 95.99 207.05 95.99 205.78 95.79 204.64 95.39 203.5 94.99 202.62 94.44 201.98 93.74 201.27 92.93 200.76 91.86 200.45 90.52 200.14 89.18 199.99 87.05 199.99 84.11 199.99 80.87 200.15 78.6 200.46 77.32 200.77 76.04 201.3 74.98 202.06 74.14 202.79 73.36 203.71 72.77 204.83 72.37 205.95 71.97 207.25 71.77 208.73 71.77 210.21 71.77 211.54 71.99 212.64 72.42 213.74 72.85 214.63 73.49 215.32 74.34 215.9 75.05 216.32 75.91 216.57 76.9 216.82 77.89 216.95 79.59 216.95 81.98L216.95 84.74 206.51 84.74C206.5 84.81 206.49 84.89 206.49 85 206.44 85.97 206.41 86.64 206.41 87.02 206.41 88.63 206.58 89.76 206.93 90.38 207.28 91 207.86 91.32 208.7 91.32 209.43 91.32 209.98 91.08 210.35 90.6 210.72 90.12 210.91 89.39 210.91 88.41 210.91 88.21 210.89 87.91 210.85 87.5 210.84 87.42 210.83 87.35 210.83 87.3ZM206.66 80.79 210.97 80.79 210.97 80.67C211.02 80.09 211.05 79.68 211.05 79.44 211.05 78.32 210.87 77.48 210.5 76.95 210.13 76.42 209.57 76.15 208.8 76.15 208.03 76.15 207.46 76.41 207.12 76.93 206.78 77.45 206.61 78.32 206.61 79.52 206.61 79.85 206.61 80.11 206.61 80.29 206.61 80.47 206.63 80.64 206.64 80.79Z" fill="#FFC200"/><path d="M65.7 126.17 71.54 126.17C71.55 126.32 71.56 126.49 71.56 126.66 71.56 126.83 71.56 127.1 71.56 127.45 71.56 130.55 70.88 132.85 69.52 134.35 68.16 135.85 66.08 136.6 63.28 136.6 61.63 136.6 60.22 136.33 59.04 135.78 57.86 135.23 56.91 134.4 56.19 133.29 55.68 132.5 55.32 131.4 55.1 129.99 54.88 128.58 54.77 126.35 54.77 123.3 54.77 120.25 54.88 118.01 55.1 116.61 55.32 115.21 55.68 114.1 56.19 113.31 56.9 112.21 57.84 111.38 59.01 110.83 60.18 110.28 61.57 110 63.18 110 65.96 110 68.05 110.77 69.44 112.32 70.83 113.87 71.53 116.18 71.53 119.25L71.53 119.5 65.76 119.48C65.74 117.75 65.54 116.54 65.17 115.84 64.8 115.14 64.17 114.79 63.29 114.79 62.33 114.79 61.68 115.22 61.33 116.07 60.98 116.92 60.8 119.17 60.8 122.82L60.8 123.3C60.8 127.22 60.98 129.63 61.33 130.51 61.68 131.39 62.34 131.84 63.29 131.84 64.18 131.84 64.8 131.52 65.16 130.88 65.52 130.24 65.7 129.04 65.7 127.29L65.7 126.17Z" fill="#FFC200"/><path d="M73.6 135.99 79.14 110.6 86.2 110.6 91.67 135.99 85.73 135.99 84.99 131.13 80.32 131.13 79.58 135.99 73.6 135.99ZM80.94 126.54 84.35 126.54 82.65 115.46 80.94 126.54Z" fill="#FFC200"/><path d="M93.99 135.99 93.99 110.6 100.67 110.6C102.86 110.6 104.45 110.7 105.43 110.9 106.41 111.1 107.22 111.45 107.84 111.95 108.57 112.54 109.11 113.27 109.46 114.14 109.81 115.01 110 116.04 110 117.24 110 118.7 109.74 119.93 109.23 120.92 108.72 121.91 107.92 122.72 106.85 123.36 108.69 124.17 109.65 126.1 109.75 129.15L109.75 129.23C109.76 129.55 109.77 130.01 109.78 130.61 109.82 133.47 110.3 135.26 111.2 135.98L104.26 135.98C104.11 135.45 103.99 134.9 103.92 134.32 103.85 133.74 103.81 133.12 103.81 132.47 103.81 132.06 103.82 131.57 103.84 130.99 103.86 130.41 103.87 130.04 103.87 129.86 103.87 128.31 103.67 127.25 103.26 126.68 102.85 126.11 102.12 125.82 101.07 125.82L99.85 125.82 99.85 135.98 93.98 135.98ZM99.86 121.17C99.96 121.17 100.09 121.17 100.25 121.19 100.41 121.21 100.53 121.21 100.6 121.21 101.83 121.21 102.7 120.96 103.21 120.47 103.72 119.98 103.98 119.14 103.98 117.96 103.98 116.87 103.72 116.1 103.21 115.64 102.7 115.18 101.83 114.96 100.6 114.96 100.52 114.96 100.4 114.96 100.25 114.98 100.1 115 99.96 115 99.86 115L99.86 121.18Z" fill="#FFC200"/><path d="M122.82 135.99 122.82 110.6 129.2 110.6C131.13 110.6 132.52 110.68 133.36 110.83 134.2 110.98 134.93 111.24 135.54 111.6 136.45 112.15 137.14 112.87 137.61 113.78 138.08 114.69 138.31 115.75 138.31 116.98 138.31 118.08 138.09 119.06 137.66 119.91 137.23 120.76 136.53 121.6 135.57 122.42 136.7 122.99 137.55 123.77 138.13 124.75 138.71 125.73 138.99 126.91 138.99 128.29 138.99 129.42 138.8 130.49 138.41 131.5 138.02 132.51 137.49 133.37 136.79 134.09 136.13 134.78 135.32 135.27 134.35 135.56 133.38 135.85 131.89 135.99 129.87 135.99L122.81 135.99ZM128.76 120.53 129.14 120.53C130.31 120.53 131.17 120.29 131.72 119.8 132.27 119.31 132.55 118.56 132.55 117.53 132.55 116.64 132.28 115.96 131.73 115.48 131.18 115 130.39 114.76 129.37 114.76 129.21 114.76 129.08 114.76 128.99 114.76 128.9 114.76 128.83 114.77 128.78 114.78L128.76 120.52ZM128.76 131.51 129.27 131.51C130.51 131.51 131.45 131.22 132.07 130.64 132.69 130.06 133.01 129.19 133.01 128.04 133.01 126.96 132.7 126.17 132.09 125.67 131.48 125.17 130.5 124.92 129.17 124.92L128.76 124.92 128.76 131.51Z" fill="#FFC200"/><path d="M142.41 135.99 142.41 110.6 149.09 110.6C151.28 110.6 152.87 110.7 153.85 110.9 154.83 111.1 155.64 111.45 156.26 111.95 156.99 112.54 157.53 113.27 157.88 114.14 158.23 115.01 158.42 116.04 158.42 117.24 158.42 118.7 158.16 119.93 157.65 120.92 157.14 121.91 156.34 122.72 155.27 123.36 157.11 124.17 158.07 126.1 158.17 129.15L158.17 129.23C158.18 129.55 158.19 130.01 158.2 130.61 158.24 133.47 158.72 135.26 159.62 135.98L152.68 135.98C152.53 135.45 152.41 134.9 152.34 134.32 152.27 133.74 152.23 133.12 152.23 132.47 152.23 132.06 152.24 131.57 152.26 130.99 152.28 130.41 152.29 130.04 152.29 129.86 152.29 128.31 152.09 127.25 151.68 126.68 151.27 126.11 150.54 125.82 149.49 125.82L148.27 125.82 148.27 135.98 142.4 135.98ZM148.28 121.17C148.38 121.17 148.51 121.17 148.67 121.19 148.83 121.21 148.95 121.21 149.02 121.21 150.25 121.21 151.12 120.96 151.63 120.47 152.14 119.98 152.4 119.14 152.4 117.96 152.4 116.87 152.14 116.1 151.63 115.64 151.12 115.18 150.25 114.96 149.02 114.96 148.94 114.96 148.82 114.96 148.67 114.98 148.52 115 148.38 115 148.28 115L148.28 121.18Z" fill="#FFC200"/><path d="M160.36 135.99 165.9 110.6 172.96 110.6 178.43 135.99 172.49 135.99 171.75 131.13 167.08 131.13 166.34 135.99 160.36 135.99ZM167.7 126.54 171.11 126.54 169.41 115.46 167.7 126.54Z" fill="#FFC200"/><path d="M180.76 135.99 180.76 110.6 186.94 110.6 191.87 126.26C191.67 123.62 191.53 121.35 191.43 119.43 191.33 117.51 191.29 115.9 191.29 114.58L191.29 110.59 196.58 110.59 196.58 135.98 190.38 135.98 185.42 119.84C185.64 121.94 185.81 123.98 185.92 125.95 186.03 127.92 186.09 129.84 186.09 131.7L186.09 135.99 180.75 135.99Z" fill="#FFC200"/><path d="M200.74 135.99 200.74 110.6 207.29 110.6C209.69 110.6 211.46 110.81 212.62 111.22 213.78 111.63 214.69 112.34 215.37 113.34 215.9 114.12 216.27 115.13 216.49 116.37 216.71 117.61 216.82 119.92 216.82 123.3 216.82 126.68 216.71 128.99 216.49 130.22 216.27 131.45 215.9 132.46 215.37 133.25 214.69 134.25 213.77 134.96 212.62 135.37 211.47 135.78 209.69 135.99 207.29 135.99L200.74 135.99ZM206.71 115.33 206.71 131.35C206.83 131.37 206.95 131.38 207.06 131.38L207.57 131.38C208.21 131.38 208.74 131.29 209.16 131.12 209.58 130.95 209.93 130.66 210.19 130.28 210.41 129.97 210.56 129.38 210.64 128.5 210.72 127.62 210.76 125.9 210.76 123.32L210.76 122.17C210.76 120.06 210.72 118.63 210.64 117.89 210.56 117.15 210.42 116.64 210.21 116.37 209.98 116.01 209.64 115.74 209.2 115.56 208.76 115.38 208.19 115.3 207.49 115.3 207.28 115.3 207.12 115.3 207 115.3 206.88 115.3 206.78 115.31 206.7 115.32Z" fill="#FFC200"/></g></g></svg>