<svg viewBox="0 0 210.25 90.32" xmlns="http://www.w3.org/2000/svg" xmlns:xlink="http://www.w3.org/1999/xlink" id="Layer_1" overflow="hidden"><defs></defs><ellipse cx="110.59" cy="86.66" rx="91.33" ry="3.67" fill="#B7B6B6"/><g><path d="M129.68 10.65 114.77 27.69 97.73 28.22C97.73 28.22 114.77 10.11 129.68 10.65Z" fill="#2B2C2E"/><path d="M169.09 10.65C169.09 10.65 162.17 3.73 158.44 8.52 154.71 13.31 139.8 28.22 139.8 28.22 139.8 28.22 169.62 31.95 169.09 10.65Z" fill="#2B2C2E"/><path d="M198.38 25.03C198.38 25.03 180.27 9.05 171.75 10.12 163.23 11.18 149.92 22.37 149.92 22.37L198.38 25.03Z" fill="#51151A"/><path d="M67.38 26.63 95.07 5.86 93.47 1.6 56.2 26.09 67.38 26.63Z" fill="#862529"/><path d="M15.9 54.67 1.21 54.67C3.53 46.23 9.37 31.63 20.02 29.26 34.43 26.06 100.1 21.25 100.1 21.25L190.59 21.25C190.59 21.25 209.39 26.05 209.39 33.26 209.39 37.22 211.21 48.69 204.46 58.22L20.87 58.22C20.87 58.22 15.9 54.67 15.9 54.67Z" fill="#862529"/><path d="M15.74 40.83 25.51 40.83C25.51 40.83 26.91 44.03 26.91 44.03L19.23 47.58 5.96 47.58C5.96 47.58 11.55 41.9 15.74 40.83Z" fill="#FEFDFE"/><path d="M3.83 50.95C3.83 52.03 4.7 52.9 5.78 52.9L13.95 52.9C15.03 52.9 15.9 52.03 15.9 50.95L15.9 50.95C15.9 49.87 15.03 49 13.95 49L5.78 49C4.7 49 3.83 49.87 3.83 50.95L3.83 50.95Z" fill="#E27A44"/><path d="M169.35 32.66C184.86 32.66 197.44 45.24 197.44 60.75 197.44 61.37 197.41 61.98 197.37 62.59L192.45 62.59C192.48 62.09 192.51 61.58 192.51 61.07 192.51 50.5 182.14 37.9 169.35 37.9 156.56 37.9 146.18 48.27 146.18 61.07 146.18 61.58 146.2 62.08 146.23 62.59L141.31 62.59C141.27 61.98 141.24 61.37 141.24 60.75 141.24 45.23 153.82 32.66 169.34 32.66Z" fill="#C69198"/><path d="M55.65 32.66C71.17 32.66 83.74 45.24 83.74 60.75 83.74 61.37 83.71 61.98 83.67 62.59L78.75 62.59C78.78 62.09 78.8 61.58 78.8 61.07 78.8 50.5 68.43 37.9 55.63 37.9 42.84 37.9 32.46 48.27 32.46 61.07 32.46 61.58 32.48 62.08 32.51 62.59L27.59 62.59C27.55 61.98 27.52 61.37 27.52 60.75 27.52 45.23 40.1 32.66 55.62 32.66Z" fill="#C69198"/><path d="M15.9 54.67 20.87 58.22 204.46 58.22C198.93 66.01 187.67 72.5 164.96 72.5L22.42 72.5C22.42 72.5 10.41 72.5 10.41 72.5 10.41 72.51 0 62.9 0 60.5 0 59.87 0.38 57.66 1.21 54.68L15.9 54.68Z" fill="#181817"/><path d="M145.19 60C146.01 47.51 156.4 37.63 169.1 37.63 181.8 37.63 192.18 47.51 193 60L145.19 60Z" fill="#181817"/><g><circle cx="168.7" cy="63.07" r="20.75" fill="#545454" transform="matrix(0.999921 -0.012566 0.012566 0.999921 -0.78 2.11)"/><g><path d="M153.56 62.89C153.56 71.24 160.33 78 168.67 78 177.01 78 183.78 71.23 183.78 62.89 183.78 54.55 177.01 47.78 168.67 47.78 160.33 47.78 153.56 54.55 153.56 62.89Z" fill="#E0E1E2"/><g><path d="M166.24 49.75C163.73 49.75 162.7 51.53 163.96 53.7L166.45 58.02C167.7 60.19 169.76 60.19 171.01 58.02L173.5 53.7C174.75 51.53 173.73 49.75 171.22 49.75L166.23 49.75Z" fill="#272626"/><path d="M171.01 59.95 175.33 53.43C175.33 53.43 176.23 52.13 177.21 52.7 177.21 52.7 178.84 53.84 179.08 54.82 179.33 55.8 178.51 56.04 178.51 56.04L173.54 60.52 172.97 61.01C172.97 61.01 171.42 61.91 171.01 59.95Z" fill="#272626"/><path d="M166.44 60.07 162.12 53.55C162.12 53.55 161.22 52.25 160.25 52.82 160.25 52.82 158.62 53.96 158.38 54.94 158.13 55.92 158.95 56.16 158.95 56.16L163.92 60.64 164.49 61.13C164.49 61.13 166.04 62.03 166.45 60.07Z" fill="#272626"/></g><path d="M155.28 66.28C155.28 68.79 157.06 69.82 159.23 68.56L163.55 66.07C165.72 64.82 165.72 62.76 163.55 61.51L159.23 59.02C157.06 57.77 155.28 58.79 155.28 61.3L155.28 66.29Z" fill="#272626"/><g><path d="M171.1 76.99C173.61 76.99 174.64 75.21 173.38 73.04L170.89 68.72C169.64 66.55 167.58 66.55 166.33 68.72L163.84 73.04C162.59 75.21 163.61 76.99 166.12 76.99L171.11 76.99Z" fill="#272626"/><path d="M166.74 66.74 162.42 73.26C162.42 73.26 161.53 74.56 160.54 73.99 160.54 73.99 158.91 72.85 158.67 71.87 158.42 70.89 159.24 70.65 159.24 70.65L164.21 66.17 164.78 65.68C164.78 65.68 166.33 64.78 166.74 66.74Z" fill="#272626"/></g><g><path d="M182.53 60.82C182.53 58.31 180.75 57.28 178.58 58.54L174.26 61.03C172.09 62.28 172.09 64.34 174.26 65.59L178.58 68.08C180.75 69.33 182.53 68.31 182.53 65.8L182.53 60.81Z" fill="#272626"/><path d="M171.85 65.6 178.37 69.92C178.37 69.92 179.67 70.82 179.1 71.79 179.1 71.79 177.96 73.42 176.98 73.66 176 73.9 175.76 73.09 175.76 73.09L171.28 68.12 170.79 67.55C170.79 67.55 169.9 66 171.85 65.59Z" fill="#272626"/></g><path d="M166.47 63.34C166.47 64.62 167.51 65.67 168.79 65.67 170.07 65.67 171.12 64.63 171.12 63.34 171.12 62.05 170.08 61.01 168.79 61.01 167.5 61.01 166.47 62.05 166.47 63.34Z" stroke="#545454" stroke-width="0.72" stroke-miterlimit="10" fill="#E0E1E2"/><path d="M169.72 59.77C169.72 60.2 170.07 60.55 170.49 60.55 170.91 60.55 171.27 60.2 171.27 59.77 171.27 59.34 170.92 58.99 170.49 58.99 170.06 58.99 169.72 59.34 169.72 59.77Z" fill="#97999B"/><path d="M166.32 59.77C166.32 60.2 166.67 60.55 167.09 60.55 167.51 60.55 167.86 60.2 167.86 59.77 167.86 59.34 167.52 58.99 167.09 58.99 166.66 58.99 166.32 59.34 166.32 59.77Z" fill="#97999B"/><path d="M164.53 62.09C164.53 62.52 164.88 62.86 165.3 62.86 165.72 62.86 166.08 62.51 166.08 62.09 166.08 61.67 165.73 61.31 165.3 61.31 164.87 61.31 164.53 61.66 164.53 62.09Z" fill="#97999B"/><path d="M164.65 64.83C164.65 65.26 165 65.61 165.42 65.61 165.84 65.61 166.2 65.26 166.2 64.83 166.2 64.4 165.85 64.06 165.42 64.06 164.99 64.06 164.65 64.41 164.65 64.83Z" fill="#97999B"/><path d="M166.56 66.86C166.56 67.29 166.91 67.63 167.34 67.63 167.77 67.63 168.12 67.28 168.12 66.86 168.12 66.44 167.77 66.08 167.34 66.08 166.91 66.08 166.56 66.43 166.56 66.86Z" fill="#97999B"/><path d="M169.3 66.86C169.3 67.29 169.65 67.64 170.07 67.64 170.49 67.64 170.84 67.29 170.84 66.86 170.84 66.43 170.49 66.08 170.07 66.08 169.65 66.08 169.3 66.43 169.3 66.86Z" fill="#97999B"/><path d="M171.45 64.95C171.45 65.38 171.8 65.73 172.22 65.73 172.64 65.73 172.99 65.38 172.99 64.95 172.99 64.52 172.64 64.18 172.22 64.18 171.8 64.18 171.45 64.53 171.45 64.95Z" fill="#97999B"/><path d="M171.68 61.85C171.68 62.28 172.03 62.62 172.45 62.62 172.87 62.62 173.23 62.27 173.23 61.85 173.23 61.42 172.88 61.07 172.45 61.07 172.02 61.07 171.68 61.42 171.68 61.85Z" fill="#97999B"/></g></g><path d="M31.22 60C32.04 47.51 42.43 37.63 55.13 37.63 67.83 37.63 78.21 47.51 79.04 60L31.22 60Z" fill="#181817"/><g><path d="M33.94 63.04C33.94 74.52 43.25 83.83 54.73 83.83 66.21 83.83 75.52 74.52 75.52 63.04 75.52 51.56 66.21 42.25 54.73 42.25 43.25 42.25 33.94 51.56 33.94 63.04Z" fill="#545454"/><g><path d="M39.57 62.86C39.57 71.22 46.35 78 54.71 78 63.07 78 69.85 71.22 69.85 62.86 69.85 54.5 63.07 47.72 54.71 47.72 46.35 47.72 39.57 54.5 39.57 62.86Z" fill="#E0E1E2"/><g><path d="M52.27 49.69C49.76 49.69 48.73 51.47 49.98 53.65L52.48 57.98C53.74 60.16 55.79 60.16 57.05 57.98L59.55 53.65C60.81 51.47 59.78 49.69 57.26 49.69L52.26 49.69Z" fill="#272626"/><path d="M57.05 59.91 61.37 53.38C61.37 53.38 62.27 52.07 63.25 52.65 63.25 52.65 64.88 53.79 65.12 54.77 65.37 55.75 64.55 55.99 64.55 55.99L59.57 60.48 59 60.97C59 60.97 57.45 61.87 57.04 59.91Z" fill="#272626"/><path d="M52.48 60.02 48.15 53.49C48.15 53.49 47.25 52.19 46.27 52.76 46.27 52.76 44.64 53.9 44.39 54.88 44.15 55.86 44.96 56.11 44.96 56.11L49.94 60.6 50.51 61.09C50.51 61.09 52.06 61.99 52.47 60.03Z" fill="#272626"/></g><path d="M41.3 66.25C41.3 68.76 43.08 69.79 45.26 68.53L49.58 66.03C51.76 64.77 51.76 62.72 49.58 61.46L45.26 58.96C43.08 57.7 41.3 58.73 41.3 61.24L41.3 66.24Z" fill="#272626"/><g><path d="M57.14 76.98C59.65 76.98 60.68 75.2 59.42 73.02L56.92 68.69C55.66 66.51 53.61 66.51 52.35 68.69L49.85 73.02C48.59 75.2 49.62 76.98 52.13 76.98L57.13 76.98Z" fill="#272626"/><path d="M52.77 66.71 48.44 73.24C48.44 73.24 47.54 74.55 46.56 73.97 46.56 73.97 44.93 72.83 44.68 71.85 44.43 70.87 45.25 70.63 45.25 70.63L50.23 66.14 50.8 65.65C50.8 65.65 52.35 64.75 52.76 66.71Z" fill="#272626"/></g><g><path d="M68.59 60.78C68.59 58.27 66.81 57.24 64.63 58.49L60.3 60.99C58.12 62.25 58.12 64.3 60.3 65.56L64.63 68.06C66.81 69.32 68.59 68.29 68.59 65.77L68.59 60.78Z" fill="#272626"/><path d="M57.89 65.56 64.42 69.89C64.42 69.89 65.72 70.79 65.15 71.77 65.15 71.77 64.01 73.4 63.03 73.65 62.05 73.9 61.8 73.08 61.8 73.08L57.31 68.1 56.82 67.53C56.82 67.53 55.92 65.98 57.88 65.57Z" fill="#272626"/></g><path d="M52.5 63.31C52.5 64.6 53.54 65.64 54.83 65.64 56.12 65.64 57.16 64.6 57.16 63.31 57.16 62.02 56.12 60.98 54.83 60.98 53.54 60.98 52.5 62.02 52.5 63.31Z" stroke="#545454" stroke-width="0.72" stroke-miterlimit="10" fill="#E0E1E2"/><path d="M55.76 59.72C55.76 60.15 56.11 60.5 56.53 60.5 56.95 60.5 57.31 60.15 57.31 59.72 57.31 59.29 56.96 58.94 56.53 58.94 56.1 58.94 55.76 59.29 55.76 59.72Z" fill="#97999B"/><path d="M52.35 59.72C52.35 60.15 52.7 60.5 53.13 60.5 53.56 60.5 53.9 60.15 53.9 59.72 53.9 59.29 53.55 58.94 53.13 58.94 52.71 58.94 52.35 59.29 52.35 59.72Z" fill="#97999B"/><path d="M50.56 62.05C50.56 62.48 50.91 62.83 51.34 62.83 51.77 62.83 52.12 62.48 52.12 62.05 52.12 61.62 51.78 61.27 51.34 61.27 50.9 61.27 50.56 61.62 50.56 62.05Z" fill="#97999B"/><path d="M50.68 64.8C50.68 65.23 51.02 65.58 51.45 65.58 51.88 65.58 52.23 65.23 52.23 64.8 52.23 64.37 51.88 64.02 51.45 64.02 51.02 64.02 50.68 64.37 50.68 64.8Z" fill="#97999B"/><path d="M52.59 66.83C52.59 67.26 52.94 67.61 53.37 67.61 53.8 67.61 54.15 67.26 54.15 66.83 54.15 66.4 53.8 66.05 53.37 66.05 52.94 66.05 52.59 66.4 52.59 66.83Z" fill="#97999B"/><path d="M55.34 66.83C55.34 67.26 55.69 67.61 56.12 67.61 56.55 67.61 56.9 67.26 56.9 66.83 56.9 66.4 56.55 66.05 56.12 66.05 55.69 66.05 55.34 66.4 55.34 66.83Z" fill="#97999B"/><path d="M57.49 64.92C57.49 65.35 57.84 65.7 58.27 65.7 58.7 65.7 59.05 65.35 59.05 64.92 59.05 64.49 58.7 64.14 58.27 64.14 57.84 64.14 57.49 64.49 57.49 64.92Z" fill="#97999B"/><path d="M57.73 61.81C57.73 62.24 58.08 62.59 58.51 62.59 58.94 62.59 59.29 62.24 59.29 61.81 59.29 61.38 58.94 61.03 58.51 61.03 58.08 61.03 57.73 61.38 57.73 61.81Z" fill="#97999B"/></g></g><path d="M83.71 23.79 77.68 18.82 72.35 23.08 73.06 24.85 83.71 23.79Z" fill="#221F20"/><path d="M94.01 0C94.01 0 91.52 3.2 89.04 4.97L62.06 24.14 58.16 24.85 53.54 24.85C53.54 24.85 85.13 1.06 94.01 0Z" fill="#80C2DC"/><path d="M62.05 28.05C62.05 28.05 56.07 27.64 52.85 29.27 49.63 30.89 33.3 33.73 33.3 33.73L11.29 37.28C11.29 37.28 14.84 33.73 23.01 31.24L54.25 26.98C54.25 26.98 67.03 24.14 62.06 28.05Z" fill="#C69198"/><path d="M177.44 26.63C177.44 28.79 179.19 30.53 181.34 30.53 183.49 30.53 185.25 28.78 185.25 26.63 185.25 24.48 183.5 22.72 181.34 22.72 179.18 22.72 177.44 24.47 177.44 26.63Z" stroke="#221F20" stroke-width="1.07" stroke-miterlimit="10" fill="none"/><path d="M210.1 35.15 204.42 36.57C204.42 36.57 204.42 46.16 203 48.29L208.68 50.06C208.68 50.06 210.81 43.67 210.1 35.15Z" fill="#CD3B27"/><path d="M110.66 24.57C110.66 25.7 111.58 26.62 112.71 26.62L122.49 26.62C123.62 26.62 124.54 25.7 124.54 24.57L124.54 24.57C124.54 23.44 123.62 22.52 122.49 22.52L112.71 22.52C111.58 22.52 110.66 23.44 110.66 24.57L110.66 24.57Z" fill="#51151A"/><path d="M68.8 22.54C68.8 25.19 70.94 27.33 73.59 27.33L75.36 27.33C78.01 27.33 80.15 25.19 80.15 22.54L80.15 22.54C80.15 19.89 78.01 17.75 75.36 17.75L73.59 17.75C70.94 17.75 68.8 19.9 68.8 22.54L68.8 22.54Z" fill="#51151A"/><path d="M147.26 38.34C147.26 38.34 140.34 52.72 98.27 53.25L86.02 53.25C86.02 53.25 123.3 52.72 131.28 44.73 131.28 44.73 149.92 25.56 173.35 28.75 173.35 28.75 152.58 30.88 147.26 38.33Z" fill="#C69198"/><path d="M141.93 31.95 79.62 37.27C79.62 37.27 71.63 32.48 69.5 32.48 67.37 32.48 164.82 28.75 164.82 28.75 164.82 28.75 150.44 31.95 141.92 31.95Z" fill="#C69198"/><path d="M158.97 19.17 148.85 28.22C148.85 28.22 138.73 44.2 138.73 46.33 138.73 48.46 136.07 55.91 133.4 55.91 130.73 55.91 88.13 55.91 88.13 55.91L73.04 24.85" stroke="#51151A" stroke-width="1.07" stroke-miterlimit="10" fill="none"/><path d="M23.71 42.07 19.22 47.57 13.05 47.57C13.05 47.57 18.38 42.6 23.7 42.07Z" fill="#F39331"/></g></svg>