<svg viewBox="0 0 224.27 106.58" xmlns="http://www.w3.org/2000/svg" xmlns:xlink="http://www.w3.org/1999/xlink" id="Layer_1" overflow="hidden"><defs><linearGradient x1="105.8" y1="11.65" x2="108.39" y2="74.12" gradientUnits="userSpaceOnUse" id="linear-gradient" gradientTransform="matrix(0.999341 -0.0362949 0.0362949 0.999341 11.53 15.15)"><stop offset="0.07" stop-color="#EEBB2D"/><stop offset="1" stop-color="#EED933"/></linearGradient><radialGradient cx="181.66" cy="60.51" r="16.88" fx="181.66" fy="60.51" gradientUnits="userSpaceOnUse" id="radial-gradient" gradientTransform="matrix(0.999341 -0.0362949 0.0362949 0.999341 11.53 15.15)"><stop offset="0" stop-color="#FFFFFF"/><stop offset="0" stop-color="#FFFFFF"/><stop offset="0.27" stop-color="#FFFFFF"/><stop offset="0.35" stop-color="#CECECE"/><stop offset="0.46" stop-color="#989898"/><stop offset="0.57" stop-color="#6A6A6A"/><stop offset="0.68" stop-color="#474747"/><stop offset="0.77" stop-color="#2E2E2E"/><stop offset="0.86" stop-color="#1F1F1F"/><stop offset="0.93" stop-color="#1A1A1A"/></radialGradient><radialGradient cx="181.07" cy="60.84" r="12.3" fx="181.07" fy="60.84" gradientUnits="userSpaceOnUse" id="radial-gradient-2" gradientTransform="matrix(0.999341 -0.0362949 0.0362949 0.999341 11.53 15.15)"><stop offset="0.79" stop-color="#99B8B6"/><stop offset="0.8" stop-color="#9CBBB9"/><stop offset="0.84" stop-color="#B6D3D2"/><stop offset="0.89" stop-color="#C9E4E3"/><stop offset="0.95" stop-color="#D5EEEE"/><stop offset="1" stop-color="#D9F2F2"/></radialGradient><radialGradient cx="181.26" cy="60.52" r="8.55" fx="181.26" fy="60.52" gradientUnits="userSpaceOnUse" id="radial-gradient-3" gradientTransform="matrix(0.999341 -0.0362949 0.0362949 0.999341 11.53 15.15)"><stop offset="0" stop-color="#FFFFFF"/><stop offset="0" stop-color="#FFFFFF"/><stop offset="0.09" stop-color="#FFFFFF"/><stop offset="0.2" stop-color="#CECECE"/><stop offset="0.34" stop-color="#989898"/><stop offset="0.48" stop-color="#6A6A6A"/><stop offset="0.61" stop-color="#474747"/><stop offset="0.73" stop-color="#2E2E2E"/><stop offset="0.84" stop-color="#1F1F1F"/><stop offset="0.93" stop-color="#1A1A1A"/></radialGradient><radialGradient cx="180.82" cy="60.73" r="11.28" fx="180.82" fy="60.73" gradientUnits="userSpaceOnUse" id="radial-gradient-4" gradientTransform="matrix(0.999341 -0.0362949 0.0362949 0.999341 11.53 15.15)"><stop offset="0" stop-color="#FFFFFF"/><stop offset="0.21" stop-color="#F3F6F5" stop-opacity="0.99"/><stop offset="0.58" stop-color="#D6E3DD" stop-opacity="0.95"/></radialGradient><radialGradient cx="42.68" cy="55.36" r="16.88" fx="42.68" fy="55.36" xlink:href="#radial-gradient" id="radial-gradient-5"></radialGradient><radialGradient cx="42.09" cy="55.69" r="12.3" fx="42.09" fy="55.69" xlink:href="#radial-gradient-2" id="radial-gradient-6"></radialGradient><radialGradient cx="42.28" cy="55.36" r="8.55" fx="42.28" fy="55.36" xlink:href="#radial-gradient-3" id="radial-gradient-7"></radialGradient><radialGradient cx="41.84" cy="55.58" r="11.28" fx="41.84" fy="55.58" xlink:href="#radial-gradient-4" id="radial-gradient-8"></radialGradient><linearGradient x1="-1.53" y1="17.01" x2="196.93" y2="17.01" gradientUnits="userSpaceOnUse" id="linear-gradient-2" gradientTransform="matrix(0.999341 -0.0362949 0.0362949 0.999341 11.53 15.15)"><stop offset="0.06" stop-color="#F7D877"/><stop offset="0.11" stop-color="#F2C55F"/><stop offset="0.18" stop-color="#EDAF43"/><stop offset="0.27" stop-color="#E99D2C"/><stop offset="0.36" stop-color="#E58F1A"/><stop offset="0.48" stop-color="#E3850E"/><stop offset="0.63" stop-color="#E27F07"/><stop offset="1" stop-color="#E27E05"/></linearGradient><linearGradient x1="116.36" y1="25" x2="116.49" y2="30.25" gradientUnits="userSpaceOnUse" id="linear-gradient-3" gradientTransform="matrix(0.999341 -0.0362949 0.0362949 0.999341 11.53 15.15)"><stop offset="0.07" stop-color="#F49211"/><stop offset="1" stop-color="#EEBB2D"/></linearGradient><linearGradient x1="167.69" y1="22.93" x2="167.38" y2="27.55" xlink:href="#linear-gradient-3" id="linear-gradient-4"></linearGradient><linearGradient x1="185.19" y1="31.15" x2="193.48" y2="31.15" xlink:href="#linear-gradient-3" id="linear-gradient-5"></linearGradient><linearGradient x1="193.6" y1="26.76" x2="208.77" y2="29.43" gradientUnits="userSpaceOnUse" id="linear-gradient-6" gradientTransform="matrix(0.999341 -0.0362949 0.0362949 0.999341 11.53 15.15)"><stop offset="0" stop-color="#FFFFFF"/><stop offset="1" stop-color="#D6E3DD" stop-opacity="0"/></linearGradient><linearGradient x1="8.61" y1="54.91" x2="9.68" y2="38.83" gradientUnits="userSpaceOnUse" id="linear-gradient-7" gradientTransform="matrix(0.999341 -0.0362949 0.0362949 0.999341 11.53 15.15)"><stop offset="0" stop-color="#EEBB2D"/><stop offset="0.1" stop-color="#E9A51E"/><stop offset="0.22" stop-color="#E69313"/><stop offset="0.36" stop-color="#E3870B"/><stop offset="0.55" stop-color="#E28006"/><stop offset="1" stop-color="#E27E05"/></linearGradient><linearGradient x1="11.1" y1="47.56" x2="13.34" y2="47.56" gradientUnits="userSpaceOnUse" id="linear-gradient-8" gradientTransform="matrix(0.999341 -0.0362949 0.0362949 0.999341 11.53 15.15)"><stop offset="0" stop-color="#6D6E71"/><stop offset="0.05" stop-color="#5C5D60"/><stop offset="0.21" stop-color="#343536"/><stop offset="0.35" stop-color="#171818"/><stop offset="0.47" stop-color="#060606"/><stop offset="0.55"/></linearGradient><linearGradient x1="191.8" y1="11.99" x2="193.47" y2="10.67" gradientUnits="userSpaceOnUse" id="linear-gradient-9" gradientTransform="matrix(0.999341 -0.0362949 0.0362949 0.999341 11.53 15.15)"><stop offset="0.14" stop-color="#F1F2F2"/><stop offset="0.23" stop-color="#D7D8D9"/><stop offset="0.37" stop-color="#B8B9BB"/><stop offset="0.51" stop-color="#9FA1A3"/><stop offset="0.66" stop-color="#8D8F92"/><stop offset="0.81" stop-color="#838588"/><stop offset="1" stop-color="#808285"/></linearGradient><linearGradient x1="136.37" y1="62.8" x2="136.37" y2="56.26" gradientUnits="userSpaceOnUse" id="linear-gradient-10" gradientTransform="matrix(0.999341 -0.0362949 0.0362949 0.999341 11.53 15.15)"><stop offset="0.07" stop-color="#E27E05"/><stop offset="0.52" stop-color="#E59C0A"/></linearGradient><linearGradient x1="19.37" y1="24.1" x2="28.16" y2="33.66" xlink:href="#linear-gradient-8" id="linear-gradient-11"></linearGradient><linearGradient x1="49.27" y1="21.7" x2="49.8" y2="26.94" gradientUnits="userSpaceOnUse" id="linear-gradient-12" gradientTransform="matrix(0.999341 -0.0362949 0.0362949 0.999341 11.53 15.15)"><stop offset="0.06" stop-color="#F7D877"/><stop offset="0.1" stop-color="#F3CD64"/><stop offset="0.18" stop-color="#EFBE48"/><stop offset="0.26" stop-color="#EBB131"/><stop offset="0.36" stop-color="#E8A71F"/><stop offset="0.47" stop-color="#E6A113"/><stop offset="0.63" stop-color="#E59D0C"/><stop offset="1" stop-color="#E59C0A"/></linearGradient><linearGradient x1="169.19" y1="1.04" x2="169.87" y2="-3.89" xlink:href="#linear-gradient-7" id="linear-gradient-13"></linearGradient><linearGradient x1="123.45" y1="-8.98" x2="121.42" y2="31.07" gradientUnits="userSpaceOnUse" id="linear-gradient-14" gradientTransform="matrix(0.999341 -0.0362949 0.0362949 0.999341 11.53 15.15)"><stop offset="0.03" stop-color="#F0F0F0"/><stop offset="0.06" stop-color="#C5C5C5"/><stop offset="0.1" stop-color="#979797"/><stop offset="0.15" stop-color="#6E6E6E"/><stop offset="0.19" stop-color="#4C4C4C"/><stop offset="0.24" stop-color="#303030"/><stop offset="0.29" stop-color="#1A1A1A"/><stop offset="0.35" stop-color="#0B0B0B"/><stop offset="0.42" stop-color="#020202"/><stop offset="0.52"/></linearGradient><linearGradient x1="141.31" y1="1.68" x2="159.89" y2="18.59" gradientUnits="userSpaceOnUse" id="linear-gradient-15" gradientTransform="matrix(0.999341 -0.0362949 0.0362949 0.999341 11.53 15.15)"><stop offset="0.1" stop-color="#282526"/><stop offset="0.48" stop-color="#414042"/><stop offset="1" stop-color="#231F20"/></linearGradient><linearGradient x1="72" y1="16.39" x2="81.16" y2="8.62" gradientUnits="userSpaceOnUse" id="linear-gradient-16" gradientTransform="matrix(0.999341 -0.0362949 0.0362949 0.999341 11.53 15.15)"><stop offset="0.26" stop-color="#58595B"/><stop offset="0.36" stop-color="#474749"/><stop offset="0.44" stop-color="#414042"/><stop offset="0.5" stop-color="#464648"/><stop offset="0.59" stop-color="#575759"/><stop offset="0.67" stop-color="#6D6E71"/><stop offset="1" stop-color="#231F20"/></linearGradient><linearGradient x1="80.41" y1="14.27" x2="74.55" y2="18.82" gradientUnits="userSpaceOnUse" id="linear-gradient-17" gradientTransform="matrix(0.999341 -0.0362949 0.0362949 0.999341 11.53 15.15)"><stop offset="0.03" stop-color="#575757"/><stop offset="0.05" stop-color="#4B4B4B"/><stop offset="0.12" stop-color="#303030"/><stop offset="0.2" stop-color="#1A1A1A"/><stop offset="0.28" stop-color="#0B0B0B"/><stop offset="0.38" stop-color="#020202"/><stop offset="0.52"/></linearGradient><linearGradient x1="93.87" y1="1.86" x2="119.09" y2="20.33" xlink:href="#linear-gradient-15" id="linear-gradient-18"></linearGradient></defs><ellipse cx="131.89" cy="85.63" rx="91.33" ry="3.13" fill="#B7B6B6"/><g><path d="M224.08 57.72C224.08 57.72 224.06 58.76 223.93 60.25 223.64 63.74 222.8 69.69 220.45 70.34 220.45 70.34 215.59 71.58 214.63 71.04 214.63 71.04 214.42 54.51 200.73 50.75 192.62 48.54 177.05 49 175.62 73.12 175.62 73.12 84 74.24 77.84 75.47 77.84 75.47 75.42 75.12 75.78 71.36 75.78 71.36 75.79 70.55 75.66 69.25 75.17 64.24 72.57 51.89 59.09 49.54 59.09 49.54 39.76 45.83 36.47 67.52 36.32 68.54 36.2 69.61 36.13 70.74 36.04 71.86 36 73.05 36 74.29 36 74.29 28.71 76.26 25.59 73.89 25.59 73.89 17.99 74.21 17.84 73.81L17.45 71.7C17.45 71.7 17.52 71.61 17.64 71.45 18.29 70.6 20.24 67.82 18.46 67.68 18.46 67.68 16.82 61.45 17.51 54.68 18.26 47.32 21.77 39.33 33.14 38.02 33.14 38.02 60.43 31.47 67.82 27.33 81.26 19.81 103.92 4.32 138.01 4.99 152.73 5.28 176.96 4.09 196.79 8.66 196.79 8.66 197.75 9.8 198.22 11.42 198.22 11.42 212.34 25.3 213.15 26 213.83 26.58 214.49 27.16 215.11 27.74 216.08 28.64 216.97 29.55 217.72 30.51 220.11 33.57 221.09 37.18 218.91 42.76 218.91 42.76 225.43 52.73 224.09 57.73Z" fill="url(#linear-gradient)"/><g><g><path d="M40.74 74.99 36.01 74.29C36.01 74.29 33.34 50.35 54.9 49.17 63.1 48.72 77.15 53.7 75.97 74.37 75.97 74.37 73.71 77.35 69.99 78.04 69.99 78.04 80.54 59.77 59.7 53.42 52.35 51.18 38.23 57.08 40.74 74.99Z" fill="#111111"/><path d="M178.53 72.77 175.51 73.04C175.51 73.04 173.09 51.61 193.63 49.28 201.79 48.35 215.68 54.73 214.63 71.04 214.63 71.04 214.27 69.42 211.84 70.28 211.84 70.28 211.55 58.89 199.18 54.4 191.96 51.78 178.2 55.05 178.53 72.77Z" fill="#111111"/></g><g><path d="M212.41 69.2C212.32 78.37 204.57 85.73 195.1 85.63 185.63 85.53 178.03 78.02 178.13 68.85 178.22 59.68 185.97 52.32 195.44 52.42 204.91 52.52 212.51 60.03 212.41 69.2Z" fill="url(#radial-gradient)"/><path d="M207.06 69.5C206.99 76.25 201.4 81.66 194.56 81.59 187.72 81.52 182.24 75.99 182.31 69.25 182.38 62.5 187.97 57.09 194.81 57.16 201.65 57.23 207.13 62.76 207.06 69.5Z" fill="url(#radial-gradient-2)"/><path d="M203.37 69.13C203.32 73.87 199.47 77.67 194.77 77.63 190.07 77.58 186.3 73.7 186.35 68.96 186.4 64.22 190.25 60.42 194.95 60.46 199.65 60.5 203.42 64.39 203.37 69.13Z" fill="url(#radial-gradient-3)"/><path d="M205.41 71.31 205.65 67.89 198.63 67.78C198.59 67.65 198.54 67.53 198.49 67.41L203.84 63.13 201.61 60.53 196.57 65.35C196.45 65.29 196.33 65.23 196.21 65.17L197.05 58.21 193.63 57.99 193.4 64.9C193.22 64.94 193.05 64.99 192.89 65.04L188.4 59.64 185.89 61.97 190.63 66.75C190.43 67.05 190.26 67.38 190.14 67.73L183.21 67.38 183.23 70.81 190.15 70.55C190.19 70.66 190.23 70.76 190.28 70.87L184.97 75.61 187.39 78.04 192.19 72.93C192.38 73.03 192.58 73.12 192.79 73.2L191.58 80.1 194.97 80.58 195.65 73.31C195.78 73.27 195.91 73.23 196.03 73.18L195.95 73.24 200.2 78.94 202.88 76.8 198.14 71.49C198.32 71.22 198.47 70.93 198.59 70.62L205.42 71.33Z" fill="url(#radial-gradient-4)"/><g><path d="M194.01 66.87C194.01 67.38 193.58 67.79 193.07 67.79 192.56 67.79 192.15 67.36 192.15 66.85 192.15 66.34 192.58 65.93 193.09 65.93 193.6 65.93 194.01 66.36 194.01 66.87Z" fill="#D6E3DD"/><path d="M198 67.36C198 67.87 197.57 68.28 197.06 68.28 196.55 68.28 196.14 67.85 196.14 67.34 196.14 66.83 196.57 66.42 197.08 66.42 197.59 66.42 198 66.85 198 67.36Z" fill="#D6E3DD"/><path d="M197.44 71.31C197.44 71.82 197.01 72.23 196.5 72.23 195.99 72.23 195.58 71.8 195.58 71.29 195.58 70.78 196.01 70.37 196.52 70.37 197.03 70.37 197.44 70.8 197.44 71.31Z" fill="#D6E3DD"/><path d="M193.4 70.82C193.4 71.33 192.97 71.74 192.46 71.74 191.95 71.74 191.54 71.31 191.54 70.8 191.54 70.29 191.97 69.88 192.48 69.88 192.99 69.88 193.4 70.31 193.4 70.82Z" fill="#D6E3DD"/></g></g></g><g><path d="M73.34 69.09C73.25 78.26 65.5 85.62 56.03 85.52 46.56 85.42 38.96 77.91 39.06 68.74 39.16 59.57 46.9 52.21 56.37 52.31 65.84 52.41 73.44 59.92 73.34 69.09Z" fill="url(#radial-gradient-5)"/><path d="M67.99 69.39C67.92 76.14 62.33 81.55 55.49 81.48 48.65 81.41 43.17 75.88 43.24 69.14 43.31 62.39 48.9 56.98 55.74 57.05 62.58 57.12 68.06 62.65 67.99 69.39Z" fill="url(#radial-gradient-6)"/><path d="M64.3 69.02C64.25 73.76 60.4 77.56 55.7 77.52 51 77.48 47.23 73.59 47.28 68.85 47.33 64.11 51.18 60.31 55.88 60.35 60.58 60.4 64.35 64.28 64.3 69.02Z" fill="url(#radial-gradient-7)"/><path d="M66.34 71.21 66.58 67.79 59.56 67.68C59.52 67.55 59.47 67.43 59.42 67.31L64.77 63.03 62.54 60.43 57.5 65.25C57.38 65.19 57.26 65.13 57.14 65.07L57.98 58.11 54.56 57.89 54.33 64.8C54.15 64.84 53.98 64.89 53.82 64.94L49.33 59.54 46.82 61.87 51.56 66.65C51.36 66.95 51.19 67.28 51.07 67.63L44.14 67.28 44.16 70.71 51.08 70.45C51.12 70.56 51.16 70.66 51.21 70.77L45.9 75.51 48.32 77.94 53.12 72.83C53.31 72.93 53.51 73.02 53.72 73.1L52.51 80 55.9 80.48 56.58 73.21C56.71 73.17 56.84 73.13 56.96 73.08L56.88 73.14 61.13 78.84 63.81 76.7 59.07 71.39C59.25 71.12 59.4 70.83 59.52 70.52L66.35 71.23Z" fill="url(#radial-gradient-8)"/><g><path d="M54.94 66.77C54.94 67.28 54.51 67.69 54 67.69 53.49 67.69 53.08 67.26 53.08 66.75 53.08 66.24 53.51 65.83 54.02 65.83 54.53 65.83 54.94 66.26 54.94 66.77Z" fill="#D6E3DD"/><path d="M58.93 67.25C58.93 67.76 58.5 68.17 57.99 68.17 57.48 68.17 57.07 67.74 57.07 67.23 57.07 66.72 57.5 66.31 58.01 66.31 58.52 66.31 58.93 66.74 58.93 67.25Z" fill="#D6E3DD"/><path d="M58.37 71.21C58.37 71.72 57.94 72.13 57.43 72.13 56.92 72.13 56.51 71.7 56.51 71.19 56.51 70.68 56.94 70.27 57.45 70.27 57.96 70.27 58.37 70.7 58.37 71.21Z" fill="#D6E3DD"/><path d="M54.33 70.72C54.33 71.23 53.9 71.64 53.39 71.64 52.88 71.64 52.47 71.21 52.47 70.7 52.47 70.19 52.9 69.78 53.41 69.78 53.92 69.78 54.33 70.21 54.33 70.72Z" fill="#D6E3DD"/></g></g><g><path d="M215.11 27.74C215.11 27.74 215.08 27.74 215.07 27.74 213.02 28.04 205.5 26.46 205.5 26.46 201.31 26.48 196.32 26.63 190.74 26.88 159.55 28.28 109.85 32.8 77.61 35.91 58.97 37.72 46.17 39.06 46.17 39.06 37.05 46.08 17.57 54.71 17.57 54.71L17.51 54.68C18.26 47.32 21.77 39.33 33.14 38.02 33.14 38.02 37.89 36.88 43.97 35.25 52.45 32.98 63.52 29.74 67.83 27.34 81.27 19.82 103.93 4.33 138.02 5 152.74 5.29 176.97 4.1 196.8 8.67 196.8 8.67 197.76 9.81 198.23 11.43L198.23 11.43C198.58 11.78 210.6 23.6 212.83 25.71 212.99 25.87 213.1 25.96 213.15 26.01 213.83 26.59 214.49 27.17 215.11 27.75Z" fill="url(#linear-gradient-2)"/><path d="M135.25 36.84C135.35 38.22 132.54 39.54 128.98 39.79 125.42 40.04 122.45 39.12 122.36 37.74 122.27 36.36 125.07 35.04 128.63 34.79 132.19 34.54 135.16 35.46 135.25 36.84Z" fill="url(#linear-gradient-3)"/><path d="M186.36 33.13C186.35 34.51 183.44 35.6 179.87 35.57 176.3 35.53 173.42 34.38 173.43 33 173.44 31.62 176.35 30.53 179.92 30.56 183.49 30.6 186.37 31.75 186.36 33.13Z" fill="url(#linear-gradient-4)"/><path d="M206.01 39.45C205.99 41.74 204.11 43.58 201.82 43.55 199.53 43.53 197.69 41.65 197.72 39.36 197.74 37.07 199.62 35.23 201.91 35.26 204.2 35.28 206.04 37.16 206.01 39.45Z" fill="url(#linear-gradient-5)"/><path d="M78.52 24.96C78.52 24.96 59.02 35.86 67.31 35.94L77.61 35.92C77.61 35.92 76.96 29.8 78.52 24.96Z" fill="#EEBB2D"/><path d="M218.9 42.76C215.45 43.16 204.35 33.13 204.35 33.13 200.1 27.92 217.3 30.46 217.3 30.46L217.71 30.51C220.1 33.57 221.08 37.18 218.9 42.76Z" fill="#D6E3DD"/><path d="M218.16 41.53C214.71 41.93 204.35 33.12 204.35 33.12 200.1 27.91 216.75 31.44 216.75 31.44L217.53 31.81C218.51 33.39 218.67 36.33 218.15 41.52Z" fill="url(#linear-gradient-6)"/><path d="M96.91 16.31C101.86 14.38 122.88 6.62 136.98 8.32 137.44 8.38 137.75 8.81 137.66 9.27 137.02 12.45 134.7 23.91 133.32 28.8 133.07 29.68 132.31 30.31 131.4 30.39L95.45 33.65 93.14 28.03 95.49 17.84C95.71 17.15 96.23 16.59 96.91 16.32Z" fill="#D6E3DD"/><path d="M96.91 16.31C101.86 14.38 122.88 6.62 136.98 8.32 137.44 8.38 137.75 8.81 137.66 9.27 137.02 12.45 134.7 23.91 133.32 28.8 133.07 29.68 132.31 30.31 131.4 30.39L95.45 33.65 93.14 28.03 95.49 17.84C95.71 17.15 96.23 16.59 96.91 16.32Z" fill="#D6E3DD"/><path d="M96.91 16.31C101.86 14.38 122.88 6.62 136.98 8.32 137.44 8.38 137.75 8.81 137.66 9.27 137.02 12.45 134.7 23.91 133.32 28.8 133.07 29.68 132.31 30.31 131.4 30.39L95.45 33.65 93.14 28.03 95.49 17.84C95.71 17.15 96.23 16.59 96.91 16.32Z" fill="#D6E3DD"/><path d="M96.91 16.31C101.86 14.38 122.88 6.62 136.98 8.32 137.44 8.38 137.75 8.81 137.66 9.27 137.02 12.45 134.7 23.91 133.32 28.8 133.07 29.68 132.31 30.31 131.4 30.39L95.45 33.65 93.14 28.03 95.49 17.84C95.71 17.15 96.23 16.59 96.91 16.32Z" fill="#D6E3DD"/><path d="M36.13 70.74C36.04 71.86 36 73.05 36 74.29 36 74.29 28.71 76.26 25.59 73.89 25.59 73.89 17.99 74.21 17.84 73.81L17.45 71.7C17.45 71.7 33.2 71.38 35.79 70.76 35.91 70.73 36.02 70.72 36.13 70.74Z" fill="#F49211"/><path d="M24.91 69.44C24.91 69.44 19.92 71.75 17.64 71.45 18.29 70.6 20.24 67.82 18.46 67.68 18.46 67.68 20.19 55.98 25.05 55.06 25.05 55.06 28.84 69.16 24.9 69.44Z" fill="url(#linear-gradient-7)"/><path d="M24.91 69.44C23.86 66.36 25.06 55.06 25.06 55.06 25.06 55.06 28.85 69.16 24.91 69.44Z" fill="url(#linear-gradient-8)"/><path d="M30.02 48.73C30.02 48.73 45.26 58.28 67.67 36.74L46.16 39.06C46.16 39.06 37.16 45.08 30.02 48.72Z" fill="#E59C0A"/><path d="M212.83 25.7C212.64 25.63 212.43 25.55 212.22 25.45 201.69 20.89 198.33 11.7 198.23 11.42 198.58 11.77 210.6 23.59 212.83 25.7Z" fill="url(#linear-gradient-9)"/><path d="M178.72 6.05C178.72 6.05 181.6 3.55 182.22 6.57L178.72 6.05Z" fill="#111111"/><rect x="183.22" y="-0.53" width="0.3" height="6.73" fill="#111111" transform="matrix(0.81815 0.575005 -0.575005 0.81815 34.98 -104.93)"/><path d="M223.94 60.25C223.65 63.74 222.81 69.69 220.46 70.34 220.46 70.34 215.6 71.58 214.64 71.04 214.64 71.04 214.43 54.51 200.74 50.75 192.63 48.54 177.06 49 175.63 73.12 175.63 73.12 84.01 74.24 77.85 75.47 77.85 75.47 75.43 75.12 75.79 71.36 75.79 71.36 75.79 70.29 75.65 68.99 75.65 68.99 157.83 57.9 172.18 63.95 172.18 63.95 179.47 44.08 199.47 47.95 199.47 47.95 207.38 49 212.8 56.16 212.8 56.16 219.85 62.05 223.74 60.31 223.81 60.28 223.88 60.26 223.94 60.25Z" fill="url(#linear-gradient-10)"/><path d="M46.17 39.07C37.56 48.65 23.99 48.19 23.99 48.19 23.99 48.19 23.5 40.67 32.9 37.86 32.9 37.86 37.89 36.88 43.97 35.25L44.05 35.28C44.05 35.28 50.5 36.75 46.17 39.08Z" fill="url(#linear-gradient-11)"/><path d="M47.94 37.12C47.94 37.12 68.11 32.05 73.48 27.9 73.48 27.9 60.5 36.01 67.31 35.94L77.61 35.92 46.17 39.07C46.17 39.07 47.52 38.89 47.94 37.12Z" fill="url(#linear-gradient-12)"/><path d="M196.79 8.65C196.79 8.65 191.25 9.73 189.88 10.86 189.52 11.16 189.04 11.25 188.59 11.14 185.47 10.33 175.38 7.86 164.92 7.09 164.92 7.09 182.37 6.67 196.79 8.65Z" fill="url(#linear-gradient-13)"/><path d="M138.24 30.52C138.24 30.52 134.2 62.63 137.2 69.29" stroke="#C6830E" stroke-width="0.5" stroke-miterlimit="10" fill="none"/><path d="M182.64 50.2C180.62 51.28 178.59 53.56 176.88 55.9 174.33 59.39 172.5 63.02 172.5 63.02 172.4 63.35 172.3 63.66 172.19 63.95 169.89 70.2 165.33 69.41 165.33 69.41L137.36 69.7 86.31 70.23C85.29 70.47 84.42 70.55 83.69 70.52 79.25 70.33 79.89 65.8 79.89 65.8 77.71 61.09 76.87 55.61 76.65 50.64 76.3 42.6 77.61 35.89 77.61 35.89 83.88 34.51 111.85 32.23 138.41 30.29 165.33 28.32 190.81 26.7 190.81 26.7 194.21 41.92 182.65 50.21 182.65 50.21Z" stroke="#C6830E" stroke-width="0.5" stroke-miterlimit="10" fill="none"/></g><g><path d="M190.79 26.69C190.79 26.75 190.78 26.81 190.74 26.88 176.19 27.53 157.6 28.86 138.63 30.41 116.96 32.19 94.8 34.25 77.61 35.91L77.61 35.88C77.61 35.88 76.83 24.32 80.88 22.26 80.88 22.26 108.49 5.26 143.01 6.33 154.34 6.68 186.63 6.61 187.86 13.03 187.86 13.03 190.76 24.26 190.79 26.68Z" stroke="#2F3030" stroke-miterlimit="10" fill="url(#linear-gradient-14)"/><path d="M147.28 9.79C146.55 14.46 144.33 28.66 144.39 29.61L178.66 27.59C178.66 27.59 185.17 18.64 183.5 12.64 183.3 11.91 160.64 8.14 149.05 8.27 148.17 8.28 147.42 8.92 147.28 9.79Z" fill="url(#linear-gradient-15)" opacity="0.9"/><path d="M82.62 23.82C84.74 21.95 89.94 19.67 92.63 18.58 93.05 18.41 93.49 18.76 93.42 19.2 93.06 21.61 92.02 28.21 91.4 28.64 91.4 28.64 84.59 30.73 81.92 29.19 81.92 29.19 81.12 25.14 82.62 23.81Z" fill="url(#linear-gradient-16)" opacity="0.48"/><path d="M91.87 25.09C91.87 25.09 94.73 30.18 92.23 32.42 92.23 32.42 84.79 33.64 84.51 28.57 84.51 28.57 84.88 24.05 91.87 25.09Z" fill="url(#linear-gradient-17)"/><path d="M96.91 16.31C101.86 14.38 122.88 6.62 136.98 8.32 137.44 8.38 137.75 8.81 137.66 9.27 137.02 12.45 134.7 23.91 133.32 28.8 133.07 29.68 132.31 30.31 131.4 30.39L95.45 33.65 93.14 28.03 95.49 17.84C95.71 17.15 96.23 16.59 96.91 16.32Z" fill="url(#linear-gradient-18)" opacity="0.9"/></g></g></svg>