<svg viewBox="0 0 314.29 125.44" xmlns="http://www.w3.org/2000/svg" xmlns:xlink="http://www.w3.org/1999/xlink" id="Layer_1" overflow="hidden"><defs><linearGradient x1="22.78" y1="-43.11" x2="233.56" y2="115.17" gradientUnits="userSpaceOnUse" id="linear-gradient"><stop offset="0" stop-color="#FFFFFF"/><stop offset="0.09" stop-color="#EAEDD8"/><stop offset="0.38" stop-color="#ADBC67"/><stop offset="0.51" stop-color="#95A93B"/></linearGradient></defs><rect x="0" y="8.97" rx="54.66" ry="54.66" width="310.54" height="116.47" fill="#231F20" opacity="0.56"/><rect x="3.26" y="0.5" rx="54.66" ry="54.66" width="310.54" height="116.47" stroke="#294D24" stroke-miterlimit="10" fill="#95A93B"/><path d="M276.05 4.21C222.41 7.21 81.88 12.85 53.64 42.32 35.51 61.25 32.16 83.6 37.58 109.03 17.82 100.56 11.54 84.08 8.99 76.56 6.02 67.8 1.17 30.98 27.88 13.56 42.37 4.11 52.59 4.74 52.59 4.74 52.59 4.74 231.41 4.21 276.06 4.21Z" fill="url(#linear-gradient)" opacity="0.78"/><g><g><path d="M251.91 29.73 238.83 29.73 268.11 59.01 238.83 88.28 251.91 88.28 281.18 59.01 251.91 29.73Z" fill="#32492B"/><path d="M234.21 29.73 221.14 29.73 250.41 59.01 221.14 88.28 234.21 88.28 263.48 59.01 234.21 29.73Z" fill="#32492B"/></g><g><path d="M249.18 28.77 236.11 28.77 265.38 58.05 236.11 87.32 249.18 87.32 278.46 58.05 249.18 28.77Z" fill="#F7F8F9"/><path d="M231.49 28.77 218.41 28.77 247.69 58.05 218.41 87.32 231.49 87.32 260.76 58.05 231.49 28.77Z" fill="#F7F8F9"/></g></g><g><g><path d="M140.91 80.94 140.74 81.15C140.43 81.57 140.07 82.02 139.65 82.49 139.23 82.97 138.76 83.45 138.22 83.96 137.13 85.02 135.7 86 133.94 86.9 132.18 87.8 129.97 88.55 127.31 89.17 124.65 89.81 121.46 90.13 117.75 90.13 116.72 90.13 115.72 90.09 114.75 90 113.79 89.92 112.83 89.79 111.9 89.62 110.97 89.45 110.05 89.24 109.15 88.99 108.25 88.74 107.37 88.44 106.51 88.11 103.1 86.8 100.22 84.88 97.87 82.36 95.52 79.87 93.7 76.82 92.42 73.21 91.13 69.63 90.49 65.57 90.49 61.04L90.49 56.38C90.49 51.88 91.04 47.84 92.13 44.26 92.69 42.47 93.38 40.81 94.21 39.29 95.04 37.77 95.98 36.37 97.04 35.12 99.22 32.6 101.98 30.67 105.3 29.33 108.66 28.02 112.47 27.36 116.75 27.36 118.65 27.36 120.44 27.48 122.12 27.72 123.8 27.96 125.36 28.32 126.8 28.81 128.24 29.3 129.58 29.88 130.81 30.55 131.98 31.25 133.05 32.03 134 32.9 135.93 34.63 137.47 36.69 138.61 39.07 139.73 41.45 140.5 44.04 140.92 46.83L141.05 47.79 131.32 47.79 131.19 47.12C130.91 45.53 130.43 44.03 129.76 42.63 129.12 41.26 128.22 40.06 127.08 39.02 126.52 38.52 125.89 38.06 125.19 37.66 124.49 37.26 123.72 36.9 122.88 36.59 121.2 35.98 119.17 35.67 116.8 35.67 115.37 35.67 114.04 35.79 112.79 36.03 111.54 36.27 110.41 36.62 109.37 37.1 107.33 38.05 105.64 39.39 104.29 41.13 102.95 42.89 101.94 45.05 101.27 47.59 101.02 48.46 100.82 49.36 100.68 50.3 100.54 51.24 100.43 52.21 100.37 53.22 100.3 54.23 100.26 55.28 100.26 56.37L100.26 61.07C100.26 64.4 100.68 67.36 101.52 69.96 102.39 72.53 103.59 74.7 105.13 76.46 106.67 78.22 108.5 79.56 110.63 80.49 111.72 80.97 112.86 81.32 114.05 81.54 115.24 81.76 116.49 81.88 117.8 81.88L118.62 81.88C118.89 81.88 119.15 81.88 119.42 81.86 119.68 81.85 119.94 81.83 120.2 81.82 120.46 81.81 120.7 81.79 120.93 81.78 121.17 81.77 121.4 81.74 121.62 81.72 121.84 81.69 122.07 81.67 122.29 81.66 122.51 81.65 122.72 81.62 122.92 81.6 123.12 81.57 123.31 81.53 123.51 81.47 125.08 81.22 126.38 80.9 127.41 80.51 128.44 80.12 129.27 79.7 129.89 79.25 130.42 78.89 130.87 78.54 131.23 78.2L131.23 66.29 116.3 66.29 116.3 58.07 140.93 58.07 140.93 80.98Z" fill="#484646"/><path d="M148.91 67.1 148.91 66.22C148.91 62.95 149.41 59.91 150.42 57.12 150.9 55.69 151.49 54.37 152.2 53.16 152.91 51.94 153.73 50.82 154.65 49.78 156.52 47.68 158.85 46.05 161.61 44.87 162.56 44.48 163.55 44.14 164.59 43.86 165.6 43.61 166.65 43.41 167.76 43.27 168.86 43.13 170 43.06 171.18 43.06 174.76 43.06 177.99 43.65 180.87 44.82 183.64 46.02 185.96 47.66 187.83 49.73 189.7 51.83 191.13 54.28 192.11 57.07 193.09 59.87 193.58 62.9 193.58 66.17L193.58 67.09C193.58 68.71 193.45 70.29 193.2 71.81 192.95 73.33 192.58 74.8 192.11 76.19 191.91 76.75 191.7 77.3 191.46 77.83 191.22 78.36 190.97 78.88 190.7 79.38 190.43 79.88 190.15 80.37 189.86 80.85 189.57 81.33 189.24 81.78 188.89 82.21 188.54 82.64 188.18 83.07 187.82 83.49 185.95 85.56 183.62 87.18 180.86 88.36 178.01 89.53 174.81 90.12 171.25 90.12 167.69 90.12 164.5 89.53 161.64 88.36 158.87 87.19 156.55 85.56 154.68 83.49 152.81 81.45 151.38 79.02 150.4 76.19 149.39 73.39 148.89 70.36 148.89 67.09ZM158.39 66.22 158.39 67.06C158.39 69.16 158.64 71.13 159.15 72.98 159.35 73.57 159.56 74.14 159.8 74.7 160.04 75.26 160.31 75.79 160.62 76.29 160.93 76.79 161.26 77.28 161.63 77.74 162 78.2 162.39 78.62 162.8 79 163.21 79.38 163.67 79.73 164.14 80.07 164.61 80.41 165.12 80.7 165.65 80.95 166.18 81.2 166.74 81.42 167.33 81.6 167.92 81.78 168.54 81.91 169.2 82 169.86 82.09 170.55 82.13 171.28 82.13 173.41 82.13 175.28 81.74 176.9 80.96 178.52 80.18 179.86 79.11 180.93 77.77 181.99 76.4 182.8 74.81 183.36 72.99 183.89 71.14 184.16 69.17 184.16 67.07L184.16 66.23C184.16 64.16 183.89 62.2 183.36 60.36 183.19 59.75 182.98 59.16 182.73 58.6 182.48 58.04 182.2 57.51 181.89 57.01 181.58 56.51 181.25 56.02 180.88 55.54 179.82 54.2 178.47 53.12 176.85 52.31 176.04 51.92 175.16 51.62 174.23 51.43 173.29 51.24 172.28 51.14 171.19 51.14 170.1 51.14 169.13 51.24 168.21 51.43 167.29 51.63 166.43 51.92 165.65 52.31 165.4 52.42 165.17 52.54 164.96 52.67 164.75 52.8 164.54 52.93 164.33 53.07 164.12 53.21 163.92 53.36 163.72 53.51 163.52 53.66 163.33 53.82 163.15 53.97 162.97 54.12 162.79 54.28 162.61 54.45 162.43 54.62 162.25 54.79 162.09 54.97 161.93 55.15 161.77 55.34 161.63 55.54 161.27 56.02 160.93 56.5 160.62 57.01 160.31 57.52 160.04 58.04 159.8 58.6 159.56 59.16 159.35 59.75 159.15 60.36 158.98 60.98 158.84 61.6 158.73 62.25 158.62 62.89 158.53 63.54 158.48 64.2 158.43 64.86 158.4 65.54 158.4 66.23Z" fill="#484646"/></g><g><path d="M139.5 79.54 139.33 79.75C139.02 80.17 138.66 80.62 138.24 81.09 137.82 81.57 137.35 82.05 136.81 82.56 135.72 83.62 134.29 84.6 132.53 85.5 130.77 86.4 128.56 87.15 125.9 87.77 123.24 88.41 120.05 88.73 116.34 88.73 115.31 88.73 114.31 88.69 113.34 88.6 112.38 88.52 111.42 88.39 110.49 88.22 109.56 88.05 108.64 87.84 107.74 87.59 106.84 87.34 105.96 87.04 105.1 86.71 101.69 85.4 98.81 83.48 96.46 80.96 94.11 78.47 92.29 75.42 91.01 71.81 89.72 68.23 89.08 64.17 89.08 59.64L89.08 54.98C89.08 50.48 89.63 46.44 90.72 42.86 91.28 41.07 91.97 39.41 92.8 37.89 93.63 36.37 94.57 34.97 95.63 33.72 97.81 31.2 100.57 29.27 103.89 27.93 107.25 26.62 111.06 25.96 115.34 25.96 117.24 25.96 119.03 26.08 120.71 26.32 122.39 26.56 123.95 26.92 125.39 27.41 126.83 27.9 128.17 28.48 129.4 29.15 130.57 29.85 131.64 30.63 132.59 31.5 134.52 33.23 136.06 35.29 137.2 37.67 138.32 40.05 139.09 42.64 139.51 45.43L139.64 46.39 129.91 46.39 129.78 45.72C129.5 44.13 129.02 42.63 128.35 41.23 127.71 39.86 126.81 38.66 125.67 37.62 125.11 37.12 124.48 36.66 123.78 36.26 123.08 35.86 122.31 35.5 121.47 35.19 119.79 34.58 117.76 34.27 115.39 34.27 113.96 34.27 112.63 34.39 111.38 34.63 110.13 34.87 109 35.22 107.96 35.7 105.92 36.65 104.23 37.99 102.88 39.73 101.54 41.49 100.53 43.65 99.86 46.19 99.61 47.06 99.41 47.96 99.27 48.9 99.13 49.84 99.02 50.81 98.96 51.82 98.89 52.83 98.85 53.88 98.85 54.97L98.85 59.67C98.85 63 99.27 65.96 100.11 68.56 100.98 71.13 102.18 73.3 103.72 75.06 105.26 76.82 107.09 78.16 109.22 79.09 110.31 79.57 111.45 79.92 112.64 80.14 113.83 80.36 115.08 80.48 116.39 80.48L117.21 80.48C117.48 80.48 117.74 80.48 118.01 80.46 118.27 80.45 118.53 80.43 118.79 80.42 119.05 80.41 119.29 80.39 119.52 80.38 119.76 80.37 119.99 80.34 120.21 80.32 120.43 80.29 120.66 80.27 120.88 80.26 121.1 80.25 121.31 80.22 121.51 80.2 121.71 80.17 121.9 80.13 122.1 80.07 123.67 79.82 124.97 79.5 126 79.11 127.03 78.72 127.86 78.3 128.48 77.85 129.01 77.49 129.46 77.14 129.82 76.8L129.82 64.89 114.89 64.89 114.89 56.67 139.52 56.67 139.52 79.58Z" fill="#FFFFFF"/><path d="M147.51 65.69 147.51 64.81C147.51 61.54 148.01 58.5 149.02 55.71 149.5 54.28 150.09 52.96 150.8 51.75 151.51 50.53 152.33 49.41 153.25 48.37 155.12 46.27 157.45 44.64 160.21 43.46 161.16 43.07 162.15 42.73 163.19 42.45 164.2 42.2 165.25 42 166.36 41.86 167.46 41.72 168.6 41.65 169.78 41.65 173.36 41.65 176.59 42.24 179.47 43.41 182.24 44.61 184.56 46.25 186.43 48.32 188.3 50.42 189.73 52.87 190.71 55.66 191.69 58.46 192.18 61.49 192.18 64.76L192.18 65.68C192.18 67.3 192.05 68.88 191.8 70.4 191.55 71.92 191.18 73.39 190.71 74.78 190.51 75.34 190.3 75.89 190.06 76.42 189.82 76.95 189.57 77.47 189.3 77.97 189.03 78.47 188.75 78.96 188.46 79.44 188.17 79.92 187.84 80.37 187.49 80.8 187.14 81.23 186.78 81.66 186.42 82.08 184.55 84.15 182.22 85.77 179.46 86.95 176.61 88.12 173.41 88.71 169.85 88.71 166.29 88.71 163.1 88.12 160.24 86.95 157.47 85.78 155.15 84.15 153.28 82.08 151.41 80.04 149.98 77.61 149 74.78 147.99 71.98 147.49 68.95 147.49 65.68ZM156.99 64.81 156.99 65.65C156.99 67.75 157.24 69.72 157.75 71.57 157.95 72.16 158.16 72.73 158.4 73.29 158.64 73.85 158.91 74.38 159.22 74.88 159.53 75.38 159.86 75.87 160.23 76.33 160.6 76.79 160.99 77.21 161.4 77.59 161.81 77.97 162.27 78.32 162.74 78.66 163.21 79 163.72 79.29 164.25 79.54 164.78 79.79 165.34 80.01 165.93 80.19 166.52 80.37 167.14 80.5 167.8 80.59 168.46 80.68 169.15 80.72 169.88 80.72 172.01 80.72 173.88 80.33 175.5 79.55 177.12 78.77 178.46 77.7 179.53 76.36 180.59 74.99 181.4 73.4 181.96 71.58 182.49 69.73 182.76 67.76 182.76 65.66L182.76 64.82C182.76 62.75 182.49 60.79 181.96 58.95 181.79 58.34 181.58 57.75 181.33 57.19 181.08 56.63 180.8 56.1 180.49 55.6 180.18 55.1 179.85 54.61 179.48 54.13 178.42 52.79 177.07 51.71 175.45 50.9 174.64 50.51 173.76 50.21 172.83 50.02 171.89 49.83 170.88 49.73 169.79 49.73 168.7 49.73 167.73 49.83 166.81 50.02 165.89 50.22 165.03 50.51 164.25 50.9 164 51.01 163.77 51.13 163.56 51.26 163.35 51.39 163.14 51.52 162.93 51.66 162.72 51.8 162.52 51.95 162.32 52.1 162.12 52.25 161.93 52.41 161.75 52.56 161.57 52.71 161.39 52.87 161.21 53.04 161.03 53.21 160.85 53.38 160.69 53.56 160.53 53.74 160.37 53.93 160.23 54.13 159.87 54.61 159.53 55.09 159.22 55.6 158.91 56.11 158.64 56.63 158.4 57.19 158.16 57.75 157.95 58.34 157.75 58.95 157.58 59.57 157.44 60.19 157.33 60.84 157.22 61.48 157.13 62.13 157.08 62.79 157.03 63.45 157 64.13 157 64.82Z" fill="#FFFFFF"/></g></g></svg>