<svg viewBox="0 0 274.56 136.8" xmlns="http://www.w3.org/2000/svg" xmlns:xlink="http://www.w3.org/1999/xlink" id="Layer_1" overflow="hidden"><defs><linearGradient x1="37.24" y1="63.75" x2="244.74" y2="65.25" gradientUnits="userSpaceOnUse" id="linear-gradient" gradientTransform="matrix(0.999714 -0.0239087 0.0239087 0.999714 -3.75 10.24)"><stop offset="0.13" stop-color="#939598"/><stop offset="0.99" stop-color="#E6E7E8"/></linearGradient><linearGradient x1="200.4" y1="63.47" x2="200.09" y2="68.1" gradientUnits="userSpaceOnUse" id="linear-gradient-2" gradientTransform="matrix(0.999714 -0.0239087 0.0239087 0.999714 -3.75 10.24)"><stop offset="0.06" stop-color="#FFFFFF"/><stop offset="0.3" stop-color="#E2E3E3"/><stop offset="0.54" stop-color="#CDCED0"/><stop offset="0.78" stop-color="#C0C2C4"/><stop offset="1" stop-color="#BCBEC0"/></linearGradient><linearGradient x1="218.23" y1="66.69" x2="226.53" y2="66.69" xlink:href="#linear-gradient-2" id="linear-gradient-3"></linearGradient><linearGradient x1="221.99" y1="63.65" x2="243.56" y2="63.65" gradientUnits="userSpaceOnUse" id="linear-gradient-4" gradientTransform="matrix(0.999714 -0.0239087 0.0239087 0.999714 -3.75 10.24)"><stop offset="0" stop-color="#6D6E71"/><stop offset="0.05" stop-color="#5C5D60"/><stop offset="0.21" stop-color="#343536"/><stop offset="0.35" stop-color="#171818"/><stop offset="0.47" stop-color="#060606"/><stop offset="0.55"/></linearGradient><linearGradient x1="224.84" y1="47.53" x2="226.51" y2="46.22" gradientUnits="userSpaceOnUse" id="linear-gradient-5" gradientTransform="matrix(0.999714 -0.0239087 0.0239087 0.999714 -3.75 10.24)"><stop offset="0.14" stop-color="#F1F2F2"/><stop offset="0.23" stop-color="#D7D8D9"/><stop offset="0.37" stop-color="#B8B9BB"/><stop offset="0.51" stop-color="#9FA1A3"/><stop offset="0.66" stop-color="#8D8F92"/><stop offset="0.81" stop-color="#838588"/><stop offset="1" stop-color="#808285"/></linearGradient><linearGradient x1="71.43" y1="2.14" x2="80.92" y2="12.45" xlink:href="#linear-gradient-4" id="linear-gradient-6" gradientTransform="matrix(0.968366 -0.249535 0.250042 0.968235 -27.6 88.94)"></linearGradient><linearGradient x1="202.23" y1="36.58" x2="202.91" y2="31.65" xlink:href="#linear-gradient-2" id="linear-gradient-7"></linearGradient><linearGradient x1="37.52" y1="85.37" x2="244.71" y2="85.37" gradientUnits="userSpaceOnUse" id="linear-gradient-8" gradientTransform="matrix(0.999714 -0.0239087 0.0239087 0.999714 -3.75 10.24)"><stop offset="0" stop-color="#808285"/><stop offset="0.16" stop-color="#5F5F62"/><stop offset="0.3" stop-color="#49484A"/><stop offset="0.39" stop-color="#414042"/><stop offset="0.44" stop-color="#3A393A"/><stop offset="0.58" stop-color="#2D2A2B"/><stop offset="0.75" stop-color="#252122"/><stop offset="1" stop-color="#231F20"/></linearGradient><linearGradient x1="149.07" y1="67.54" x2="149.2" y2="72.79" xlink:href="#linear-gradient-2" id="linear-gradient-9"></linearGradient><linearGradient x1="156.49" y1="26.57" x2="154.47" y2="66.61" gradientUnits="userSpaceOnUse" id="linear-gradient-10" gradientTransform="matrix(0.999714 -0.0239087 0.0239087 0.999714 -3.75 10.24)"><stop offset="0.03" stop-color="#F0F0F0"/><stop offset="0.06" stop-color="#C5C5C5"/><stop offset="0.1" stop-color="#979797"/><stop offset="0.15" stop-color="#6E6E6E"/><stop offset="0.19" stop-color="#4C4C4C"/><stop offset="0.24" stop-color="#303030"/><stop offset="0.29" stop-color="#1A1A1A"/><stop offset="0.35" stop-color="#0B0B0B"/><stop offset="0.42" stop-color="#020202"/><stop offset="0.52"/></linearGradient><linearGradient x1="171.86" y1="36.94" x2="197.54" y2="56.46" gradientUnits="userSpaceOnUse" id="linear-gradient-11" gradientTransform="matrix(0.999714 -0.0239087 0.0239087 0.999714 -3.75 10.24)"><stop offset="0.1" stop-color="#282526"/><stop offset="0.48" stop-color="#414042"/><stop offset="1" stop-color="#231F20"/></linearGradient><linearGradient x1="105.05" y1="51.92" x2="114.21" y2="44.16" gradientUnits="userSpaceOnUse" id="linear-gradient-12" gradientTransform="matrix(0.999714 -0.0239087 0.0239087 0.999714 -3.75 10.24)"><stop offset="0.26" stop-color="#58595B"/><stop offset="0.36" stop-color="#474749"/><stop offset="0.44" stop-color="#414042"/><stop offset="0.5" stop-color="#464648"/><stop offset="0.59" stop-color="#575759"/><stop offset="0.67" stop-color="#6D6E71"/><stop offset="1" stop-color="#231F20"/></linearGradient><linearGradient x1="113.46" y1="49.81" x2="107.59" y2="54.36" gradientUnits="userSpaceOnUse" id="linear-gradient-13" gradientTransform="matrix(0.999714 -0.0239087 0.0239087 0.999714 -3.75 10.24)"><stop offset="0.03" stop-color="#575757"/><stop offset="0.05" stop-color="#4B4B4B"/><stop offset="0.12" stop-color="#303030"/><stop offset="0.2" stop-color="#1A1A1A"/><stop offset="0.28" stop-color="#0B0B0B"/><stop offset="0.38" stop-color="#020202"/><stop offset="0.52"/></linearGradient><linearGradient x1="123.95" y1="35.54" x2="151.34" y2="54.97" xlink:href="#linear-gradient-11" id="linear-gradient-14"></linearGradient><radialGradient cx="214.7" cy="96.05" r="16.88" fx="214.7" fy="96.05" gradientUnits="userSpaceOnUse" id="radial-gradient" gradientTransform="matrix(0.999714 -0.0239087 0.0239087 0.999714 -3.75 10.24)"><stop offset="0" stop-color="#BFBFBF"/><stop offset="0.08" stop-color="#A2A2A2"/><stop offset="0.21" stop-color="#797979"/><stop offset="0.35" stop-color="#565656"/><stop offset="0.49" stop-color="#3C3C3C"/><stop offset="0.63" stop-color="#292929"/><stop offset="0.78" stop-color="#1D1D1D"/><stop offset="0.93" stop-color="#1A1A1A"/></radialGradient><radialGradient cx="214.11" cy="96.38" r="12.3" fx="214.11" fy="96.38" gradientUnits="userSpaceOnUse" id="radial-gradient-2" gradientTransform="matrix(0.999714 -0.0239087 0.0239087 0.999714 -3.75 10.24)"><stop offset="0.79" stop-color="#99B8B6"/><stop offset="0.8" stop-color="#9CBBB9"/><stop offset="0.84" stop-color="#B6D3D2"/><stop offset="0.89" stop-color="#C9E4E3"/><stop offset="0.95" stop-color="#D5EEEE"/><stop offset="1" stop-color="#D9F2F2"/></radialGradient><radialGradient cx="214.3" cy="96.06" r="8.55" fx="214.3" fy="96.06" xlink:href="#radial-gradient" id="radial-gradient-3"></radialGradient><radialGradient cx="213.86" cy="96.27" r="11.28" fx="213.86" fy="96.27" gradientUnits="userSpaceOnUse" id="radial-gradient-4" gradientTransform="matrix(0.999714 -0.0239087 0.0239087 0.999714 -3.75 10.24)"><stop offset="0" stop-color="#FFFFFF"/><stop offset="0.21" stop-color="#F3F6F5" stop-opacity="0.99"/><stop offset="0.58" stop-color="#D6E3DD" stop-opacity="0.95"/></radialGradient><radialGradient cx="75.73" cy="90.9" r="16.88" fx="75.73" fy="90.9" xlink:href="#radial-gradient" id="radial-gradient-5"></radialGradient><radialGradient cx="75.14" cy="91.22" r="12.3" fx="75.14" fy="91.22" xlink:href="#radial-gradient-2" id="radial-gradient-6"></radialGradient><radialGradient cx="75.33" cy="90.9" r="8.55" fx="75.33" fy="90.9" xlink:href="#radial-gradient" id="radial-gradient-7"></radialGradient><radialGradient cx="74.98" cy="91.08" r="11.3" fx="74.98" fy="91.08" xlink:href="#radial-gradient-4" id="radial-gradient-8"></radialGradient></defs><ellipse cx="144.37" cy="115.91" rx="91.33" ry="3.67" fill="#B7B6B6"/><g><path d="M242.64 92.81C242.09 96.27 244.27 101.89 238.78 102.88 238.78 102.88 233.91 104.07 232.94 103.51 232.94 103.51 232.94 86.98 219.3 83.05 211.21 80.73 195.63 81.01 193.91 105.1 193.91 105.1 102.28 105.08 96.11 106.24 96.11 106.24 93.7 105.86 94.11 102.1 94.11 102.1 94.13 101.3 94.01 99.99 93.58 94.98 91.13 82.59 77.69 80.07 77.69 80.07 58.4 76.12 54.85 97.77 54.68 98.78 54.56 99.86 54.47 100.99 54.45 101.27 54.42 101.55 54.4 101.84 54.34 102.7 54.31 103.6 54.3 104.53 54.3 104.53 39.93 107.4 36.14 103.82 36.14 103.82 36.04 102.37 35.93 100.19L35.93 100.19C35.74 95.99 35.54 89.13 36.05 84.68 36.89 77.33 40.25 68.54 51.64 67.35 51.64 67.35 78.45 60.74 85.9 56.7 99.42 49.35 123.09 35.4 157.16 36.5 171.88 36.97 196.11 36.08 215.88 40.9 215.88 40.9 216.83 42.05 217.28 43.68 217.28 43.68 233.35 59.62 233.96 60.21 234.92 61.13 241.19 67.22 241.28 74.38 241.28 74.38 243.65 86.33 242.64 92.81Z" fill="url(#linear-gradient)"/><g><path d="M138.22 36.36C140.27 35.25 143.47 33.87 147.32 33.37 147.35 33.37 147.37 33.37 147.4 33.37 148.59 33.34 178.32 32.61 180.54 33.37 180.54 33.37 187.7 33.75 191.82 36.39 192.36 36.73 192.08 37.58 191.44 37.56L181.46 37.3C181.1 37.3 180.82 36.99 180.84 36.62L180.88 35.82C180.9 35.45 180.61 35.15 180.24 35.14L147.64 35.05C147.04 35.05 146.54 35.51 146.49 36.11L146.49 36.11C146.47 36.41 146.23 36.66 145.93 36.69L138.62 37.55C137.92 37.63 137.61 36.69 138.23 36.35Z" fill="#474747"/><path d="M204.52 70.14C204.49 71.52 201.57 72.58 198 72.5 194.43 72.42 191.56 71.23 191.6 69.85 191.63 68.47 194.55 67.41 198.12 67.49 201.69 67.57 204.56 68.76 204.52 70.14Z" fill="url(#linear-gradient-2)"/><path d="M224.3 71.69C224.25 73.98 222.35 75.79 220.06 75.74 217.77 75.69 215.96 73.79 216.01 71.5 216.06 69.21 217.96 67.4 220.25 67.45 222.54 67.5 224.35 69.4 224.3 71.69Z" fill="url(#linear-gradient-3)"/><path d="M241.43 75.46C237.98 75.82 236.22 75.63 236.22 75.63 233.57 69.36 223.34 63.18 219.77 63.85 218.74 64.04 221.99 61.38 225.2 60.89L236.18 62.65C238.53 65.74 241.32 68.65 241.43 75.47Z" fill="url(#linear-gradient-4)"/><path d="M194.65 86.91C192.49 86.86 191.3 82.31 191.3 82.31 191.62 77.79 187.1 78.72 185.36 78.3 157.29 71.42 107.84 79.68 97.34 80.1 96.48 80.13 89.17 83.12 89.18 83.28 84.36 77.8 76.78 76.39 72.05 76.82 51.8 78.65 54.23 97.54 54.23 97.54 54.23 97.54 54.29 97.58 54.41 97.66 57.96 76.01 77.25 79.96 77.25 79.96 88.3 82.04 93.75 91.29 93.57 99.88 93.6 99.55 103.17 101.22 104.19 100.99L155.24 101.1 183.21 101.16C183.21 101.16 187.76 102 190.14 95.78 190.26 95.49 190.36 95.18 190.46 94.86 190.46 94.86 192.34 91.25 194.93 87.79 194.93 87.23 194.83 86.93 194.63 86.92Z" fill="#D3D3D3" opacity="0.53"/><path d="M231.29 58.03C231.1 57.96 230.89 57.87 230.68 57.78 220.2 53.09 216.96 43.86 216.86 43.58 217.21 43.93 229.08 55.9 231.28 58.04Z" fill="url(#linear-gradient-5)"/><path d="M197.43 37.96C197.43 37.96 200.34 35.49 200.92 38.52L197.43 37.96Z" fill="#111111"/><rect x="201.97" y="31.44" width="0.3" height="6.73" fill="#111111" transform="matrix(0.811166 0.584816 -0.584816 0.811166 58.53 -111.63)"/><path d="M51.96 78.99C52.38 80.98 36.2 84.83 36.2 84.83 36.2 84.83 36.04 74.49 44.67 69.41 44.67 69.41 52.29 66.29 55.62 66.44L53.91 71.65C53.91 71.65 50.67 72.94 51.96 78.99Z" fill="url(#linear-gradient-6)"/><path d="M215.46 40.79C215.46 40.79 209.91 41.81 208.52 42.92 208.16 43.21 207.68 43.3 207.23 43.18 204.12 42.33 194.06 39.74 183.62 38.83 183.62 38.83 201.08 38.63 215.47 40.79Z" fill="url(#linear-gradient-7)"/><path d="M156.64 61.92C156.64 61.92 152.2 93.98 155.12 100.67" stroke="#58595B" stroke-width="0.5" stroke-miterlimit="10" fill="none"/><path d="M242.82 90.31C237.58 97.77 230.84 87.6 230.84 87.6 225.51 80.37 217.52 79.42 217.52 79.42 197.57 75.3 190.17 95.78 190.17 95.78 177.43 90.22 110.5 97.64 96.26 99.3 94.33 83.93 81.14 79.42 73.87 79.73 56.57 80.46 54.17 95.91 53.89 101.99 48.84 103.51 35.97 100.14 35.97 100.14L35.93 100.2 35.93 100.2C36.03 102.39 36.14 103.84 36.14 103.84 38.28 107.88 54.3 104.55 54.3 104.55 54.3 104.53 54.3 104.5 54.3 104.48L56.08 104.67C53.79 86.73 70.89 81.43 78.21 83.76 98.96 90.37 91.28 107.45 91.28 107.45 93.78 107.02 95.22 106.44 95.9 106.11 103.53 104.99 193.49 105.01 193.49 105.01 195.22 80.92 210.8 80.64 218.88 82.96 232.52 86.88 232.53 103.42 232.53 103.42 233.95 104.26 240.45 102.48 240.45 102.48 244.64 99.96 242.49 93.83 242.83 90.34Z" fill="url(#linear-gradient-8)" opacity="0.73"/><path d="M153.41 75.21C153.49 76.59 150.67 77.88 147.1 78.08 143.54 78.29 140.58 77.33 140.5 75.95 140.42 74.57 143.24 73.28 146.81 73.08 150.37 72.87 153.33 73.83 153.41 75.21Z" fill="url(#linear-gradient-9)"/><path d="M200.79 82.15C198.76 83.21 196.69 85.46 194.95 87.78 192.36 91.24 190.48 94.85 190.48 94.85 190.38 95.18 190.27 95.49 190.16 95.77 187.78 101.99 183.23 101.15 183.23 101.15L155.26 101.09 104.21 100.98C103.18 101.21 102.32 101.28 101.59 101.24 97.15 100.99 97.85 96.48 97.85 96.48 95.73 91.74 94.95 86.25 94.8 81.28 94.56 73.23 95.94 66.54 95.94 66.54 102.23 65.24 130.22 63.31 156.8 61.7 183.74 60.07 209.24 58.76 209.24 58.76 212.45 74.02 200.79 82.16 200.79 82.16Z" stroke="#58595B" stroke-width="0.5" stroke-miterlimit="10" fill="none"/></g><g><path d="M209.24 58.75C209.24 58.81 209.22 58.87 209.18 58.94 194.62 59.41 176.02 60.51 157.03 61.82 135.34 63.33 113.16 65.12 95.95 66.56L95.95 66.53C95.95 66.53 95.31 54.96 99.39 52.95 99.39 52.95 127.21 36.29 161.71 37.8 173.04 38.3 205.33 38.62 206.47 45.06 206.47 45.06 209.23 56.32 209.23 58.75Z" stroke="#2F3030" stroke-miterlimit="10" fill="url(#linear-gradient-10)"/><path d="M165.94 41.31C165.15 45.97 162.76 60.15 162.8 61.09L197.1 59.49C197.1 59.49 203.72 50.62 202.12 44.6 201.92 43.86 179.32 39.82 167.72 39.8 166.84 39.8 166.08 40.43 165.93 41.3Z" stroke="#1D1E1E" stroke-miterlimit="10" fill="url(#linear-gradient-11)" opacity="0.9"/><path d="M101.11 54.53C103.25 52.69 108.48 50.47 111.19 49.42 111.61 49.26 112.05 49.61 111.97 50.05 111.58 52.46 110.46 59.04 109.83 59.47 109.83 59.47 103 61.47 100.34 59.9 100.34 59.9 99.59 55.84 101.11 54.53Z" fill="url(#linear-gradient-12)" opacity="0.48"/><path d="M110.35 55.92C110.35 55.92 113.14 61.05 110.62 63.25 110.62 63.25 103.16 64.37 102.95 59.31 102.95 59.31 103.38 54.79 110.35 55.92Z" fill="url(#linear-gradient-13)"/><path d="M115.49 47.2C120.47 45.33 141.58 37.83 155.66 39.71 156.12 39.77 156.42 40.21 156.32 40.66 155.64 43.83 153.18 55.26 151.74 60.13 151.48 61.01 150.71 61.63 149.8 61.7L113.82 64.51 111.58 58.86 114.06 48.7C114.29 48.01 114.82 47.46 115.5 47.2Z" stroke="#1D1E1E" stroke-miterlimit="10" fill="url(#linear-gradient-14)" opacity="0.9"/></g><g><g><path d="M196.4 104.68 193.38 104.91C193.38 104.91 191.23 83.46 211.8 81.38 219.97 80.56 233.78 87.1 232.52 103.4 232.52 103.4 232.18 101.78 229.74 102.61 229.74 102.61 229.59 91.21 217.28 86.57 210.09 83.86 196.29 86.96 196.4 104.68Z" fill="#111111"/><g><path d="M230.32 101.52C230.11 110.69 222.27 117.95 212.81 117.74 203.34 117.53 195.84 109.92 196.05 100.75 196.26 91.58 204.1 84.32 213.56 84.53 223.03 84.74 230.53 92.35 230.32 101.52Z" fill="url(#radial-gradient)"/><path d="M224.97 101.76C224.82 108.51 219.15 113.85 212.32 113.7 205.49 113.55 200.07 107.95 200.22 101.21 200.37 94.46 206.04 89.12 212.87 89.27 219.7 89.42 225.12 95.02 224.97 101.76Z" fill="url(#radial-gradient-2)"/><path d="M221.29 101.34C221.18 106.08 217.29 109.84 212.59 109.73 207.89 109.62 204.17 105.7 204.28 100.96 204.39 96.22 208.28 92.46 212.98 92.57 217.68 92.68 221.4 96.6 221.29 101.34Z" fill="url(#radial-gradient-3)"/><path d="M223.3 103.55 223.59 100.14 216.57 99.94C216.53 99.81 216.48 99.69 216.43 99.57L222.46 96.49 219.04 92.23 214.53 97.48C214.41 97.41 214.29 97.36 214.17 97.3L215.1 90.35 211.68 90.08 211.37 96.99C211.19 97.03 211.02 97.07 210.85 97.13L207.74 91.03 203.26 95.22 208.57 98.81C208.36 99.11 208.19 99.43 208.06 99.78L201.14 99.34 201.11 102.77 208.03 102.6C208.07 102.71 208.11 102.81 208.15 102.92L202.15 106.71 205.62 110.63 210.04 105C210.23 105.11 210.43 105.19 210.63 105.27L209.33 112.16 212.72 112.68 213.49 105.42C213.62 105.38 213.75 105.34 213.88 105.3L213.8 105.36 217.4 111.65 221.54 108.49 216.01 103.64C216.19 103.37 216.35 103.08 216.47 102.77L223.29 103.57Z" fill="url(#radial-gradient-4)"/><g><path d="M211.95 98.97C211.94 99.48 211.51 99.89 211 99.88 210.49 99.87 210.08 99.44 210.09 98.93 210.1 98.42 210.53 98.01 211.04 98.02 211.55 98.03 211.96 98.46 211.95 98.97Z" fill="#D6E3DD"/><path d="M215.94 99.5C215.93 100.01 215.5 100.42 214.99 100.41 214.48 100.4 214.07 99.97 214.08 99.46 214.09 98.95 214.52 98.54 215.03 98.55 215.54 98.56 215.95 98.99 215.94 99.5Z" fill="#D6E3DD"/><path d="M215.33 103.45C215.32 103.96 214.89 104.37 214.38 104.36 213.87 104.35 213.46 103.92 213.47 103.41 213.48 102.9 213.91 102.49 214.42 102.5 214.93 102.51 215.34 102.94 215.33 103.45Z" fill="#D6E3DD"/><path d="M211.3 102.91C211.29 103.42 210.86 103.83 210.35 103.82 209.84 103.81 209.43 103.38 209.44 102.87 209.45 102.36 209.88 101.95 210.39 101.96 210.9 101.97 211.31 102.4 211.3 102.91Z" fill="#D6E3DD"/></g></g></g><g><g><path d="M91.27 99.69C91.06 108.86 83.22 116.12 73.76 115.91 64.29 115.7 56.79 108.09 57 98.92 57.21 89.75 65.05 82.49 74.51 82.7 83.98 82.91 91.48 90.52 91.27 99.69Z" fill="url(#radial-gradient-5)"/><path d="M85.92 99.92C85.77 106.67 80.1 112.01 73.27 111.86 66.44 111.71 61.02 106.11 61.17 99.37 61.32 92.62 66.99 87.28 73.82 87.43 80.65 87.58 86.07 93.18 85.92 99.92Z" fill="url(#radial-gradient-6)"/><path d="M82.23 99.51C82.12 104.25 78.23 108.01 73.53 107.9 68.83 107.79 65.11 103.87 65.22 99.13 65.33 94.39 69.22 90.63 73.92 90.74 78.62 90.85 82.34 94.77 82.23 99.51Z" fill="url(#radial-gradient-7)"/><path d="M84.04 102.98 84.57 97.17 77.51 98.1C77.47 97.97 77.42 97.85 77.37 97.73L82.77 93.51 80.57 90.88 75.47 95.64C75.35 95.57 75.23 95.52 75.11 95.46L76.61 88.49 71.31 88.2 72.32 95.15C72.14 95.19 71.97 95.23 71.8 95.29L67.37 89.83 64.83 92.13 69.51 96.97C69.3 97.27 69.13 97.59 69 97.94L62.53 95.55 62.18 101.87 68.97 100.75C69.01 100.86 69.05 100.96 69.09 101.07L63.72 105.74 66.11 108.2 70.98 103.15C71.17 103.26 71.37 103.34 71.57 103.42L69.5 110.2 75.33 110.81 74.43 103.57C74.56 103.53 74.69 103.49 74.82 103.45L74.74 103.51 78.92 109.27 81.63 107.17 76.96 101.8C77.14 101.53 77.3 101.24 77.42 100.93L84.04 102.99Z" fill="url(#radial-gradient-8)"/><g><path d="M72.9 97.13C72.89 97.64 72.46 98.05 71.95 98.04 71.44 98.03 71.03 97.6 71.04 97.09 71.05 96.58 71.48 96.17 71.99 96.18 72.5 96.19 72.91 96.62 72.9 97.13Z" fill="#D6E3DD"/><path d="M76.88 97.67C76.87 98.18 76.44 98.59 75.93 98.58 75.42 98.57 75.01 98.14 75.02 97.63 75.03 97.12 75.46 96.71 75.97 96.72 76.48 96.73 76.89 97.16 76.88 97.67Z" fill="#D6E3DD"/><path d="M76.27 101.61C76.26 102.12 75.83 102.53 75.32 102.52 74.81 102.51 74.4 102.08 74.41 101.57 74.42 101.06 74.85 100.65 75.36 100.66 75.87 100.67 76.28 101.1 76.27 101.61Z" fill="#D6E3DD"/><path d="M72.24 101.08C72.23 101.59 71.8 102 71.29 101.99 70.78 101.98 70.37 101.55 70.38 101.04 70.39 100.53 70.82 100.12 71.33 100.13 71.84 100.14 72.25 100.57 72.24 101.08Z" fill="#D6E3DD"/></g></g><path d="M54.19 104.49 57.57 104.49C57.57 104.49 55.6 84.78 72.58 83.63 72.58 83.63 92.68 82.27 89.39 106.74L91.28 107.44C91.28 107.44 103.01 82.24 74.28 79.84 67.06 79.24 52.4 85.03 54.2 104.49Z" fill="#111111"/></g></g></g></svg>