<svg viewBox="0 0 214.32 105.12" xmlns="http://www.w3.org/2000/svg" xmlns:xlink="http://www.w3.org/1999/xlink" overflow="hidden"><defs><linearGradient x1="27.23" y1="57.62" x2="181.72" y2="64.43" gradientUnits="userSpaceOnUse" id="linear-gradient" gradientTransform="matrix(0.999123 -0.0418757 0.0418757 0.999123 -6.74 -10.61)"><stop offset="0.05" stop-color="#006699"/><stop offset="0.28" stop-color="#217DA8"/><stop offset="0.63" stop-color="#217DA8"/><stop offset="0.76" stop-color="#1A7EA8"/><stop offset="0.94" stop-color="#0781A8"/><stop offset="1" stop-color="#0083A8"/></linearGradient><linearGradient x1="76.66" y1="31.43" x2="111.83" y2="52.12" gradientUnits="userSpaceOnUse" id="linear-gradient-2" gradientTransform="matrix(0.999123 -0.0418757 0.0418757 0.999123 -6.74 -10.61)"><stop offset="0.1" stop-color="#282526"/><stop offset="0.48" stop-color="#414042"/><stop offset="1" stop-color="#231F20"/></linearGradient><linearGradient x1="125.69" y1="37.96" x2="151.93" y2="53.97" xlink:href="#linear-gradient-2" id="linear-gradient-3"></linearGradient><linearGradient x1="126.72" y1="35.28" x2="123.86" y2="53.7" gradientUnits="userSpaceOnUse" id="linear-gradient-4" gradientTransform="matrix(0.999123 -0.0418757 0.0418757 0.999123 -6.74 -10.61)"><stop offset="0" stop-color="#918F90"/><stop offset="0.06" stop-color="#6D6C6D"/><stop offset="0.13" stop-color="#4C4B4B"/><stop offset="0.2" stop-color="#302F30"/><stop offset="0.28" stop-color="#1A1A1A"/><stop offset="0.37" stop-color="#0B0B0B"/><stop offset="0.48" stop-color="#020202"/><stop offset="0.63"/></linearGradient><linearGradient x1="121.9" y1="35.49" x2="118.71" y2="52.91" xlink:href="#linear-gradient-4" id="linear-gradient-5"></linearGradient><linearGradient x1="48.48" y1="53.35" x2="48.83" y2="56.11" gradientUnits="userSpaceOnUse" id="linear-gradient-6" gradientTransform="matrix(0.999123 -0.0418757 0.0418757 0.999123 -6.74 -10.61)"><stop offset="0.2" stop-color="#5AD1E8"/><stop offset="0.24" stop-color="#51C7E8"/><stop offset="0.36" stop-color="#3CB0E9"/><stop offset="0.48" stop-color="#2CA0E9"/><stop offset="0.62" stop-color="#2397E9"/><stop offset="0.81" stop-color="#2194EA"/></linearGradient><linearGradient x1="43.23" y1="60.5" x2="31.29" y2="61.71" gradientUnits="userSpaceOnUse" id="linear-gradient-7" gradientTransform="matrix(0.999123 -0.0418757 0.0418757 0.999123 -6.74 -10.61)"><stop offset="0" stop-color="#6D6E71"/><stop offset="0.05" stop-color="#5C5D60"/><stop offset="0.21" stop-color="#343536"/><stop offset="0.35" stop-color="#171818"/><stop offset="0.47" stop-color="#060606"/><stop offset="0.55"/></linearGradient><linearGradient x1="30.03" y1="71.42" x2="30.56" y2="79.47" xlink:href="#linear-gradient-7" id="linear-gradient-8"></linearGradient><linearGradient x1="63.72" y1="63.13" x2="67.02" y2="63.13" gradientUnits="userSpaceOnUse" id="linear-gradient-9" gradientTransform="matrix(0.999123 -0.0418757 0.0418757 0.999123 -6.74 -10.61)"><stop offset="0.07" stop-color="#EF4136"/><stop offset="0.21" stop-color="#DA3232"/><stop offset="0.38" stop-color="#CA272F"/><stop offset="0.56" stop-color="#C1202D"/><stop offset="0.81" stop-color="#BE1E2D"/></linearGradient><linearGradient x1="81.73" y1="52.67" x2="81.37" y2="48.48" gradientUnits="userSpaceOnUse" id="linear-gradient-10" gradientTransform="matrix(0.999123 -0.0418757 0.0418757 0.999123 -6.74 -10.61)"><stop offset="0" stop-color="#5AD1E8"/><stop offset="0.06" stop-color="#91BDCE"/><stop offset="0.09" stop-color="#A8B6C5"/><stop offset="0.13" stop-color="#86A7BD"/><stop offset="0.19" stop-color="#5A95B4"/><stop offset="0.24" stop-color="#3B88AD"/><stop offset="0.29" stop-color="#277FA9"/><stop offset="0.32" stop-color="#217DA8"/><stop offset="0.41" stop-color="#207BA6"/><stop offset="0.45" stop-color="#20749F"/><stop offset="0.47" stop-color="#206993"/><stop offset="0.48" stop-color="#205F89"/><stop offset="1" stop-color="#5AD1E8"/></linearGradient><linearGradient x1="76.59" y1="53.73" x2="86.41" y2="53.73" gradientUnits="userSpaceOnUse" id="linear-gradient-11" gradientTransform="matrix(0.999123 -0.0418757 0.0418757 0.999123 -6.74 -10.61)"><stop offset="0" stop-color="#6D6E71"/><stop offset="0" stop-color="#696A6D"/><stop offset="0.07" stop-color="#494A4C"/><stop offset="0.14" stop-color="#2E2F30"/><stop offset="0.21" stop-color="#191A1A"/><stop offset="0.29" stop-color="#0B0B0B"/><stop offset="0.38" stop-color="#020202"/><stop offset="0.52"/></linearGradient><linearGradient x1="81.86" y1="47.59" x2="81.86" y2="49.51" gradientUnits="userSpaceOnUse" id="linear-gradient-12" gradientTransform="matrix(0.999123 -0.0418757 0.0418757 0.999123 -6.74 -10.61)"><stop offset="0" stop-color="#7FA5D4"/><stop offset="0" stop-color="#7AA0CF"/><stop offset="0" stop-color="#7096C6"/><stop offset="0" stop-color="#6D93C4"/><stop offset="0.03" stop-color="#688EBE"/><stop offset="0.07" stop-color="#5B7FAE"/><stop offset="0.12" stop-color="#456894"/><stop offset="0.12" stop-color="#446792"/><stop offset="0.22" stop-color="#395C86"/><stop offset="0.41" stop-color="#2B4E76"/><stop offset="0.62" stop-color="#22456D"/><stop offset="0.9" stop-color="#20436A"/></linearGradient><linearGradient x1="27.8" y1="76.77" x2="71.33" y2="76.77" gradientUnits="userSpaceOnUse" id="linear-gradient-13" gradientTransform="matrix(0.999123 -0.0418757 0.0418757 0.999123 -6.74 -10.61)"><stop offset="0.03" stop-color="#58595B"/><stop offset="0.06" stop-color="#494A4B"/><stop offset="0.13" stop-color="#2E2F30"/><stop offset="0.2" stop-color="#1A1A1A"/><stop offset="0.28" stop-color="#0B0B0B"/><stop offset="0.38" stop-color="#020202"/><stop offset="0.52"/><stop offset="0.67" stop-color="#020202"/><stop offset="0.75" stop-color="#0A0A0A"/><stop offset="0.82" stop-color="#171718"/><stop offset="0.88" stop-color="#2A2B2C"/><stop offset="0.93" stop-color="#434345"/><stop offset="0.96" stop-color="#58595B"/></linearGradient><linearGradient x1="71.04" y1="78.79" x2="161.73" y2="78.79" gradientUnits="userSpaceOnUse" id="linear-gradient-14" gradientTransform="matrix(0.999123 -0.0418757 0.0418757 0.999123 -6.74 -10.61)"><stop offset="0.38" stop-color="#446792"/><stop offset="0.39" stop-color="#5074A0"/><stop offset="0.4" stop-color="#6589B7"/><stop offset="0.42" stop-color="#7399C7"/><stop offset="0.44" stop-color="#7CA2D0"/><stop offset="0.46" stop-color="#7FA5D4"/><stop offset="0.67" stop-color="#204372"/></linearGradient><linearGradient x1="40.14" y1="59.74" x2="177.91" y2="59.74" gradientUnits="userSpaceOnUse" id="linear-gradient-15" gradientTransform="matrix(0.999123 -0.0418757 0.0418757 0.999123 -6.74 -10.61)"><stop offset="0.19" stop-color="#217DA8"/><stop offset="0.19" stop-color="#227EA8"/><stop offset="0.22" stop-color="#3B92AF"/><stop offset="0.26" stop-color="#4A9EB4"/><stop offset="0.28" stop-color="#50A3B6"/><stop offset="0.29" stop-color="#469BB3"/><stop offset="0.31" stop-color="#358DAE"/><stop offset="0.33" stop-color="#2984AA"/><stop offset="0.37" stop-color="#227EA8"/><stop offset="0.46" stop-color="#217DA8"/></linearGradient><linearGradient x1="167.22" y1="45.62" x2="178.67" y2="45.62" gradientUnits="userSpaceOnUse" id="linear-gradient-16" gradientTransform="matrix(0.999123 -0.0418757 0.0418757 0.999123 -6.74 -10.61)"><stop offset="0.07" stop-color="#50A3B6"/><stop offset="0.2" stop-color="#3D94B0"/><stop offset="0.37" stop-color="#2D87AB"/><stop offset="0.56" stop-color="#247FA8"/><stop offset="0.81" stop-color="#217DA8"/></linearGradient><linearGradient x1="164.86" y1="59.67" x2="182.27" y2="59.67" xlink:href="#linear-gradient-9" id="linear-gradient-17"></linearGradient><linearGradient x1="108.51" y1="62.68" x2="108.51" y2="67.73" gradientUnits="userSpaceOnUse" id="linear-gradient-18" gradientTransform="matrix(0.999123 -0.0418757 0.0418757 0.999123 -6.74 -10.61)"><stop offset="0" stop-color="#205F89"/><stop offset="0.96" stop-color="#5AD1E8"/><stop offset="0.99" stop-color="#5AD1E8"/></linearGradient><linearGradient x1="108.75" y1="63.8" x2="108.85" y2="65.47" gradientUnits="userSpaceOnUse" id="linear-gradient-19" gradientTransform="matrix(0.999123 -0.0418757 0.0418757 0.999123 -6.74 -10.61)"><stop offset="0" stop-color="#205F89"/><stop offset="0.99" stop-color="#5AD1E8"/></linearGradient><linearGradient x1="153.04" y1="60.43" x2="153.14" y2="65.43" xlink:href="#linear-gradient-18" id="linear-gradient-20"></linearGradient><linearGradient x1="153.29" y1="61.48" x2="153.34" y2="63.12" xlink:href="#linear-gradient-19" id="linear-gradient-21"></linearGradient><radialGradient cx="53.05" cy="85.21" r="12.82" fx="53.05" fy="85.21" gradientUnits="userSpaceOnUse" id="radial-gradient" gradientTransform="matrix(0.999123 -0.0418757 0.0418757 0.999123 -6.74 -10.61)"><stop offset="0" stop-color="#BFBFBF"/><stop offset="0.08" stop-color="#A2A2A2"/><stop offset="0.21" stop-color="#797979"/><stop offset="0.35" stop-color="#565656"/><stop offset="0.49" stop-color="#3C3C3C"/><stop offset="0.63" stop-color="#292929"/><stop offset="0.78" stop-color="#1D1D1D"/><stop offset="0.93" stop-color="#1A1A1A"/></radialGradient><radialGradient cx="52.25" cy="86.17" r="8.21" fx="52.25" fy="86.17" gradientUnits="userSpaceOnUse" id="radial-gradient-2" gradientTransform="matrix(0.999123 -0.0418757 0.0418757 0.999123 -6.74 -10.61)"><stop offset="0.88" stop-color="#99B8B6"/><stop offset="0.89" stop-color="#9CBBB9"/><stop offset="0.91" stop-color="#B6D3D2"/><stop offset="0.94" stop-color="#C9E4E3"/><stop offset="0.97" stop-color="#D5EEEE"/><stop offset="1" stop-color="#D9F2F2"/></radialGradient><radialGradient cx="52.49" cy="86.09" r="6.78" fx="52.49" fy="86.09" xlink:href="#radial-gradient" id="radial-gradient-3"></radialGradient><linearGradient x1="51.54" y1="83.8" x2="48.92" y2="78.46" gradientUnits="userSpaceOnUse" id="linear-gradient-22" gradientTransform="matrix(0.999123 -0.0418757 0.0418757 0.999123 -6.74 -10.61)"><stop offset="0" stop-color="#FFFFFF"/><stop offset="1" stop-color="#CFE3DD"/></linearGradient><linearGradient x1="52.58" y1="88.7" x2="53" y2="94.59" xlink:href="#linear-gradient-22" id="linear-gradient-23"></linearGradient><linearGradient x1="50.18" y1="88.34" x2="46.55" y2="92.2" xlink:href="#linear-gradient-22" id="linear-gradient-24"></linearGradient><linearGradient x1="49.63" y1="84.89" x2="43.98" y2="85.02" xlink:href="#linear-gradient-22" id="linear-gradient-25"></linearGradient><linearGradient x1="53.41" y1="84.29" x2="56.19" y2="78.21" xlink:href="#linear-gradient-22" id="linear-gradient-26"></linearGradient><linearGradient x1="54.3" y1="85.39" x2="60.45" y2="84.18" xlink:href="#linear-gradient-22" id="linear-gradient-27"></linearGradient><linearGradient x1="53.75" y1="87.85" x2="59.33" y2="91.24" xlink:href="#linear-gradient-22" id="linear-gradient-28"></linearGradient><radialGradient cx="305.64" cy="-166.18" r="12.82" fx="305.64" fy="-166.18" xlink:href="#radial-gradient" id="radial-gradient-4" gradientTransform="matrix(0.67559 -0.737277 0.737277 0.67559 75.53 410.27)"></radialGradient><radialGradient cx="304.83" cy="-165.21" r="8.21" fx="304.83" fy="-165.21" xlink:href="#radial-gradient-2" id="radial-gradient-5" gradientTransform="matrix(-0.0626163 -0.998038 0.998038 -0.0626163 344.5 367.28)"></radialGradient><radialGradient cx="305.08" cy="-165.29" r="6.78" fx="305.08" fy="-165.29" xlink:href="#radial-gradient" id="radial-gradient-6" gradientTransform="matrix(-0.0626163 -0.998038 0.998038 -0.0626163 344.5 367.28)"></radialGradient><linearGradient x1="162.95" y1="88.77" x2="160.33" y2="83.42" xlink:href="#linear-gradient-22" id="linear-gradient-29"></linearGradient><linearGradient x1="163.98" y1="93.67" x2="164.41" y2="99.56" xlink:href="#linear-gradient-22" id="linear-gradient-30"></linearGradient><linearGradient x1="161.77" y1="93.12" x2="157.96" y2="97.17" xlink:href="#linear-gradient-22" id="linear-gradient-31"></linearGradient><linearGradient x1="161.04" y1="89.85" x2="155.38" y2="89.98" xlink:href="#linear-gradient-22" id="linear-gradient-32"></linearGradient><linearGradient x1="164.82" y1="89.26" x2="167.6" y2="83.17" xlink:href="#linear-gradient-22" id="linear-gradient-33"></linearGradient><linearGradient x1="165.71" y1="90.36" x2="171.86" y2="89.15" xlink:href="#linear-gradient-22" id="linear-gradient-34"></linearGradient><linearGradient x1="165.15" y1="92.81" x2="170.74" y2="96.2" xlink:href="#linear-gradient-22" id="linear-gradient-35"></linearGradient></defs><g><g id="Layer_1"><ellipse cx="107.66" cy="84.64" rx="76.22" ry="2.99" fill="#B7B6B6"/><g><path d="M178.99 58.96C179.1 61.77 178.9 64.75 178.07 67.28 178.07 67.28 178.14 68.27 178.63 68.33L178.63 68.38C178.58 68.52 178.49 68.9 178.3 69.41 177.77 70.83 176.51 73.15 173.97 73.1 173.97 73.1 174.95 67.73 173.36 63.41 172.61 61.34 171.27 59.52 168.96 58.64 168.96 58.64 151.32 50.22 146.24 71.92 146.24 71.92 91.51 75.59 69.66 73.76 69.66 73.76 68.47 75.25 68.05 74.99 67.88 74.89 67.19 74.86 66.42 74.87 65.26 74.87 63.92 74.96 63.92 74.96 63.92 74.96 66.61 62.41 56.16 57.47 50.26 54.68 32.58 53.77 34.55 72.1L35.57 72.36 34.56 72.89 27.51 71.5C27.51 71.5 24.92 71.26 24.37 67.98L25.45 66.8 25.53 65.97C25.53 65.97 25.14 63.39 25.1 59.99 25.04 55.54 25.56 49.68 28.31 46.37 28.31 46.37 28.31 46.37 28.33 46.37 28.59 46.06 28.87 45.77 29.17 45.5 29.68 45.05 30.25 44.68 30.89 44.4 30.89 44.4 32.95 43.41 42.69 41.34 46.68 40.5 51.95 39.47 58.9 38.26 60.9 37.92 63.04 37.55 65.33 37.17 65.33 37.17 72.34 33.71 73.6 32.14 73.6 32.14 78.13 28.64 84.15 25.01 90.92 20.94 99.57 16.69 105.85 17.01 105.85 17.01 135.07 16.34 157.26 19.82L161.93 19.98 164.53 20.07C164.53 20.07 165.97 20.01 166.14 22.34 166.14 22.34 171.71 31.24 172.74 34.23 172.74 34.23 173.29 34.7 174.02 35.54 176 37.8 179.41 42.78 177.52 48.71 177.52 48.74 177.5 48.78 177.49 48.82 177.49 48.82 177.49 48.85 177.52 48.92 177.71 49.63 178.82 54.05 179.01 58.97L179.01 58.97Z" fill="url(#linear-gradient)"/><g><path d="M118.95 19.66 116.03 37.51 112.11 37.86 73.67 41.3C70.31 42.36 72.36 39.57 72.56 38.95 73.67 35.62 95.19 22.49 95.19 22.49 98.92 20.49 108.33 19.9 114.12 19.72 116.97 19.63 118.94 19.65 118.94 19.65Z" stroke="#1D1E1E" stroke-miterlimit="10" fill="url(#linear-gradient-2)" opacity="0.9"/><path d="M154.39 26.6C153.61 29.54 153.87 35.44 146.3 35.69L119.87 37.28 116.03 37.51 118.95 19.66C118.95 19.66 121.13 19.64 124.45 19.7 132.07 19.83 145.74 20.35 153.18 22.41 153.18 22.41 155.4 22.82 154.39 26.6Z" stroke="#1D1E1E" stroke-miterlimit="10" fill="url(#linear-gradient-3)" opacity="0.9"/><path d="M124.16 19.95C121.81 19.84 121.65 22.4 121.65 22.4L120.27 37.13 119.88 37.28 116.04 37.51 118.96 19.66C118.96 19.66 121.14 19.64 124.46 19.7 124.63 19.87 124.57 19.97 124.16 19.95Z" fill="url(#linear-gradient-4)"/><path d="M118.95 19.66 116 37.11 112.19 37.4 115.48 25.07C116.51 20 114.16 19.89 114.16 19.89L114.13 19.73C116.98 19.64 118.95 19.66 118.95 19.66Z" fill="url(#linear-gradient-5)"/></g><g><path d="M146.24 71.92 173.97 73.1C173.97 73.1 180.99 58.39 161.65 56.25 161.65 56.25 146.87 55.29 146.24 71.92Z" fill="#1D1E1E"/><path d="M64.09 74.93C64.09 74.93 48.44 73.39 35.72 72.2 35.33 72.16 34.94 72.13 34.55 72.09 34.55 72.09 31.91 60.71 42.15 56.94 42.74 56.72 43.37 56.53 44.04 56.37 50.78 54.74 65.46 54.78 64.08 74.94Z" fill="#1D1E1E"/><path d="M104.69 18.24C104.69 18.24 92.98 16.96 70.07 37.65 70.07 37.65 64.98 41.17 67.8 65.57 67.8 65.57 67.82 70.53 70.69 69.95 70.69 69.95 140.37 70.48 140.8 69.81 141.23 69.15 146.2 71.6 146.43 66.08 146.43 66.08 148.69 58.55 156.21 56.3 156.21 56.3 157.19 57.13 158.78 39.16L158.35 35.53C158.35 35.53 159.99 19.32 153.78 20.22 153.78 20.22 118.62 16.27 104.69 18.23Z" stroke="#26989B" stroke-miterlimit="10" fill="none"/><path d="M59.13 38.42C59.13 38.42 57.22 40.98 56.12 41.12 55.13 41.24 33.72 43.49 29.16 45.48 29.67 45.03 30.24 44.66 30.88 44.38 30.88 44.38 34.96 42.41 58.9 38.24L59.13 38.42Z" fill="url(#linear-gradient-6)"/><path d="M25.34 55.08C25.34 55.08 34.4 52.63 35.49 50.8 36.58 48.96 42.08 43.71 42.05 43.02 42.02 42.33 30.61 43.47 27.76 47.06 26.87 48.18 24.75 54.21 25.34 55.08Z" fill="url(#linear-gradient-7)"/><path d="M28.6 66.97C28.6 66.97 25.9 67.68 25.46 66.78L25.53 65.95C25.53 65.95 25.14 63.37 25.1 59.97L25.24 59.99C25.24 59.99 25.96 57.52 27.45 60.12 27.45 60.12 28.64 65.54 28.61 66.96Z" fill="url(#linear-gradient-8)"/><path d="M170.77 40.25C170.77 40.25 170.73 40.25 170.57 40.25 170.64 40.26 170.7 40.27 170.77 40.25Z" fill="#023C60" opacity="0.7"/><path d="M62.12 50.48 60.37 50.55C59.94 50.57 59.58 50.23 59.56 49.81L59.56 49.81C59.54 49.38 59.88 49.02 60.3 49L62.05 48.93C62.48 48.91 62.84 49.25 62.86 49.67L62.86 49.67C62.88 50.1 62.54 50.46 62.12 50.48Z" fill="url(#linear-gradient-9)"/><path d="M81.79 38.18C81.78 38.79 81.7 39.41 81.54 39.99 81.54 39.99 73.25 41.2 72.93 40.8 72.6 40.4 71.79 39.02 73.3 38.96 73.3 38.96 72.38 36.76 72.85 36.36 72.85 36.36 75.56 32.05 81.06 33.54 81.06 33.54 81.24 34.05 81.41 34.84 81.61 35.72 81.82 36.95 81.79 38.19Z" fill="url(#linear-gradient-10)"/><path d="M81.79 38.18C81.78 38.79 81.7 39.41 81.54 39.99 81.54 39.99 72.49 41.58 72.17 41.18 71.84 40.78 72.4 38.91 73.11 38.69 73.11 38.69 81.24 37.92 81.76 38.17 81.77 38.17 81.78 38.18 81.79 38.19Z" fill="url(#linear-gradient-11)"/><path d="M81.41 34.83C81.41 34.83 81.39 34.83 81.39 34.83 79.21 34.28 72.85 36.36 72.85 36.36 72.85 36.36 75.56 32.05 81.06 33.54 81.06 33.54 81.24 34.05 81.41 34.84Z" fill="url(#linear-gradient-12)" opacity="0.99"/><path d="M68.05 74.99C67.63 74.73 63.92 74.95 63.92 74.95 63.92 74.95 64.45 70.68 63.06 66.07 62.1 62.89 60.43 59.48 56.16 57.46 50.26 54.67 32.59 53.76 34.55 72.09L35.72 72.22 34.56 72.87 27.52 71.48C27.52 71.48 24.93 71.24 24.37 67.96 24.37 67.96 32.02 69.81 30.99 66.62 30.99 66.62 31.83 55.42 42.34 53.05 42.34 53.05 52.79 49.38 59.95 55.76 59.95 55.76 63.18 57.34 67.36 66.6 67.36 66.6 67.4 66.87 67.48 67.31 67.77 69.07 68.44 73.59 68.06 74.98Z" fill="url(#linear-gradient-13)"/><path d="M42.15 56.94C42.02 57.1 41.69 57.31 41.13 57.56 35.31 60.23 35.69 71.62 35.72 72.2 35.33 72.16 34.94 72.13 34.55 72.09 34.55 72.09 31.91 60.71 42.15 56.94Z" fill="#2F2F30"/><path d="M68.1 66.85C68.1 66.85 68.54 71.02 71.1 69.74 71.1 69.74 137.97 70.21 139.15 70.16 140.33 70.11 145.48 71.27 146.03 67.12 146.58 62.97 151.69 57.75 156.05 56.22 156.93 55.91 157.36 53.97 157.28 52.67" stroke="url(#linear-gradient-14)" stroke-miterlimit="10" fill="none" opacity="0.58"/><path d="M171.43 38.95C158.76 39.41 53.84 44.68 37.82 48.03L35.97 50.19C48.32 46.69 168.03 41.33 173.48 41.22 173.14 41.15 171.7 39.43 171.42 38.95Z" fill="url(#linear-gradient-15)"/><path d="M174.01 35.52C172.2 35.67 170.29 35.41 170 33.69 169.45 30.31 161.9 20.02 161.9 20.02L161.92 19.96 164.52 20.05C164.52 20.05 165.96 19.99 166.13 22.32 166.13 22.32 171.69 31.22 172.73 34.21 172.73 34.21 173.27 34.68 174.01 35.52Z" fill="url(#linear-gradient-16)"/><path d="M116.95 37.3C116.95 37.3 113.5 61.21 116.87 66.57" stroke="#049AB2" stroke-miterlimit="10" fill="none"/><path d="M67.6 66.57C67.6 66.57 134.41 61.02 146.2 62.69 151.21 63.4 120.33 67.63 67.6 66.57Z" fill="#31C4C4" opacity="0.58"/><path d="M178.99 58.96C178.84 59.62 177.73 61 176.21 62.07 174.63 56.37 167.72 53.94 167.72 53.94 152.93 49.33 146.93 60.64 146.93 60.64 146.69 61.5 145.48 62.15 143.9 62.64 143.9 62.64 143.88 62.64 143.88 62.64 140.13 63.81 126.45 64.36 118.67 64.71 98.75 65.64 67.33 66.6 67.33 66.6L66.4 74.86C72.49 76.18 146.21 71.91 146.21 71.91 146.46 70.85 146.74 69.87 147.04 68.95 147.4 67.87 147.79 66.88 148.22 65.98 154.84 51.9 168.93 58.63 168.93 58.63 171.25 59.52 172.59 61.34 173.33 63.4L173.33 63.4C174.92 67.72 173.94 73.08 173.94 73.08 176.48 73.12 177.74 70.81 178.27 69.39 178.46 68.9 180.12 63.12 178.96 58.95ZM173.4 63.38C173.4 63.38 173.45 63.38 173.48 63.38 173.44 63.38 173.4 63.4 173.37 63.41L173.41 63.39Z" fill="#2F2F30"/><path d="M160.31 38.53C160.31 38.53 162.84 35.67 172.73 34.21 172.73 34.21 180.02 40.94 177.47 48.81 177.47 48.81 164.11 44.86 160.31 38.53Z" fill="url(#linear-gradient-17)"/><g><path d="M106.88 48.28C106.94 49.69 105.84 50.88 104.43 50.94 103.02 51 101.83 49.9 101.77 48.49 101.71 47.08 102.81 45.89 104.22 45.83 105.63 45.77 106.82 46.87 106.88 48.28Z" fill="url(#linear-gradient-18)"/><path d="M108.98 49.16 100.24 49.56C99.79 49.58 99.41 49.23 99.39 48.78L99.39 48.78C99.37 48.33 99.72 47.95 100.17 47.93L108.91 47.53C109.36 47.51 109.74 47.86 109.76 48.31L109.76 48.31C109.78 48.76 109.43 49.14 108.98 49.16Z" fill="url(#linear-gradient-19)"/></g><g><path d="M151.3 44.26C151.36 45.67 150.26 46.86 148.85 46.92 147.44 46.98 146.25 45.88 146.19 44.47 146.13 43.06 147.23 41.87 148.64 41.81 150.05 41.75 151.24 42.85 151.3 44.26Z" fill="url(#linear-gradient-20)"/><path d="M153.4 45.14 144.66 45.54C144.21 45.56 143.83 45.21 143.81 44.76L143.81 44.76C143.79 44.31 144.14 43.93 144.59 43.91L153.33 43.51C153.78 43.49 154.16 43.84 154.18 44.29L154.18 44.29C154.2 44.74 153.85 45.12 153.4 45.14Z" fill="url(#linear-gradient-21)"/></g></g><g><g><path d="M62.64 71.77C62.94 78.85 57.44 84.82 50.37 85.12 43.29 85.42 37.32 79.92 37.02 72.85 36.72 65.77 42.22 59.8 49.29 59.5 56.37 59.2 62.34 64.7 62.64 71.77Z" fill="url(#radial-gradient)"/><path d="M57.82 72.94C58.02 77.78 54.27 81.86 49.43 82.06 44.59 82.26 40.51 78.51 40.31 73.67 40.11 68.83 43.86 64.75 48.7 64.55 53.54 64.35 57.62 68.1 57.82 72.94Z" fill="#D6E3DD"/><path d="M49.41 81.51C44.89 81.7 41.05 78.17 40.86 73.65 40.67 69.13 44.2 65.29 48.72 65.1 53.24 64.91 57.08 68.44 57.27 72.96 57.46 77.48 53.93 81.32 49.41 81.51Z" fill="url(#radial-gradient-2)"/><path d="M56.08 72.93C56.24 76.67 53.33 79.83 49.59 79.99 45.85 80.15 42.69 77.24 42.53 73.5 42.37 69.76 45.28 66.6 49.02 66.44 52.76 66.28 55.92 69.19 56.08 72.93Z" fill="url(#radial-gradient-3)"/><g><g><path d="M43.38 67.06 45.36 68.53 46.84 71.67 48.35 70.68 47.27 67.79 47.73 64.92C47.73 64.92 45.42 65.19 43.38 67.06Z" fill="url(#linear-gradient-22)"/><path d="M48.1 81.56 48.68 79.24 48.12 76.02 50.34 75.65 50.66 78.99 52.14 81.04C52.14 81.04 50.82 82.09 48.1 81.55Z" fill="url(#linear-gradient-23)"/></g><path d="M42.1 77.63 44.46 76.75 46.24 74.42 47.41 75.96 46 78.16 45.76 80.82C45.76 80.82 43.51 80.01 42.11 77.64Z" fill="url(#linear-gradient-24)"/><path d="M41.7 69.72 43.39 71.29 46.52 72.02 46.38 73.83 43.24 73.51 41.07 75.19C41.07 75.19 40.05 71.94 41.7 69.72Z" fill="url(#linear-gradient-25)"/><path d="M50.55 64.94 50.64 67.45 48.93 70.76 50.67 71.13 52.46 68.13 54.24 66.74C54.24 66.74 53.29 65.4 50.55 64.93Z" fill="url(#linear-gradient-26)"/><path d="M56.23 68.89 55.03 70.29 50.9 71.64 51.28 73.28 55.4 72.52 57.26 73.26C57.26 73.26 57.85 71.12 56.23 68.9Z" fill="url(#linear-gradient-27)"/><path d="M57.04 76.03 54.57 75.82 51.72 73.8 50.48 75.37 53.65 77.45 54.54 79.47C54.54 79.47 56.42 78.45 57.04 76.02Z" fill="url(#linear-gradient-28)"/></g><path d="M51.95 73.44C52.02 75.14 50.7 76.58 49 76.65 47.3 76.72 45.86 75.4 45.79 73.7 45.72 72 47.04 70.56 48.74 70.49 50.44 70.42 51.88 71.74 51.95 73.44Z" fill="#D6E3DD"/><path d="M48.59 71.07C50.29 71 51.73 72.32 51.8 74.02 51.8 74.22 51.8 74.41 51.77 74.6 51.9 74.24 51.97 73.84 51.95 73.43 51.88 71.73 50.44 70.41 48.74 70.48 47.23 70.54 46.03 71.68 45.82 73.11 46.23 71.96 47.3 71.12 48.59 71.07Z" fill="#F2F9F5"/><path d="M49.01 76.2C47.31 76.27 45.87 74.95 45.8 73.25 45.79 73.39 45.78 73.54 45.78 73.69 45.85 75.39 47.29 76.71 48.99 76.64 50.69 76.57 52.01 75.13 51.94 73.43 51.94 73.43 51.94 73.43 51.94 73.43 51.79 74.93 50.56 76.14 49 76.2Z" fill="#AFAFAF"/></g><g><circle cx="159.49" cy="72.67" r="12.82" fill="url(#radial-gradient-4)" transform="matrix(0.693402 -0.720551 0.720551 0.693402 -3.47 137.19)"/><path d="M159.96 64.67C164.79 64.37 168.95 68.04 169.25 72.87 169.55 77.7 165.88 81.86 161.05 82.16 156.22 82.46 152.06 78.79 151.76 73.96 151.46 69.13 155.13 64.97 159.96 64.67Z" fill="#D6E3DD"/><path d="M168.7 72.9C168.98 77.42 165.54 81.33 161.02 81.61 156.5 81.89 152.59 78.45 152.31 73.93 152.03 69.41 155.47 65.5 159.99 65.22 164.51 64.94 168.42 68.38 168.7 72.9Z" fill="url(#radial-gradient-5)"/><path d="M159.98 66.41C163.72 66.18 166.94 69.01 167.17 72.75 167.4 76.49 164.57 79.71 160.83 79.94 157.09 80.17 153.87 77.34 153.64 73.6 153.41 69.86 156.24 66.64 159.98 66.41Z" fill="url(#radial-gradient-6)"/><g><g><path d="M154.89 67.37 156.65 68.74 158.35 71.99 159.86 71 158.79 67.9 159.24 65.25C159.24 65.25 156.93 65.52 154.89 67.39Z" fill="url(#linear-gradient-29)"/><path d="M159.62 81.87 160.31 79.34 159.65 76.34 161.87 75.97 162.27 79.16 163.67 81.36C163.67 81.36 162.35 82.41 159.63 81.87Z" fill="url(#linear-gradient-30)"/></g><path d="M153.61 77.93 155.93 77.03 157.97 74.55 159.16 76.18 157.77 78.23 157.25 81.11C157.25 81.11 155 80.3 153.6 77.93Z" fill="url(#linear-gradient-31)"/><path d="M153.21 70.03 154.38 71.7 158.03 72.34 157.89 74.15 154.42 73.92 152.57 75.51C152.57 75.51 151.55 72.26 153.2 70.04Z" fill="url(#linear-gradient-32)"/><path d="M162.07 65.25 162.07 67.55C162.07 67.55 160.45 71.07 160.45 71.07L162.19 71.44 164.07 68.3 165.76 67.06C165.76 67.06 164.81 65.72 162.07 65.25Z" fill="url(#linear-gradient-33)"/><path d="M167.74 69.2 166.13 70.89 162.41 71.95 162.79 73.59 166.58 72.82 168.77 73.57C168.77 73.57 169.36 71.43 167.74 69.21Z" fill="url(#linear-gradient-34)"/><path d="M168.55 76.34 166.05 76 163.22 74.12 161.98 75.69 164.99 77.67 166.04 79.79C166.04 79.79 167.92 78.77 168.54 76.34Z" fill="url(#linear-gradient-35)"/></g><path d="M160.58 70.53C162.28 70.42 163.75 71.72 163.85 73.42 163.96 75.12 162.66 76.59 160.96 76.69 159.26 76.8 157.79 75.5 157.69 73.8 157.59 72.1 158.88 70.63 160.58 70.53Z" fill="#D6E3DD"/><path d="M158.29 73.93C158.18 72.23 159.48 70.76 161.18 70.66 161.38 70.65 161.57 70.66 161.76 70.68 161.39 70.56 161 70.5 160.59 70.53 158.89 70.64 157.6 72.1 157.7 73.8 157.79 75.3 158.95 76.49 160.39 76.67 159.23 76.28 158.37 75.23 158.29 73.94Z" fill="#F2F9F5"/><path d="M163.4 73.41C163.51 75.11 162.22 76.57 160.52 76.68 160.66 76.69 160.81 76.7 160.96 76.68 162.66 76.57 163.95 75.11 163.85 73.41 163.74 71.71 162.28 70.42 160.58 70.52 160.58 70.52 160.58 70.52 160.58 70.52 162.09 70.64 163.31 71.85 163.41 73.4Z" fill="#AFAFAF"/></g></g></g></g></g></svg>