<svg viewBox="0 0 274.74 210.71" xmlns="http://www.w3.org/2000/svg" xmlns:xlink="http://www.w3.org/1999/xlink" id="Layer_1" overflow="hidden"><defs></defs><g><g><path d="M120.41 32.15C120.19 32.15 120 32 119.95 31.78L112.77 0.58C112.71 0.32 112.87 0.07 113.13 0.01 113.39-0.05 113.64 0.11 113.7 0.37L120.88 31.56C120.94 31.82 120.78 32.07 120.52 32.13 120.48 32.13 120.45 32.14 120.41 32.14Z" fill="#003F4B"/><path d="M124.03 47.88C123.81 47.88 123.62 47.73 123.57 47.51L121.45 38.3C121.39 38.04 121.55 37.79 121.81 37.73 122.07 37.67 122.32 37.83 122.38 38.09L124.5 47.3C124.56 47.56 124.4 47.81 124.14 47.87 124.1 47.87 124.07 47.88 124.03 47.88Z" fill="#003F4B"/></g><g><path d="M74.59 48.51C74.48 48.51 74.36 48.47 74.27 48.39L47.7 24.12C47.51 23.94 47.49 23.64 47.67 23.45 47.85 23.26 48.15 23.24 48.34 23.42L74.91 47.69C75.1 47.87 75.12 48.17 74.94 48.36 74.85 48.46 74.72 48.51 74.59 48.51Z" fill="#003F4B"/><path d="M88 60.75C87.89 60.75 87.77 60.71 87.68 60.63L79.83 53.46C79.64 53.28 79.62 52.98 79.8 52.79 79.98 52.6 80.28 52.58 80.47 52.76L88.32 59.93C88.51 60.11 88.53 60.41 88.35 60.6 88.26 60.7 88.13 60.75 88 60.75Z" fill="#003F4B"/></g><g><path d="M45.6 80.24C45.6 80.24 45.51 80.24 45.47 80.22L6.62 69.39C6.37 69.32 6.22 69.06 6.29 68.81 6.36 68.56 6.63 68.41 6.87 68.48L45.72 79.32C45.97 79.39 46.12 79.65 46.05 79.9 45.99 80.11 45.8 80.25 45.59 80.25Z" fill="#003F4B"/><path d="M65.19 85.71C65.19 85.71 65.1 85.71 65.06 85.69L53.59 82.49C53.34 82.42 53.19 82.16 53.26 81.91 53.33 81.66 53.6 81.51 53.85 81.58L65.32 84.78C65.57 84.85 65.72 85.11 65.65 85.36 65.59 85.57 65.4 85.71 65.19 85.71Z" fill="#003F4B"/></g><g><path d="M0.47 124.33C0.24 124.33 0.03 124.16 0 123.92-0.04 123.66 0.15 123.42 0.41 123.39L41.13 117.89C41.39 117.85 41.63 118.04 41.66 118.3 41.7 118.56 41.51 118.8 41.25 118.83L0.54 124.32C0.54 124.32 0.5 124.32 0.48 124.32Z" fill="#003F4B"/><path d="M49.71 117.67C49.48 117.67 49.27 117.5 49.24 117.26 49.2 117 49.39 116.76 49.65 116.73L61.67 115.11C61.93 115.08 62.17 115.26 62.2 115.52 62.24 115.78 62.05 116.02 61.79 116.05L49.77 117.67C49.77 117.67 49.73 117.67 49.71 117.67Z" fill="#003F4B"/></g><g><path d="M30.88 174.29C30.72 174.29 30.57 174.21 30.48 174.07 30.34 173.85 30.4 173.56 30.62 173.41L62.29 153.05C62.51 152.91 62.8 152.97 62.95 153.19 63.09 153.41 63.03 153.7 62.81 153.85L31.14 174.21C31.06 174.26 30.97 174.29 30.88 174.29Z" fill="#003F4B"/><path d="M69.18 149.67C69.02 149.67 68.87 149.59 68.78 149.45 68.64 149.23 68.7 148.94 68.92 148.79L78.27 142.78C78.49 142.64 78.78 142.7 78.93 142.92 79.07 143.14 79.01 143.43 78.79 143.58L69.44 149.59C69.36 149.64 69.27 149.67 69.18 149.67Z" fill="#003F4B"/></g><g><path d="M89.83 205.91C89.76 205.91 89.69 205.9 89.63 205.86 89.39 205.75 89.29 205.46 89.4 205.23L103.54 175.47C103.65 175.23 103.94 175.13 104.17 175.24 104.41 175.35 104.51 175.64 104.4 175.87L90.26 205.63C90.18 205.8 90.01 205.9 89.83 205.9Z" fill="#003F4B"/><path d="M106.92 169.92C106.85 169.92 106.78 169.91 106.72 169.87 106.48 169.76 106.38 169.47 106.49 169.24L110.67 160.45C110.78 160.21 111.07 160.11 111.3 160.22 111.54 160.33 111.64 160.62 111.53 160.85L107.35 169.64C107.27 169.81 107.1 169.91 106.92 169.91Z" fill="#003F4B"/></g><g><path d="M161.51 210.71C161.29 210.71 161.1 210.56 161.05 210.34L153.87 179.15C153.81 178.89 153.97 178.64 154.23 178.58 154.49 178.52 154.74 178.68 154.8 178.94L161.98 210.13C162.04 210.39 161.88 210.64 161.62 210.7 161.58 210.7 161.55 210.71 161.51 210.71Z" fill="#003F4B"/><path d="M152.83 173C152.61 173 152.42 172.85 152.37 172.63L150.25 163.42C150.19 163.16 150.35 162.91 150.61 162.85 150.87 162.79 151.12 162.95 151.18 163.21L153.3 172.42C153.36 172.68 153.2 172.93 152.94 172.99 152.9 172.99 152.87 173 152.83 173Z" fill="#003F4B"/></g><g><path d="M226.72 187.42C226.61 187.42 226.49 187.38 226.4 187.3L199.83 163.03C199.64 162.85 199.62 162.55 199.8 162.36 199.98 162.17 200.28 162.15 200.47 162.33L227.04 186.6C227.23 186.78 227.25 187.08 227.07 187.27 226.98 187.37 226.85 187.42 226.72 187.42Z" fill="#003F4B"/><path d="M194.59 158.08C194.48 158.08 194.36 158.04 194.27 157.96L186.42 150.79C186.23 150.61 186.21 150.31 186.39 150.12 186.57 149.93 186.87 149.91 187.06 150.09L194.91 157.26C195.1 157.44 195.12 157.74 194.94 157.93 194.85 158.03 194.72 158.08 194.59 158.08Z" fill="#003F4B"/></g><g><path d="M267.99 142.26C267.99 142.26 267.9 142.26 267.86 142.24L229.01 131.41C228.76 131.34 228.61 131.08 228.68 130.83 228.75 130.58 229.01 130.43 229.26 130.5L268.11 141.33C268.36 141.4 268.51 141.66 268.44 141.91 268.38 142.12 268.19 142.26 267.98 142.26Z" fill="#003F4B"/><path d="M221.02 129.16C221.02 129.16 220.93 129.16 220.89 129.14L209.42 125.94C209.17 125.87 209.02 125.61 209.09 125.36 209.16 125.11 209.43 124.96 209.67 125.03L221.14 128.23C221.39 128.3 221.54 128.56 221.47 128.81 221.41 129.02 221.22 129.16 221.01 129.16Z" fill="#003F4B"/></g><g><path d="M233.55 92.84C233.32 92.84 233.11 92.67 233.08 92.43 233.04 92.17 233.23 91.93 233.49 91.9L274.21 86.4C274.47 86.37 274.71 86.55 274.74 86.81 274.78 87.07 274.59 87.31 274.33 87.34L233.61 92.84C233.61 92.84 233.57 92.84 233.55 92.84Z" fill="#003F4B"/><path d="M213.01 95.61C212.78 95.61 212.57 95.44 212.54 95.2 212.5 94.94 212.69 94.7 212.95 94.67L224.98 93.05C225.24 93.02 225.48 93.2 225.51 93.46 225.55 93.72 225.36 93.96 225.1 93.99L213.07 95.61C213.07 95.61 213.03 95.61 213.01 95.61Z" fill="#003F4B"/></g><g><path d="M212.18 57.73C212.02 57.73 211.87 57.65 211.78 57.51 211.64 57.29 211.7 57 211.92 56.85L243.59 36.49C243.81 36.35 244.1 36.41 244.25 36.63 244.39 36.85 244.33 37.14 244.11 37.29L212.44 57.65C212.36 57.7 212.27 57.73 212.18 57.73Z" fill="#003F4B"/><path d="M196.21 68.01C196.05 68.01 195.9 67.93 195.81 67.79 195.67 67.57 195.73 67.28 195.95 67.13L205.3 61.12C205.52 60.98 205.81 61.04 205.96 61.26 206.1 61.48 206.04 61.77 205.82 61.92L196.47 67.93C196.39 67.98 196.3 68.01 196.21 68.01Z" fill="#003F4B"/></g><g><path d="M170.77 35.52C170.7 35.52 170.63 35.51 170.57 35.47 170.33 35.36 170.23 35.07 170.34 34.84L184.48 5.07C184.59 4.83 184.88 4.73 185.11 4.84 185.35 4.95 185.45 5.24 185.34 5.47L171.2 35.24C171.12 35.41 170.95 35.51 170.77 35.51Z" fill="#003F4B"/><path d="M163.64 50.54C163.57 50.54 163.5 50.53 163.44 50.49 163.2 50.38 163.1 50.09 163.21 49.86L167.39 41.07C167.5 40.83 167.79 40.73 168.02 40.84 168.26 40.95 168.36 41.24 168.25 41.47L164.07 50.26C163.99 50.43 163.82 50.53 163.64 50.53Z" fill="#003F4B"/></g><g><path d="M50.32 59.13C50.24 59.13 50.17 59.11 50.1 59.07L47.6 57.73C47.37 57.61 47.28 57.32 47.41 57.09 47.53 56.86 47.82 56.77 48.05 56.9L50.55 58.24C50.78 58.36 50.87 58.65 50.74 58.88 50.65 59.04 50.49 59.13 50.32 59.13Z" fill="#003F4B"/><path d="M59.91 64.28C59.83 64.28 59.76 64.26 59.69 64.22L55.01 61.71C54.78 61.59 54.69 61.3 54.82 61.07 54.94 60.84 55.23 60.75 55.46 60.88L60.14 63.39C60.37 63.51 60.46 63.8 60.33 64.03 60.24 64.19 60.08 64.28 59.91 64.28Z" fill="#003F4B"/><path d="M73.58 71.61C73.5 71.61 73.43 71.59 73.36 71.55L63.36 66.19C63.13 66.07 63.04 65.78 63.17 65.55 63.29 65.32 63.58 65.23 63.81 65.36L73.81 70.72C74.04 70.84 74.13 71.13 74 71.36 73.91 71.52 73.75 71.61 73.58 71.61Z" fill="#003F4B"/></g><g><path d="M31.51 98.74C31.51 98.74 31.49 98.74 31.48 98.74L28.44 98.54C28.18 98.52 27.98 98.3 28 98.03 28.02 97.77 28.24 97.58 28.51 97.59L31.55 97.79C31.81 97.81 32.01 98.03 31.99 98.3 31.97 98.55 31.76 98.74 31.52 98.74Z" fill="#003F4B"/><path d="M43.17 99.52C43.17 99.52 43.15 99.52 43.14 99.52L37.45 99.14C37.19 99.12 36.99 98.9 37.01 98.63 37.03 98.37 37.26 98.17 37.52 98.19L43.21 98.57C43.47 98.59 43.67 98.81 43.65 99.08 43.63 99.33 43.42 99.52 43.18 99.52Z" fill="#003F4B"/><path d="M59.8 100.63C59.8 100.63 59.78 100.63 59.77 100.63L47.61 99.81C47.35 99.79 47.15 99.57 47.17 99.3 47.19 99.04 47.42 98.85 47.68 98.86L59.84 99.68C60.1 99.7 60.3 99.92 60.28 100.19 60.26 100.44 60.05 100.63 59.81 100.63Z" fill="#003F4B"/></g><g><path d="M38.29 141.23C38.1 141.23 37.91 141.11 37.84 140.92 37.75 140.67 37.88 140.4 38.13 140.31L40.89 139.32C41.14 139.23 41.41 139.36 41.5 139.61 41.59 139.86 41.46 140.13 41.21 140.22L38.45 141.21C38.4 141.23 38.34 141.24 38.29 141.24Z" fill="#003F4B"/><path d="M46.5 138.3C46.3 138.3 46.12 138.18 46.05 137.98 45.96 137.73 46.09 137.46 46.34 137.37L51.51 135.52C51.76 135.43 52.03 135.56 52.12 135.81 52.21 136.06 52.08 136.33 51.83 136.42L46.66 138.27C46.61 138.29 46.55 138.3 46.5 138.3Z" fill="#003F4B"/><path d="M55.73 135C55.53 135 55.35 134.88 55.28 134.68 55.19 134.43 55.32 134.16 55.57 134.07L66.63 130.12C66.88 130.03 67.15 130.16 67.24 130.41 67.33 130.66 67.2 130.93 66.95 131.02L55.89 134.97C55.84 134.99 55.78 135 55.73 135Z" fill="#003F4B"/></g><g><path d="M74.67 174.44C74.56 174.44 74.44 174.4 74.35 174.32 74.16 174.14 74.14 173.84 74.32 173.65L76.07 171.73C76.25 171.54 76.55 171.52 76.74 171.7 76.93 171.88 76.95 172.18 76.77 172.37L75.02 174.29C74.93 174.39 74.8 174.44 74.67 174.44Z" fill="#003F4B"/><path d="M79.86 168.76C79.75 168.76 79.63 168.72 79.54 168.64 79.35 168.46 79.33 168.16 79.51 167.97L82.78 164.39C82.96 164.2 83.26 164.18 83.45 164.36 83.64 164.54 83.66 164.84 83.48 165.03L80.21 168.61C80.12 168.71 79.99 168.76 79.86 168.76Z" fill="#003F4B"/><path d="M85.7 162.36C85.59 162.36 85.47 162.32 85.38 162.24 85.19 162.06 85.17 161.76 85.35 161.57L92.35 153.91C92.53 153.72 92.83 153.7 93.02 153.88 93.21 154.06 93.23 154.36 93.05 154.55L86.05 162.21C85.96 162.31 85.83 162.36 85.7 162.36Z" fill="#003F4B"/></g><g><path d="M127.84 189.27C127.84 189.27 127.8 189.27 127.79 189.27 127.53 189.24 127.34 189 127.37 188.74L127.63 186.41C127.66 186.15 127.88 185.96 128.16 185.99 128.42 186.02 128.61 186.26 128.58 186.52L128.32 188.85C128.29 189.09 128.09 189.27 127.85 189.27Z" fill="#003F4B"/><path d="M128.63 182.36C128.63 182.36 128.59 182.36 128.58 182.36 128.32 182.33 128.13 182.09 128.16 181.83L128.66 177.47C128.69 177.21 128.93 177.02 129.19 177.05 129.45 177.08 129.64 177.32 129.61 177.58L129.11 181.94C129.08 182.18 128.88 182.36 128.64 182.36Z" fill="#003F4B"/><path d="M129.52 174.58C129.52 174.58 129.48 174.58 129.47 174.58 129.21 174.55 129.02 174.31 129.05 174.05L130.11 164.73C130.14 164.47 130.38 164.28 130.64 164.31 130.9 164.34 131.09 164.58 131.06 164.84L129.99 174.16C129.96 174.4 129.76 174.58 129.52 174.58Z" fill="#003F4B"/></g><g><path d="M183.57 181.74C183.41 181.74 183.25 181.66 183.16 181.51L181.87 179.39C181.73 179.17 181.8 178.87 182.03 178.74 182.25 178.6 182.55 178.67 182.68 178.9L183.97 181.02C184.11 181.24 184.04 181.54 183.81 181.67 183.73 181.72 183.65 181.74 183.56 181.74Z" fill="#003F4B"/><path d="M179.74 175.45C179.58 175.45 179.42 175.37 179.33 175.22L176.92 171.26C176.78 171.04 176.85 170.74 177.08 170.61 177.3 170.47 177.6 170.54 177.73 170.77L180.14 174.73C180.28 174.95 180.21 175.25 179.98 175.38 179.9 175.43 179.82 175.45 179.73 175.45Z" fill="#003F4B"/><path d="M175.44 168.38C175.28 168.38 175.12 168.3 175.03 168.15L169.87 159.67C169.73 159.45 169.8 159.15 170.03 159.02 170.25 158.88 170.55 158.95 170.68 159.18L175.84 167.66C175.98 167.88 175.91 168.18 175.68 168.31 175.6 168.36 175.52 168.38 175.43 168.38Z" fill="#003F4B"/></g><g><path d="M226.92 153.87C226.84 153.87 226.77 153.85 226.7 153.81L224.2 152.47C223.97 152.35 223.88 152.06 224.01 151.83 224.13 151.6 224.42 151.51 224.65 151.64L227.15 152.98C227.38 153.1 227.47 153.39 227.34 153.62 227.25 153.78 227.09 153.87 226.92 153.87Z" fill="#003F4B"/><path d="M219.5 149.89C219.42 149.89 219.35 149.87 219.28 149.83L214.6 147.32C214.37 147.2 214.28 146.91 214.41 146.68 214.53 146.45 214.82 146.36 215.05 146.49L219.73 149C219.96 149.12 220.05 149.41 219.92 149.64 219.83 149.8 219.67 149.89 219.5 149.89Z" fill="#003F4B"/><path d="M211.15 145.42C211.07 145.42 211 145.4 210.93 145.36L200.93 139.99C200.7 139.87 200.61 139.58 200.74 139.35 200.86 139.12 201.15 139.03 201.38 139.16L211.38 144.53C211.61 144.65 211.7 144.94 211.57 145.17 211.48 145.33 211.32 145.42 211.15 145.42Z" fill="#003F4B"/></g><g><path d="M246.27 113.13C246.27 113.13 246.25 113.13 246.24 113.13L243.2 112.93C242.94 112.91 242.74 112.69 242.76 112.42 242.78 112.16 243.01 111.97 243.27 111.98L246.31 112.18C246.57 112.2 246.77 112.42 246.75 112.69 246.73 112.94 246.52 113.13 246.28 113.13Z" fill="#003F4B"/><path d="M237.25 112.53C237.25 112.53 237.23 112.53 237.22 112.53L231.53 112.15C231.27 112.13 231.07 111.91 231.09 111.64 231.11 111.38 231.34 111.18 231.6 111.2L237.29 111.58C237.55 111.6 237.75 111.82 237.73 112.09 237.71 112.34 237.5 112.53 237.26 112.53Z" fill="#003F4B"/><path d="M227.1 111.85C227.1 111.85 227.08 111.85 227.07 111.85L214.91 111.03C214.65 111.01 214.45 110.79 214.47 110.52 214.49 110.26 214.72 110.07 214.98 110.08L227.14 110.9C227.4 110.92 227.6 111.14 227.58 111.41 227.56 111.66 227.35 111.85 227.11 111.85Z" fill="#003F4B"/></g><g><path d="M233.68 71.42C233.49 71.42 233.3 71.3 233.23 71.11 233.14 70.86 233.27 70.59 233.52 70.5L236.28 69.51C236.53 69.42 236.8 69.55 236.89 69.8 236.98 70.05 236.85 70.32 236.6 70.41L233.84 71.4C233.79 71.42 233.73 71.43 233.68 71.43Z" fill="#003F4B"/><path d="M223.07 75.22C222.87 75.22 222.69 75.1 222.62 74.9 222.53 74.65 222.66 74.38 222.91 74.29L228.08 72.44C228.33 72.35 228.6 72.48 228.69 72.73 228.78 72.98 228.65 73.25 228.4 73.34L223.23 75.19C223.18 75.21 223.12 75.22 223.07 75.22Z" fill="#003F4B"/><path d="M207.94 80.62C207.74 80.62 207.56 80.5 207.49 80.3 207.4 80.05 207.53 79.78 207.78 79.69L218.84 75.74C219.09 75.65 219.36 75.78 219.45 76.03 219.54 76.28 219.41 76.55 219.16 76.64L208.1 80.59C208.05 80.61 207.99 80.62 207.94 80.62Z" fill="#003F4B"/></g><g><path d="M198.32 39.14C198.21 39.14 198.09 39.1 198 39.02 197.81 38.84 197.79 38.54 197.97 38.35L199.72 36.43C199.9 36.24 200.2 36.22 200.39 36.4 200.58 36.58 200.6 36.88 200.42 37.07L198.67 38.99C198.58 39.09 198.45 39.14 198.32 39.14Z" fill="#003F4B"/><path d="M191.61 46.49C191.5 46.49 191.38 46.45 191.29 46.37 191.1 46.19 191.08 45.89 191.26 45.7L194.53 42.12C194.71 41.93 195.01 41.91 195.2 42.09 195.39 42.27 195.41 42.57 195.23 42.76L191.96 46.34C191.87 46.44 191.74 46.49 191.61 46.49Z" fill="#003F4B"/><path d="M182.03 56.96C181.92 56.96 181.8 56.92 181.71 56.84 181.52 56.66 181.5 56.36 181.68 56.17L188.68 48.51C188.86 48.32 189.16 48.3 189.35 48.48 189.54 48.66 189.56 48.96 189.38 49.15L182.38 56.81C182.29 56.91 182.16 56.96 182.03 56.96Z" fill="#003F4B"/></g><g><path d="M146.63 24.72C146.63 24.72 146.59 24.72 146.58 24.72 146.32 24.69 146.13 24.46 146.16 24.19L146.42 21.86C146.45 21.6 146.68 21.41 146.95 21.44 147.21 21.47 147.4 21.7 147.37 21.97L147.11 24.3C147.08 24.54 146.88 24.72 146.64 24.72Z" fill="#003F4B"/><path d="M145.61 33.66C145.61 33.66 145.57 33.66 145.56 33.66 145.3 33.63 145.11 33.39 145.14 33.13L145.64 28.77C145.67 28.51 145.91 28.32 146.17 28.35 146.43 28.38 146.62 28.62 146.59 28.88L146.09 33.24C146.06 33.48 145.86 33.66 145.62 33.66Z" fill="#003F4B"/><path d="M144.16 46.4C144.16 46.4 144.12 46.4 144.11 46.4 143.85 46.37 143.66 46.13 143.69 45.87L144.76 36.55C144.79 36.29 145.03 36.1 145.29 36.13 145.55 36.16 145.74 36.4 145.71 36.66L144.65 45.98C144.62 46.22 144.42 46.4 144.18 46.4Z" fill="#003F4B"/></g><g><path d="M92.46 32.04C92.3 32.04 92.14 31.96 92.05 31.81L90.76 29.69C90.62 29.47 90.69 29.17 90.92 29.04 91.14 28.9 91.44 28.97 91.57 29.2L92.86 31.32C93 31.54 92.93 31.84 92.7 31.97 92.62 32.02 92.54 32.04 92.45 32.04Z" fill="#003F4B"/><path d="M97.41 40.17C97.25 40.17 97.09 40.09 97 39.94L94.59 35.98C94.45 35.76 94.52 35.46 94.75 35.33 94.97 35.19 95.27 35.26 95.4 35.49L97.81 39.45C97.95 39.67 97.88 39.97 97.65 40.1 97.57 40.15 97.49 40.17 97.4 40.17Z" fill="#003F4B"/><path d="M104.46 51.76C104.3 51.76 104.14 51.68 104.05 51.53L98.89 43.05C98.75 42.83 98.82 42.53 99.05 42.4 99.27 42.26 99.57 42.33 99.7 42.56L104.86 51.04C105 51.26 104.93 51.56 104.7 51.69 104.62 51.74 104.54 51.76 104.45 51.76Z" fill="#003F4B"/></g></g><path d="M227.64 161.89 182.23 191.91 190.55 140.51 227.64 161.89Z" fill="#009C70"/><path d="M36.28 49.4 46.36 164.32 227.64 161.89 239.68 47.91 36.28 49.4Z" fill="#2CD0A2"/><path d="M201.15 150.6C198.81 150.6 196.6 150.23 194.59 149.52 193.55 149.87 192.45 150.05 191.31 150.05L185.93 150.05C185.59 150.05 185.25 150.03 184.91 150 183.65 150.31 182.34 150.46 180.98 150.46 179.13 150.46 177.37 150.15 175.76 149.57 174.78 149.88 173.74 150.05 172.67 150.05L166.98 150.05C166.39 150.05 165.81 150 165.23 149.9 164.66 150 164.07 150.05 163.48 150.05L157.75 150.05C156.4 150.05 155.12 149.8 153.94 149.33 151.97 150.1 149.59 150.6 146.73 150.6 142.5 150.6 139.32 149.54 136.93 148.09 136.08 148.52 135.17 148.87 134.22 149.16 132.16 149.77 129.7 150.05 126.45 150.05L118.86 150.05C113.18 150.05 108.57 145.43 108.57 139.76L108.57 122.17C107.1 122.43 105.58 122.56 104 122.56 100.14 122.56 96.58 121.78 93.42 120.23 93.26 120.15 93.1 120.07 92.94 119.99 91.3 121.11 89.31 121.76 87.17 121.76L63.59 121.76C57.91 121.76 53.3 117.14 53.3 111.47L53.3 110.83C53.3 108.58 53.55 106.31 54.06 104.09 54.57 101.88 55.33 99.69 56.34 97.56 56.84 96.47 57.42 95.37 58.07 94.28 55.41 92.42 53.66 89.33 53.66 85.84L53.66 84.79C53.66 77.9 55.63 72.28 59.5 68.07 63.53 63.68 69.25 61.36 76.04 61.36 81.47 61.36 86.24 62.91 89.96 65.87 91.08 65.02 92.3 64.27 93.63 63.64 96.76 62.16 100.25 61.41 104 61.41 107.75 61.41 111.31 62.17 114.44 63.67 115.75 64.3 116.97 65.05 118.08 65.9 119.21 65.03 120.45 64.28 121.79 63.64 124.92 62.16 128.41 61.41 132.17 61.41 135.93 61.41 139.48 62.17 142.61 63.67 144.07 64.37 145.41 65.21 146.62 66.19 147.15 65.82 147.69 65.47 148.26 65.15 149.88 61.58 153.47 59.1 157.64 59.1L162.49 59.1C166.54 59.1 170.05 61.45 171.73 64.86 173.84 65.97 175.69 67.43 177.26 69.22 180.47 72.9 182.15 77.68 182.28 83.41 182.33 85.66 181.62 87.9 180.28 89.72 181.88 92.79 182.71 96.34 182.71 100.18 182.71 103.35 182.16 106.31 181.11 108.94L182.11 108.94C182.7 108.94 183.28 108.99 183.86 109.09 184.43 108.99 185.02 108.94 185.61 108.94L191.3 108.94C192.47 108.94 193.6 109.14 194.66 109.51 196.7 108.77 198.94 108.39 201.3 108.39 206.06 108.39 210.21 109.84 213.31 112.57 216.72 115.59 218.6 119.97 218.6 124.89L218.6 125.26C218.6 126.39 218.41 127.5 218.05 128.56 218.55 130.19 218.81 131.95 218.81 133.8 218.81 138.78 216.91 143.21 213.45 146.3 210.26 149.12 206.01 150.61 201.13 150.61Z" fill="#FFFFFF"/><path d="M209.85 127.39C209.85 127.39 209.78 127.3 209.75 127.26 210.06 127.12 210.35 126.92 210.6 126.67 211.15 126.12 211.47 125.37 211.47 124.59L211.47 124.22C211.47 120.64 209.94 118.54 208.66 117.41 206.9 115.86 204.5 115.07 201.52 115.07 198.54 115.07 196.26 115.87 194.43 117.46 194.37 117.51 194.33 117.58 194.27 117.63 193.88 116.46 192.81 115.61 191.52 115.61L185.83 115.61C185.18 115.61 184.57 115.82 184.08 116.18 183.59 115.82 182.98 115.61 182.33 115.61L176.58 115.61C175.28 115.61 174.22 116.46 173.83 117.63 172.86 116.44 171.19 115.2 168.3 115.2 167.35 115.2 166.47 115.38 165.63 115.64 165.63 115.61 165.65 115.58 165.65 115.55L165.65 112.91C168.41 112.2 170.64 110.91 172.31 109.07 174.48 106.67 175.58 103.44 175.58 99.49 175.58 95.54 174.51 92.56 172.41 90.11 171.06 88.53 169.19 87.14 166.74 85.88L172.2 85.88C172.99 85.88 173.75 85.56 174.3 85 174.85 84.44 175.16 83.67 175.14 82.88 175.06 78.92 173.98 75.71 171.92 73.35 170.34 71.53 168.23 70.26 165.65 69.57L165.65 68.7C165.65 67.08 164.33 65.76 162.71 65.76L157.86 65.76C156.24 65.76 154.92 67.08 154.92 68.7L154.92 69.67C152.51 70.38 150.52 71.64 148.96 73.44 147.75 74.84 146.93 76.49 146.42 78.32 146.05 76.75 145.58 75.35 144.91 74.27 143.64 72.24 141.87 70.67 139.64 69.6 137.52 68.58 135.08 68.06 132.39 68.06 129.7 68.06 127.3 68.57 125.17 69.58 122.95 70.64 121.18 72.18 119.88 74.18 119.17 75.28 118.63 76.67 118.26 78.37 117.89 76.78 117.42 75.36 116.74 74.27 115.47 72.24 113.7 70.67 111.47 69.6 109.35 68.58 106.91 68.06 104.22 68.06 101.53 68.06 99.13 68.57 97.01 69.58 94.79 70.64 93.01 72.18 91.72 74.18 90.99 75.31 90.44 76.73 90.07 78.48 89.54 75.81 88.39 73.55 86.58 71.78 84.04 69.28 80.57 68.01 76.26 68.01 71.52 68.01 67.78 69.47 65.14 72.34 62.55 75.15 61.24 79.1 61.24 84.08L61.24 85.13C61.24 86.75 62.56 88.07 64.18 88.07L72.25 88.07C72.01 88.35 71.74 88.63 71.47 88.92L70.49 89.91C67.22 93.22 64.77 96.62 63.22 99.99 62.44 101.65 61.85 103.34 61.46 105.01 61.08 106.7 60.88 108.41 60.88 110.12L60.88 110.76C60.88 112.38 62.2 113.7 63.82 113.7L87.4 113.7C89.02 113.7 90.34 112.38 90.34 110.76L90.34 105.15C90.66 106.31 91.05 107.3 91.54 108.08 92.83 110.18 94.62 111.81 96.88 112.91 99.03 113.96 101.5 114.49 104.23 114.49 107.58 114.49 110.55 113.68 113.05 112.07 115.72 110.36 117.43 108.04 118.12 105.21 118.19 104.93 118.24 104.56 118.3 104.26 118.64 105.83 119.1 107.11 119.71 108.09 119.87 108.36 120.11 108.54 120.29 108.79L119.1 108.79C117.48 108.79 116.16 110.11 116.16 111.73L116.16 139.04C116.16 140.66 117.48 141.98 119.1 141.98L126.69 141.98C129.17 141.98 131.02 141.79 132.36 141.4 133.89 140.94 135.2 140.15 136.26 139.05 136.81 138.48 137.28 137.84 137.7 137.15 137.98 137.81 138.3 138.4 138.67 138.92 140.39 141.31 143.18 142.53 146.97 142.53 150.76 142.53 153.32 141.37 155.06 139.12 155.11 140.7 156.39 141.98 157.98 141.98L163.71 141.98C164.36 141.98 164.97 141.77 165.46 141.41 165.95 141.77 166.56 141.98 167.21 141.98L172.9 141.98C174.2 141.98 175.27 141.11 175.66 139.94 176.64 141.14 178.32 142.39 181.22 142.39 182.53 142.39 183.74 142.14 184.82 141.66 185.22 141.86 185.68 141.98 186.17 141.98L191.55 141.98C192.79 141.98 193.84 141.2 194.27 140.11 196.06 141.71 198.45 142.53 201.39 142.53 204.49 142.53 206.98 141.71 208.81 140.08 210.13 138.9 211.71 136.73 211.71 133.07 211.71 130.78 211.09 128.85 209.88 127.34ZM75.33 83.6C75.39 82.22 75.58 81.46 75.79 81.05 75.8 81.19 75.82 81.36 75.82 81.56 75.82 82.07 75.7 82.73 75.33 83.59ZM87.38 100.07 79.78 100.07C80.49 99.25 81.37 98.32 82.46 97.26 83.27 96.46 83.88 95.85 84.28 95.44 86.33 93.34 87.87 91.19 88.87 89.05 89.07 88.62 89.16 88.16 89.32 87.73 89.3 88.83 89.29 90.01 89.29 91.29 89.29 95.66 89.41 98.88 89.64 101.2 89.1 100.53 88.31 100.07 87.38 100.07ZM104.37 94.18C104.37 96.7 104.3 98.39 104.2 99.54 104.11 98.4 104.04 96.7 104.04 94.18L104.04 88.41C104.04 85.77 104.12 84.03 104.21 82.87 104.3 83.93 104.36 85.48 104.36 87.77L104.36 94.18ZM149.01 91.61C150.13 92.97 151.54 94.17 153.23 95.21L148.15 95.21C147.83 95.21 147.53 95.31 147.24 95.42 147.28 93.76 147.3 91.82 147.3 89.56 147.3 89.31 147.3 89.1 147.3 88.86 147.77 89.82 148.32 90.76 149.02 91.61ZM132.21 88.4C132.21 85.76 132.29 84.02 132.39 82.86 132.47 83.92 132.54 85.48 132.54 87.76L132.54 94.17C132.54 96.69 132.47 98.39 132.37 99.53 132.28 98.39 132.21 96.69 132.21 94.17L132.21 88.4ZM146.94 115.05C143.19 115.05 140.42 116.26 138.68 118.64 138.68 118.63 138.68 118.62 138.68 118.61 138.68 116.81 138.32 115.2 137.6 113.81 137.59 113.78 137.56 113.76 137.55 113.74 138.84 113.34 140.07 112.81 141.18 112.09 143.85 110.38 145.56 108.06 146.25 105.22 146.27 105.15 146.28 105.05 146.29 104.98 146.8 106.39 147.45 107.68 148.32 108.77 149.97 110.83 152.17 112.22 154.89 112.93L154.89 115.54C154.89 116.13 155.11 116.65 155.41 117.12 155.18 117.52 155.02 117.96 155.01 118.45 153.27 116.21 150.57 115.05 146.92 115.05Z"/><g><path d="M63.9 110.33 63.9 109.69C63.9 108.18 64.07 106.7 64.4 105.24 64.73 103.78 65.25 102.3 65.95 100.81 67.37 97.71 69.6 94.63 72.65 91.55L73.62 90.58 73.85 90.32C77.19 86.81 78.85 83.74 78.85 81.11 78.85 79.9 78.61 78.96 78.13 78.31 77.65 77.66 76.97 77.34 76.08 77.34 74.81 77.34 73.9 77.87 73.33 78.93 72.76 79.99 72.47 81.68 72.47 84.01L72.47 84.7 64.26 84.7 64.26 83.65C64.26 79.41 65.3 76.16 67.38 73.9 69.46 71.64 72.44 70.51 76.34 70.51 79.86 70.51 82.62 71.48 84.6 73.43 86.58 75.38 87.58 78.08 87.58 81.54 87.58 83.58 87.15 85.51 86.3 87.35 85.45 89.19 84.1 91.05 82.27 92.93 81.88 93.34 81.29 93.93 80.5 94.7 77.25 97.86 75.22 100.48 74.39 102.55L87.47 102.55 87.47 110.32 63.89 110.32Z" fill="#FFC200"/><path d="M92.32 90.83C92.32 85.9 92.47 82.37 92.76 80.22 93.05 78.07 93.56 76.44 94.27 75.33 95.26 73.79 96.62 72.61 98.35 71.79 100.08 70.97 102.06 70.56 104.3 70.56 106.54 70.56 108.55 70.97 110.28 71.8 112.01 72.63 113.36 73.82 114.33 75.38 115.03 76.51 115.54 78.09 115.84 80.11 116.14 82.13 116.28 85.13 116.28 89.1 116.28 93.41 116.21 96.64 116.07 98.78 115.93 100.92 115.68 102.68 115.33 104.05 114.82 106.15 113.55 107.86 111.52 109.16 109.49 110.46 107.08 111.11 104.29 111.11 102 111.11 99.98 110.68 98.23 109.83 96.48 108.97 95.1 107.73 94.11 106.11 93.46 105.07 93 103.44 92.72 101.24 92.45 99.03 92.31 95.56 92.31 90.82ZM101.2 90.83 101.2 93.73C101.2 98.25 101.42 101.1 101.86 102.29 102.3 103.48 103.11 104.07 104.31 104.07 105.51 104.07 106.3 103.48 106.75 102.29 107.2 101.1 107.42 98.25 107.42 93.73L107.42 87.32C107.42 83.1 107.2 80.41 106.75 79.26 106.3 78.11 105.49 77.54 104.31 77.54 103.13 77.54 102.3 78.13 101.86 79.32 101.42 80.51 101.2 83.39 101.2 87.95L101.2 90.82Z" fill="#FFC200"/><path d="M120.49 90.83C120.49 85.9 120.64 82.37 120.93 80.22 121.22 78.07 121.73 76.44 122.44 75.33 123.43 73.79 124.79 72.61 126.52 71.79 128.25 70.97 130.23 70.56 132.47 70.56 134.71 70.56 136.72 70.97 138.45 71.8 140.18 72.63 141.53 73.82 142.5 75.38 143.2 76.51 143.71 78.09 144.01 80.11 144.31 82.13 144.45 85.13 144.45 89.1 144.45 93.41 144.38 96.64 144.24 98.78 144.09 100.93 143.85 102.68 143.5 104.05 142.99 106.15 141.72 107.86 139.69 109.16 137.66 110.46 135.25 111.11 132.46 111.11 130.17 111.11 128.15 110.68 126.4 109.83 124.65 108.98 123.27 107.73 122.28 106.11 121.63 105.07 121.17 103.44 120.89 101.24 120.62 99.03 120.48 95.56 120.48 90.82ZM129.37 90.83 129.37 93.73C129.37 98.25 129.59 101.1 130.03 102.29 130.47 103.48 131.28 104.07 132.48 104.07 133.68 104.07 134.47 103.48 134.92 102.29 135.37 101.1 135.59 98.25 135.59 93.73L135.59 87.32C135.59 83.1 135.37 80.41 134.92 79.26 134.47 78.11 133.66 77.54 132.48 77.54 131.3 77.54 130.47 78.13 130.03 79.32 129.59 80.51 129.37 83.39 129.37 87.95L129.37 90.82Z" fill="#FFC200"/><path d="M157.94 115.1 157.94 110.02C154.78 109.73 152.37 108.55 150.72 106.49 149.07 104.43 148.24 101.56 148.24 97.88L148.24 97.7 155.42 97.7C155.42 97.82 155.42 97.98 155.39 98.17 155.36 98.36 155.36 98.51 155.36 98.59 155.36 100.15 155.64 101.35 156.21 102.19 156.78 103.03 157.65 103.59 158.83 103.84L158.83 94.12C155.53 92.92 153.04 91.31 151.36 89.27 149.68 87.23 148.85 84.82 148.85 82.04 148.85 79.26 149.65 76.76 151.25 74.91 152.85 73.06 155.07 71.96 157.93 71.6L157.93 68.24 162.78 68.24 162.78 71.55C165.84 71.89 168.18 72.98 169.78 74.82 171.38 76.66 172.21 79.21 172.28 82.48L165.25 82.48C165.15 80.84 164.84 79.63 164.32 78.85 163.8 78.07 163.04 77.68 162.05 77.68L161.95 77.68 161.95 86.51C165.85 87.96 168.62 89.65 170.26 91.56 171.9 93.47 172.72 95.96 172.72 99.03 172.72 102.25 171.88 104.78 170.21 106.64 168.54 108.5 166.06 109.62 162.8 110.01L162.8 115.09 157.95 115.09ZM159.04 85.21 159.04 77.64C158.03 77.83 157.26 78.23 156.72 78.83 156.18 79.43 155.91 80.23 155.91 81.2 155.91 82 156.18 82.75 156.72 83.44 157.26 84.13 158.03 84.72 159.04 85.2ZM161.78 103.81C162.91 103.57 163.76 103.09 164.34 102.37 164.92 101.65 165.2 100.69 165.2 99.5 165.2 98.56 164.93 97.76 164.4 97.1 163.87 96.44 163 95.84 161.78 95.29L161.78 103.81Z" fill="#FFC200"/><path d="M119.17 138.61 119.17 111.3 126.03 111.3C128.11 111.3 129.61 111.38 130.51 111.55 131.41 111.72 132.19 111.99 132.86 112.38 133.84 112.97 134.59 113.75 135.09 114.72 135.59 115.69 135.84 116.84 135.84 118.16 135.84 119.34 135.61 120.39 135.14 121.32 134.67 122.25 133.92 123.14 132.89 124.02 134.11 124.63 135.02 125.47 135.64 126.53 136.25 127.59 136.56 128.86 136.56 130.33 136.56 131.55 136.35 132.7 135.94 133.79 135.53 134.88 134.95 135.81 134.2 136.57 133.49 137.31 132.62 137.84 131.58 138.15 130.54 138.46 128.93 138.61 126.76 138.61L119.17 138.61ZM125.56 121.97 125.97 121.97C127.22 121.97 128.15 121.71 128.75 121.18 129.35 120.65 129.64 119.84 129.64 118.74 129.64 117.78 129.34 117.05 128.75 116.53 128.16 116.01 127.31 115.76 126.21 115.76 126.03 115.76 125.9 115.76 125.8 115.76 125.7 115.76 125.63 115.77 125.57 115.79L125.55 121.96ZM125.56 133.78 126.11 133.78C127.45 133.78 128.45 133.47 129.13 132.84 129.81 132.21 130.14 131.28 130.14 130.04 130.14 128.88 129.81 128.03 129.15 127.49 128.49 126.95 127.44 126.68 126.01 126.68L125.57 126.68 125.57 133.77Z" fill="#FFC200"/><path d="M139.41 128.36C139.41 124.36 139.98 121.56 141.13 119.95 142.28 118.34 144.25 117.54 147.04 117.54 149.83 117.54 151.8 118.34 152.95 119.93 154.1 121.52 154.67 124.33 154.67 128.35 154.67 132.37 154.1 135.15 152.95 136.75 151.8 138.35 149.83 139.15 147.04 139.15 144.25 139.15 142.27 138.35 141.13 136.76 139.99 135.17 139.42 132.36 139.42 128.34ZM145.23 128.36C145.23 131.25 145.36 133.05 145.61 133.78 145.86 134.51 146.34 134.87 147.03 134.87 147.72 134.87 148.21 134.52 148.46 133.82 148.71 133.12 148.84 131.3 148.84 128.36 148.84 125.42 148.72 123.59 148.46 122.89 148.2 122.19 147.73 121.83 147.03 121.83 146.33 121.83 145.86 122.2 145.61 122.93 145.36 123.66 145.23 125.47 145.23 128.36Z" fill="#FFC200"/><path d="M158.05 138.61 158.05 118.09 163.42 118.09 163.42 120.52C164.05 119.55 164.76 118.84 165.57 118.37 166.38 117.9 167.31 117.68 168.39 117.68 169.97 117.68 171.13 118.21 171.87 119.27 172.61 120.33 172.97 122 172.97 124.3L172.97 138.61 167.28 138.61 167.28 125.93C167.28 124.29 167.17 123.26 166.96 122.86 166.75 122.46 166.37 122.26 165.82 122.26 165.18 122.26 164.68 122.57 164.32 123.19 163.96 123.81 163.78 124.68 163.78 125.79L163.78 138.61 158.05 138.61Z" fill="#FFC200"/><path d="M191.6 118.09 191.6 138.61 186.23 138.61 186.23 136.18C185.59 137.16 184.88 137.88 184.08 138.33 183.28 138.78 182.35 139.01 181.28 139.01 179.7 139.01 178.53 138.48 177.79 137.41 177.05 136.34 176.67 134.67 176.67 132.39L176.67 118.08 182.42 118.08 182.42 130.76C182.42 132.4 182.53 133.42 182.74 133.82 182.95 134.22 183.33 134.41 183.88 134.41 184.52 134.41 185.02 134.1 185.38 133.49 185.74 132.88 185.92 132.01 185.92 130.9L185.92 118.08 191.61 118.08Z" fill="#FFC200"/><path d="M194.34 132.11 199.47 132.13C199.53 133.19 199.74 133.97 200.09 134.46 200.44 134.95 200.98 135.2 201.69 135.2 202.26 135.2 202.72 135.03 203.09 134.69 203.46 134.35 203.64 133.92 203.64 133.39 203.64 132.93 203.52 132.55 203.26 132.25 203 131.95 202.44 131.59 201.56 131.18 201.37 131.09 201.08 130.94 200.67 130.75 198.6 129.79 197.16 128.89 196.34 128.05 195.76 127.48 195.32 126.82 195.01 126.06 194.7 125.3 194.55 124.51 194.55 123.68 194.55 121.81 195.19 120.32 196.46 119.21 197.73 118.1 199.45 117.54 201.61 117.54 203.77 117.54 205.59 118.08 206.8 119.15 208.01 120.22 208.62 121.75 208.62 123.75L208.62 124.12 203.6 124.1C203.58 123.07 203.42 122.34 203.13 121.9 202.84 121.46 202.37 121.24 201.72 121.24 201.14 121.24 200.68 121.4 200.34 121.71 200 122.02 199.83 122.43 199.83 122.94 199.83 123.84 200.69 124.67 202.4 125.42 202.64 125.53 202.82 125.61 202.95 125.67 205.29 126.72 206.86 127.75 207.65 128.74 208.44 129.73 208.84 131.03 208.84 132.64 208.84 134.71 208.2 136.31 206.92 137.45 205.64 138.59 203.82 139.15 201.46 139.15 199.1 139.15 197.47 138.58 196.22 137.43 194.97 136.28 194.35 134.67 194.35 132.61L194.35 132.1Z" fill="#FFC200"/></g></svg>