<svg viewBox="0 0 235.92 153.84" xmlns="http://www.w3.org/2000/svg" xmlns:xlink="http://www.w3.org/1999/xlink" overflow="hidden"><defs><linearGradient x1="33.74" y1="63.09" x2="186.17" y2="63.09" gradientUnits="userSpaceOnUse" id="linear-gradient"><stop offset="0" stop-color="#670B0F"/><stop offset="0.51" stop-color="#C92233"/><stop offset="1" stop-color="#670B0F"/></linearGradient><linearGradient x1="109.72" y1="29.65" x2="110.09" y2="96.04" gradientUnits="userSpaceOnUse" id="linear-gradient-2"><stop offset="0" stop-color="#670B0F"/><stop offset="0.08" stop-color="#801018"/><stop offset="0.19" stop-color="#9F1823"/><stop offset="0.31" stop-color="#B61D2C"/><stop offset="0.42" stop-color="#C42031"/><stop offset="0.51" stop-color="#C92233"/><stop offset="0.62" stop-color="#C52131"/><stop offset="0.71" stop-color="#BA1E2D"/><stop offset="0.81" stop-color="#A81A26"/><stop offset="0.9" stop-color="#8E141D"/><stop offset="0.98" stop-color="#6D0C11"/><stop offset="1" stop-color="#670B0F"/></linearGradient><radialGradient cx="54.43" cy="91.44" r="14.24" fx="54.43" fy="91.44" gradientUnits="userSpaceOnUse" id="radial-gradient" gradientTransform="matrix(0.996694 0.0812427 -0.0812427 0.996694 7.61 -4.12)"><stop offset="0" stop-color="#BFBFBF"/><stop offset="0.08" stop-color="#A2A2A2"/><stop offset="0.21" stop-color="#797979"/><stop offset="0.35" stop-color="#565656"/><stop offset="0.49" stop-color="#3C3C3C"/><stop offset="0.63" stop-color="#292929"/><stop offset="0.78" stop-color="#1D1D1D"/><stop offset="0.93" stop-color="#1A1A1A"/></radialGradient><radialGradient cx="-761.58" cy="-650.64" r="8.4" fx="-761.58" fy="-650.64" gradientUnits="userSpaceOnUse" id="radial-gradient-2" gradientTransform="matrix(-0.682475 0.824092 -0.815613 -0.880853 -993.54 144.19)"><stop offset="0.79" stop-color="#99B8B6"/><stop offset="0.8" stop-color="#9CBBB9"/><stop offset="0.84" stop-color="#B6D3D2"/><stop offset="0.89" stop-color="#C9E4E3"/><stop offset="0.95" stop-color="#D5EEEE"/><stop offset="1" stop-color="#D9F2F2"/></radialGradient><radialGradient cx="-761.34" cy="-650.33" r="6.63" fx="-761.34" fy="-650.33" xlink:href="#radial-gradient" id="radial-gradient-3" gradientTransform="matrix(-0.667288 0.849192 -0.845279 -0.947411 -1001.35 124.3)"></radialGradient><radialGradient cx="-761.53" cy="-650.54" r="4.43" fx="-761.53" fy="-650.54" gradientUnits="userSpaceOnUse" id="radial-gradient-4" gradientTransform="matrix(-0.677573 0.828127 -0.819483 -0.893429 -995.06 139.9)"><stop offset="0" stop-color="#FFFFFF"/><stop offset="1" stop-color="#FFFFFF" stop-opacity="0.95"/></radialGradient><linearGradient x1="-771.26" y1="-669.19" x2="-774.04" y2="-673.88" gradientUnits="userSpaceOnUse" id="linear-gradient-3" gradientTransform="matrix(-0.696771 0.73117 -0.789085 -0.751961 -1008.45 156.56)"><stop offset="0" stop-color="#FFFFFF"/><stop offset="1" stop-color="#CFE3DD"/></linearGradient><linearGradient x1="-767.05" y1="-661.69" x2="-761.99" y2="-661.69" xlink:href="#linear-gradient-3" id="linear-gradient-4" gradientTransform="matrix(-0.670482 0.71474 -0.747499 -0.723259 -957.5 161.1)"></linearGradient><linearGradient x1="-766.48" y1="-669.12" x2="-763.52" y2="-673" xlink:href="#linear-gradient-3" id="linear-gradient-5" gradientTransform="matrix(-0.678583 0.72085 -0.835631 -0.804669 -1026.27 109.29)"></linearGradient><linearGradient x1="-773.92" y1="-663.02" x2="-777.78" y2="-659.42" xlink:href="#linear-gradient-3" id="linear-gradient-6" gradientTransform="matrix(-0.781125 0.816544 -0.833859 -0.791957 -1101.39 195.93)"></linearGradient><linearGradient x1="-771.58" y1="-667.09" x2="-777.66" y2="-667.42" xlink:href="#linear-gradient-3" id="linear-gradient-7" gradientTransform="matrix(-0.689872 0.723931 -0.723931 -0.689872 -958.36 188.34)"></linearGradient><linearGradient x1="-760.85" y1="-668.03" x2="-755.09" y2="-667.89" xlink:href="#linear-gradient-3" id="linear-gradient-8" gradientTransform="matrix(-0.626096 0.646532 -0.656586 -0.615714 -865.99 177.35)"></linearGradient><linearGradient x1="83.66" y1="30.87" x2="138.46" y2="66.99" gradientUnits="userSpaceOnUse" id="linear-gradient-9"><stop offset="0.1" stop-color="#282526"/><stop offset="0.48" stop-color="#414042"/><stop offset="1" stop-color="#231F20"/></linearGradient><linearGradient x1="62.84" y1="55.67" x2="77.27" y2="55.67" gradientUnits="userSpaceOnUse" id="linear-gradient-10"><stop offset="0" stop-color="#6D6E71"/><stop offset="0.03" stop-color="#525355"/><stop offset="0.07" stop-color="#39393B"/><stop offset="0.11" stop-color="#242425"/><stop offset="0.16" stop-color="#131314"/><stop offset="0.22" stop-color="#080808"/><stop offset="0.31" stop-color="#010101"/><stop offset="0.55"/></linearGradient><linearGradient x1="116.04" y1="54.3" x2="118.05" y2="33.14" gradientUnits="userSpaceOnUse" id="linear-gradient-11"><stop offset="0" stop-color="#5A5758"/><stop offset="0.28" stop-color="#2A2929"/><stop offset="0.51" stop-color="#0B0B0B"/><stop offset="0.64"/></linearGradient><linearGradient x1="120.21" y1="54.52" x2="122.21" y2="34.01" xlink:href="#linear-gradient-11" id="linear-gradient-12"></linearGradient><linearGradient x1="71.15" y1="59.47" x2="76.56" y2="59.47" gradientUnits="userSpaceOnUse" id="linear-gradient-13"><stop offset="0" stop-color="#6D6E71"/><stop offset="0.05" stop-color="#5C5D60"/><stop offset="0.21" stop-color="#343536"/><stop offset="0.35" stop-color="#171818"/><stop offset="0.47" stop-color="#060606"/><stop offset="0.55"/></linearGradient><linearGradient x1="49.64" y1="79.46" x2="186.17" y2="79.46" gradientUnits="userSpaceOnUse" id="linear-gradient-14"><stop offset="0" stop-color="#C92233"/><stop offset="0.44" stop-color="#670B0F"/><stop offset="0.52" stop-color="#6A0B10"/><stop offset="0.58" stop-color="#740E14"/><stop offset="0.64" stop-color="#85121A"/><stop offset="0.69" stop-color="#9D1823"/><stop offset="0.74" stop-color="#BB202F"/><stop offset="0.77" stop-color="#D32638"/><stop offset="0.81" stop-color="#CF2536"/><stop offset="0.84" stop-color="#C42232"/><stop offset="0.87" stop-color="#B21D2B"/><stop offset="0.9" stop-color="#981721"/><stop offset="0.93" stop-color="#770F15"/><stop offset="0.94" stop-color="#670B0F"/></linearGradient><linearGradient x1="116.12" y1="76.06" x2="118.14" y2="76.06" gradientUnits="userSpaceOnUse" id="linear-gradient-15"><stop offset="0" stop-color="#670B0F"/><stop offset="0.52" stop-color="#670B0F"/><stop offset="0.97" stop-color="#670B0F"/><stop offset="1" stop-color="#670B0F"/></linearGradient><linearGradient x1="43.28" y1="47.84" x2="184.43" y2="47.84" gradientUnits="userSpaceOnUse" id="linear-gradient-16"><stop offset="0" stop-color="#D32638"/><stop offset="0.05" stop-color="#FF7264"/><stop offset="0.06" stop-color="#FA6A5F"/><stop offset="0.11" stop-color="#E44B4C"/><stop offset="0.16" stop-color="#D5343E"/><stop offset="0.21" stop-color="#CC2635"/><stop offset="0.25" stop-color="#C92233"/><stop offset="0.5" stop-color="#AB1B28"/><stop offset="1" stop-color="#670B0F"/></linearGradient><linearGradient x1="35.72" y1="68.89" x2="53.47" y2="68.89" xlink:href="#linear-gradient-13" id="linear-gradient-17"></linearGradient><linearGradient x1="164.49" y1="33.33" x2="179.99" y2="94.24" gradientUnits="userSpaceOnUse" id="linear-gradient-18"><stop offset="0" stop-color="#90151F"/><stop offset="0.03" stop-color="#9F1824"/><stop offset="0.1" stop-color="#B61D2C"/><stop offset="0.16" stop-color="#C42031"/><stop offset="0.21" stop-color="#C92233"/><stop offset="0.43" stop-color="#C52131"/><stop offset="0.63" stop-color="#BA1E2D"/><stop offset="0.82" stop-color="#A81A27"/><stop offset="1" stop-color="#90151F"/></linearGradient><linearGradient x1="104.75" y1="65.22" x2="113.43" y2="65.22" xlink:href="#linear-gradient-2" id="linear-gradient-19"></linearGradient><linearGradient x1="104.75" y1="66.03" x2="113.43" y2="66.03" gradientUnits="userSpaceOnUse" id="linear-gradient-20"><stop offset="0" stop-color="#C92233"/><stop offset="0.27" stop-color="#CA2233"/><stop offset="0.36" stop-color="#D12534"/><stop offset="0.43" stop-color="#DD2B36"/><stop offset="0.49" stop-color="#EE3239"/><stop offset="0.52" stop-color="#FA383B"/><stop offset="0.66" stop-color="#E42A38"/><stop offset="0.87" stop-color="#C71934"/><stop offset="1" stop-color="#BD1333"/></linearGradient><linearGradient x1="109.09" y1="64.49" x2="109.09" y2="65.97" xlink:href="#linear-gradient-2" id="linear-gradient-21"></linearGradient><radialGradient cx="111.26" cy="65.38" r="0.27" fx="111.26" fy="65.38" gradientUnits="userSpaceOnUse" id="radial-gradient-5"><stop offset="0.05" stop-color="#FFFFFF" stop-opacity="0.65"/><stop offset="0.55" stop-color="#F88F9C" stop-opacity="0.65"/><stop offset="0.64" stop-color="#F88F9C" stop-opacity="0.68"/><stop offset="0.78" stop-color="#F88F9C" stop-opacity="0.76"/><stop offset="0.94" stop-color="#F88F9C" stop-opacity="0.89"/><stop offset="1" stop-color="#F88F9C" stop-opacity="0.95"/></radialGradient><linearGradient x1="150.23" y1="102.6" x2="158.91" y2="102.6" xlink:href="#linear-gradient-2" id="linear-gradient-22" gradientTransform="matrix(0.998209 -0.059829 0.059829 0.998209 -2.64 -32.33)"></linearGradient><linearGradient x1="150.23" y1="103.42" x2="158.91" y2="103.42" xlink:href="#linear-gradient-20" id="linear-gradient-23" gradientTransform="matrix(0.998209 -0.059829 0.059829 0.998209 -2.64 -32.33)"></linearGradient><linearGradient x1="154.57" y1="101.88" x2="154.57" y2="103.35" xlink:href="#linear-gradient-2" id="linear-gradient-24" gradientTransform="matrix(0.998209 -0.059829 0.059829 0.998209 -2.64 -32.33)"></linearGradient><radialGradient cx="156.74" cy="102.77" r="0.27" fx="156.74" fy="102.77" xlink:href="#radial-gradient-5" id="radial-gradient-6" gradientTransform="matrix(0.998209 -0.059829 0.059829 0.998209 -2.64 -32.33)"></radialGradient><linearGradient x1="34.12" y1="85.67" x2="78.62" y2="85.67" gradientUnits="userSpaceOnUse" id="linear-gradient-25"><stop offset="0" stop-color="#C92233"/><stop offset="0.12" stop-color="#670B0F"/><stop offset="0.2" stop-color="#6B0C10"/><stop offset="0.3" stop-color="#780F15"/><stop offset="0.4" stop-color="#8E141E"/><stop offset="0.5" stop-color="#AD1C29"/><stop offset="0.6" stop-color="#D32638"/><stop offset="0.67" stop-color="#CF2536"/><stop offset="0.73" stop-color="#C42232"/><stop offset="0.8" stop-color="#B21D2B"/><stop offset="0.86" stop-color="#981721"/><stop offset="0.91" stop-color="#770F15"/><stop offset="0.94" stop-color="#670B0F"/></linearGradient><linearGradient x1="112" y1="85.68" x2="112.19" y2="92.06" gradientUnits="userSpaceOnUse" id="linear-gradient-26"><stop offset="0" stop-color="#C92233"/><stop offset="1" stop-color="#670B0F"/></linearGradient><linearGradient x1="68.35" y1="67.99" x2="166.88" y2="67.99" xlink:href="#linear-gradient-15" id="linear-gradient-27"></linearGradient><linearGradient x1="179.04" y1="54.55" x2="185.38" y2="54.55" xlink:href="#linear-gradient-26" id="linear-gradient-28"></linearGradient><radialGradient cx="166.48" r="14.24" fx="166.48" xlink:href="#radial-gradient" id="radial-gradient-7" gradientTransform="matrix(0.996694 0.0812427 -0.0812427 0.996694 7.98 -13.22)"></radialGradient><radialGradient cx="-839.4" cy="-723.15" r="8.4" fx="-839.4" fy="-723.15" xlink:href="#radial-gradient-2" id="radial-gradient-8"></radialGradient><radialGradient cx="-839.99" cy="-720.99" r="6.63" fx="-839.99" fy="-720.99" xlink:href="#radial-gradient" id="radial-gradient-9" gradientTransform="matrix(-0.667288 0.849192 -0.845279 -0.947411 -1001.35 124.3)"></radialGradient><radialGradient cx="-839.55" cy="-722.59" r="4.43" fx="-839.55" fy="-722.59" xlink:href="#radial-gradient-4" id="radial-gradient-10"></radialGradient><linearGradient x1="-847.49" y1="-743.73" x2="-850.27" y2="-748.42" xlink:href="#linear-gradient-3" id="linear-gradient-29"></linearGradient><linearGradient x1="-846.5" y1="-740.52" x2="-841.43" y2="-740.52" xlink:href="#linear-gradient-3" id="linear-gradient-30" gradientTransform="matrix(-0.670482 0.71474 -0.747499 -0.723259 -957.5 161.1)"></linearGradient><linearGradient x1="-844.83" y1="-739.22" x2="-841.87" y2="-743.1" xlink:href="#linear-gradient-3" id="linear-gradient-31" gradientTransform="matrix(-0.678583 0.72085 -0.835631 -0.804669 -1026.27 109.29)"></linearGradient><linearGradient x1="-842.37" y1="-733.58" x2="-846.24" y2="-729.98" xlink:href="#linear-gradient-3" id="linear-gradient-32" gradientTransform="matrix(-0.781125 0.816544 -0.833859 -0.791957 -1101.39 195.93)"></linearGradient><linearGradient x1="-848.88" y1="-748.21" x2="-854.97" y2="-748.53" xlink:href="#linear-gradient-3" id="linear-gradient-33" gradientTransform="matrix(-0.689872 0.723931 -0.723931 -0.689872 -958.36 188.34)"></linearGradient><linearGradient x1="-845.58" y1="-757.37" x2="-839.82" y2="-757.22" xlink:href="#linear-gradient-3" id="linear-gradient-34" gradientTransform="matrix(-0.626096 0.646532 -0.656586 -0.615714 -865.99 177.35)"></linearGradient><linearGradient x1="145.6" y1="83.48" x2="186.17" y2="83.48" gradientUnits="userSpaceOnUse" id="linear-gradient-35"><stop offset="0.02" stop-color="#670B0F"/><stop offset="0.11" stop-color="#89131C"/><stop offset="0.22" stop-color="#A91B28"/><stop offset="0.32" stop-color="#C02130"/><stop offset="0.42" stop-color="#CE2436"/><stop offset="0.51" stop-color="#D32638"/><stop offset="0.61" stop-color="#CF2536"/><stop offset="0.71" stop-color="#C42232"/><stop offset="0.79" stop-color="#B21D2B"/><stop offset="0.88" stop-color="#981721"/><stop offset="0.96" stop-color="#770F15"/><stop offset="1" stop-color="#670B0F"/></linearGradient></defs><g><g id="Layer_1"><ellipse cx="114.48" cy="104.35" rx="78.75" ry="3.13" fill="#B7B6B6"/><g><g><path d="M185.67 84.48C185.67 84.48 185.03 86.58 184.12 86.67 184.12 86.67 182.8 80.77 177.19 78.35 174.99 77.4 172.13 76.99 168.43 77.69 168.43 77.69 152.43 78.78 150.65 94.92L145.6 95.01 78.62 96.18 72.01 96.29C72.01 96.29 70.37 91.09 67.77 90.68 67.77 90.68 62.5 79.93 49.64 79.87 49.48 79.87 49.32 79.87 49.16 79.87 49.16 79.87 31.52 81.37 40.41 95.67 40.41 95.67 35.38 94.91 34.12 87.03 33.91 85.72 33.8 84.21 33.84 82.48 33.84 82.48 32.97 75.89 36.35 72.45 36.38 72.42 36.41 72.38 36.44 72.36 36.44 72.36 34.6 67.18 38.22 65.15L38.22 65.15C38.26 65.02 39.89 61.11 46.21 58.95 46.21 58.95 53.86 53.97 64.99 50.89 65 50.89 65.01 50.88 65.02 50.88 65.02 50.88 82.64 39.68 93.4 34.92 96.15 33.71 98.45 32.91 99.89 32.82 99.89 32.82 127.38 26.25 166.5 32.82 166.5 32.82 171.56 33.23 171.15 37.95L171.16 37.95C171.53 38.18 183.34 45.47 185.1 53.75 185.71 56.58 185.13 59.54 182.51 62.37 182.51 62.37 185.56 67.06 185.56 67.7 185.56 67.7 186.07 72.91 186.15 77.69 186.2 80.47 186.1 83.11 185.66 84.48Z" fill="url(#linear-gradient)"/><path d="M185.71 84.48C185.71 84.48 185.07 86.58 184.16 86.67 184.16 86.67 182.84 80.77 177.23 78.35 175.03 77.4 172.17 76.99 168.47 77.69 168.47 77.69 152.47 78.78 150.69 94.92L145.64 95.01 78.66 96.18 72.05 96.29C72.05 96.29 70.41 91.09 67.81 90.68 67.81 90.68 62.54 79.93 49.68 79.87 49.52 79.87 49.36 79.87 49.2 79.87 49.2 79.87 31.56 81.37 40.45 95.67 40.45 95.67 35.42 94.91 34.16 87.03 33.95 85.72 33.84 84.21 33.88 82.48 33.88 82.48 33.01 75.89 36.39 72.45 36.42 72.42 36.45 72.38 36.48 72.36 36.48 72.36 34.64 67.18 38.26 65.15L38.26 65.15C38.3 65.02 39.93 61.11 46.25 58.95 46.25 58.95 53.9 53.97 65.03 50.89 65.04 50.89 65.05 50.88 65.06 50.88 65.06 50.88 82.68 39.68 93.45 34.92 96.2 33.71 98.5 32.91 99.94 32.82 99.94 32.82 127.43 26.25 166.55 32.82 166.55 32.82 171.61 33.23 171.2 37.95L171.21 37.95C171.58 38.18 183.39 45.47 185.15 53.75 185.76 56.58 185.18 59.54 182.56 62.37 182.56 62.37 185.58 67.07 185.61 67.7 185.73 70.2 186.12 72.91 186.2 77.69 186.25 80.47 186.15 83.11 185.71 84.48Z" fill="url(#linear-gradient-2)" opacity="0.58"/></g><g><path d="M41.43 96.48C41.43 96.48 32.29 92.5 40.09 83.02 40.09 83.02 47.8 78.73 51.49 80.06 51.49 80.06 44.33 82.43 42.46 85.85 42.46 85.85 40.48 90.08 41.43 96.48Z" fill="#231F20"/><ellipse cx="54.43" cy="91.44" rx="14.74" ry="13.73" fill="url(#radial-gradient)" transform="matrix(0.996694 -0.0812427 0.0812427 0.996694 -7.25 4.72)"/><path d="M46.17 95.86C44.23 91.13 46.59 85.7 51.43 83.73 56.27 81.76 61.77 84 63.71 88.73 65.65 93.46 63.29 98.89 58.45 100.86 53.61 102.83 48.11 100.59 46.17 95.86Z" fill="url(#radial-gradient-2)"/><path d="M47.91 95.43C46.33 91.57 48.2 87.16 52.09 85.58 55.98 84 60.41 85.85 61.99 89.71 63.57 93.57 61.7 97.98 57.81 99.56 53.92 101.14 49.49 99.29 47.91 95.43Z" fill="url(#radial-gradient-3)"/><path d="M50.56 94.55C49.53 92.03 50.77 89.14 53.33 88.1 55.89 87.06 58.81 88.26 59.84 90.78 60.87 93.3 59.63 96.19 57.07 97.23 54.51 98.27 51.59 97.07 50.56 94.55Z" fill="url(#radial-gradient-4)"/><g><g><path d="M63.88 92.17 58.34 92.05 57.88 94.22 62.99 96.04C62.99 96.04 64.49 93.68 63.87 92.16Z" fill="url(#linear-gradient-3)"/><path d="M45.82 92.03 51.07 92.89 51.78 90.88 47.15 88.46C47.15 88.46 45.43 90.5 45.82 92.02Z" fill="url(#linear-gradient-4)"/></g><g><path d="M55.08 101.25 54.74 96.01 56.76 95.55 59.05 100.14C59.05 100.14 56.48 101.64 55.08 101.24Z" fill="url(#linear-gradient-5)"/><path d="M55.3 83.4 54.74 89.22 52.69 89.81 51.4 84.12C51.4 84.12 53.72 82.99 55.3 83.4Z" fill="url(#linear-gradient-6)"/></g><path d="M62.65 87.56 57.7 90.94 55.98 89.46 59.41 84.64C59.41 84.64 62.19 86.11 62.65 87.56Z" fill="url(#linear-gradient-7)"/><path d="M49.96 99.3 52.84 95.22 50.83 93.66 47.16 96.73C47.16 96.73 47.93 98.75 49.97 99.3Z" fill="url(#linear-gradient-8)"/></g></g><g><path d="M164.79 45.86C164.79 45.86 159.14 53.61 158.41 53.61 157.8 53.61 157.19 53.61 156.57 53.62 144.66 53.77 131.2 55.34 117.63 56.51 103.6 57.71 89.48 59.37 76.93 62.09 76.93 62.09 60.02 62.76 63.25 59.56 69.38 53.47 83.28 45.37 85.73 43.94 94.06 39.07 101.82 35.54 120.02 34.91 122.88 34.81 125.99 34.78 129.41 34.83 129.41 34.83 144.84 35.67 154 36.97 157.01 37.4 159.34 37.87 160.23 38.38 162.05 39.42 168.98 41.43 164.79 45.85Z" stroke="#000000" stroke-miterlimit="10" fill="url(#linear-gradient-9)"/><path d="M76.64 62.1C74.45 62.17 60.26 62.52 63.25 59.56 66.6 56.23 72.28 52.29 77.14 49.19L77.27 49.3C77.27 49.3 75.85 59.17 76.64 62.1Z" fill="url(#linear-gradient-10)"/><path d="M120.02 34.91C120.02 34.91 120.02 34.98 120.02 35.01L117.9 56.41 117.63 56.51C116.32 56.62 115.01 56.74 113.7 56.86L113.67 56.82 116.68 35.14C116.68 35.14 116.69 35.09 116.7 35.06 117.77 35 118.88 34.95 120.04 34.91Z" fill="url(#linear-gradient-11)"/><path d="M123.84 34.87C123.84 34.87 121.97 53.47 122.2 56.03L117.89 56.41 120.02 34.91C120.02 34.91 123.41 34.73 123.84 34.87Z" fill="url(#linear-gradient-12)"/><path d="M164.79 45.86C164.79 45.86 159.14 53.61 158.41 53.61 157.8 53.61 157.19 53.61 156.57 53.62L156.54 53.54 156.88 42.8C157.9 38.97 154 37.06 154 37.06L154 36.97C157.01 37.4 159.34 37.87 160.23 38.38 162.05 39.42 168.98 41.43 164.79 45.85Z" fill="#212020"/><path d="M120.02 34.91C120.02 34.91 120.02 34.98 120.02 35.01L117.9 56.41 117.63 56.51C116.32 56.62 115.01 56.74 113.7 56.86 100.98 58.03 88.31 59.62 76.94 62.09 76.94 62.09 76.84 62.09 76.66 62.1 74.47 62.17 60.28 62.52 63.27 59.56 66.62 56.23 72.3 52.29 77.16 49.19 81.18 46.61 84.64 44.59 85.74 43.94 93.54 39.38 100.85 35.99 116.7 35.06 117.77 35 118.88 34.95 120.04 34.91Z" stroke="#383838" stroke-miterlimit="10" fill="none" opacity="0.9"/><path d="M73.6 55.71C71.95 56.59 70.11 59.67 71.87 62.91 71.87 62.91 75.08 64.48 76.25 62.84 76.25 62.84 77.9 53.42 73.61 55.7Z" fill="url(#linear-gradient-13)"/><path d="M76 56.11C76.41 58.33 75.84 61.61 75.84 61.61 74.68 63.25 71.46 61.68 71.46 61.68 71.39 61.55 71.34 61.43 71.28 61.3 71.39 61.83 71.58 62.37 71.87 62.91 71.87 62.91 75.08 64.48 76.25 62.84 76.25 62.84 77.09 58.02 76 56.11Z" fill="#231F20"/></g><path d="M185.67 84.61C185.67 84.61 185.03 86.71 184.12 86.8 184.12 86.8 181.56 75.35 168.43 77.82 168.43 77.82 159.77 78.41 154.49 85.15 152.58 87.57 151.12 90.79 150.65 95.06L145.6 95.15 78.62 96.32 72.01 96.43C72.01 96.43 71.15 93.68 69.67 92.03 69.12 91.41 68.48 90.94 67.77 90.82 67.77 90.82 62.5 80.07 49.64 80.01 50.42 77.61 51.46 75.82 52.81 74.95 60.83 69.85 77.06 84.62 77.06 84.62 77.61 85.17 128.31 81.52 128.31 81.52 140.53 80.61 182.52 62.51 182.52 62.51 182.52 62.51 185.57 67.2 185.57 67.84 185.57 67.84 186.08 73.05 186.16 77.83 186.21 80.61 186.11 83.25 185.67 84.62Z" fill="url(#linear-gradient-14)" opacity="0.57"/><path d="M117.89 56.41C117.89 56.41 115.27 75.77 116.91 82.06 116.91 82.06 116.25 91.09 117.55 95.67" stroke="url(#linear-gradient-15)" stroke-width="0.5" stroke-miterlimit="10" fill="none"/><path d="M166.18 43.28C166.73 39.45 154.62 36.51 154.62 36.51 139.71 34.05 118.47 34.87 118.47 34.87 92.48 34.14 73.06 52.56 68.18 55.39 63.3 58.22 62.57 60.22 62.57 60.22 61.84 59.67 47.16 65.78 47.16 65.78 40.65 63.79 38.37 65.05 38.23 65.13 38.27 65.01 39.9 61.09 46.22 58.94 46.22 58.94 53.87 53.96 65 50.88 65.01 50.88 65.02 50.87 65.03 50.87 65.03 50.87 82.65 39.67 93.41 34.91 96.16 33.7 98.46 32.9 99.9 32.81 99.9 32.81 127.39 26.24 166.51 32.81 166.51 32.81 171.57 33.22 171.16 37.94 171.16 37.94 183.32 45.33 185.11 53.74 176.39 45.24 166.17 43.28 166.17 43.28Z" fill="url(#linear-gradient-16)"/><path d="M65.93 73.29C65.99 73.71 65.2 74.19 64.15 74.35 63.1 74.51 62.2 74.3 62.14 73.87 62.08 73.45 62.87 72.97 63.92 72.81 64.97 72.65 65.87 72.86 65.93 73.29Z" fill="#CC5E2D"/><path d="M53.47 69.89C53.47 69.89 40.75 71.26 40.52 72.09 40.52 72.09 35.37 74.23 36.37 72.5L36.1 72.41C36.1 72.41 36.16 72.34 36.19 72.32 36.19 72.32 34.35 67.14 37.97 65.11L37.97 65.11C38.16 64.98 45.26 62.5 53.46 69.89Z" fill="url(#linear-gradient-17)"/><path d="M67.76 90.81C67.76 90.81 71.04 98.2 70.15 101.14 70.15 101.14 72 102.23 75.55 96.35L71.99 96.42C71.99 96.42 70.55 90.56 67.75 90.81Z" fill="#231F20"/><path d="M185.67 84.61C185.67 84.61 185.03 86.71 184.12 86.8 184.12 86.8 182.8 80.9 177.19 78.48 178.67 70.97 171.43 69.87 172.25 69.18 173.07 68.5 173.12 65.37 173.12 65.37 173.88 62.5 174.6 58.61 173.23 57.69 169.25 55.04 158.4 53.6 158.4 53.6L173.53 53.05C173.72 50.77 167.88 44.94 167.88 44.94 167.51 37.28 149.37 34.45 149.37 34.45 150 33.36 165.32 35.36 165.32 35.36 168.6 33.99 171.16 38.07 171.16 38.07L171.17 38.07C171.52 38.29 182.36 44.98 184.83 52.82 184.94 53.17 185.03 53.52 185.11 53.88 185.3 54.77 185.37 55.67 185.3 56.57 185.15 58.56 184.32 60.56 182.52 62.5 182.52 62.5 185.57 67.19 185.57 67.83 185.57 67.83 186.08 73.04 186.16 77.82 186.21 80.6 186.11 83.24 185.67 84.61Z" fill="url(#linear-gradient-18)" opacity="0.58"/><g><path d="M113.43 65.22C113.43 66.25 111.49 67.08 109.09 67.08 106.69 67.08 104.75 66.25 104.75 65.22 104.75 64.19 106.69 63.36 109.09 63.36 111.49 63.36 113.43 64.19 113.43 65.22Z" fill="url(#linear-gradient-19)" opacity="0.58"/><path d="M113.39 64.98C113.34 65.99 111.42 66.81 109.06 66.81 106.85 66.81 105.03 66.1 104.76 65.18 104.76 65.19 104.76 65.2 104.76 65.22 104.76 66.25 106.7 67.08 109.1 67.08 111.5 67.08 113.44 66.25 113.44 65.22 113.44 65.14 113.42 65.06 113.4 64.98Z" fill="url(#linear-gradient-20)"/><path d="M109.09 64.36C111.08 64.36 112.75 64.94 113.26 65.72 113.36 65.56 113.42 65.39 113.42 65.22 113.42 64.19 111.48 63.36 109.08 63.36 106.68 63.36 104.74 64.19 104.74 65.22 104.74 65.39 104.8 65.56 104.9 65.72 105.41 64.93 107.08 64.36 109.07 64.36Z" fill="url(#linear-gradient-21)" opacity="0.58"/><path d="M111.62 65.38C111.62 65.46 111.44 65.53 111.3 65.53 111.16 65.53 110.9 65.46 110.9 65.37 110.9 65.28 111.16 65.23 111.3 65.23 111.44 65.23 111.62 65.3 111.62 65.38Z" fill="url(#radial-gradient-5)"/></g><g><path d="M162.11 60.58C162.17 61.61 160.28 62.56 157.89 62.7 155.5 62.84 153.51 62.13 153.45 61.1 153.39 60.07 155.28 59.12 157.67 58.98 160.06 58.84 162.05 59.55 162.11 60.58Z" fill="url(#linear-gradient-22)" opacity="0.58"/><path d="M162.06 60.35C162.07 61.36 160.21 62.29 157.84 62.43 155.63 62.56 153.78 61.96 153.45 61.06 153.45 61.07 153.45 61.09 153.45 61.1 153.51 62.13 155.5 62.84 157.89 62.7 160.28 62.56 162.17 61.61 162.11 60.58 162.11 60.5 162.08 60.42 162.06 60.35Z" fill="url(#linear-gradient-23)"/><path d="M157.73 59.98C159.72 59.86 161.42 60.34 161.98 61.09 162.07 60.92 162.12 60.75 162.11 60.58 162.05 59.55 160.06 58.84 157.67 58.98 155.28 59.12 153.39 60.07 153.45 61.1 153.46 61.27 153.53 61.44 153.64 61.59 154.1 60.78 155.74 60.1 157.73 59.98Z" fill="url(#linear-gradient-24)" opacity="0.58"/><path d="M160.32 60.85C160.32 60.93 160.15 61.01 160.01 61.02 159.87 61.02 159.61 60.97 159.6 60.89 159.6 60.81 159.85 60.74 159.99 60.73 160.13 60.73 160.31 60.78 160.32 60.86Z" fill="url(#radial-gradient-6)"/></g><path d="M78.62 96.31 72.01 96.42C72.01 96.42 70.37 91.22 67.77 90.81 67.77 90.81 62.36 79.8 49.17 80 49.17 80 31.53 81.5 40.42 95.8 40.42 95.8 35.39 95.04 34.13 87.16L34.26 87.12C34.26 87.12 33.04 75.6 50.13 74.95 57.24 74.68 66.34 76.66 78.63 96.31Z" fill="url(#linear-gradient-25)"/><path d="M154.5 85.17C152.59 87.59 151.13 90.81 150.66 95.08L145.61 95.17 78.63 96.34 72.02 96.45C72.02 96.45 71.16 93.7 69.68 92.05 75.64 91.68 146.49 87.33 154.22 85.23 154.32 85.2 154.41 85.18 154.5 85.17Z" fill="url(#linear-gradient-26)"/><path d="M71.15 53.31C71.15 53.31 68.29 60.72 68.63 64.54 68.97 68.36 69.49 80.63 74.7 90.48 75.39 91.78 76.65 92.91 78.16 93.76 78.16 93.76 139.62 93.3 141.63 92.57 141.63 92.57 145.42 93.87 148.07 87.57 148.07 87.57 150.07 80.14 157.55 75.47 161.88 73.12 167.01 58.61 162.65 53.62 162.65 53.62 168.56 44.28 166 42.17" stroke="url(#linear-gradient-27)" stroke-width="0.5" stroke-miterlimit="10" fill="none"/><path d="M179.96 45.16C179.96 45.16 188.61 54.5 179.04 63.93 179.04 63.93 182.87 63.04 183.76 62.02 184.65 60.99 185.97 55.36 185.1 52.95 184.32 50.78 183.2 47.58 179.96 45.16Z" fill="url(#linear-gradient-28)"/><g><g><ellipse cx="166.48" cy="91.44" rx="14.74" ry="13.73" fill="url(#radial-gradient-7)" transform="matrix(0.996694 -0.0812427 0.0812427 0.996694 -6.88 13.82)"/><path d="M158.22 95.86C156.28 91.13 158.64 85.7 163.48 83.73 168.32 81.76 173.82 84 175.76 88.73 177.7 93.46 175.34 98.89 170.5 100.86 165.66 102.83 160.16 100.59 158.22 95.86Z" fill="url(#radial-gradient-8)"/><path d="M159.96 95.43C158.38 91.57 160.25 87.16 164.14 85.58 168.03 84 172.46 85.85 174.04 89.71 175.62 93.57 173.75 97.98 169.86 99.56 165.97 101.14 161.54 99.29 159.96 95.43Z" fill="url(#radial-gradient-9)"/><path d="M162.61 94.55C161.58 92.03 162.82 89.14 165.38 88.1 167.94 87.06 170.86 88.26 171.89 90.78 172.92 93.3 171.68 96.19 169.12 97.23 166.56 98.27 163.64 97.07 162.61 94.55Z" fill="url(#radial-gradient-10)"/><g><g><path d="M175.93 92.17 170.39 92.05 169.93 94.22 175.04 96.04C175.04 96.04 176.54 93.68 175.92 92.16Z" fill="url(#linear-gradient-29)"/><path d="M157.87 92.03 163.12 92.89 163.83 90.88 159.2 88.46C159.2 88.46 157.48 90.5 157.87 92.02Z" fill="url(#linear-gradient-30)"/></g><g><path d="M167.13 101.25 166.79 96.01 168.81 95.55 171.1 100.14C171.1 100.14 168.53 101.64 167.13 101.24Z" fill="url(#linear-gradient-31)"/><path d="M167.35 83.4 166.79 89.22 164.74 89.81 163.45 84.12C163.45 84.12 165.77 82.99 167.35 83.4Z" fill="url(#linear-gradient-32)"/></g><path d="M174.7 87.56 169.75 90.94 168.03 89.46 171.46 84.64C171.46 84.64 174.24 86.11 174.7 87.56Z" fill="url(#linear-gradient-33)"/><path d="M162.01 99.3 164.89 95.22 162.88 93.66 159.21 96.73C159.21 96.73 159.98 98.75 162.02 99.3Z" fill="url(#linear-gradient-34)"/></g></g><path d="M184.12 86.8C184.12 86.8 184.48 90.99 184.21 91.9 183.94 92.81 180.74 92.81 180.74 92.81 180.74 92.81 181.01 73.93 161.59 79.86 161.59 79.86 150.41 84.12 152.32 95.33L150.64 95.04C150.64 95.04 149 79.24 170.2 77.26 170.2 77.26 181.37 75.94 184.11 86.79Z" fill="#231F20"/><path d="M185.67 84.61C185.67 84.61 185.03 86.71 184.12 86.8 184.12 86.8 181.56 75.35 168.43 77.82 168.43 77.82 152.43 78.91 150.65 95.05L145.6 95.14C145.77 94.11 149.07 76.98 163.92 73.03 169.39 71.58 181.02 69.95 186.08 77.68 186.11 77.73 186.13 77.77 186.16 77.82 186.21 80.6 186.11 83.24 185.67 84.61Z" fill="url(#linear-gradient-35)"/></g></g></g></g></svg>