<svg viewBox="0 0 379.84 184.94" xmlns="http://www.w3.org/2000/svg" xmlns:xlink="http://www.w3.org/1999/xlink" id="Layer_1" overflow="hidden"><defs><linearGradient x1="202.54" y1="1.41" x2="179.6" y2="115.06" gradientUnits="userSpaceOnUse" id="linear-gradient"><stop offset="0" stop-color="#FFFFFF"/><stop offset="0.26" stop-color="#FBFBFB"/><stop offset="0.47" stop-color="#F1F1F1"/><stop offset="0.66" stop-color="#E0E0E0"/><stop offset="0.85" stop-color="#C8C8C9"/><stop offset="1" stop-color="#AEAEAF"/></linearGradient><linearGradient x1="192.14" y1="-42.69" x2="192.14" y2="66.33" gradientUnits="userSpaceOnUse" id="linear-gradient-2"><stop offset="0" stop-color="#FFFFFF"/><stop offset="0.78" stop-color="#E7E7E9"/><stop offset="1" stop-color="#E0E0E2"/></linearGradient><linearGradient x1="188.81" y1="66.77" x2="188.81" y2="43.87" gradientUnits="userSpaceOnUse" id="linear-gradient-3"><stop offset="0" stop-color="#CFD8E8"/><stop offset="0.12" stop-color="#EEF0F6"/><stop offset="0.3" stop-color="#FFFFFF"/><stop offset="0.62" stop-color="#F2F3F8"/><stop offset="0.87" stop-color="#E5E9F2"/><stop offset="1" stop-color="#CBD6E6"/></linearGradient></defs><g><path d="M377.33 64.35C377.33 96.18 355.62 121.98 328.84 121.98L48.49 121.98C21.71 121.98 0 96.18 0 64.35L0 64.35C0 32.52 22.26 6.72 49.04 6.72L328.84 6.72C355.62 6.72 377.33 32.52 377.33 64.35L377.33 64.35Z" opacity="0.57"/><g><path d="M379.84 57.63C379.84 89.46 358.13 115.26 331.35 115.26L51 115.26C24.22 115.26 2.51 89.46 2.51 57.63L2.51 57.63C2.51 25.8 24.76 0 51.54 0L331.35 0C358.13 0 379.84 25.8 379.84 57.63L379.84 57.63Z" fill="url(#linear-gradient)"/><path d="M377.99 57.63C377.99 87.74 356.64 112.14 330.3 112.14L53.98 112.14C27.64 112.14 6.29 87.73 6.29 57.63L6.29 57.63C6.29 27.53 27.64 3.12 53.98 3.12L330.29 3.12C356.63 3.12 377.98 27.52 377.98 57.63L377.98 57.63Z" fill="url(#linear-gradient-2)"/></g><g><g><path d="M188.81 101.54C136.06 101.54 82.65 86.14 82.65 56.72 82.65 27.3 136.05 11.89 188.81 11.89 241.57 11.89 294.97 27.29 294.97 56.71 294.97 86.13 241.57 101.53 188.81 101.53Z" fill="#E0E1E2"/><path d="M188.81 101.72C135.97 101.72 82.47 86.26 82.47 56.72 82.47 27.18 135.96 11.72 188.81 11.72 241.66 11.72 295.15 27.18 295.15 56.72 295.15 86.26 241.66 101.72 188.81 101.72ZM188.81 12.07C136.15 12.07 82.83 27.4 82.83 56.72 82.83 86.04 136.14 101.37 188.81 101.37 241.48 101.37 294.79 86.03 294.79 56.72 294.79 27.41 241.47 12.07 188.81 12.07Z" fill="#969696"/></g><ellipse cx="188.81" cy="56.72" rx="99.05" ry="37.36" fill="#1E4AC4"/><g><path d="M188.81 89.92C132.88 89.92 93.91 72.42 93.91 56.71 93.91 41 132.88 23.5 188.81 23.5 244.74 23.5 283.71 41 283.71 56.71 283.71 72.42 244.74 89.92 188.81 89.92Z" fill="#1E4AC4"/><path d="M188.81 90.66C132.45 90.66 93.18 72.77 93.18 56.72 93.18 40.67 132.45 22.78 188.81 22.78 245.17 22.78 284.44 40.67 284.44 56.72 284.44 72.77 245.16 90.66 188.81 90.66ZM188.81 24.24C133.32 24.24 94.64 41.35 94.64 56.72 94.64 72.09 133.31 89.2 188.81 89.2 244.31 89.2 282.98 72.08 282.98 56.72 282.98 41.36 244.31 24.24 188.81 24.24Z" fill="#FFFFFF"/></g><g><path d="M231.22 50.47 223.37 62.24C219.38 57.6 215.52 59.23 211.34 63.03 210.88 63.42 210.36 63.88 209.9 64.4 203.29 70.94 200.61 69.04 200.48 64.01 201.13 63.29 201.79 62.7 202.44 62.11 201.2 68.12 210.16 65.31 206.5 60.08 204.34 56.87 202.12 58.77 198.52 62.83 198.26 54.66 193.09 60.48 189.36 62.89 188.7 63.28 188.05 63.61 187.53 63.74 187.27 62.43 186.42 60.01 185.63 60.01 183.93 60.01 184.06 60.54 184.39 64.13 184.72 67.86 183.48 70.86 181.05 72.37 179.94 73.09 178.5 73.48 176.86 73.41 172.08 73.21 173.46 65.1 179.22 62.55 180.13 62.09 180.72 61.7 181.05 61.31 181.57 60.65 181.57 60.13 181.05 59.87 180.59 59.61 179.68 59.54 178.43 60 174.9 61.18 171.43 65.3 169.8 69.75 167.77 71.71 167.38 72.69 166.92 74L167.77 74.52C168.49 73.54 169.01 72.89 170.19 72.04 171.56 76.42 176.47 77.93 181.05 75.7 184.12 74.19 187.07 70.99 188.77 65.96 188.9 65.69 189.1 65.44 189.36 65.18 192.24 61.39 196.23 59.75 193.94 66.68L189.36 73.81 189.1 74.14C188.25 75.45 188.58 76.49 189.36 76.82 190.14 77.15 191.52 76.69 192.5 74.92 194.13 72.11 195.83 69.56 197.6 67.4 199.23 70.73 201.46 72.83 206.56 69.36 206.56 73.74 208 75.77 211.33 75.9 213.1 75.97 215.38 75.45 218.33 74.59 222.84 79.36 227.81 76.62 233.11 68.64L231.61 68.64C222.98 78.12 219.97 74.14 224.94 66.74L235.86 50.46C235.92 50.39 235.99 50.33 235.99 50.26L235.99 50.07C235.73 49.15 232 49.29 231.22 50.46M219.18 69.56C217.61 72.57 214.47 73.42 212.25 72.9 211.86 72.77 211.53 72.57 211.34 72.31 210.75 71.53 210.88 70.22 211.34 68.91 211.67 67.93 212.25 66.95 212.91 66.16 214.87 63.8 217.23 61.32 219.12 62.63 220.82 63.74 220.75 66.62 219.18 69.56M179.16 55.76C179.36 56.22 179.94 56.68 180.53 56.94 180.4 56.55 180.27 55.89 180.27 55.44 180.53 55.37 180.79 55.24 181.05 55.11 184.91 53.34 185.17 49.55 182.03 48.76 181.7 48.7 181.38 48.63 181.05 48.63 178.89 48.57 177.97 50.85 178.3 54.39 176.73 54.91 174.31 54.72 171.69 54.52 174.63 50.66 177.71 47.13 181.04 44.65 181.11 44.65 181.17 44.58 181.17 44.58 184.18 45.5 186.86 46.28 189.35 46.81 203.93 50.21 208.84 46.75 211.32 40.79 211.45 40.47 211.58 40.14 211.71 39.81 211.58 39.87 211.45 39.94 211.32 40.01 204.78 43.28 197.06 43.41 189.35 42.56 186.54 42.23 183.79 41.84 181.04 41.32 176.92 40.6 172.87 39.75 169.07 39.16 154.09 36.67 148.53 46.81 151.54 52.37 154.42 57.6 163.18 56.75 165.21 46.61 153.76 62.11 145.59 33.53 178.29 43.86 174.63 46.54 171.16 50.33 167.89 54.39 164.42 54.32 161.42 55.04 160.57 58.18 162.47 56.54 164.49 56.02 166.65 55.89 163.84 59.42 161.09 63.02 158.41 66.29 148.27 78.39 138.46 66.36 150.1 58.77 145.98 57.2 141.66 62.43 141.6 67.6L141.6 67.8C141.6 70.68 142.97 73.49 146.44 75.06 151.08 77.15 156.25 75.39 162.66 66.95 165.28 63.55 167.83 59.76 170.51 56.09 173.26 56.35 176.14 56.62 179.14 55.76M181.04 50.4C181.3 50.4 181.56 50.4 181.76 50.53 182.61 50.86 182.22 52.43 181.04 53.35 180.71 53.61 180.39 53.81 179.93 53.87 179.74 51.71 180.26 50.53 181.04 50.41Z" fill="#231F20"/><path d="M231.22 48.19 223.37 59.96C219.38 55.32 215.52 56.95 211.34 60.75 210.88 61.14 210.36 61.6 209.9 62.12 203.29 68.66 200.61 66.76 200.48 61.73 201.14 61.01 201.79 60.42 202.44 59.83 201.2 65.84 210.16 63.03 206.49 57.8 204.33 54.59 202.11 56.49 198.51 60.55 198.25 52.38 193.08 58.2 189.35 60.61 188.7 61 188.04 61.33 187.52 61.46 187.26 60.15 186.41 57.73 185.62 57.73 183.92 57.73 184.05 58.26 184.38 61.85 184.7 65.58 183.46 68.58 181.04 70.09 179.93 70.81 178.49 71.2 176.86 71.13 172.08 70.93 173.46 62.82 179.22 60.27 180.14 59.81 180.72 59.42 181.05 59.03 181.57 58.37 181.57 57.85 181.05 57.59 180.59 57.33 179.68 57.26 178.43 57.72 174.9 58.9 171.43 63.02 169.8 67.47 167.77 69.43 167.38 70.41 166.92 71.72L167.77 72.24C168.49 71.26 169.01 70.61 170.19 69.76 171.56 74.14 176.47 75.65 181.04 73.42 184.12 71.91 187.06 68.71 188.76 63.68 188.89 63.41 189.09 63.16 189.35 62.9 192.23 59.11 196.22 57.47 193.93 64.4L189.35 71.53 189.09 71.86C188.24 73.17 188.57 74.21 189.35 74.54 190.14 74.87 191.51 74.41 192.49 72.64 194.13 69.83 195.83 67.28 197.59 65.12 199.23 68.45 201.45 70.55 206.55 67.08 206.55 71.46 207.99 73.49 211.33 73.62 213.09 73.69 215.38 73.17 218.33 72.31 222.84 77.08 227.81 74.34 233.11 66.36L231.61 66.36C222.98 75.84 219.97 71.86 224.94 64.46L235.86 48.18C235.93 48.11 235.99 48.05 235.99 47.98L235.99 47.79C235.73 46.87 232 47.01 231.21 48.18M219.18 67.28C217.61 70.29 214.47 71.14 212.25 70.62 211.86 70.49 211.53 70.29 211.34 70.03 210.75 69.25 210.88 67.94 211.34 66.63 211.67 65.65 212.25 64.67 212.91 63.88 214.87 61.52 217.23 59.04 219.12 60.35 220.82 61.46 220.75 64.34 219.19 67.28M179.16 53.48C179.36 53.94 179.95 54.4 180.53 54.66 180.4 54.27 180.27 53.61 180.27 53.16 180.53 53.09 180.79 52.96 181.05 52.83 184.91 51.06 185.17 47.27 182.03 46.48 181.7 46.42 181.38 46.35 181.05 46.35 178.89 46.29 177.98 48.57 178.3 52.11 176.73 52.63 174.31 52.44 171.69 52.24 174.63 48.38 177.71 44.85 181.04 42.37 181.11 42.37 181.17 42.3 181.17 42.3 184.18 43.22 186.86 44 189.35 44.53 203.93 47.93 208.84 44.47 211.33 38.51 211.46 38.19 211.59 37.86 211.72 37.53 211.59 37.59 211.46 37.66 211.33 37.73 204.79 41 197.07 41.13 189.35 40.28 186.54 39.95 183.79 39.56 181.04 39.04 176.92 38.32 172.87 37.47 169.07 36.88 154.1 34.39 148.53 44.53 151.54 50.09 154.42 55.32 163.18 54.47 165.21 44.33 153.77 59.83 145.59 31.25 178.29 41.58 174.63 44.26 171.16 48.05 167.89 52.11 164.43 52.04 161.42 52.76 160.57 55.9 162.47 54.26 164.5 53.74 166.65 53.61 163.84 57.14 161.09 60.74 158.41 64.01 148.27 76.11 138.46 64.08 150.1 56.49 145.98 54.92 141.66 60.15 141.6 65.32L141.6 65.52C141.6 68.4 142.97 71.21 146.44 72.78 151.08 74.87 156.25 73.11 162.66 64.67 165.27 61.27 167.83 57.48 170.51 53.81 173.26 54.07 176.13 54.34 179.14 53.48M181.04 48.12C181.3 48.12 181.56 48.12 181.76 48.25 182.61 48.58 182.22 50.15 181.04 51.07 180.71 51.33 180.39 51.53 179.93 51.59 179.73 49.43 180.26 48.25 181.04 48.13Z" fill="url(#linear-gradient-3)" fill-rule="evenodd"/></g></g></g><path d="M202.17 184.94 190.29 184.94 190.29 147.11 178.62 150.52 178.62 141.52 201.08 133.75 202.17 133.75 202.17 184.94Z"/></svg>