<svg viewBox="0 0 379.84 183.22" xmlns="http://www.w3.org/2000/svg" xmlns:xlink="http://www.w3.org/1999/xlink" id="Layer_1" overflow="hidden"><defs><linearGradient x1="202.54" y1="1.41" x2="179.6" y2="115.06" gradientUnits="userSpaceOnUse" id="linear-gradient"><stop offset="0" stop-color="#FFFFFF"/><stop offset="0.26" stop-color="#FBFBFB"/><stop offset="0.47" stop-color="#F1F1F1"/><stop offset="0.66" stop-color="#E0E0E0"/><stop offset="0.85" stop-color="#C8C8C9"/><stop offset="1" stop-color="#AEAEAF"/></linearGradient><linearGradient x1="192.14" y1="-42.69" x2="192.14" y2="66.33" gradientUnits="userSpaceOnUse" id="linear-gradient-2"><stop offset="0" stop-color="#FFFFFF"/><stop offset="0.78" stop-color="#E7E7E9"/><stop offset="1" stop-color="#E0E0E2"/></linearGradient><clipPath id="clippath"><path d="M114.96 94.47 262.37 94.47 262.37 20.8 114.96 20.8 114.96 94.47 114.96 94.47Z" fill="none" clip-rule="evenodd"/></clipPath><clipPath id="clippath-1"><path d="M114.96 20.8 262.37 20.8 262.37 94.47 114.96 94.47 114.96 20.8 114.96 20.8Z" fill="none" clip-rule="evenodd" clip-path="url(#clippath)"/></clipPath><clipPath id="clippath-2"><path d="M114.96 94.47 262.37 94.47 262.37 20.8 114.96 20.8 114.96 94.47 114.96 94.47Z" fill="none"/></clipPath></defs><path d="M377.33 64.35C377.33 96.18 355.62 121.98 328.84 121.98L48.49 121.98C21.71 121.98 0 96.18 0 64.35L0 64.35C0 32.52 22.26 6.72 49.04 6.72L328.84 6.72C355.62 6.72 377.33 32.52 377.33 64.35L377.33 64.35Z" opacity="0.57"/><g><path d="M379.84 57.63C379.84 89.46 358.13 115.26 331.35 115.26L51 115.26C24.22 115.26 2.51 89.46 2.51 57.63L2.51 57.63C2.51 25.8 24.76 0 51.54 0L331.35 0C358.13 0 379.84 25.8 379.84 57.63L379.84 57.63Z" fill="url(#linear-gradient)"/><path d="M377.99 57.63C377.99 87.74 356.64 112.14 330.3 112.14L53.98 112.14C27.64 112.14 6.29 87.73 6.29 57.63L6.29 57.63C6.29 27.53 27.64 3.12 53.98 3.12L330.29 3.12C356.63 3.12 377.98 27.52 377.98 57.63L377.98 57.63Z" fill="url(#linear-gradient-2)"/></g><path d="M186.87 151.96 192.46 151.96C196.89 151.96 199.1 149.79 199.1 145.46 199.1 143.77 198.57 142.4 197.52 141.33 196.47 140.26 194.98 139.73 193.06 139.73 191.49 139.73 190.12 140.19 188.96 141.1 187.8 142.01 187.22 143.15 187.22 144.51L175.37 144.51C175.37 141.81 176.12 139.41 177.62 137.3 179.12 135.19 181.2 133.54 183.86 132.36 186.52 131.18 189.44 130.58 192.63 130.58 198.33 130.58 202.8 131.88 206.06 134.48 209.32 137.08 210.95 140.66 210.95 145.2 210.95 147.4 210.28 149.48 208.93 151.44 207.58 153.4 205.62 154.98 203.04 156.2 205.76 157.18 207.89 158.68 209.44 160.68 210.99 162.68 211.76 165.16 211.76 168.12 211.76 172.69 210 176.35 206.49 179.09 202.98 181.83 198.36 183.2 192.64 183.2 189.29 183.2 186.18 182.56 183.31 181.28 180.44 180 178.27 178.23 176.79 175.97 175.31 173.71 174.58 171.14 174.58 168.25L186.5 168.25C186.5 169.82 187.13 171.18 188.4 172.33 189.67 173.48 191.22 174.05 193.08 174.05 195.17 174.05 196.83 173.47 198.07 172.31 199.31 171.15 199.93 169.67 199.93 167.86 199.93 165.28 199.29 163.45 198 162.38 196.71 161.31 194.93 160.76 192.66 160.76L186.89 160.76 186.89 151.94Z"/><g clip-path="url(#clippath-1)"><g clip-path="url(#clippath-2)"><path d="M262.16 58.13C262.16 78.04 229.49 94.22 189.17 94.22 148.85 94.22 116.22 78.04 116.22 58.13 116.22 38.22 148.91 22.05 189.17 22.05 229.43 22.05 262.16 38.2 262.16 58.13L262.16 58.13ZM185.73 53.22C192.06 52.01 198.14 49.88 202.98 48.2 218.43 42.77 225.86 37.17 227.33 35.92 229.22 34.24 227.77 33.47 226.01 32.94 215.41 29.8 199.38 27.54 189.09 27.94 181.7 28.2 177.44 36.08 175.8 39.54 168.07 55.61 182 53.89 185.73 53.21L185.73 53.21ZM138.07 75.8C138.46 75.19 150.68 47.19 165.14 31.97 166.78 30.18 164.95 29.92 162.57 30.36 138.81 35 122.19 45.67 122.19 58.1 122.19 64.88 127.16 71.1 135.43 76.13 136.7 76.91 137.72 76.37 138.07 75.79L138.07 75.79ZM192.59 63.1C186.32 64.26 180.22 66.4 175.35 68.08 159.87 73.52 152.46 79.1 151.02 80.37 149.13 82.03 150.59 82.83 152.34 83.36 162.94 86.51 178.93 88.7 189.23 88.36 196.67 88.09 200.91 80.23 202.57 76.77 210.28 60.7 196.32 62.39 192.59 63.1L192.59 63.1ZM256.13 58.18C256.13 51.41 251.21 45.18 242.93 40.15 241.61 39.34 240.6 39.9 240.26 40.41 239.83 41.07 227.68 69.09 213.18 84.32 211.49 86.08 213.37 86.35 215.75 85.88 239.5 81.26 256.13 70.58 256.13 58.17L256.13 58.17Z" fill="#004484" fill-rule="evenodd"/></g></g></svg>