<svg viewBox="0 0 379.84 182.51" xmlns="http://www.w3.org/2000/svg" xmlns:xlink="http://www.w3.org/1999/xlink" id="Layer_1" overflow="hidden"><defs><linearGradient x1="202.54" y1="1.41" x2="179.6" y2="115.06" gradientUnits="userSpaceOnUse" id="linear-gradient"><stop offset="0" stop-color="#FFFFFF"/><stop offset="0.26" stop-color="#FBFBFB"/><stop offset="0.47" stop-color="#F1F1F1"/><stop offset="0.66" stop-color="#E0E0E0"/><stop offset="0.85" stop-color="#C8C8C9"/><stop offset="1" stop-color="#AEAEAF"/></linearGradient><linearGradient x1="192.14" y1="-42.69" x2="192.14" y2="66.33" gradientUnits="userSpaceOnUse" id="linear-gradient-2"><stop offset="0" stop-color="#FFFFFF"/><stop offset="0.78" stop-color="#E7E7E9"/><stop offset="1" stop-color="#E0E0E2"/></linearGradient></defs><path d="M377.33 64.35C377.33 96.18 355.62 121.98 328.84 121.98L48.49 121.98C21.71 121.98 0 96.18 0 64.35L0 64.35C0 32.52 22.26 6.72 49.04 6.72L328.84 6.72C355.62 6.72 377.33 32.52 377.33 64.35L377.33 64.35Z" opacity="0.57"/><g><path d="M379.84 57.63C379.84 89.46 358.13 115.26 331.35 115.26L51 115.26C24.22 115.26 2.51 89.46 2.51 57.63L2.51 57.63C2.51 25.8 24.76 0 51.54 0L331.35 0C358.13 0 379.84 25.8 379.84 57.63L379.84 57.63Z" fill="url(#linear-gradient)"/><path d="M377.99 57.63C377.99 87.74 356.64 112.14 330.3 112.14L53.98 112.14C27.64 112.14 6.29 87.73 6.29 57.63L6.29 57.63C6.29 27.53 27.64 3.12 53.98 3.12L330.29 3.12C356.63 3.12 377.98 27.52 377.98 57.63L377.98 57.63Z" fill="url(#linear-gradient-2)"/></g><path d="M207.33 162.51 212.53 162.51 212.53 171.65 207.33 171.65 207.33 182.51 195.48 182.51 195.48 171.65 175.69 171.65 174.99 164.41 195.49 131.43 195.49 131.32 207.34 131.32 207.34 162.5ZM186.27 162.51 195.48 162.51 195.48 146.76 194.74 147.96 186.27 162.51Z"/><g><path d="M244.72 54.97 244.37 52.74 243.83 50.56 243.13 48.43 242.19 46.4 240.21 43.03 237.68 39.8 234.65 36.73 231.18 33.95 227.26 31.37 222.99 29.09 218.38 27.15 213.47 25.51 208.31 24.22 207.42 24.07 203.06 23.33 197.8 22.78 197.6 22.73 196.26 22.68 192.19 22.58 192.04 22.58 186.68 22.72 186.28 22.77 181.27 23.32 175.96 24.21 170.8 25.5 165.94 27.14 161.33 29.08 157.01 31.36 153.14 33.94 149.62 36.72 146.65 39.74 144.07 43.02 142.09 46.39 141.2 48.42 140.46 50.55 139.91 52.73 139.62 54.96 139.52 57.19 139.62 59.42 139.91 61.65 140.46 63.84 141.2 66.02 142.09 68.01 144.07 71.44 146.65 74.66 149.62 77.68 153.14 80.46 157.01 83.04 161.33 85.38 165.94 87.26 170.8 88.89 175.76 90.13 180.72 91.02 185.78 91.61 186.27 91.61 190.84 91.86 192.03 91.86 195.85 91.8 196.25 91.75 197.79 91.66 200.86 91.36 205.92 90.66 207.41 90.31 210.89 89.62 213.37 88.92 215.89 88.13 219.91 86.54 223.78 84.7 227.5 82.62 231.08 80.24 234.55 77.66 237.68 74.64 240.21 71.42 242.19 67.99 243.13 66 243.83 63.82 244.37 61.63 244.72 59.4 244.77 57.17 244.72 54.94 244.72 54.94ZM196.28 27.81 196.32 27.81 197.81 27.91 199.59 28.06 202.81 28.45 206.03 28.95 207.42 29.25 209.2 29.65 212.38 30.39 215.05 31.19 217.04 31.93 218.53 32.82 219.77 33.91 220.76 35.25 221.45 36.74 221.75 38.28 221.7 39.62 221.26 40.81 220.46 41.9 219.08 43.04 216.8 44.33 214.37 45.37 211.89 46.36 209.36 47.21 207.42 47.75 206.78 47.9 204.2 48.5 203.9 46.22 203.5 43.89 202.91 41.66 202.17 39.48 201.27 37.35 200.28 35.26 199.34 33.57 198.55 32.38 197.81 31.44 197.66 31.25 196.62 30.2 196.27 29.9 195.53 29.26 194.34 28.42 193.1 27.68 196.27 27.83 196.27 27.83ZM192.06 36.44 192.8 36.44 194 36.88 194.99 37.58 195.73 38.57 196.28 39.47 196.48 39.92 197.32 41.61 197.82 42.8 198.07 43.39 198.61 45.18 199.06 47.06 199.4 48.94 197.82 49.14 196.98 49.24 196.28 49.29 194.54 49.39 192.16 49.44 192.06 49.44 189.73 49.39 187.3 49.24 186.3 49.14 184.86 49 185.16 47.11 185.61 45.28 186.16 43.3 186.31 43 186.86 41.66 187.71 39.92 188.5 38.43 189.29 37.49 190.38 36.8 191.57 36.45 192.07 36.45ZM162.99 37.08 163.49 35.74 164.28 34.55 165.57 33.46 167.35 32.37 170.03 31.18 172.86 30.04 175.89 29.09 179.11 28.34 182.29 27.95 184.52 27.8 186.3 27.7 186.75 27.7 188.98 27.65 191.21 27.65 190.01 28.39 188.92 29.18 187.78 30.12 186.74 31.26 186.29 31.85 185.7 32.6 184.71 34.19 183.62 36.03 182.58 38.36 181.69 40.79 181 43.22 180.4 45.7 180.01 48.23 177.63 47.93 175.29 47.53 173.01 46.88 170.73 46.09 168.55 45.15 166.76 44.15 165.42 43.21 164.33 42.22 163.54 41.08 162.99 39.83 162.79 38.44 162.99 37.05 162.99 37.05ZM186.3 86.99 184.37 86.79 181.04 86.34 177.72 85.6 174.4 84.65 171.23 83.56 168.1 82.22 164.33 80.34 160.71 78.06 157.24 75.18 154.51 72.31 152.42 69.48 150.74 66.5 149.3 63.38 148.5 60.85 147.91 58.27 147.61 55.64 147.56 53.01 147.76 50.73 148.31 48.5 149.1 46.36 150.19 44.38 151.58 42.55 153.17 40.91 153.57 42.64 154.27 44.23 155.16 45.76 156.25 47.15 157.54 48.34 158.93 49.33 161.41 51.02 164.24 52.51 167.32 53.75 171.14 54.94 175.45 56.03 179.32 56.83 179.22 60.26 179.37 63.68 179.72 67.06 180.16 70.23 180.85 73.36 181.75 76.39 182.89 79.32 184.33 82.2 185.91 84.78 186.31 85.28 187.8 87.11 186.31 87.01 186.31 87.01ZM195.98 73.94 195.09 75.23 194.05 76.12 192.8 76.57 192.06 76.62 191.61 76.62 190.47 76.32 189.48 75.72 188.59 74.83 187.79 73.44 186.8 71.31 186.3 69.92 185.81 68.53 184.96 65.45 184.41 62.28 184.16 59.06 184.06 57.37 186.29 57.67 186.74 57.77 189.37 58.02 192 58.12 194.63 58.12 196.27 58.02 197.31 57.92 197.81 57.87 199.94 57.63 199.84 59.07 199.55 62.05 198.95 65.43 198.06 68.75 197.81 69.39 196.97 71.72 196.27 73.26 195.97 73.95 195.97 73.95ZM236.66 57.27 236.42 59.3 236.02 61.34 235.42 63.32 234.68 65.21 233.29 67.93 231.66 70.42 229.87 72.65 227.64 74.73 224.86 76.91 221.48 79.14 217.76 81.22 213.94 83.05 210.52 84.3 207.44 85.24 207.04 85.34 203.52 86.18 199.95 86.88 197.82 87.18 196.38 87.38 197.82 85.44 197.97 85.15 199.41 82.86 200.65 80.43 201.59 77.65 202.43 74.82 203.17 71.99 203.77 69.12 204.27 66.24 204.62 63.31 204.86 60.19 204.96 57.06 207.44 56.31 207.74 56.21 210.47 55.42 213.1 54.53 215.58 53.64 218.21 52.75 220.64 51.6 223.02 50.17 225.15 48.48 227.08 46.54 228.57 44.71 229.82 42.72 230.81 40.58 232.35 42.52 233.64 44.6 234.78 46.78 235.67 49.11 236.22 51.1 236.56 53.14 236.71 55.17 236.66 57.26 236.66 57.26Z" fill="#D0181F" fill-rule="evenodd"/><path d="M244.72 54.97 244.37 52.74 243.83 50.56 243.13 48.43 242.19 46.4 240.21 43.03 237.68 39.8 234.65 36.73 231.18 33.95 227.26 31.37 222.99 29.09 218.38 27.15 213.47 25.51 208.31 24.22 207.42 24.07 203.06 23.33 197.8 22.78 197.6 22.73 196.26 22.68 192.19 22.58 192.04 22.58 186.68 22.72 186.28 22.77 181.27 23.32 175.96 24.21 170.8 25.5 165.94 27.14 161.33 29.08 157.01 31.36 153.14 33.94 149.62 36.72 146.65 39.74 144.07 43.02 142.09 46.39 141.2 48.42 140.46 50.55 139.91 52.73 139.62 54.96 139.52 57.19 139.62 59.42 139.91 61.65 140.46 63.84 141.2 66.02 142.09 68.01 144.07 71.44 146.65 74.66 149.62 77.68 153.14 80.46 157.01 83.04 161.33 85.38 165.94 87.26 170.8 88.89 175.76 90.13 180.72 91.02 185.78 91.61 186.27 91.61 190.84 91.86 192.03 91.86 195.85 91.8 196.25 91.75 197.79 91.66 200.86 91.36 205.92 90.66 207.41 90.31 210.89 89.62 213.37 88.92 215.89 88.13 219.91 86.54 223.78 84.7 227.5 82.62 231.08 80.24 234.55 77.66 237.68 74.64 240.21 71.42 242.19 67.99 243.13 66 243.83 63.82 244.37 61.63 244.72 59.4 244.77 57.17 244.72 54.94 244.72 54.94ZM196.28 27.81 196.32 27.81 197.81 27.91 199.59 28.06 202.81 28.45 206.03 28.95 207.42 29.25 209.2 29.65 212.38 30.39 215.05 31.19 217.04 31.93 218.53 32.82 219.77 33.91 220.76 35.25 221.45 36.74 221.75 38.28 221.7 39.62 221.26 40.81 220.46 41.9 219.08 43.04 216.8 44.33 214.37 45.37 211.89 46.36 209.36 47.21 207.42 47.75 206.78 47.9 204.2 48.5 203.9 46.22 203.5 43.89 202.91 41.66 202.17 39.48 201.27 37.35 200.28 35.26 199.34 33.57 198.55 32.38 197.81 31.44 197.66 31.25 196.62 30.2 196.27 29.9 195.53 29.26 194.34 28.42 193.1 27.68 196.27 27.83 196.27 27.83ZM192.06 36.44 192.8 36.44 194 36.88 194.99 37.58 195.73 38.57 196.28 39.47 196.48 39.92 197.32 41.61 197.82 42.8 198.07 43.39 198.61 45.18 199.06 47.06 199.4 48.94 197.82 49.14 196.98 49.24 196.28 49.29 194.54 49.39 192.16 49.44 192.06 49.44 189.73 49.39 187.3 49.24 186.3 49.14 184.86 49 185.16 47.11 185.61 45.28 186.16 43.3 186.31 43 186.86 41.66 187.71 39.92 188.5 38.43 189.29 37.49 190.38 36.8 191.57 36.45 192.07 36.45ZM162.99 37.08 163.49 35.74 164.28 34.55 165.57 33.46 167.35 32.37 170.03 31.18 172.86 30.04 175.89 29.09 179.11 28.34 182.29 27.95 184.52 27.8 186.3 27.7 186.75 27.7 188.98 27.65 191.21 27.65 190.01 28.39 188.92 29.18 187.78 30.12 186.74 31.26 186.29 31.85 185.7 32.6 184.71 34.19 183.62 36.03 182.58 38.36 181.69 40.79 181 43.22 180.4 45.7 180.01 48.23 177.63 47.93 175.29 47.53 173.01 46.88 170.73 46.09 168.55 45.15 166.76 44.15 165.42 43.21 164.33 42.22 163.54 41.08 162.99 39.83 162.79 38.44 162.99 37.05 162.99 37.05ZM186.3 86.99 184.37 86.79 181.04 86.34 177.72 85.6 174.4 84.65 171.23 83.56 168.1 82.22 164.33 80.34 160.71 78.06 157.24 75.18 154.51 72.31 152.42 69.48 150.74 66.5 149.3 63.38 148.5 60.85 147.91 58.27 147.61 55.64 147.56 53.01 147.76 50.73 148.31 48.5 149.1 46.36 150.19 44.38 151.58 42.55 153.17 40.91 153.57 42.64 154.27 44.23 155.16 45.76 156.25 47.15 157.54 48.34 158.93 49.33 161.41 51.02 164.24 52.51 167.32 53.75 171.14 54.94 175.45 56.03 179.32 56.83 179.22 60.26 179.37 63.68 179.72 67.06 180.16 70.23 180.85 73.36 181.75 76.39 182.89 79.32 184.33 82.2 185.91 84.78 186.31 85.28 187.8 87.11 186.31 87.01 186.31 87.01ZM195.98 73.94 195.09 75.23 194.05 76.12 192.8 76.57 192.06 76.62 191.61 76.62 190.47 76.32 189.48 75.72 188.59 74.83 187.79 73.44 186.8 71.31 186.3 69.92 185.81 68.53 184.96 65.45 184.41 62.28 184.16 59.06 184.06 57.37 186.29 57.67 186.74 57.77 189.37 58.02 192 58.12 194.63 58.12 196.27 58.02 197.31 57.92 197.81 57.87 199.94 57.63 199.84 59.07 199.55 62.05 198.95 65.43 198.06 68.75 197.81 69.39 196.97 71.72 196.27 73.26 195.97 73.95 195.97 73.95ZM236.66 57.27 236.42 59.3 236.02 61.34 235.42 63.32 234.68 65.21 233.29 67.93 231.66 70.42 229.87 72.65 227.64 74.73 224.86 76.91 221.48 79.14 217.76 81.22 213.94 83.05 210.52 84.3 207.44 85.24 207.04 85.34 203.52 86.18 199.95 86.88 197.82 87.18 196.38 87.38 197.82 85.44 197.97 85.15 199.41 82.86 200.65 80.43 201.59 77.65 202.43 74.82 203.17 71.99 203.77 69.12 204.27 66.24 204.62 63.31 204.86 60.19 204.96 57.06 207.44 56.31 207.74 56.21 210.47 55.42 213.1 54.53 215.58 53.64 218.21 52.75 220.64 51.6 223.02 50.17 225.15 48.48 227.08 46.54 228.57 44.71 229.82 42.72 230.81 40.58 232.35 42.52 233.64 44.6 234.78 46.78 235.67 49.11 236.22 51.1 236.56 53.14 236.71 55.17 236.66 57.26 236.66 57.26Z" fill="#D0181F" fill-rule="evenodd"/></g></svg>