<svg viewBox="0 0 274.89 125.44" xmlns="http://www.w3.org/2000/svg" xmlns:xlink="http://www.w3.org/1999/xlink" id="Layer_1" overflow="hidden"><defs><linearGradient x1="19.79" y1="-27.85" x2="190.35" y2="100.23" gradientUnits="userSpaceOnUse" id="linear-gradient"><stop offset="0" stop-color="#FFFFFF"/><stop offset="0.09" stop-color="#EAEED8"/><stop offset="0.38" stop-color="#AEBE67"/><stop offset="0.51" stop-color="#96AB3B"/></linearGradient></defs><rect x="0" y="8.97" rx="54.66" ry="54.66" width="271.13" height="116.47" fill="#231F20" opacity="0.56"/><rect x="3.26" y="0.5" rx="54.66" ry="54.66" width="271.13" height="116.47" stroke="#2A4C24" stroke-miterlimit="10" fill="#96AB3B"/><path d="M229.41 4.21C175.76 7.21 81.88 12.85 53.64 42.32 35.51 61.25 32.16 83.6 37.58 109.03 17.82 100.56 11.54 84.08 8.99 76.56 6.02 67.8 1.17 30.98 27.88 13.56 42.37 4.11 52.59 4.74 52.59 4.74 52.59 4.74 184.77 4.21 229.41 4.21Z" fill="url(#linear-gradient)" opacity="0.78"/><g><g><path d="M155.43 22.3 137.5 22.3 177.66 62.46 137.5 102.62 155.43 102.62 195.59 62.46 155.43 22.3Z" fill="#334A2B"/><path d="M131.15 22.3 113.22 22.3 153.38 62.46 113.22 102.62 131.15 102.62 171.31 62.46 131.15 22.3Z" fill="#334A2B"/></g><g><path d="M151.69 20.98 133.76 20.98 173.92 61.14 133.76 101.3 151.69 101.3 191.86 61.14 151.69 20.98Z" fill="#F9F9FA"/><path d="M127.41 20.98 109.48 20.98 149.64 61.14 109.48 101.3 127.41 101.3 167.58 61.14 127.41 20.98Z" fill="#F9F9FA"/></g></g></svg>