<svg viewBox="0 0 838.68 462.77" xmlns="http://www.w3.org/2000/svg" xmlns:xlink="http://www.w3.org/1999/xlink" id="Layer_1" overflow="hidden"><defs></defs><g><path d="M771.33 442.53C660.38 442.53 328.22 442.53 217.27 442.53 167.3 442.53 117.33 442.53 67.36 442.53 62.87 442.53 39.01 442.08 19.73 422.8 7.54 410.61 0 393.77 0 375.17L0 67.36C0 30.16 30.16 0 67.36 0L771.33 0C808.53 0 838.69 30.16 838.69 67.36L838.69 375.17C838.69 412.37 808.53 442.53 771.33 442.53Z" fill="#FFFFFF"/><path d="M32.91 378.59C34.68 388.19 47.06 398.8 61.2 398.8L773.16 398.8C773.16 398.8 795.45 399.22 803.79 381.31 806.27 375.99 808.16 368.63 807.84 361.16 806.75 335.4 806.32 330.55 806.63 330.72L32.17 344.46C32.17 344.46 31.15 368.99 32.91 378.59Z" fill="#EF4A46"/><path d="M32.52 371.26C34.29 380.86 46.67 391.47 60.81 391.47L772.77 391.47C772.77 391.47 795.06 391.89 803.4 373.98 810.87 357.94 806.24 323.39 806.24 323.39L31.78 337.13C31.78 337.13 30.76 361.66 32.52 371.26Z" fill="#F6C5BA"/><path d="M771.33 442.7 67.36 442.7C30.16 442.7 0 412.54 0 375.34L0 385.44C0 422.64 30.16 452.8 67.36 452.8L771.33 452.8C808.53 452.8 838.69 422.64 838.69 385.44L838.69 375.34C838.69 412.54 808.53 442.7 771.33 442.7Z" fill="#BBBBBB"/><path d="M771.33 452.67 67.36 452.67C30.16 452.67 0 422.51 0 385.31L0 395.41C0 432.62 30.16 462.77 67.36 462.77L771.33 462.77C808.53 462.77 838.69 432.61 838.69 395.41L838.69 385.31C838.69 422.51 808.53 452.67 771.33 452.67Z" fill="#231F20" opacity="0.47"/><path d="M278.45-179.91 560.23-179.91C580.2-179.91 596.41-163.7 596.41-143.73L596.41 560.23C596.41 580.2 580.2 596.4 560.24 596.4L278.45 596.4C258.48 596.4 242.27 580.19 242.27 560.22L242.27-143.74C242.27-163.71 258.48-179.91 278.44-179.91Z" fill="#F2797A" transform="matrix(6.12323e-17 1 -1 6.12323e-17 627.59 -211.09)"/></g><g><path d="M88.24 128.2 88.81 132.11 89.6 128.95 102.65 84.3 102.83 83.64 111.58 83.64 111.76 84.3 124.5 128.95 124.5 128.99 125.29 132.24 125.95 128.15 125.95 128.11 136.19 84.34 136.32 83.64 146.65 83.64 146.39 84.69 130.7 146.96 130.52 147.62 121.2 147.62 121.02 146.96 107.4 100.33 107.4 100.29 107.27 99.59 107.09 100.29 107.09 100.38 92.98 147.01 92.8 147.63 83.44 147.63 83.31 146.97 67.67 84.7 67.41 83.65 77.65 83.65 77.83 84.35 88.25 128.16 88.25 128.2Z" fill="#CE3232"/><path d="M161.88 81 161.88 104.47C163.4 103.06 165.15 101.92 167.11 101.04 169.86 99.81 172.93 99.19 176.29 99.19 177.17 99.19 178.02 99.23 178.84 99.3 179.66 99.37 180.47 99.48 181.26 99.63 182.02 99.78 182.72 99.97 183.37 100.2 184.4 100.52 185.33 100.94 186.18 101.45 187.03 101.96 187.81 102.59 188.53 103.32 189.25 104.05 189.88 104.87 190.42 105.78 190.96 106.69 191.41 107.7 191.76 108.81 192.52 111.01 192.9 113.64 192.9 116.72L192.9 147.61 183.01 147.61 183.01 116.85C183.01 115.15 182.82 113.73 182.44 112.59 182.26 112 182.02 111.49 181.71 111.05 181.4 110.61 181.06 110.22 180.68 109.86 179.92 109.19 178.95 108.69 177.78 108.37 176.58 108.02 175.17 107.84 173.56 107.84 173.18 107.84 172.81 107.85 172.44 107.88 172.07 107.91 171.71 107.95 171.34 107.99 170.97 108.03 170.62 108.09 170.29 108.17 169.95 108.24 169.62 108.33 169.28 108.43 168.94 108.53 168.62 108.65 168.31 108.78 168 108.91 167.69 109.05 167.39 109.2 167.08 109.35 166.78 109.51 166.49 109.68 165.49 110.3 164.6 111.01 163.81 111.83 163.05 112.62 162.4 113.51 161.88 114.51L161.88 147.6 151.99 147.6 151.99 80.12 161.88 80.12 161.88 81Z" fill="#CE3232"/><path d="M234.3 147.62 234.04 147.14C233.86 146.79 233.72 146.41 233.6 146.02 233.48 145.63 233.37 145.18 233.25 144.68 233.22 144.5 233.18 144.31 233.14 144.11 233.1 143.9 233.06 143.71 233.03 143.54 232.53 143.95 232.02 144.33 231.49 144.68 230.41 145.44 229.22 146.12 227.93 146.7 226.64 147.26 225.23 147.7 223.71 148.02 222.95 148.17 222.17 148.28 221.38 148.37 220.59 148.46 219.78 148.5 218.96 148.5 218.26 148.5 217.58 148.48 216.92 148.43 216.26 148.39 215.62 148.31 214.99 148.21 214.36 148.11 213.74 147.98 213.14 147.84 212.54 147.69 211.99 147.53 211.49 147.36 209.38 146.6 207.59 145.57 206.13 144.28 204.64 142.96 203.49 141.42 202.68 139.64 201.87 137.87 201.47 135.97 201.47 133.95 201.47 131.34 202 129.03 203.05 127.01 203.58 126.01 204.22 125.09 204.98 124.24 205.74 123.39 206.62 122.63 207.62 121.95 209.55 120.6 211.97 119.59 214.87 118.92 215.87 118.69 216.89 118.5 217.95 118.35 219.01 118.2 220.1 118.09 221.22 118.02 222.35 117.95 223.53 117.91 224.76 117.91L232.58 117.91 232.58 115.27C232.58 114.04 232.37 112.96 231.96 112.02 231.55 111.08 230.93 110.28 230.11 109.6 229.55 109.13 228.92 108.74 228.2 108.43 227.48 108.12 226.65 107.89 225.69 107.73 224.74 107.57 223.71 107.49 222.59 107.49 222.18 107.49 221.79 107.5 221.43 107.53 221.06 107.56 220.7 107.6 220.33 107.64 219.96 107.68 219.61 107.74 219.28 107.82 218.94 107.89 218.63 107.97 218.34 108.06 217.9 108.18 217.49 108.32 217.11 108.48 216.73 108.64 216.37 108.81 216.03 108.99 215.69 109.17 215.38 109.36 215.09 109.56 214.8 109.76 214.53 109.98 214.28 110.22 214.03 110.46 213.8 110.7 213.6 110.94 213.39 111.19 213.22 111.45 213.07 111.71 212.6 112.47 212.37 113.28 212.37 114.13L212.37 115.01 202.44 115.01 202.44 114.13C202.44 112.28 202.92 110.47 203.89 108.68 204.83 106.89 206.16 105.3 207.89 103.89 209.62 102.48 211.76 101.36 214.31 100.51 216.86 99.66 219.88 99.19 223.1 99.19 226.03 99.19 228.72 99.53 231.19 100.2 232.01 100.43 232.8 100.7 233.56 100.99 234.26 101.28 234.92 101.62 235.54 102 236.16 102.38 236.74 102.81 237.3 103.27 238.94 104.62 240.23 106.32 241.17 108.37 241.64 109.4 241.99 110.49 242.22 111.67 242.45 112.85 242.57 114.1 242.57 115.45L242.57 136.76C242.57 138.25 242.7 139.84 242.97 141.51 243.26 143.15 243.66 144.56 244.16 145.73L244.25 145.91 244.25 147.62 234.32 147.62ZM216.28 139.14C217.39 139.49 218.71 139.67 220.24 139.67 221.77 139.67 223.14 139.49 224.46 139.14 225.78 138.76 226.98 138.28 228.06 137.69 229.14 137.1 230.08 136.44 230.87 135.71 231.57 135.04 232.14 134.33 232.58 133.6L232.58 125.43 226.16 125.43C224.93 125.43 223.76 125.47 222.67 125.56 221.57 125.65 220.55 125.77 219.62 125.93 218.68 126.09 217.83 126.29 217.05 126.52 216.27 126.75 215.56 127.03 214.92 127.35 212.55 128.55 211.36 130.38 211.36 132.84 211.36 133.81 211.54 134.72 211.89 135.56 211.98 135.77 212.07 135.96 212.18 136.15 212.28 136.34 212.4 136.52 212.53 136.7 212.66 136.88 212.81 137.04 212.97 137.2 213.13 137.36 213.3 137.52 213.48 137.66 214.24 138.25 215.18 138.73 216.29 139.11Z" fill="#CE3232"/><path d="M265.84 88.56 265.84 100.07 274.72 100.07 274.72 108.11 265.84 108.11 265.84 135.49C265.84 136.54 265.97 137.38 266.24 137.99 266.47 138.58 266.77 139.02 267.12 139.31 267.27 139.43 267.41 139.52 267.54 139.6 267.67 139.67 267.81 139.74 267.96 139.8 268.11 139.86 268.27 139.9 268.44 139.93 268.7 139.99 268.99 140.03 269.3 140.06 269.61 140.09 269.91 140.1 270.2 140.1 270.41 140.1 270.62 140.1 270.84 140.08 271.06 140.07 271.28 140.04 271.5 140.01 271.72 139.98 271.95 139.95 272.18 139.92 272.91 139.8 273.48 139.7 273.89 139.61L274.94 139.39 274.94 147.39 274.28 147.57C273.96 147.66 273.58 147.75 273.16 147.86 272.73 147.96 272.26 148.07 271.73 148.19 270.65 148.39 269.34 148.5 267.82 148.5 267.03 148.5 266.26 148.44 265.51 148.32 264.76 148.2 264.02 148.04 263.29 147.84 261.83 147.37 260.55 146.61 259.47 145.55 258.39 144.52 257.52 143.18 256.88 141.51 256.26 139.84 255.96 137.82 255.96 135.45L255.96 108.12 247.3 108.12 247.3 100.08 255.96 100.08 255.96 88.57 265.85 88.57Z" fill="#CE3232"/><path d="M305.81 92.25C304.84 91.2 304.36 89.89 304.36 88.34 304.36 87.58 304.48 86.87 304.71 86.21 304.94 85.55 305.31 84.96 305.81 84.43 306.78 83.32 308.18 82.76 310.03 82.76 311.88 82.76 313.3 83.32 314.29 84.43 315.26 85.48 315.74 86.79 315.74 88.34 315.74 89.89 315.26 91.2 314.29 92.25 313.29 93.3 311.87 93.83 310.03 93.83 308.19 93.83 306.78 93.3 305.81 92.25ZM314.91 147.62 305.02 147.62 305.02 100.07 314.91 100.07 314.91 147.62Z" fill="#CE3232"/><path d="M354.98 135.51C355.07 135.14 355.11 134.77 355.11 134.39 355.11 133.63 354.99 132.93 354.76 132.28 354.55 131.66 354.1 131.08 353.4 130.52 352.61 129.93 351.48 129.38 350.02 128.85 349.26 128.59 348.37 128.32 347.36 128.06 346.35 127.8 345.21 127.55 343.95 127.31 341.02 126.78 338.37 126.15 336 125.42 335.68 125.3 335.35 125.19 335.01 125.07 334.67 124.95 334.37 124.84 334.09 124.72 333.81 124.6 333.53 124.48 333.25 124.35 332.97 124.22 332.7 124.09 332.44 123.95 332.18 123.81 331.92 123.69 331.67 123.55 331.42 123.41 331.18 123.28 330.95 123.13 330.72 122.98 330.5 122.82 330.29 122.65 328.71 121.57 327.48 120.26 326.6 118.74 325.75 117.22 325.33 115.44 325.33 113.42 325.33 111.4 325.78 109.66 326.69 107.93 327.57 106.2 328.81 104.69 330.43 103.4 332.05 102.11 334.03 101.1 336.41 100.37 337.05 100.16 337.71 99.99 338.37 99.84 339.03 99.69 339.7 99.57 340.39 99.47 341.08 99.37 341.78 99.29 342.5 99.25 343.22 99.21 343.96 99.18 344.72 99.18 347.94 99.18 350.83 99.59 353.38 100.41 354.23 100.67 355.01 100.97 355.71 101.31 356.41 101.65 357.08 102.02 357.71 102.43 358.34 102.84 358.93 103.28 359.49 103.75 361.13 105.19 362.39 106.86 363.27 108.78 364.15 110.7 364.59 112.74 364.59 114.91L364.59 115.79 354.66 115.79 354.66 114.91C354.66 114.06 354.45 113.21 354.04 112.36 353.63 111.48 353 110.69 352.15 109.99 351.3 109.29 350.26 108.72 349.03 108.28 347.8 107.84 346.36 107.62 344.72 107.62 343.81 107.62 342.99 107.66 342.26 107.75 341.53 107.84 340.85 107.97 340.24 108.15 339.07 108.5 338.12 108.96 337.38 109.51 337.15 109.69 336.93 109.88 336.72 110.08 336.51 110.28 336.34 110.49 336.19 110.7 336.04 110.91 335.91 111.12 335.79 111.36 335.47 112.03 335.31 112.74 335.31 113.47 335.31 113.85 335.34 114.2 335.4 114.52 335.46 114.84 335.56 115.14 335.71 115.4 335.94 115.93 336.44 116.43 337.2 116.89 338.02 117.39 339.16 117.86 340.63 118.3 341.01 118.42 341.42 118.53 341.86 118.63 342.3 118.73 342.77 118.84 343.27 118.96 343.77 119.08 344.3 119.19 344.85 119.31 345.4 119.43 345.99 119.54 346.61 119.66 349.83 120.33 352.62 121.08 354.96 121.9 357.19 122.75 359.05 123.75 360.54 124.89 362.03 126.03 363.16 127.37 363.92 128.89 364.27 129.65 364.54 130.47 364.73 131.35 364.92 132.23 365.02 133.15 365.02 134.12 365.02 134.82 364.97 135.51 364.87 136.19 364.77 136.86 364.61 137.52 364.41 138.15 364.2 138.78 363.94 139.39 363.62 139.97 362.71 141.76 361.39 143.28 359.66 144.54 359.1 144.95 358.5 145.33 357.86 145.68 357.22 146.03 356.54 146.35 355.84 146.65 355.14 146.95 354.36 147.21 353.51 147.44 350.96 148.14 348.12 148.49 344.98 148.49 341.41 148.49 338.24 148.03 335.49 147.13 332.91 146.19 330.76 144.96 329.03 143.44 327.3 141.92 325.98 140.17 325.07 138.19 324.16 136.21 323.71 134.18 323.71 132.1L323.71 131.22 333.55 131.22 333.59 132.05C333.62 132.81 333.73 133.51 333.92 134.14 334.11 134.77 334.37 135.33 334.69 135.83 335.04 136.33 335.44 136.78 335.88 137.19 336.32 137.6 336.82 137.97 337.37 138.29 338.45 138.93 339.66 139.39 340.97 139.65 342.29 139.94 343.62 140.09 344.97 140.09 345.85 140.09 346.67 140.05 347.43 139.98 348.19 139.91 348.89 139.78 349.54 139.61 349.86 139.55 350.17 139.47 350.46 139.37 350.75 139.27 351.04 139.17 351.32 139.06 351.6 138.96 351.85 138.85 352.09 138.73 352.33 138.61 352.54 138.48 352.75 138.33 353.57 137.83 354.17 137.25 354.55 136.57 354.76 136.22 354.9 135.86 354.99 135.49Z" fill="#CE3232"/><path d="M408.49 88.56 408.49 100.07 417.37 100.07 417.37 108.11 408.49 108.11 408.49 135.49C408.49 136.54 408.62 137.38 408.89 137.99 409.12 138.58 409.42 139.02 409.77 139.31 409.92 139.43 410.06 139.52 410.19 139.6 410.32 139.67 410.46 139.74 410.61 139.8 410.76 139.86 410.92 139.9 411.09 139.93 411.35 139.99 411.64 140.03 411.95 140.06 412.26 140.09 412.56 140.1 412.85 140.1 413.06 140.1 413.27 140.1 413.49 140.08 413.71 140.07 413.93 140.04 414.15 140.01 414.37 139.98 414.6 139.95 414.83 139.92 415.56 139.8 416.13 139.7 416.54 139.61L417.59 139.39 417.59 147.39 416.93 147.57C416.61 147.66 416.23 147.75 415.81 147.86 415.38 147.96 414.91 148.07 414.38 148.19 413.3 148.39 411.99 148.5 410.47 148.5 409.68 148.5 408.91 148.44 408.16 148.32 407.41 148.2 406.67 148.04 405.94 147.84 404.48 147.37 403.2 146.61 402.12 145.55 401.04 144.52 400.17 143.18 399.53 141.51 398.91 139.84 398.61 137.82 398.61 135.45L398.61 108.12 389.95 108.12 389.95 100.08 398.61 100.08 398.61 88.57 408.5 88.57Z" fill="#CE3232"/><path d="M434.49 81 434.49 104.47C436.01 103.06 437.76 101.92 439.72 101.04 442.47 99.81 445.54 99.19 448.9 99.19 449.78 99.19 450.63 99.23 451.45 99.3 452.27 99.37 453.08 99.48 453.87 99.63 454.63 99.78 455.33 99.97 455.98 100.2 457.01 100.52 457.94 100.94 458.79 101.45 459.64 101.96 460.42 102.59 461.14 103.32 461.86 104.05 462.49 104.87 463.03 105.78 463.57 106.69 464.02 107.7 464.37 108.81 465.13 111.01 465.51 113.64 465.51 116.72L465.51 147.61 455.62 147.61 455.62 116.85C455.62 115.15 455.43 113.73 455.05 112.59 454.87 112 454.63 111.49 454.32 111.05 454.01 110.61 453.67 110.22 453.29 109.86 452.53 109.19 451.56 108.69 450.39 108.37 449.19 108.02 447.78 107.84 446.17 107.84 445.79 107.84 445.42 107.85 445.05 107.88 444.68 107.91 444.32 107.95 443.95 107.99 443.58 108.03 443.23 108.09 442.9 108.17 442.56 108.24 442.23 108.33 441.89 108.43 441.55 108.53 441.23 108.65 440.92 108.78 440.61 108.91 440.3 109.05 440 109.2 439.69 109.35 439.39 109.51 439.1 109.68 438.1 110.3 437.21 111.01 436.42 111.83 435.66 112.62 435.01 113.51 434.49 114.51L434.49 147.6 424.6 147.6 424.6 80.12 434.49 80.12 434.49 81Z" fill="#CE3232"/><path d="M500.84 148.3C499.64 148.43 498.38 148.5 497.06 148.5 493.34 148.5 489.97 147.93 486.95 146.79 483.99 145.65 481.52 144.05 479.52 142 478.88 141.3 478.27 140.56 477.7 139.8 477.13 139.04 476.62 138.22 476.16 137.36 475.71 136.5 475.3 135.6 474.95 134.66 473.9 131.88 473.37 128.82 473.37 125.48L473.37 123.72C473.37 119.88 473.97 116.44 475.17 113.39 476.37 110.37 477.97 107.81 479.96 105.7 480.63 105.03 481.34 104.4 482.09 103.81 482.84 103.22 483.61 102.68 484.4 102.18 485.28 101.71 486.19 101.29 487.12 100.91 489.96 99.77 492.91 99.2 495.95 99.2 497.85 99.2 499.64 99.36 501.31 99.68 502.98 99.97 504.52 100.41 505.92 101 506.8 101.41 507.62 101.87 508.38 102.38 509.14 102.89 509.85 103.45 510.51 104.05 511.17 104.65 511.78 105.3 512.33 106.01 514 108.12 515.23 110.61 516.02 113.48 516.43 114.89 516.73 116.36 516.92 117.9 517.11 119.44 517.21 121.03 517.21 122.67L517.21 127.06 483.28 127.06C483.4 128.73 483.73 130.28 484.29 131.72 484.5 132.31 484.74 132.86 485.04 133.37 485.33 133.88 485.66 134.37 486.01 134.82 486.36 135.28 486.74 135.71 487.15 136.12 487.77 136.74 488.45 137.28 489.19 137.77 489.94 138.25 490.75 138.69 491.63 139.07 493.36 139.77 495.32 140.12 497.52 140.12 498.52 140.12 499.45 140.06 500.33 139.94 501.21 139.82 502.04 139.64 502.81 139.39 503.59 139.14 504.3 138.84 504.94 138.49 506.93 137.38 508.63 135.9 510.04 134.05L510.57 133.35 511.27 133.88 516.24 137.75 516.9 138.28 516.46 138.94C516.2 139.35 515.91 139.75 515.6 140.15 515.29 140.55 514.97 140.94 514.63 141.34 514.29 141.74 513.93 142.12 513.55 142.51 512.41 143.65 511.09 144.68 509.59 145.59 508.83 146.03 508.01 146.42 507.13 146.78 506.22 147.16 505.24 147.48 504.19 147.75 503.14 148.02 502.01 148.21 500.81 148.34ZM498.86 107.87C497.98 107.71 497.01 107.63 495.96 107.63 495.4 107.63 494.87 107.66 494.36 107.72 493.85 107.78 493.35 107.87 492.87 107.98 492.39 108.1 491.91 108.23 491.44 108.38L490.65 108.73C490.39 108.85 490.12 108.98 489.86 109.13 489.6 109.28 489.35 109.42 489.11 109.57 488.87 109.72 488.64 109.88 488.41 110.07 488.18 110.26 487.96 110.44 487.75 110.62 487.19 111.12 486.69 111.67 486.23 112.29 485.77 112.91 485.36 113.59 484.98 114.36 484.69 114.98 484.42 115.65 484.19 116.38 483.98 117.08 483.81 117.83 483.66 118.62L507.35 118.62C507.23 117.3 506.98 116 506.6 114.71 506.48 114.27 506.32 113.85 506.12 113.44 505.92 113.03 505.69 112.63 505.44 112.23 505.19 111.83 504.92 111.46 504.63 111.11 503.75 110.08 502.61 109.25 501.2 108.61 500.53 108.29 499.75 108.05 498.87 107.88Z" fill="#CE3232"/><path d="M590.52 123.49 590.52 124.37C590.52 127.8 590.1 130.98 589.25 133.91 588.4 136.84 587.16 139.39 585.51 141.56 583.84 143.73 581.8 145.43 579.4 146.66 578.08 147.28 576.68 147.73 575.18 148.02 573.69 148.34 572.1 148.5 570.43 148.5 566.89 148.5 563.81 147.93 561.2 146.79 559.3 145.94 557.64 144.81 556.23 143.41L555.97 146.79 555.93 147.62 546.75 147.62 546.75 80.12 556.64 80.12 556.64 103.94C558.02 102.68 559.6 101.65 561.39 100.86 562.27 100.48 563.18 100.16 564.14 99.91 565.09 99.66 566.08 99.48 567.11 99.36 568.14 99.24 569.22 99.18 570.36 99.18 571.03 99.18 571.69 99.2 572.34 99.25 572.99 99.3 573.61 99.37 574.23 99.47 574.85 99.57 575.45 99.7 576.05 99.84 576.65 99.98 577.23 100.16 577.79 100.37 578.35 100.55 578.89 100.77 579.42 101.03 581.85 102.2 583.9 103.87 585.57 106.04 587.18 108.18 588.41 110.73 589.26 113.69 589.7 115.15 590.02 116.71 590.23 118.35 590.44 119.99 590.54 121.7 590.54 123.49ZM580.63 124.32 580.63 122.65C580.63 122.39 580.63 122.12 580.61 121.84 580.6 121.56 580.57 121.3 580.54 121.05 580.51 120.8 580.48 120.55 580.45 120.28 580.42 120.01 580.39 119.76 580.36 119.51 580.33 119.26 580.29 119.01 580.25 118.76 580.21 118.51 580.16 118.26 580.12 118.01 580.08 117.76 580.02 117.52 579.97 117.29 579.53 115.39 578.81 113.73 577.82 112.32 577.32 111.62 576.76 110.99 576.13 110.45 575.5 109.91 574.79 109.43 574 109.02 572.42 108.23 570.47 107.83 568.16 107.83L567.61 107.83C567.42 107.83 567.23 107.83 567.04 107.85 566.85 107.87 566.67 107.88 566.49 107.89 566.31 107.91 566.15 107.93 565.99 107.96 565.83 107.99 565.66 108.01 565.48 108.03 565.3 108.05 565.14 108.07 564.97 108.12 564.8 108.17 564.66 108.2 564.51 108.23L564.07 108.32C562.84 108.67 561.75 109.14 560.8 109.73 559.85 110.32 559.02 111 558.32 111.8 558 112.18 557.69 112.58 557.4 112.99 557.14 113.43 556.89 113.87 556.65 114.31L556.65 133.38C557.12 134.26 557.7 135.09 558.41 135.88 559.12 136.67 559.95 137.36 560.91 137.95 561.87 138.54 562.96 139 564.16 139.33 565.36 139.67 566.72 139.84 568.25 139.84 570.48 139.84 572.35 139.44 573.87 138.65 575.42 137.86 576.71 136.79 577.74 135.44 578.74 134.03 579.47 132.39 579.94 130.52 580.41 128.59 580.64 126.52 580.64 124.32Z" fill="#CE3232"/><path d="M623.25 109.3 622.24 109.12C622.06 109.09 621.9 109.06 621.73 109.03 621.56 109 621.41 108.98 621.25 108.96 621.09 108.95 620.93 108.93 620.79 108.92 620.64 108.91 620.5 108.88 620.35 108.85 619.76 108.82 619.1 108.81 618.37 108.81 615.73 108.81 613.61 109.35 612 110.44 610.42 111.47 609.22 112.87 608.4 114.66L608.4 147.62 598.51 147.62 598.51 100.07 608.18 100.07 608.18 100.95 608.27 103.85C609.24 102.74 610.34 101.8 611.57 101.04 613.56 99.81 615.96 99.19 618.78 99.19 619.42 99.19 620.14 99.26 620.93 99.41 621.16 99.44 621.36 99.47 621.52 99.5 621.68 99.53 621.83 99.57 621.98 99.61 622.13 99.65 622.27 99.7 622.4 99.74 622.53 99.78 622.66 99.84 622.77 99.89L623.25 100.15 623.25 109.29Z" fill="#CE3232"/><path d="M659.93 147.62 659.67 147.14C659.49 146.79 659.35 146.41 659.23 146.02 659.11 145.63 659 145.18 658.88 144.68 658.85 144.5 658.81 144.31 658.77 144.11 658.73 143.9 658.69 143.71 658.66 143.54 658.16 143.95 657.65 144.33 657.12 144.68 656.04 145.44 654.85 146.12 653.56 146.7 652.27 147.26 650.86 147.7 649.34 148.02 648.58 148.17 647.8 148.28 647.01 148.37 646.22 148.46 645.41 148.5 644.59 148.5 643.89 148.5 643.21 148.48 642.55 148.43 641.89 148.39 641.25 148.31 640.62 148.21 639.99 148.11 639.37 147.98 638.77 147.84 638.17 147.69 637.62 147.53 637.12 147.36 635.01 146.6 633.22 145.57 631.76 144.28 630.27 142.96 629.12 141.42 628.31 139.64 627.5 137.87 627.1 135.97 627.1 133.95 627.1 131.34 627.63 129.03 628.68 127.01 629.21 126.01 629.85 125.09 630.61 124.24 631.37 123.39 632.25 122.63 633.25 121.95 635.18 120.6 637.6 119.59 640.5 118.92 641.5 118.69 642.52 118.5 643.58 118.35 644.64 118.2 645.73 118.09 646.85 118.02 647.98 117.95 649.16 117.91 650.39 117.91L658.21 117.91 658.21 115.27C658.21 114.04 658 112.96 657.59 112.02 657.18 111.08 656.56 110.28 655.74 109.6 655.18 109.13 654.55 108.74 653.83 108.43 653.11 108.12 652.28 107.89 651.32 107.73 650.37 107.57 649.34 107.49 648.22 107.49 647.81 107.49 647.42 107.5 647.06 107.53 646.69 107.56 646.33 107.6 645.96 107.64 645.59 107.68 645.24 107.74 644.91 107.82 644.57 107.89 644.26 107.97 643.97 108.06 643.53 108.18 643.12 108.32 642.74 108.48 642.36 108.64 642 108.81 641.66 108.99 641.32 109.17 641.01 109.36 640.72 109.56 640.43 109.76 640.16 109.98 639.91 110.22 639.66 110.46 639.43 110.7 639.23 110.94 639.02 111.19 638.85 111.45 638.7 111.71 638.23 112.47 638 113.28 638 114.13L638 115.01 628.07 115.01 628.07 114.13C628.07 112.28 628.55 110.47 629.52 108.68 630.46 106.89 631.79 105.3 633.52 103.89 635.25 102.48 637.39 101.36 639.94 100.51 642.49 99.66 645.51 99.19 648.73 99.19 651.66 99.19 654.35 99.53 656.82 100.2 657.64 100.43 658.43 100.7 659.19 100.99 659.89 101.28 660.55 101.62 661.17 102 661.79 102.38 662.37 102.81 662.93 103.27 664.57 104.62 665.86 106.32 666.8 108.37 667.27 109.4 667.62 110.49 667.85 111.67 668.08 112.85 668.2 114.1 668.2 115.45L668.2 136.76C668.2 138.25 668.33 139.84 668.6 141.51 668.89 143.15 669.29 144.56 669.79 145.73L669.88 145.91 669.88 147.62 659.95 147.62ZM641.91 139.14C643.02 139.49 644.34 139.67 645.87 139.67 647.4 139.67 648.77 139.49 650.09 139.14 651.41 138.76 652.61 138.28 653.69 137.69 654.77 137.1 655.71 136.44 656.5 135.71 657.2 135.04 657.77 134.33 658.21 133.6L658.21 125.43 651.79 125.43C650.56 125.43 649.39 125.47 648.3 125.56 647.2 125.65 646.18 125.77 645.25 125.93 644.31 126.09 643.46 126.29 642.68 126.52 641.9 126.75 641.19 127.03 640.55 127.35 638.18 128.55 636.99 130.38 636.99 132.84 636.99 133.81 637.17 134.72 637.52 135.56 637.61 135.77 637.7 135.96 637.81 136.15 637.91 136.34 638.03 136.52 638.16 136.7 638.29 136.88 638.44 137.04 638.6 137.2 638.76 137.36 638.93 137.52 639.11 137.66 639.87 138.25 640.81 138.73 641.92 139.11Z" fill="#CE3232"/><path d="M688.09 100.07 688.13 100.9 688.31 104.72C689.83 103.26 691.62 102.05 693.67 101.12 696.42 99.83 699.53 99.19 702.99 99.19 703.87 99.19 704.72 99.23 705.54 99.3 706.36 99.37 707.17 99.48 707.96 99.63 708.72 99.78 709.42 99.97 710.07 100.2 711.1 100.52 712.03 100.94 712.88 101.45 713.73 101.96 714.51 102.59 715.23 103.32 715.95 104.05 716.58 104.87 717.12 105.78 717.66 106.69 718.11 107.7 718.46 108.81 719.22 111.01 719.6 113.64 719.6 116.72L719.6 147.61 709.71 147.61 709.71 116.85C709.71 115.15 709.52 113.73 709.14 112.59 708.96 112 708.72 111.49 708.41 111.05 708.1 110.61 707.76 110.22 707.38 109.86 706.62 109.19 705.65 108.69 704.48 108.37 703.28 108.02 701.87 107.84 700.26 107.84 699.88 107.84 699.51 107.85 699.14 107.88 698.77 107.91 698.41 107.95 698.04 107.99 697.67 108.03 697.32 108.09 696.99 108.17 696.65 108.24 696.32 108.33 695.98 108.43 695.64 108.53 695.32 108.65 695.01 108.78 694.7 108.91 694.39 109.05 694.09 109.2 693.78 109.35 693.48 109.51 693.19 109.68 692.19 110.3 691.3 111.01 690.51 111.83 689.75 112.62 689.1 113.51 688.58 114.51L688.58 147.6 678.69 147.6 678.69 100.05 688.09 100.05Z" fill="#CE3232"/><path d="M727.63 124.37 727.63 123.45C727.63 119.88 728.08 116.61 728.99 113.65 729.93 110.69 731.25 108.14 732.95 106 733.8 104.92 734.74 103.96 735.78 103.12 736.82 102.28 737.97 101.58 739.23 100.99 740.55 100.4 741.94 99.96 743.4 99.67 744.86 99.35 746.4 99.19 748.01 99.19 751.32 99.19 754.21 99.7 756.67 100.73 757.02 100.88 757.37 101.04 757.72 101.21 758.07 101.38 758.41 101.56 758.73 101.74 759.05 101.92 759.37 102.11 759.67 102.31 759.98 102.52 760.28 102.73 760.57 102.97 760.83 103.18 761.1 103.39 761.36 103.63L761.36 80.12 771.25 80.12 771.25 147.62 762.07 147.62 762.03 146.83 761.81 143.71C760.4 145.03 758.76 146.08 756.89 146.87 754.34 147.95 751.35 148.5 747.93 148.5 744.77 148.5 741.87 147.88 739.23 146.65 736.77 145.45 734.67 143.75 732.95 141.55 732.1 140.47 731.35 139.29 730.69 138.01 730.03 136.74 729.47 135.37 729 133.9 728.09 130.97 727.64 127.79 727.64 124.36ZM737.52 123.45 737.52 124.33C737.52 126.53 737.75 128.59 738.22 130.53 738.34 131 738.48 131.45 738.64 131.89 738.8 132.33 738.98 132.75 739.17 133.16 739.36 133.57 739.57 133.97 739.81 134.35 740.05 134.73 740.28 135.1 740.51 135.45 741.56 136.8 742.88 137.87 744.47 138.66 746.06 139.45 747.94 139.85 750.14 139.85 751.6 139.85 752.92 139.7 754.07 139.41 755.22 139.12 756.26 138.69 757.17 138.14 757.64 137.88 758.08 137.58 758.49 137.26 758.9 136.94 759.3 136.6 759.68 136.25 760.35 135.52 760.93 134.74 761.39 133.92L761.39 113.62C761.21 113.33 761.04 113.06 760.86 112.81 760.68 112.56 760.51 112.32 760.33 112.09L759.67 111.43C758.97 110.7 758.15 110.07 757.23 109.54 756.31 109.01 755.27 108.6 754.13 108.31 753.75 108.22 753.35 108.14 752.94 108.07 752.53 108 752.1 107.95 751.64 107.92 751.18 107.89 750.71 107.88 750.21 107.88 749.48 107.88 748.77 107.92 748.08 108.01 747.39 108.1 746.75 108.23 746.15 108.41 745.55 108.59 744.99 108.81 744.46 109.07 742.88 109.89 741.57 110.99 740.55 112.37 739.5 113.81 738.72 115.46 738.22 117.34 737.75 119.27 737.52 121.32 737.52 123.49Z" fill="#CE3232"/><path d="M221.97 242.61 221.97 241.69C221.97 238.26 222.5 235.08 223.55 232.15 224.05 230.66 224.67 229.27 225.42 228 226.17 226.73 227.02 225.55 227.99 224.46 229.95 222.26 232.38 220.55 235.28 219.32 236.28 218.91 237.32 218.56 238.4 218.27 239.45 218.01 240.56 217.8 241.72 217.65 242.88 217.5 244.07 217.43 245.3 217.43 249.05 217.43 252.43 218.05 255.45 219.28 258.35 220.54 260.78 222.25 262.74 224.42 264.7 226.62 266.2 229.18 267.22 232.11 268.24 235.04 268.76 238.22 268.76 241.65L268.76 242.62C268.76 244.32 268.63 245.97 268.36 247.56 268.1 249.16 267.72 250.69 267.22 252.15 267.01 252.74 266.79 253.31 266.54 253.86 266.29 254.42 266.03 254.96 265.75 255.49 265.47 256.02 265.18 256.53 264.87 257.03 264.56 257.53 264.22 258 263.86 258.46 263.49 258.92 263.12 259.36 262.74 259.8 260.78 261.97 258.35 263.67 255.45 264.9 252.46 266.13 249.11 266.75 245.39 266.75 241.67 266.75 238.31 266.13 235.33 264.9 232.43 263.67 230 261.97 228.04 259.8 226.08 257.66 224.58 255.11 223.56 252.15 222.51 249.22 221.98 246.04 221.98 242.61ZM231.9 241.69 231.9 242.57C231.9 244.77 232.16 246.83 232.69 248.77 232.9 249.39 233.12 249.99 233.37 250.57 233.62 251.15 233.91 251.71 234.23 252.24 234.55 252.77 234.9 253.27 235.28 253.76 235.66 254.25 236.07 254.68 236.51 255.08 236.95 255.48 237.42 255.85 237.92 256.2 238.42 256.55 238.95 256.86 239.5 257.12 240.05 257.38 240.64 257.61 241.26 257.8 241.88 257.99 242.53 258.13 243.22 258.22 243.91 258.31 244.63 258.35 245.4 258.35 247.63 258.35 249.59 257.94 251.29 257.12 252.99 256.3 254.4 255.19 255.51 253.78 256.62 252.34 257.47 250.67 258.06 248.77 258.62 246.84 258.89 244.77 258.89 242.57L258.89 241.69C258.89 239.52 258.61 237.47 258.06 235.54 257.88 234.9 257.66 234.28 257.4 233.69 257.14 233.1 256.84 232.55 256.52 232.02 256.2 231.49 255.85 230.98 255.47 230.48 254.36 229.07 252.95 227.95 251.25 227.1 250.4 226.69 249.48 226.38 248.5 226.18 247.52 225.98 246.46 225.87 245.31 225.87 244.16 225.87 243.16 225.97 242.19 226.18 241.22 226.39 240.33 226.69 239.51 227.1 239.25 227.22 239 227.34 238.79 227.47 238.57 227.6 238.35 227.74 238.13 227.89 237.91 228.04 237.7 228.19 237.49 228.35 237.28 228.51 237.09 228.67 236.9 228.83 236.71 228.99 236.52 229.16 236.33 229.34 236.14 229.52 235.96 229.7 235.78 229.89 235.6 230.08 235.44 230.28 235.3 230.48 234.92 230.98 234.57 231.49 234.25 232.02 233.93 232.55 233.64 233.1 233.39 233.69 233.14 234.28 232.91 234.89 232.71 235.54 232.53 236.18 232.39 236.84 232.27 237.52 232.15 238.2 232.06 238.88 232.01 239.56 231.95 240.25 231.92 240.96 231.92 241.69Z" fill="#CE3232"/><path d="M280.72 265.85 280.72 226.34 273.21 226.34 273.21 218.3 280.72 218.3 280.72 214.17C280.72 211.5 281.1 209.15 281.86 207.09 282.62 204.98 283.79 203.21 285.38 201.77 287.11 200.33 289.2 199.25 291.66 198.52 294.03 197.79 296.48 197.42 299 197.42 299.64 197.42 300.29 197.45 300.93 197.51 301.57 197.57 302.22 197.66 302.86 197.77 303.5 197.88 304.15 198.03 304.79 198.21L305.49 198.39 305.45 199.09 305.01 205.68 304.92 206.69 303.95 206.51C303.36 206.39 302.7 206.3 301.95 206.22 301.2 206.15 300.46 206.11 299.73 206.11 297.36 206.11 295.51 206.78 294.19 208.13 292.67 209.51 291.9 211.51 291.9 214.15L291.9 218.28 302.49 218.28 302.49 226.32 291.9 226.32 291.9 265.83 280.69 265.83Z" fill="#CE3232"/><path d="M344.37 206.79 344.37 218.3 353.25 218.3 353.25 226.34 344.37 226.34 344.37 253.72C344.37 254.77 344.5 255.61 344.77 256.22 345 256.81 345.3 257.25 345.65 257.54 345.8 257.66 345.94 257.75 346.07 257.83 346.2 257.9 346.34 257.97 346.49 258.03 346.64 258.09 346.8 258.13 346.97 258.16 347.23 258.22 347.52 258.26 347.83 258.29 348.14 258.32 348.44 258.33 348.73 258.33 348.94 258.33 349.15 258.33 349.37 258.31 349.59 258.3 349.81 258.27 350.03 258.24 350.25 258.21 350.48 258.18 350.71 258.15 351.44 258.03 352.01 257.93 352.42 257.84L353.47 257.62 353.47 265.62 352.81 265.8C352.49 265.89 352.11 265.98 351.69 266.09 351.26 266.19 350.79 266.3 350.26 266.42 349.18 266.62 347.87 266.73 346.35 266.73 345.56 266.73 344.79 266.67 344.04 266.55 343.29 266.43 342.55 266.27 341.82 266.07 340.36 265.6 339.08 264.84 338 263.78 336.92 262.75 336.05 261.41 335.41 259.74 334.79 258.07 334.49 256.05 334.49 253.68L334.49 226.35 325.83 226.35 325.83 218.31 334.49 218.31 334.49 206.8 344.38 206.8Z" fill="#CE3232"/><path d="M370.38 199.23 370.38 222.7C371.9 221.29 373.65 220.15 375.61 219.27 378.36 218.04 381.43 217.42 384.79 217.42 385.67 217.42 386.52 217.46 387.34 217.53 388.16 217.6 388.97 217.71 389.76 217.86 390.52 218.01 391.22 218.2 391.87 218.43 392.9 218.75 393.83 219.17 394.68 219.68 395.53 220.19 396.31 220.82 397.03 221.55 397.75 222.28 398.38 223.1 398.92 224.01 399.46 224.92 399.91 225.93 400.26 227.04 401.02 229.24 401.4 231.87 401.4 234.95L401.4 265.84 391.51 265.84 391.51 235.08C391.51 233.38 391.32 231.96 390.94 230.82 390.76 230.23 390.52 229.72 390.21 229.28 389.9 228.84 389.56 228.45 389.18 228.09 388.42 227.42 387.45 226.92 386.28 226.6 385.08 226.25 383.67 226.07 382.06 226.07 381.68 226.07 381.31 226.08 380.94 226.11 380.57 226.14 380.21 226.18 379.84 226.22 379.47 226.26 379.12 226.32 378.79 226.4 378.45 226.47 378.12 226.56 377.78 226.66 377.44 226.76 377.12 226.88 376.81 227.01 376.5 227.14 376.19 227.28 375.89 227.43 375.58 227.58 375.28 227.74 374.99 227.91 373.99 228.53 373.1 229.24 372.31 230.06 371.55 230.85 370.9 231.74 370.38 232.74L370.38 265.83 360.49 265.83 360.49 198.33 370.38 198.33 370.38 199.21Z" fill="#CE3232"/><path d="M412.82 210.48C411.85 209.43 411.37 208.12 411.37 206.57 411.37 205.81 411.49 205.1 411.72 204.44 411.95 203.78 412.32 203.19 412.82 202.66 413.79 201.55 415.19 200.99 417.04 200.99 418.89 200.99 420.31 201.55 421.3 202.66 422.27 203.71 422.75 205.02 422.75 206.57 422.75 208.12 422.27 209.43 421.3 210.48 420.3 211.53 418.88 212.06 417.04 212.06 415.2 212.06 413.79 211.53 412.82 210.48ZM421.92 265.85 412.03 265.85 412.03 218.3 421.92 218.3 421.92 265.85Z" fill="#CE3232"/><path d="M461.99 253.74C462.08 253.37 462.12 253 462.12 252.62 462.12 251.86 462 251.16 461.77 250.51 461.56 249.89 461.11 249.31 460.41 248.75 459.62 248.16 458.49 247.61 457.03 247.08 456.27 246.82 455.38 246.55 454.37 246.29 453.36 246.03 452.22 245.78 450.96 245.54 448.03 245.01 445.38 244.38 443.01 243.65 442.69 243.53 442.36 243.42 442.02 243.3 441.68 243.18 441.38 243.07 441.1 242.95 440.82 242.83 440.54 242.71 440.26 242.58 439.98 242.45 439.71 242.32 439.45 242.18 439.19 242.04 438.93 241.92 438.68 241.78 438.43 241.64 438.19 241.51 437.96 241.36 437.73 241.21 437.51 241.05 437.3 240.88 435.72 239.8 434.49 238.49 433.61 236.97 432.76 235.45 432.34 233.67 432.34 231.65 432.34 229.63 432.79 227.89 433.7 226.16 434.58 224.43 435.82 222.92 437.44 221.63 439.06 220.34 441.04 219.33 443.42 218.6 444.06 218.39 444.72 218.22 445.38 218.07 446.04 217.92 446.71 217.8 447.4 217.7 448.09 217.6 448.79 217.52 449.51 217.48 450.23 217.44 450.97 217.41 451.73 217.41 454.95 217.41 457.84 217.82 460.39 218.64 461.24 218.9 462.02 219.2 462.72 219.54 463.42 219.88 464.09 220.25 464.72 220.66 465.35 221.07 465.94 221.51 466.5 221.98 468.14 223.42 469.4 225.09 470.28 227.01 471.16 228.93 471.6 230.97 471.6 233.14L471.6 234.02 461.67 234.02 461.67 233.14C461.67 232.29 461.46 231.44 461.05 230.59 460.64 229.71 460.01 228.92 459.16 228.22 458.31 227.52 457.27 226.95 456.04 226.51 454.81 226.07 453.37 225.85 451.73 225.85 450.82 225.85 450 225.89 449.27 225.98 448.54 226.07 447.86 226.2 447.25 226.38 446.08 226.73 445.13 227.19 444.39 227.74 444.16 227.92 443.94 228.11 443.73 228.31 443.52 228.51 443.35 228.72 443.2 228.93 443.05 229.14 442.92 229.35 442.8 229.59 442.48 230.26 442.32 230.97 442.32 231.7 442.32 232.08 442.35 232.43 442.41 232.75 442.47 233.07 442.57 233.37 442.72 233.63 442.95 234.16 443.45 234.66 444.21 235.12 445.03 235.62 446.17 236.09 447.64 236.53 448.02 236.65 448.43 236.76 448.87 236.86 449.31 236.96 449.78 237.07 450.28 237.19 450.78 237.31 451.31 237.42 451.86 237.54 452.41 237.66 453 237.77 453.62 237.89 456.84 238.56 459.63 239.31 461.97 240.13 464.2 240.98 466.06 241.98 467.55 243.12 469.04 244.26 470.17 245.6 470.93 247.12 471.28 247.88 471.55 248.7 471.74 249.58 471.93 250.46 472.03 251.38 472.03 252.35 472.03 253.05 471.98 253.74 471.88 254.42 471.78 255.09 471.62 255.75 471.42 256.38 471.21 257.01 470.95 257.62 470.63 258.2 469.72 259.99 468.4 261.51 466.67 262.77 466.11 263.18 465.51 263.56 464.87 263.91 464.23 264.26 463.55 264.58 462.85 264.88 462.15 265.18 461.37 265.44 460.52 265.67 457.97 266.37 455.13 266.72 451.99 266.72 448.42 266.72 445.25 266.26 442.5 265.36 439.92 264.42 437.77 263.19 436.04 261.67 434.31 260.15 432.99 258.4 432.08 256.42 431.17 254.44 430.72 252.41 430.72 250.33L430.72 249.45 440.56 249.45 440.6 250.28C440.63 251.04 440.74 251.74 440.93 252.37 441.12 253 441.38 253.56 441.7 254.06 442.05 254.56 442.45 255.01 442.89 255.42 443.33 255.83 443.83 256.2 444.38 256.52 445.46 257.16 446.67 257.62 447.98 257.88 449.3 258.17 450.63 258.32 451.98 258.32 452.86 258.32 453.68 258.28 454.44 258.21 455.2 258.14 455.9 258.01 456.55 257.84 456.87 257.78 457.18 257.7 457.47 257.6 457.76 257.5 458.05 257.4 458.33 257.29 458.61 257.19 458.86 257.08 459.1 256.96 459.34 256.84 459.55 256.71 459.76 256.56 460.58 256.06 461.18 255.48 461.56 254.8 461.77 254.45 461.91 254.09 462 253.72Z" fill="#CE3232"/><path d="M520.07 258.01C521.12 258.23 522.31 258.34 523.63 258.34 524.13 258.34 524.61 258.32 525.08 258.27 525.55 258.22 526.01 258.15 526.46 258.05 526.91 257.95 527.36 257.82 527.8 257.68 528.47 257.47 529.1 257.22 529.69 256.91 530.28 256.6 530.82 256.26 531.32 255.88 532.32 255.15 533.12 254.27 533.74 253.24 534.3 252.21 534.63 251.1 534.75 249.9L534.84 249.11 544.24 249.11 544.2 250.03C544.08 252.29 543.47 254.42 542.35 256.45 541.27 258.47 539.83 260.24 538.04 261.77 536.25 263.26 534.16 264.47 531.76 265.37 529.21 266.28 526.5 266.73 523.63 266.73 519.62 266.73 516.1 266.09 513.08 264.8 510.21 263.51 507.85 261.77 506 259.57 504.18 257.4 502.82 254.88 501.91 252.01 501.62 251.04 501.37 250.07 501.19 249.09 501 248.11 500.85 247.11 500.75 246.08 500.65 245.05 500.6 244.01 500.6 242.96L500.6 241.2C500.6 240.15 500.65 239.11 500.75 238.08 500.85 237.05 501 236.05 501.19 235.07 501.38 234.09 501.63 233.12 501.94 232.17 502.25 231.22 502.6 230.3 502.99 229.4 503.39 228.51 503.84 227.66 504.35 226.85 504.86 226.04 505.41 225.29 506 224.59 507.85 222.39 510.19 220.65 513.03 219.36 516.05 218.07 519.56 217.43 523.58 217.43 525.16 217.43 526.66 217.55 528.08 217.78 529.5 218.01 530.86 218.35 532.14 218.79 533.02 219.11 533.82 219.46 534.53 219.84 535.24 220.22 535.93 220.64 536.57 221.09 537.21 221.55 537.83 222.05 538.42 222.61 539.3 223.4 540.08 224.28 540.75 225.25 541.42 226.22 542.01 227.26 542.51 228.37 543.51 230.57 544.06 232.94 544.18 235.49L544.22 236.41 534.82 236.41 534.73 235.62C534.61 234.24 534.29 232.97 533.76 231.8 533.2 230.63 532.45 229.6 531.5 228.72 530.55 227.84 529.4 227.14 528.07 226.63 526.74 226.12 525.24 225.86 523.57 225.86 522.72 225.86 521.91 225.91 521.15 226.01 520.39 226.11 519.69 226.26 519.04 226.45 518.4 226.64 517.79 226.88 517.24 227.18 516.69 227.48 516.16 227.8 515.68 228.15 515.2 228.5 514.75 228.88 514.34 229.29 513.93 229.7 513.56 230.14 513.24 230.61 512.19 232.07 511.47 233.73 511.09 235.58 510.68 237.46 510.47 239.33 510.47 241.2L510.47 242.96C510.47 243.93 510.52 244.89 510.62 245.84 510.72 246.79 510.88 247.74 511.08 248.67 511.46 250.52 512.16 252.16 513.19 253.59 513.69 254.29 514.27 254.93 514.95 255.5 515.63 256.07 516.39 256.58 517.24 257.02 518.06 257.46 519 257.79 520.05 258.01Z" fill="#CE3232"/><path d="M582.55 265.85 582.29 265.37C582.11 265.02 581.97 264.64 581.85 264.25 581.73 263.86 581.62 263.41 581.5 262.91 581.47 262.73 581.43 262.54 581.39 262.34 581.35 262.13 581.31 261.94 581.28 261.77 580.78 262.18 580.27 262.56 579.74 262.91 578.66 263.67 577.47 264.35 576.18 264.93 574.89 265.49 573.48 265.93 571.96 266.25 571.2 266.4 570.42 266.51 569.63 266.6 568.84 266.69 568.03 266.73 567.21 266.73 566.51 266.73 565.83 266.71 565.17 266.66 564.51 266.62 563.87 266.54 563.24 266.44 562.61 266.34 561.99 266.21 561.39 266.07 560.79 265.92 560.24 265.76 559.74 265.59 557.63 264.83 555.84 263.8 554.38 262.51 552.89 261.19 551.74 259.65 550.93 257.87 550.12 256.1 549.72 254.2 549.72 252.18 549.72 249.57 550.25 247.26 551.3 245.24 551.83 244.24 552.47 243.32 553.23 242.47 553.99 241.62 554.87 240.86 555.87 240.18 557.8 238.83 560.22 237.82 563.12 237.15 564.12 236.92 565.14 236.73 566.2 236.58 567.26 236.43 568.35 236.32 569.47 236.25 570.6 236.18 571.78 236.14 573.01 236.14L580.83 236.14 580.83 233.5C580.83 232.27 580.62 231.19 580.21 230.25 579.8 229.31 579.18 228.51 578.36 227.83 577.8 227.36 577.17 226.97 576.45 226.66 575.73 226.35 574.9 226.12 573.94 225.96 572.99 225.8 571.96 225.72 570.84 225.72 570.43 225.72 570.04 225.73 569.68 225.76 569.31 225.79 568.95 225.83 568.58 225.87 568.21 225.91 567.86 225.97 567.53 226.05 567.19 226.12 566.88 226.2 566.59 226.29 566.15 226.41 565.74 226.55 565.36 226.71 564.98 226.87 564.62 227.04 564.28 227.22 563.94 227.4 563.63 227.59 563.34 227.79 563.05 227.99 562.78 228.21 562.53 228.45 562.28 228.69 562.05 228.93 561.85 229.17 561.64 229.42 561.47 229.68 561.32 229.94 560.85 230.7 560.62 231.51 560.62 232.36L560.62 233.24 550.69 233.24 550.69 232.36C550.69 230.51 551.17 228.7 552.14 226.91 553.08 225.12 554.41 223.53 556.14 222.12 557.87 220.71 560.01 219.59 562.56 218.74 565.11 217.89 568.13 217.42 571.35 217.42 574.28 217.42 576.97 217.76 579.44 218.43 580.26 218.66 581.05 218.93 581.81 219.22 582.51 219.51 583.17 219.85 583.79 220.23 584.41 220.61 584.99 221.04 585.55 221.5 587.19 222.85 588.48 224.55 589.42 226.6 589.89 227.63 590.24 228.72 590.47 229.9 590.7 231.08 590.82 232.33 590.82 233.68L590.82 254.99C590.82 256.48 590.95 258.07 591.22 259.74 591.51 261.38 591.91 262.79 592.41 263.96L592.5 264.14 592.5 265.85 582.57 265.85ZM564.53 257.37C565.64 257.72 566.96 257.9 568.49 257.9 570.02 257.9 571.39 257.72 572.71 257.37 574.03 256.99 575.23 256.51 576.31 255.92 577.39 255.33 578.33 254.67 579.12 253.94 579.82 253.27 580.39 252.56 580.83 251.83L580.83 243.66 574.41 243.66C573.18 243.66 572.01 243.7 570.92 243.79 569.82 243.88 568.8 244 567.87 244.16 566.93 244.32 566.08 244.52 565.3 244.75 564.52 244.98 563.81 245.26 563.17 245.58 560.8 246.78 559.61 248.61 559.61 251.07 559.61 252.04 559.79 252.95 560.14 253.79 560.23 254 560.32 254.19 560.43 254.38 560.53 254.57 560.65 254.75 560.78 254.93 560.91 255.11 561.06 255.27 561.22 255.43 561.38 255.59 561.55 255.75 561.73 255.89 562.49 256.48 563.43 256.96 564.54 257.34Z" fill="#CE3232"/><path d="M626.05 227.53 625.04 227.35C624.86 227.32 624.7 227.29 624.53 227.26 624.36 227.23 624.21 227.21 624.05 227.19 623.89 227.18 623.73 227.16 623.59 227.15 623.44 227.14 623.3 227.11 623.15 227.08 622.56 227.05 621.9 227.04 621.17 227.04 618.53 227.04 616.41 227.58 614.8 228.67 613.22 229.7 612.02 231.1 611.2 232.89L611.2 265.85 601.31 265.85 601.31 218.3 610.98 218.3 610.98 219.18 611.07 222.08C612.04 220.97 613.14 220.03 614.37 219.27 616.36 218.04 618.76 217.42 621.58 217.42 622.22 217.42 622.94 217.49 623.73 217.64 623.96 217.67 624.16 217.7 624.32 217.73 624.48 217.76 624.63 217.8 624.78 217.84 624.93 217.88 625.07 217.93 625.2 217.97 625.33 218.01 625.46 218.07 625.57 218.12L626.05 218.38 626.05 227.52Z" fill="#CE3232"/><path d="M681.54 307.71C681.62 304.65 681.77 301.82 681.97 299.21 682.17 296.6 682.45 294.23 682.78 292.08 683.61 287.61 684.89 283.52 686.62 279.8 687.2 278.64 687.84 277.46 688.54 276.26 689.24 275.06 690.01 273.88 690.83 272.73 691.65 271.58 692.53 270.41 693.43 269.26 696.16 265.95 699.55 262.23 703.6 258.1 706.41 255.21 709.1 252.44 711.66 249.79 712.49 248.96 713.29 248.14 714.08 247.31 714.86 246.48 715.61 245.63 716.31 244.77 717.01 243.9 717.65 243.01 718.23 242.1 720.05 239.54 721.5 236.73 722.57 233.67 723.64 230.78 724.18 227.34 724.18 223.38 724.18 215.36 722.11 209.12 717.98 204.65 713.93 200.27 707.93 198.08 700 198.08 698.84 198.08 697.71 198.12 696.59 198.2 695.48 198.28 694.4 198.43 693.37 198.63 692.34 198.84 691.28 199.11 690.21 199.44 689.47 199.61 688.72 199.83 687.98 200.12 687.24 200.41 686.53 200.72 685.87 201.05 685.21 201.38 684.57 201.75 683.95 202.17 683.33 202.58 682.73 203 682.15 203.41 679.83 205.23 677.97 207.54 676.57 210.36 675.16 213.09 674.46 216.4 674.46 220.28L674.46 222.76 671.98 222.76C671.98 222.76 649.03 222.76 649.03 222.76L646.55 222.76 646.55 220.28C646.63 212.84 648.08 206.2 650.89 200.37 653.7 194.54 657.5 189.56 662.3 185.43 667.1 181.38 672.72 178.32 679.17 176.25 685.62 174.1 692.57 173.03 700.01 173.03 702.74 173.03 705.36 173.15 707.89 173.4 710.41 173.65 712.85 174.02 715.2 174.52 717.56 175.02 719.81 175.68 721.96 176.5 728.49 178.82 733.99 182.12 738.46 186.42 740.69 188.57 742.65 190.97 744.35 193.61 746.04 196.26 747.47 199.11 748.63 202.17 750.95 208.29 752.1 215.11 752.1 222.63 752.1 225.61 751.87 228.48 751.42 231.25 750.97 234.02 750.28 236.69 749.37 239.25 747.55 244.29 745.11 249.13 742.05 253.76 739.07 258.23 735.68 262.48 731.88 266.53 731.05 267.36 730.27 268.16 729.52 268.95 728.78 269.74 728.01 270.52 727.23 271.31L724.93 273.61C724.19 274.35 723.4 275.12 722.57 275.9 721.74 276.69 720.96 277.45 720.21 278.2 718.06 280.18 716.28 282.25 714.88 284.4 713.47 286.55 712.4 288.87 711.66 291.35 710.17 296.39 709.43 301.85 709.43 307.72L709.43 310.2 706.95 310.2C706.95 310.2 684 310.2 684 310.2L681.52 310.2 681.52 307.72ZM680.55 347.03C680.55 342.65 681.91 338.97 684.64 335.99 687.37 332.93 691.34 331.4 696.55 331.4 698.2 331.4 699.75 331.57 701.2 331.9 702.64 332.23 703.99 332.73 705.23 333.39 706.47 334.05 707.59 334.92 708.58 335.99 709.9 337.48 710.91 339.15 711.62 341.01 712.32 342.87 712.67 344.88 712.67 347.03 712.67 351.41 711.31 355.05 708.58 357.94 705.77 360.92 701.76 362.41 696.55 362.41 691.34 362.41 687.37 360.92 684.64 357.94 681.91 355.05 680.55 351.41 680.55 347.03Z" fill="#CE3232"/></g><g><path d="M84.87 123.36 85.44 127.27 86.23 124.11 99.28 79.46 99.46 78.8 108.21 78.8 108.39 79.46 121.13 124.11 121.13 124.15 121.92 127.4 122.58 123.31 122.58 123.27 132.82 79.5 132.95 78.8 143.28 78.8 143.02 79.85 127.33 142.12 127.15 142.78 117.83 142.78 117.65 142.12 104.03 95.49 104.03 95.45 103.9 94.75 103.72 95.45 103.72 95.54 89.61 142.17 89.43 142.79 80.07 142.79 79.94 142.13 64.3 79.86 64.04 78.81 74.28 78.81 74.46 79.51 84.88 123.32 84.88 123.36Z" fill="#FFFFFF"/><path d="M158.52 76.16 158.52 99.63C160.04 98.22 161.79 97.08 163.75 96.2 166.5 94.97 169.57 94.35 172.93 94.35 173.81 94.35 174.66 94.39 175.48 94.46 176.3 94.53 177.11 94.64 177.9 94.79 178.66 94.94 179.36 95.13 180.01 95.36 181.04 95.68 181.97 96.1 182.82 96.61 183.67 97.12 184.45 97.75 185.17 98.48 185.89 99.21 186.52 100.03 187.06 100.94 187.6 101.85 188.05 102.86 188.4 103.97 189.16 106.17 189.54 108.8 189.54 111.88L189.54 142.77 179.65 142.77 179.65 112.01C179.65 110.31 179.46 108.89 179.08 107.75 178.9 107.16 178.66 106.65 178.35 106.21 178.04 105.77 177.7 105.38 177.32 105.02 176.56 104.35 175.59 103.85 174.42 103.53 173.22 103.18 171.81 103 170.2 103 169.82 103 169.45 103.01 169.08 103.04 168.71 103.07 168.35 103.11 167.98 103.15 167.61 103.19 167.26 103.25 166.93 103.33 166.59 103.4 166.26 103.49 165.92 103.59 165.58 103.69 165.26 103.81 164.95 103.94 164.64 104.07 164.33 104.21 164.03 104.36 163.72 104.51 163.42 104.67 163.13 104.84 162.13 105.46 161.24 106.17 160.45 106.99 159.69 107.78 159.04 108.67 158.52 109.67L158.52 142.76 148.63 142.76 148.63 75.28 158.52 75.28 158.52 76.16Z" fill="#FFFFFF"/><path d="M230.93 142.78 230.67 142.3C230.49 141.95 230.35 141.57 230.23 141.18 230.11 140.79 230 140.34 229.88 139.84 229.85 139.66 229.81 139.47 229.77 139.27 229.73 139.06 229.69 138.87 229.66 138.7 229.16 139.11 228.65 139.49 228.12 139.84 227.04 140.6 225.85 141.28 224.56 141.86 223.27 142.42 221.86 142.86 220.34 143.18 219.58 143.33 218.8 143.44 218.01 143.53 217.22 143.62 216.41 143.66 215.59 143.66 214.89 143.66 214.21 143.64 213.55 143.59 212.89 143.55 212.25 143.47 211.62 143.37 210.99 143.27 210.37 143.14 209.77 143 209.17 142.85 208.62 142.69 208.12 142.52 206.01 141.76 204.22 140.73 202.76 139.44 201.27 138.12 200.12 136.58 199.31 134.8 198.5 133.03 198.1 131.13 198.1 129.11 198.1 126.5 198.63 124.19 199.68 122.17 200.21 121.17 200.85 120.25 201.61 119.4 202.37 118.55 203.25 117.79 204.25 117.11 206.18 115.76 208.6 114.75 211.5 114.08 212.5 113.85 213.52 113.66 214.58 113.51 215.64 113.36 216.73 113.25 217.85 113.18 218.98 113.11 220.16 113.07 221.39 113.07L229.21 113.07 229.21 110.43C229.21 109.2 229 108.12 228.59 107.18 228.18 106.24 227.56 105.44 226.74 104.76 226.18 104.29 225.55 103.9 224.83 103.59 224.11 103.28 223.28 103.05 222.32 102.89 221.37 102.73 220.34 102.65 219.22 102.65 218.81 102.65 218.42 102.66 218.06 102.69 217.69 102.72 217.33 102.76 216.96 102.8 216.59 102.84 216.24 102.9 215.91 102.98 215.57 103.05 215.26 103.13 214.97 103.22 214.53 103.34 214.12 103.48 213.74 103.64 213.36 103.8 213 103.97 212.66 104.15 212.32 104.33 212.01 104.52 211.72 104.72 211.43 104.92 211.16 105.14 210.91 105.38 210.66 105.62 210.43 105.86 210.23 106.1 210.02 106.35 209.85 106.61 209.7 106.87 209.23 107.63 209 108.44 209 109.29L209 110.17 199.07 110.17 199.07 109.29C199.07 107.44 199.55 105.63 200.52 103.84 201.46 102.05 202.79 100.46 204.52 99.05 206.25 97.64 208.39 96.52 210.94 95.67 213.49 94.82 216.51 94.35 219.73 94.35 222.66 94.35 225.35 94.69 227.82 95.36 228.64 95.59 229.43 95.86 230.19 96.15 230.89 96.44 231.55 96.78 232.17 97.16 232.79 97.54 233.37 97.97 233.93 98.43 235.57 99.78 236.86 101.48 237.8 103.53 238.27 104.56 238.62 105.65 238.85 106.83 239.08 108.01 239.2 109.26 239.2 110.61L239.2 131.92C239.2 133.41 239.33 135 239.6 136.67 239.89 138.31 240.29 139.72 240.79 140.89L240.88 141.07 240.88 142.78 230.95 142.78ZM212.91 134.3C214.02 134.65 215.34 134.83 216.87 134.83 218.4 134.83 219.77 134.65 221.09 134.3 222.41 133.92 223.61 133.44 224.69 132.85 225.77 132.26 226.71 131.6 227.5 130.87 228.2 130.2 228.77 129.49 229.21 128.76L229.21 120.59 222.79 120.59C221.56 120.59 220.39 120.63 219.3 120.72 218.2 120.81 217.18 120.93 216.25 121.09 215.31 121.25 214.46 121.45 213.68 121.68 212.9 121.91 212.19 122.19 211.55 122.51 209.18 123.71 207.99 125.54 207.99 128 207.99 128.97 208.17 129.88 208.52 130.72 208.61 130.93 208.7 131.12 208.81 131.31 208.91 131.5 209.03 131.68 209.16 131.86 209.29 132.04 209.44 132.2 209.6 132.36 209.76 132.52 209.93 132.68 210.11 132.82 210.87 133.41 211.81 133.89 212.92 134.27Z" fill="#FFFFFF"/><path d="M262.48 83.72 262.48 95.23 271.36 95.23 271.36 103.27 262.48 103.27 262.48 130.65C262.48 131.7 262.61 132.54 262.88 133.15 263.11 133.74 263.41 134.18 263.76 134.47 263.91 134.59 264.05 134.68 264.18 134.76 264.31 134.83 264.45 134.9 264.6 134.96 264.75 135.02 264.91 135.06 265.08 135.09 265.34 135.15 265.63 135.19 265.94 135.22 266.25 135.25 266.55 135.26 266.84 135.26 267.05 135.26 267.26 135.26 267.48 135.24 267.7 135.23 267.92 135.2 268.14 135.17 268.36 135.14 268.59 135.11 268.82 135.08 269.55 134.96 270.12 134.86 270.53 134.77L271.58 134.55 271.58 142.55 270.92 142.73C270.6 142.82 270.22 142.91 269.8 143.02 269.37 143.12 268.9 143.23 268.37 143.35 267.29 143.55 265.98 143.66 264.46 143.66 263.67 143.66 262.9 143.6 262.15 143.48 261.4 143.36 260.66 143.2 259.93 143 258.47 142.53 257.19 141.77 256.11 140.71 255.03 139.68 254.16 138.34 253.52 136.67 252.9 135 252.6 132.98 252.6 130.61L252.6 103.28 243.94 103.28 243.94 95.24 252.6 95.24 252.6 83.73 262.49 83.73Z" fill="#FFFFFF"/><path d="M302.45 87.41C301.48 86.36 301 85.05 301 83.5 301 82.74 301.12 82.03 301.35 81.37 301.58 80.71 301.95 80.12 302.45 79.59 303.42 78.48 304.82 77.92 306.67 77.92 308.52 77.92 309.94 78.48 310.93 79.59 311.9 80.64 312.38 81.95 312.38 83.5 312.38 85.05 311.9 86.36 310.93 87.41 309.93 88.46 308.51 88.99 306.67 88.99 304.83 88.99 303.42 88.46 302.45 87.41ZM311.55 142.78 301.66 142.78 301.66 95.23 311.55 95.23 311.55 142.78Z" fill="#FFFFFF"/><path d="M351.61 130.67C351.7 130.3 351.74 129.93 351.74 129.55 351.74 128.79 351.62 128.09 351.39 127.44 351.18 126.82 350.73 126.24 350.03 125.68 349.24 125.09 348.11 124.54 346.65 124.01 345.89 123.75 345 123.48 343.99 123.22 342.98 122.96 341.84 122.71 340.58 122.47 337.65 121.94 335 121.31 332.63 120.58 332.31 120.46 331.98 120.35 331.64 120.23 331.3 120.11 331 120 330.72 119.88 330.44 119.76 330.16 119.64 329.88 119.51 329.6 119.38 329.33 119.25 329.07 119.11 328.81 118.97 328.55 118.85 328.3 118.71 328.05 118.57 327.81 118.44 327.58 118.29 327.35 118.14 327.13 117.98 326.92 117.81 325.34 116.73 324.11 115.42 323.23 113.9 322.38 112.38 321.96 110.6 321.96 108.58 321.96 106.56 322.41 104.82 323.32 103.09 324.2 101.36 325.44 99.85 327.06 98.56 328.68 97.27 330.66 96.26 333.04 95.53 333.68 95.32 334.34 95.15 335 95 335.66 94.85 336.33 94.73 337.02 94.63 337.71 94.53 338.41 94.45 339.13 94.41 339.85 94.37 340.59 94.34 341.35 94.34 344.57 94.34 347.46 94.75 350.01 95.57 350.86 95.83 351.64 96.13 352.34 96.47 353.04 96.81 353.71 97.18 354.34 97.59 354.97 98 355.56 98.44 356.12 98.91 357.76 100.35 359.02 102.02 359.9 103.94 360.78 105.86 361.22 107.9 361.22 110.07L361.22 110.95 351.29 110.95 351.29 110.07C351.29 109.22 351.08 108.37 350.67 107.52 350.26 106.64 349.63 105.85 348.78 105.15 347.93 104.45 346.89 103.88 345.66 103.44 344.43 103 342.99 102.78 341.35 102.78 340.44 102.78 339.62 102.82 338.89 102.91 338.16 103 337.48 103.13 336.87 103.31 335.7 103.66 334.75 104.12 334.01 104.67 333.78 104.85 333.56 105.04 333.35 105.24 333.14 105.44 332.97 105.65 332.82 105.86 332.67 106.07 332.54 106.28 332.42 106.52 332.1 107.19 331.94 107.9 331.94 108.63 331.94 109.01 331.97 109.36 332.03 109.68 332.09 110 332.19 110.3 332.34 110.56 332.57 111.09 333.07 111.59 333.83 112.05 334.65 112.55 335.79 113.02 337.26 113.46 337.64 113.58 338.05 113.69 338.49 113.79 338.93 113.89 339.4 114 339.9 114.12 340.4 114.24 340.93 114.35 341.48 114.47 342.03 114.59 342.62 114.7 343.24 114.82 346.46 115.49 349.25 116.24 351.59 117.06 353.82 117.91 355.68 118.91 357.17 120.05 358.66 121.19 359.79 122.53 360.55 124.05 360.9 124.81 361.17 125.63 361.36 126.51 361.55 127.39 361.65 128.31 361.65 129.28 361.65 129.98 361.6 130.67 361.5 131.35 361.4 132.02 361.24 132.68 361.04 133.31 360.83 133.94 360.57 134.55 360.25 135.13 359.34 136.92 358.02 138.44 356.29 139.7 355.73 140.11 355.13 140.49 354.49 140.84 353.85 141.19 353.17 141.51 352.47 141.81 351.77 142.11 350.99 142.37 350.14 142.6 347.59 143.3 344.75 143.65 341.61 143.65 338.04 143.65 334.87 143.19 332.12 142.29 329.54 141.35 327.39 140.12 325.66 138.6 323.93 137.08 322.61 135.33 321.7 133.35 320.79 131.37 320.34 129.34 320.34 127.26L320.34 126.38 330.18 126.38 330.22 127.21C330.25 127.97 330.36 128.67 330.55 129.3 330.74 129.93 331 130.49 331.32 130.99 331.67 131.49 332.07 131.94 332.51 132.35 332.95 132.76 333.45 133.13 334 133.45 335.08 134.09 336.29 134.55 337.6 134.81 338.92 135.1 340.25 135.25 341.6 135.25 342.48 135.25 343.3 135.21 344.06 135.14 344.82 135.07 345.52 134.94 346.17 134.77 346.49 134.71 346.8 134.63 347.09 134.53 347.38 134.43 347.67 134.33 347.95 134.22 348.23 134.12 348.48 134.01 348.72 133.89 348.96 133.77 349.17 133.64 349.38 133.49 350.2 132.99 350.8 132.41 351.18 131.73 351.39 131.38 351.53 131.02 351.62 130.65Z" fill="#FFFFFF"/><path d="M405.12 83.72 405.12 95.23 414 95.23 414 103.27 405.12 103.27 405.12 130.65C405.12 131.7 405.25 132.54 405.52 133.15 405.75 133.74 406.05 134.18 406.4 134.47 406.55 134.59 406.69 134.68 406.82 134.76 406.95 134.83 407.09 134.9 407.24 134.96 407.39 135.02 407.55 135.06 407.72 135.09 407.98 135.15 408.27 135.19 408.58 135.22 408.89 135.25 409.19 135.26 409.48 135.26 409.69 135.26 409.9 135.26 410.12 135.24 410.34 135.23 410.56 135.2 410.78 135.17 411 135.14 411.23 135.11 411.46 135.08 412.19 134.96 412.76 134.86 413.17 134.77L414.22 134.55 414.22 142.55 413.56 142.73C413.24 142.82 412.86 142.91 412.44 143.02 412.01 143.12 411.54 143.23 411.01 143.35 409.93 143.55 408.62 143.66 407.1 143.66 406.31 143.66 405.54 143.6 404.79 143.48 404.04 143.36 403.3 143.2 402.57 143 401.11 142.53 399.83 141.77 398.75 140.71 397.67 139.68 396.8 138.34 396.16 136.67 395.54 135 395.24 132.98 395.24 130.61L395.24 103.28 386.58 103.28 386.58 95.24 395.24 95.24 395.24 83.73 405.13 83.73Z" fill="#FFFFFF"/><path d="M431.13 76.16 431.13 99.63C432.65 98.22 434.4 97.08 436.36 96.2 439.11 94.97 442.18 94.35 445.54 94.35 446.42 94.35 447.27 94.39 448.09 94.46 448.91 94.53 449.72 94.64 450.51 94.79 451.27 94.94 451.97 95.13 452.62 95.36 453.65 95.68 454.58 96.1 455.43 96.61 456.28 97.12 457.06 97.75 457.78 98.48 458.5 99.21 459.13 100.03 459.67 100.94 460.21 101.85 460.66 102.86 461.01 103.97 461.77 106.17 462.15 108.8 462.15 111.88L462.15 142.77 452.26 142.77 452.26 112.01C452.26 110.31 452.07 108.89 451.69 107.75 451.51 107.16 451.27 106.65 450.96 106.21 450.65 105.77 450.31 105.38 449.93 105.02 449.17 104.35 448.2 103.85 447.03 103.53 445.83 103.18 444.42 103 442.81 103 442.43 103 442.06 103.01 441.69 103.04 441.32 103.07 440.96 103.11 440.59 103.15 440.22 103.19 439.87 103.25 439.54 103.33 439.2 103.4 438.87 103.49 438.53 103.59 438.19 103.69 437.87 103.81 437.56 103.94 437.25 104.07 436.94 104.21 436.64 104.36 436.33 104.51 436.03 104.67 435.74 104.84 434.74 105.46 433.85 106.17 433.06 106.99 432.3 107.78 431.65 108.67 431.13 109.67L431.13 142.76 421.24 142.76 421.24 75.28 431.13 75.28 431.13 76.16Z" fill="#FFFFFF"/><path d="M497.48 143.46C496.28 143.59 495.02 143.66 493.7 143.66 489.98 143.66 486.61 143.09 483.59 141.95 480.63 140.81 478.16 139.21 476.16 137.16 475.52 136.46 474.91 135.72 474.34 134.96 473.77 134.2 473.26 133.38 472.8 132.52 472.35 131.66 471.94 130.76 471.59 129.82 470.54 127.04 470.01 123.98 470.01 120.64L470.01 118.88C470.01 115.04 470.61 111.6 471.81 108.55 473.01 105.53 474.61 102.97 476.6 100.86 477.27 100.19 477.98 99.56 478.73 98.97 479.48 98.38 480.25 97.84 481.04 97.34 481.92 96.87 482.83 96.45 483.76 96.07 486.6 94.93 489.55 94.36 492.59 94.36 494.49 94.36 496.28 94.52 497.95 94.84 499.62 95.13 501.16 95.57 502.56 96.16 503.44 96.57 504.26 97.03 505.02 97.54 505.78 98.05 506.49 98.61 507.15 99.21 507.81 99.81 508.42 100.46 508.97 101.17 510.64 103.28 511.87 105.77 512.66 108.64 513.07 110.05 513.37 111.52 513.56 113.06 513.75 114.6 513.85 116.19 513.85 117.83L513.85 122.22 479.92 122.22C480.04 123.89 480.37 125.44 480.93 126.88 481.14 127.47 481.38 128.02 481.68 128.53 481.97 129.04 482.3 129.53 482.65 129.98 483 130.44 483.38 130.87 483.79 131.28 484.41 131.9 485.09 132.44 485.83 132.93 486.58 133.41 487.39 133.85 488.27 134.23 490 134.93 491.96 135.28 494.16 135.28 495.16 135.28 496.09 135.22 496.97 135.1 497.85 134.98 498.68 134.8 499.45 134.55 500.23 134.3 500.94 134 501.58 133.65 503.57 132.54 505.27 131.06 506.68 129.21L507.21 128.51 507.91 129.04 512.88 132.91 513.54 133.44 513.1 134.1C512.84 134.51 512.55 134.91 512.24 135.31 511.93 135.71 511.61 136.1 511.27 136.5 510.93 136.9 510.57 137.28 510.19 137.67 509.05 138.81 507.73 139.84 506.23 140.75 505.47 141.19 504.65 141.58 503.77 141.94 502.86 142.32 501.88 142.64 500.83 142.91 499.78 143.18 498.65 143.37 497.45 143.5ZM495.5 103.03C494.62 102.87 493.65 102.79 492.6 102.79 492.04 102.79 491.51 102.82 491 102.88 490.49 102.94 489.99 103.03 489.51 103.14 489.03 103.26 488.55 103.39 488.08 103.54L487.29 103.89C487.03 104.01 486.76 104.14 486.5 104.29 486.24 104.44 485.99 104.58 485.75 104.73 485.51 104.88 485.28 105.04 485.05 105.23 484.82 105.42 484.6 105.6 484.39 105.78 483.83 106.28 483.33 106.83 482.87 107.45 482.41 108.07 482 108.75 481.62 109.52 481.33 110.14 481.06 110.81 480.83 111.54 480.62 112.24 480.45 112.99 480.3 113.78L503.99 113.78C503.87 112.46 503.62 111.16 503.24 109.87 503.12 109.43 502.96 109.01 502.76 108.6 502.56 108.19 502.33 107.79 502.08 107.39 501.83 106.99 501.56 106.62 501.27 106.27 500.39 105.24 499.25 104.41 497.84 103.77 497.17 103.45 496.39 103.21 495.51 103.04Z" fill="#FFFFFF"/><path d="M587.15 118.66 587.15 119.54C587.15 122.97 586.73 126.15 585.88 129.08 585.03 132.01 583.79 134.56 582.14 136.73 580.47 138.9 578.43 140.6 576.03 141.83 574.71 142.45 573.31 142.9 571.81 143.19 570.32 143.51 568.73 143.67 567.06 143.67 563.52 143.67 560.44 143.1 557.83 141.96 555.93 141.11 554.27 139.98 552.86 138.58L552.6 141.96 552.56 142.79 543.38 142.79 543.38 75.28 553.27 75.28 553.27 99.1C554.65 97.84 556.23 96.81 558.02 96.02 558.9 95.64 559.81 95.32 560.77 95.07 561.72 94.82 562.71 94.64 563.74 94.52 564.77 94.4 565.85 94.34 566.99 94.34 567.66 94.34 568.32 94.36 568.97 94.41 569.62 94.46 570.24 94.53 570.86 94.63 571.48 94.73 572.08 94.86 572.68 95 573.28 95.14 573.86 95.32 574.42 95.53 574.98 95.71 575.52 95.93 576.05 96.19 578.48 97.36 580.53 99.03 582.2 101.2 583.81 103.34 585.04 105.89 585.89 108.85 586.33 110.31 586.65 111.87 586.86 113.51 587.07 115.15 587.17 116.86 587.17 118.65ZM577.26 119.49 577.26 117.82C577.26 117.56 577.26 117.29 577.24 117.01 577.23 116.73 577.2 116.47 577.17 116.22 577.14 115.97 577.11 115.72 577.08 115.45 577.05 115.18 577.02 114.93 576.99 114.68 576.96 114.43 576.92 114.18 576.88 113.93 576.84 113.68 576.79 113.43 576.75 113.18 576.71 112.93 576.65 112.69 576.6 112.46 576.16 110.56 575.44 108.9 574.45 107.49 573.95 106.79 573.39 106.16 572.76 105.62 572.13 105.08 571.42 104.6 570.63 104.19 569.05 103.4 567.1 103 564.79 103L564.24 103C564.05 103 563.86 103 563.67 103.02 563.48 103.04 563.3 103.05 563.12 103.06 562.94 103.08 562.78 103.1 562.62 103.13 562.46 103.16 562.29 103.18 562.11 103.2 561.93 103.22 561.77 103.24 561.6 103.29 561.43 103.34 561.29 103.37 561.14 103.4L560.7 103.49C559.47 103.84 558.38 104.31 557.43 104.9 556.48 105.49 555.65 106.17 554.95 106.97 554.63 107.35 554.32 107.75 554.03 108.16 553.77 108.6 553.52 109.04 553.28 109.48L553.28 128.55C553.75 129.43 554.33 130.26 555.04 131.05 555.75 131.84 556.58 132.53 557.54 133.12 558.5 133.71 559.59 134.17 560.79 134.5 561.99 134.84 563.35 135.01 564.88 135.01 567.11 135.01 568.98 134.61 570.5 133.82 572.05 133.03 573.34 131.96 574.37 130.61 575.37 129.2 576.1 127.56 576.57 125.69 577.04 123.76 577.27 121.69 577.27 119.49Z" fill="#FFFFFF"/><path d="M619.88 104.46 618.87 104.28C618.69 104.25 618.53 104.22 618.36 104.19 618.19 104.16 618.04 104.14 617.88 104.12 617.72 104.11 617.56 104.09 617.42 104.08 617.27 104.07 617.13 104.04 616.98 104.01 616.39 103.98 615.73 103.97 615 103.97 612.36 103.97 610.24 104.51 608.63 105.6 607.05 106.63 605.85 108.03 605.03 109.82L605.03 142.78 595.14 142.78 595.14 95.23 604.81 95.23 604.81 96.11 604.9 99.01C605.87 97.9 606.97 96.96 608.2 96.2 610.19 94.97 612.59 94.35 615.41 94.35 616.05 94.35 616.77 94.42 617.56 94.57 617.79 94.6 617.99 94.63 618.15 94.66 618.31 94.69 618.46 94.73 618.61 94.77 618.76 94.81 618.9 94.86 619.03 94.9 619.16 94.94 619.29 95 619.4 95.05L619.88 95.31 619.88 104.45Z" fill="#FFFFFF"/><path d="M656.57 142.78 656.31 142.3C656.13 141.95 655.99 141.57 655.87 141.18 655.75 140.79 655.64 140.34 655.52 139.84 655.49 139.66 655.45 139.47 655.41 139.27 655.37 139.06 655.33 138.87 655.3 138.7 654.8 139.11 654.29 139.49 653.76 139.84 652.68 140.6 651.49 141.28 650.2 141.86 648.91 142.42 647.5 142.86 645.98 143.18 645.22 143.33 644.44 143.44 643.65 143.53 642.86 143.62 642.05 143.66 641.23 143.66 640.53 143.66 639.85 143.64 639.19 143.59 638.53 143.55 637.89 143.47 637.26 143.37 636.63 143.27 636.01 143.14 635.41 143 634.81 142.85 634.26 142.69 633.76 142.52 631.65 141.76 629.86 140.73 628.4 139.44 626.91 138.12 625.76 136.58 624.95 134.8 624.14 133.03 623.74 131.13 623.74 129.11 623.74 126.5 624.27 124.19 625.32 122.17 625.85 121.17 626.49 120.25 627.25 119.4 628.01 118.55 628.89 117.79 629.89 117.11 631.82 115.76 634.24 114.75 637.14 114.08 638.14 113.85 639.16 113.66 640.22 113.51 641.28 113.36 642.37 113.25 643.49 113.18 644.62 113.11 645.8 113.07 647.03 113.07L654.85 113.07 654.85 110.43C654.85 109.2 654.64 108.12 654.23 107.18 653.82 106.24 653.2 105.44 652.38 104.76 651.82 104.29 651.19 103.9 650.47 103.59 649.75 103.28 648.92 103.05 647.96 102.89 647.01 102.73 645.98 102.65 644.86 102.65 644.45 102.65 644.06 102.66 643.7 102.69 643.33 102.72 642.97 102.76 642.6 102.8 642.23 102.84 641.88 102.9 641.55 102.98 641.21 103.05 640.9 103.13 640.61 103.22 640.17 103.34 639.76 103.48 639.38 103.64 639 103.8 638.64 103.97 638.3 104.15 637.96 104.33 637.65 104.52 637.36 104.72 637.07 104.92 636.8 105.14 636.55 105.38 636.3 105.62 636.07 105.86 635.87 106.1 635.66 106.35 635.49 106.61 635.34 106.87 634.87 107.63 634.64 108.44 634.64 109.29L634.64 110.17 624.71 110.17 624.71 109.29C624.71 107.44 625.19 105.63 626.16 103.84 627.1 102.05 628.43 100.46 630.16 99.05 631.89 97.64 634.03 96.52 636.58 95.67 639.13 94.82 642.15 94.35 645.37 94.35 648.3 94.35 650.99 94.69 653.46 95.36 654.28 95.59 655.07 95.86 655.83 96.15 656.53 96.44 657.19 96.78 657.81 97.16 658.43 97.54 659.01 97.97 659.57 98.43 661.21 99.78 662.5 101.48 663.44 103.53 663.91 104.56 664.26 105.65 664.49 106.83 664.72 108.01 664.84 109.26 664.84 110.61L664.84 131.92C664.84 133.41 664.97 135 665.24 136.67 665.53 138.31 665.93 139.72 666.43 140.89L666.52 141.07 666.52 142.78 656.59 142.78ZM638.55 134.3C639.66 134.65 640.98 134.83 642.51 134.83 644.04 134.83 645.41 134.65 646.73 134.3 648.05 133.92 649.25 133.44 650.33 132.85 651.41 132.26 652.35 131.6 653.14 130.87 653.84 130.2 654.41 129.49 654.85 128.76L654.85 120.59 648.43 120.59C647.2 120.59 646.03 120.63 644.94 120.72 643.84 120.81 642.82 120.93 641.89 121.09 640.95 121.25 640.1 121.45 639.32 121.68 638.54 121.91 637.83 122.19 637.19 122.51 634.82 123.71 633.63 125.54 633.63 128 633.63 128.97 633.81 129.88 634.16 130.72 634.25 130.93 634.34 131.12 634.45 131.31 634.55 131.5 634.67 131.68 634.8 131.86 634.93 132.04 635.08 132.2 635.24 132.36 635.4 132.52 635.57 132.68 635.75 132.82 636.51 133.41 637.45 133.89 638.56 134.27Z" fill="#FFFFFF"/><path d="M684.73 95.23 684.77 96.06 684.95 99.88C686.47 98.42 688.26 97.21 690.31 96.28 693.06 94.99 696.17 94.35 699.63 94.35 700.51 94.35 701.36 94.39 702.18 94.46 703 94.53 703.81 94.64 704.6 94.79 705.36 94.94 706.06 95.13 706.71 95.36 707.74 95.68 708.67 96.1 709.52 96.61 710.37 97.12 711.15 97.75 711.87 98.48 712.59 99.21 713.22 100.03 713.76 100.94 714.3 101.85 714.75 102.86 715.1 103.97 715.86 106.17 716.24 108.8 716.24 111.88L716.24 142.77 706.35 142.77 706.35 112.01C706.35 110.31 706.16 108.89 705.78 107.75 705.6 107.16 705.36 106.65 705.05 106.21 704.74 105.77 704.4 105.38 704.02 105.02 703.26 104.35 702.29 103.85 701.12 103.53 699.92 103.18 698.51 103 696.9 103 696.52 103 696.15 103.01 695.78 103.04 695.41 103.07 695.05 103.11 694.68 103.15 694.31 103.19 693.96 103.25 693.63 103.33 693.29 103.4 692.96 103.49 692.62 103.59 692.28 103.69 691.96 103.81 691.65 103.94 691.34 104.07 691.03 104.21 690.73 104.36 690.42 104.51 690.12 104.67 689.83 104.84 688.83 105.46 687.94 106.17 687.15 106.99 686.39 107.78 685.74 108.67 685.22 109.67L685.22 142.76 675.33 142.76 675.33 95.21 684.73 95.21Z" fill="#FFFFFF"/><path d="M724.27 119.53 724.27 118.61C724.27 115.04 724.72 111.77 725.63 108.81 726.57 105.85 727.89 103.3 729.59 101.16 730.44 100.08 731.38 99.12 732.42 98.28 733.46 97.44 734.61 96.74 735.87 96.15 737.19 95.56 738.58 95.12 740.04 94.83 741.5 94.51 743.04 94.35 744.65 94.35 747.96 94.35 750.85 94.86 753.31 95.89 753.66 96.04 754.01 96.2 754.36 96.37 754.71 96.54 755.05 96.72 755.37 96.9 755.69 97.08 756.01 97.27 756.31 97.47 756.62 97.68 756.92 97.89 757.21 98.13 757.47 98.34 757.74 98.55 758 98.79L758 75.28 767.89 75.28 767.89 142.78 758.71 142.78 758.67 141.99 758.45 138.87C757.04 140.19 755.4 141.24 753.53 142.03 750.98 143.11 747.99 143.66 744.57 143.66 741.41 143.66 738.51 143.04 735.87 141.81 733.41 140.61 731.31 138.91 729.59 136.71 728.74 135.63 727.99 134.45 727.33 133.17 726.67 131.9 726.11 130.53 725.64 129.06 724.73 126.13 724.28 122.95 724.28 119.52ZM734.16 118.61 734.16 119.49C734.16 121.69 734.39 123.75 734.86 125.69 734.98 126.16 735.12 126.61 735.28 127.05 735.44 127.49 735.62 127.91 735.81 128.32 736 128.73 736.21 129.13 736.45 129.51 736.69 129.89 736.92 130.26 737.15 130.61 738.2 131.96 739.52 133.03 741.11 133.82 742.7 134.61 744.58 135.01 746.78 135.01 748.24 135.01 749.56 134.86 750.71 134.57 751.86 134.28 752.9 133.85 753.81 133.3 754.28 133.04 754.72 132.74 755.13 132.42 755.54 132.1 755.94 131.76 756.32 131.41 756.99 130.68 757.57 129.9 758.03 129.08L758.03 108.78C757.85 108.49 757.68 108.22 757.5 107.97 757.32 107.72 757.15 107.48 756.97 107.25L756.31 106.59C755.61 105.86 754.79 105.23 753.87 104.7 752.95 104.17 751.91 103.76 750.77 103.47 750.39 103.38 749.99 103.3 749.58 103.23 749.17 103.16 748.74 103.11 748.28 103.08 747.82 103.05 747.35 103.04 746.85 103.04 746.12 103.04 745.41 103.08 744.72 103.17 744.03 103.26 743.39 103.39 742.79 103.57 742.19 103.75 741.63 103.97 741.1 104.23 739.52 105.05 738.21 106.15 737.19 107.53 736.14 108.97 735.36 110.62 734.86 112.5 734.39 114.43 734.16 116.48 734.16 118.65Z" fill="#FFFFFF"/><path d="M218.6 237.77 218.6 236.85C218.6 233.42 219.13 230.24 220.18 227.31 220.68 225.82 221.3 224.43 222.05 223.16 222.8 221.89 223.65 220.71 224.62 219.62 226.58 217.42 229.01 215.71 231.91 214.48 232.91 214.07 233.95 213.72 235.03 213.43 236.08 213.17 237.19 212.96 238.35 212.81 239.51 212.66 240.7 212.59 241.93 212.59 245.68 212.59 249.06 213.21 252.08 214.44 254.98 215.7 257.41 217.41 259.37 219.58 261.33 221.78 262.83 224.34 263.85 227.27 264.87 230.2 265.39 233.38 265.39 236.81L265.39 237.78C265.39 239.48 265.26 241.13 264.99 242.72 264.73 244.32 264.35 245.85 263.85 247.31 263.64 247.9 263.42 248.47 263.17 249.02 262.92 249.58 262.66 250.12 262.38 250.65 262.1 251.18 261.81 251.69 261.5 252.19 261.19 252.69 260.85 253.16 260.49 253.62 260.12 254.08 259.75 254.52 259.37 254.96 257.41 257.13 254.98 258.83 252.08 260.06 249.09 261.29 245.74 261.91 242.02 261.91 238.3 261.91 234.94 261.29 231.96 260.06 229.06 258.83 226.63 257.13 224.67 254.96 222.71 252.82 221.21 250.27 220.19 247.31 219.14 244.38 218.61 241.2 218.61 237.77ZM228.53 236.85 228.53 237.73C228.53 239.93 228.79 241.99 229.32 243.93 229.53 244.55 229.75 245.15 230 245.73 230.25 246.31 230.54 246.87 230.86 247.4 231.18 247.93 231.53 248.43 231.91 248.92 232.29 249.41 232.7 249.84 233.14 250.24 233.58 250.64 234.05 251.01 234.55 251.36 235.05 251.71 235.58 252.02 236.13 252.28 236.68 252.54 237.27 252.77 237.89 252.96 238.51 253.15 239.16 253.29 239.85 253.38 240.54 253.47 241.26 253.51 242.03 253.51 244.26 253.51 246.22 253.1 247.92 252.28 249.62 251.46 251.03 250.35 252.14 248.94 253.25 247.5 254.1 245.83 254.69 243.93 255.25 242 255.52 239.93 255.52 237.73L255.52 236.85C255.52 234.68 255.24 232.63 254.69 230.7 254.51 230.06 254.29 229.44 254.03 228.85 253.77 228.26 253.47 227.71 253.15 227.18 252.83 226.65 252.48 226.14 252.1 225.64 250.99 224.23 249.58 223.11 247.88 222.26 247.03 221.85 246.11 221.54 245.13 221.34 244.15 221.14 243.09 221.03 241.94 221.03 240.79 221.03 239.79 221.13 238.82 221.34 237.85 221.55 236.96 221.85 236.14 222.26 235.88 222.38 235.63 222.5 235.42 222.63 235.2 222.76 234.98 222.9 234.76 223.05 234.54 223.2 234.33 223.35 234.12 223.51 233.91 223.67 233.72 223.83 233.53 223.99 233.34 224.15 233.15 224.32 232.96 224.5 232.77 224.68 232.59 224.86 232.41 225.05 232.23 225.24 232.07 225.44 231.93 225.64 231.55 226.14 231.2 226.65 230.88 227.18 230.56 227.71 230.27 228.26 230.02 228.85 229.77 229.44 229.54 230.05 229.34 230.7 229.16 231.34 229.02 232 228.9 232.68 228.78 233.36 228.69 234.04 228.64 234.72 228.58 235.41 228.55 236.12 228.55 236.85Z" fill="#FFFFFF"/><path d="M277.35 261.01 277.35 221.5 269.84 221.5 269.84 213.46 277.35 213.46 277.35 209.33C277.35 206.66 277.73 204.31 278.49 202.25 279.25 200.14 280.42 198.37 282.01 196.93 283.74 195.49 285.83 194.41 288.29 193.68 290.66 192.95 293.11 192.58 295.63 192.58 296.27 192.58 296.92 192.61 297.56 192.67 298.2 192.73 298.85 192.82 299.49 192.93 300.13 193.04 300.78 193.19 301.42 193.37L302.12 193.55 302.08 194.25 301.64 200.84 301.55 201.85 300.58 201.67C299.99 201.55 299.33 201.46 298.58 201.38 297.83 201.31 297.09 201.27 296.36 201.27 293.99 201.27 292.14 201.94 290.82 203.29 289.3 204.67 288.53 206.67 288.53 209.31L288.53 213.44 299.12 213.44 299.12 221.48 288.53 221.48 288.53 260.99 277.32 260.99Z" fill="#FFFFFF"/><path d="M341.01 201.95 341.01 213.46 349.89 213.46 349.89 221.5 341.01 221.5 341.01 248.88C341.01 249.93 341.14 250.77 341.41 251.38 341.64 251.97 341.94 252.41 342.29 252.7 342.44 252.82 342.58 252.91 342.71 252.99 342.84 253.06 342.98 253.13 343.13 253.19 343.28 253.25 343.44 253.29 343.61 253.32 343.87 253.38 344.16 253.42 344.47 253.45 344.78 253.48 345.08 253.49 345.37 253.49 345.58 253.49 345.79 253.49 346.01 253.47 346.23 253.46 346.45 253.43 346.67 253.4 346.89 253.37 347.12 253.34 347.35 253.31 348.08 253.19 348.65 253.09 349.06 253L350.11 252.78 350.11 260.78 349.45 260.96C349.13 261.05 348.75 261.14 348.33 261.25 347.9 261.35 347.43 261.46 346.9 261.58 345.82 261.78 344.51 261.89 342.99 261.89 342.2 261.89 341.43 261.83 340.68 261.71 339.93 261.59 339.19 261.43 338.46 261.23 337 260.76 335.72 260 334.64 258.94 333.56 257.91 332.69 256.57 332.05 254.9 331.43 253.23 331.13 251.21 331.13 248.84L331.13 221.51 322.47 221.51 322.47 213.47 331.13 213.47 331.13 201.96 341.02 201.96Z" fill="#FFFFFF"/><path d="M367.02 194.39 367.02 217.86C368.54 216.45 370.29 215.31 372.25 214.43 375 213.2 378.07 212.58 381.43 212.58 382.31 212.58 383.16 212.62 383.98 212.69 384.8 212.76 385.61 212.87 386.4 213.02 387.16 213.17 387.86 213.36 388.51 213.59 389.54 213.91 390.47 214.33 391.32 214.84 392.17 215.35 392.95 215.98 393.67 216.71 394.39 217.44 395.02 218.26 395.56 219.17 396.1 220.08 396.55 221.09 396.9 222.2 397.66 224.4 398.04 227.03 398.04 230.11L398.04 261 388.15 261 388.15 230.24C388.15 228.54 387.96 227.12 387.58 225.98 387.4 225.39 387.16 224.88 386.85 224.44 386.54 224 386.2 223.61 385.82 223.25 385.06 222.58 384.09 222.08 382.92 221.76 381.72 221.41 380.31 221.23 378.7 221.23 378.32 221.23 377.95 221.24 377.58 221.27 377.21 221.3 376.85 221.34 376.48 221.38 376.11 221.42 375.76 221.48 375.43 221.56 375.09 221.63 374.76 221.72 374.42 221.82 374.08 221.92 373.76 222.04 373.45 222.17 373.14 222.3 372.83 222.44 372.53 222.59 372.22 222.74 371.92 222.9 371.63 223.07 370.63 223.69 369.74 224.4 368.95 225.22 368.19 226.01 367.54 226.9 367.02 227.9L367.02 260.99 357.13 260.99 357.13 193.49 367.02 193.49 367.02 194.37Z" fill="#FFFFFF"/><path d="M409.46 205.64C408.49 204.59 408.01 203.28 408.01 201.73 408.01 200.97 408.13 200.26 408.36 199.6 408.59 198.94 408.96 198.35 409.46 197.82 410.43 196.71 411.83 196.15 413.68 196.15 415.53 196.15 416.95 196.71 417.94 197.82 418.91 198.87 419.39 200.18 419.39 201.73 419.39 203.28 418.91 204.59 417.94 205.64 416.94 206.69 415.52 207.22 413.68 207.22 411.84 207.22 410.43 206.69 409.46 205.64ZM418.56 261.01 408.67 261.01 408.67 213.46 418.56 213.46 418.56 261.01Z" fill="#FFFFFF"/><path d="M458.63 248.91C458.72 248.54 458.76 248.17 458.76 247.79 458.76 247.03 458.64 246.33 458.41 245.68 458.2 245.06 457.75 244.48 457.05 243.92 456.26 243.33 455.13 242.78 453.67 242.25 452.91 241.99 452.02 241.72 451.01 241.46 450 241.2 448.86 240.95 447.6 240.71 444.67 240.18 442.02 239.55 439.65 238.82 439.33 238.7 439 238.59 438.66 238.47 438.32 238.35 438.02 238.24 437.74 238.12 437.46 238 437.18 237.88 436.9 237.75 436.62 237.62 436.35 237.49 436.09 237.35 435.83 237.21 435.57 237.09 435.32 236.95 435.07 236.81 434.83 236.68 434.6 236.53 434.37 236.38 434.15 236.22 433.94 236.05 432.36 234.97 431.13 233.66 430.25 232.14 429.4 230.62 428.98 228.84 428.98 226.82 428.98 224.8 429.43 223.06 430.34 221.33 431.22 219.6 432.46 218.09 434.08 216.8 435.7 215.51 437.68 214.5 440.06 213.77 440.7 213.56 441.36 213.39 442.02 213.24 442.68 213.09 443.35 212.97 444.04 212.87 444.73 212.77 445.43 212.69 446.15 212.65 446.87 212.61 447.61 212.58 448.37 212.58 451.59 212.58 454.48 212.99 457.03 213.81 457.88 214.07 458.66 214.37 459.36 214.71 460.06 215.05 460.73 215.42 461.36 215.83 461.99 216.24 462.58 216.68 463.14 217.15 464.78 218.59 466.04 220.26 466.92 222.18 467.8 224.1 468.24 226.14 468.24 228.31L468.24 229.19 458.31 229.19 458.31 228.31C458.31 227.46 458.1 226.61 457.69 225.76 457.28 224.88 456.65 224.09 455.8 223.39 454.95 222.69 453.91 222.12 452.68 221.68 451.45 221.24 450.01 221.02 448.37 221.02 447.46 221.02 446.64 221.06 445.91 221.15 445.18 221.24 444.5 221.37 443.89 221.55 442.72 221.9 441.77 222.36 441.03 222.91 440.8 223.09 440.58 223.28 440.37 223.48 440.16 223.68 439.99 223.89 439.84 224.1 439.69 224.31 439.56 224.52 439.44 224.76 439.12 225.43 438.96 226.14 438.96 226.87 438.96 227.25 438.99 227.6 439.05 227.92 439.11 228.24 439.21 228.54 439.36 228.8 439.59 229.33 440.09 229.83 440.85 230.29 441.67 230.79 442.81 231.26 444.28 231.7 444.66 231.82 445.07 231.93 445.51 232.03 445.95 232.13 446.42 232.24 446.92 232.36 447.42 232.48 447.95 232.59 448.5 232.71 449.05 232.83 449.64 232.94 450.26 233.06 453.48 233.73 456.27 234.48 458.61 235.3 460.84 236.15 462.7 237.15 464.19 238.29 465.68 239.43 466.81 240.77 467.57 242.29 467.92 243.05 468.19 243.87 468.38 244.75 468.57 245.63 468.67 246.55 468.67 247.52 468.67 248.22 468.62 248.91 468.52 249.59 468.42 250.26 468.26 250.92 468.06 251.55 467.85 252.18 467.59 252.79 467.27 253.37 466.36 255.16 465.04 256.68 463.31 257.94 462.75 258.35 462.15 258.73 461.51 259.08 460.87 259.43 460.19 259.75 459.49 260.05 458.79 260.35 458.01 260.61 457.16 260.84 454.61 261.54 451.77 261.89 448.63 261.89 445.06 261.89 441.89 261.43 439.14 260.53 436.56 259.59 434.41 258.36 432.68 256.84 430.95 255.32 429.63 253.57 428.72 251.59 427.81 249.61 427.36 247.58 427.36 245.5L427.36 244.62 437.2 244.62 437.24 245.45C437.27 246.21 437.38 246.91 437.57 247.54 437.76 248.17 438.02 248.73 438.34 249.23 438.69 249.73 439.09 250.18 439.53 250.59 439.97 251 440.47 251.37 441.02 251.69 442.1 252.33 443.31 252.79 444.62 253.05 445.94 253.34 447.27 253.49 448.62 253.49 449.5 253.49 450.32 253.45 451.08 253.38 451.84 253.31 452.54 253.18 453.19 253.01 453.51 252.95 453.82 252.87 454.11 252.77 454.4 252.67 454.69 252.57 454.97 252.46 455.25 252.36 455.5 252.25 455.74 252.13 455.98 252.01 456.19 251.88 456.4 251.73 457.22 251.23 457.82 250.65 458.2 249.97 458.41 249.62 458.55 249.26 458.64 248.89Z" fill="#FFFFFF"/><path d="M516.7 253.17C517.75 253.39 518.94 253.5 520.26 253.5 520.76 253.5 521.24 253.48 521.71 253.43 522.18 253.38 522.64 253.31 523.09 253.21 523.54 253.11 523.99 252.98 524.43 252.84 525.1 252.63 525.73 252.38 526.32 252.07 526.91 251.76 527.45 251.42 527.95 251.04 528.95 250.31 529.75 249.43 530.37 248.4 530.93 247.37 531.26 246.26 531.38 245.06L531.47 244.27 540.87 244.27 540.83 245.19C540.71 247.45 540.1 249.58 538.98 251.61 537.9 253.63 536.46 255.4 534.67 256.93 532.88 258.42 530.79 259.63 528.39 260.53 525.84 261.44 523.13 261.89 520.26 261.89 516.25 261.89 512.73 261.25 509.71 259.96 506.84 258.67 504.48 256.93 502.63 254.73 500.81 252.56 499.45 250.04 498.54 247.17 498.25 246.2 498 245.23 497.82 244.25 497.63 243.27 497.48 242.27 497.38 241.24 497.28 240.21 497.23 239.17 497.23 238.12L497.23 236.36C497.23 235.31 497.28 234.27 497.38 233.24 497.48 232.21 497.63 231.21 497.82 230.23 498.01 229.25 498.26 228.28 498.57 227.33 498.88 226.38 499.23 225.46 499.62 224.56 500.02 223.67 500.47 222.82 500.98 222.01 501.49 221.2 502.04 220.45 502.63 219.75 504.48 217.55 506.82 215.81 509.66 214.52 512.68 213.23 516.19 212.59 520.21 212.59 521.79 212.59 523.29 212.71 524.71 212.94 526.13 213.17 527.49 213.51 528.77 213.95 529.65 214.27 530.45 214.62 531.16 215 531.87 215.38 532.56 215.8 533.2 216.25 533.84 216.71 534.46 217.21 535.05 217.77 535.93 218.56 536.71 219.44 537.38 220.41 538.05 221.38 538.64 222.42 539.14 223.53 540.14 225.73 540.69 228.1 540.81 230.65L540.85 231.57 531.45 231.57 531.36 230.78C531.24 229.4 530.92 228.13 530.39 226.96 529.83 225.79 529.08 224.76 528.13 223.88 527.18 223 526.03 222.3 524.7 221.79 523.37 221.28 521.87 221.02 520.2 221.02 519.35 221.02 518.54 221.07 517.78 221.17 517.02 221.27 516.32 221.42 515.67 221.61 515.03 221.8 514.42 222.04 513.87 222.34 513.32 222.64 512.79 222.96 512.31 223.31 511.83 223.66 511.38 224.04 510.97 224.45 510.56 224.86 510.19 225.3 509.87 225.77 508.82 227.23 508.1 228.89 507.72 230.74 507.31 232.62 507.1 234.49 507.1 236.36L507.1 238.12C507.1 239.09 507.15 240.05 507.25 241 507.35 241.95 507.51 242.9 507.71 243.83 508.09 245.68 508.79 247.32 509.82 248.75 510.32 249.45 510.9 250.09 511.58 250.66 512.26 251.23 513.02 251.74 513.87 252.18 514.69 252.62 515.63 252.95 516.68 253.17Z" fill="#FFFFFF"/><path d="M579.18 261.01 578.92 260.53C578.74 260.18 578.6 259.8 578.48 259.41 578.36 259.02 578.25 258.57 578.13 258.07 578.1 257.89 578.06 257.7 578.02 257.5 577.98 257.29 577.94 257.1 577.91 256.93 577.41 257.34 576.9 257.72 576.37 258.07 575.29 258.83 574.1 259.51 572.81 260.09 571.52 260.65 570.11 261.09 568.59 261.41 567.83 261.56 567.05 261.67 566.26 261.76 565.47 261.85 564.66 261.89 563.84 261.89 563.14 261.89 562.46 261.87 561.8 261.82 561.14 261.78 560.5 261.7 559.87 261.6 559.24 261.5 558.62 261.37 558.02 261.23 557.42 261.08 556.87 260.92 556.37 260.75 554.26 259.99 552.47 258.96 551.01 257.67 549.52 256.35 548.37 254.81 547.56 253.03 546.75 251.26 546.35 249.36 546.35 247.34 546.35 244.73 546.88 242.42 547.93 240.4 548.46 239.4 549.1 238.48 549.86 237.63 550.62 236.78 551.5 236.02 552.5 235.34 554.43 233.99 556.85 232.98 559.75 232.31 560.75 232.08 561.77 231.89 562.83 231.74 563.89 231.59 564.98 231.48 566.1 231.41 567.23 231.34 568.41 231.3 569.64 231.3L577.46 231.3 577.46 228.66C577.46 227.43 577.25 226.35 576.84 225.41 576.43 224.47 575.81 223.67 574.99 222.99 574.43 222.52 573.8 222.13 573.08 221.82 572.36 221.51 571.53 221.28 570.57 221.12 569.62 220.96 568.59 220.88 567.47 220.88 567.06 220.88 566.67 220.89 566.31 220.92 565.94 220.95 565.58 220.99 565.21 221.03 564.84 221.07 564.49 221.13 564.16 221.21 563.82 221.28 563.51 221.36 563.22 221.45 562.78 221.57 562.37 221.71 561.99 221.87 561.61 222.03 561.25 222.2 560.91 222.38 560.57 222.56 560.26 222.75 559.97 222.95 559.68 223.15 559.41 223.37 559.16 223.61 558.91 223.85 558.68 224.09 558.48 224.33 558.27 224.58 558.1 224.84 557.95 225.1 557.48 225.86 557.25 226.67 557.25 227.52L557.25 228.4 547.32 228.4 547.32 227.52C547.32 225.67 547.8 223.86 548.77 222.07 549.71 220.28 551.04 218.69 552.77 217.28 554.5 215.87 556.64 214.75 559.19 213.9 561.74 213.05 564.76 212.58 567.98 212.58 570.91 212.58 573.6 212.92 576.07 213.59 576.89 213.82 577.68 214.09 578.44 214.38 579.14 214.67 579.8 215.01 580.42 215.39 581.04 215.77 581.62 216.2 582.18 216.66 583.82 218.01 585.11 219.71 586.05 221.76 586.52 222.79 586.87 223.88 587.1 225.06 587.33 226.24 587.45 227.49 587.45 228.84L587.45 250.15C587.45 251.64 587.58 253.23 587.85 254.9 588.14 256.54 588.54 257.95 589.04 259.12L589.13 259.3 589.13 261.01 579.2 261.01ZM561.16 252.53C562.27 252.88 563.59 253.06 565.12 253.06 566.65 253.06 568.02 252.88 569.34 252.53 570.66 252.15 571.86 251.67 572.94 251.08 574.02 250.49 574.96 249.83 575.75 249.1 576.45 248.43 577.02 247.72 577.46 246.99L577.46 238.82 571.04 238.82C569.81 238.82 568.64 238.86 567.55 238.95 566.45 239.04 565.43 239.16 564.5 239.32 563.56 239.48 562.71 239.68 561.93 239.91 561.15 240.14 560.44 240.42 559.8 240.74 557.43 241.94 556.24 243.77 556.24 246.23 556.24 247.2 556.42 248.11 556.77 248.95 556.86 249.16 556.95 249.35 557.06 249.54 557.16 249.73 557.28 249.91 557.41 250.09 557.54 250.27 557.69 250.43 557.85 250.59 558.01 250.75 558.18 250.91 558.36 251.05 559.12 251.64 560.06 252.12 561.17 252.5Z" fill="#FFFFFF"/><path d="M622.68 222.69 621.67 222.51C621.49 222.48 621.33 222.45 621.16 222.42 620.99 222.39 620.84 222.37 620.68 222.35 620.52 222.34 620.36 222.32 620.22 222.31 620.07 222.3 619.93 222.27 619.78 222.24 619.19 222.21 618.53 222.2 617.8 222.2 615.16 222.2 613.04 222.74 611.43 223.83 609.85 224.86 608.65 226.26 607.83 228.05L607.83 261.01 597.94 261.01 597.94 213.46 607.61 213.46 607.61 214.34 607.7 217.24C608.67 216.13 609.77 215.19 611 214.43 612.99 213.2 615.39 212.58 618.21 212.58 618.85 212.58 619.57 212.65 620.36 212.8 620.59 212.83 620.79 212.86 620.95 212.89 621.11 212.92 621.26 212.96 621.41 213 621.56 213.04 621.7 213.09 621.83 213.13 621.96 213.17 622.09 213.23 622.2 213.28L622.68 213.54 622.68 222.68Z" fill="#FFFFFF"/><path d="M678.18 302.87C678.26 299.81 678.41 296.98 678.61 294.37 678.81 291.76 679.09 289.39 679.42 287.24 680.25 282.77 681.53 278.68 683.26 274.96 683.84 273.8 684.48 272.62 685.18 271.42 685.88 270.22 686.65 269.04 687.47 267.89 688.29 266.74 689.17 265.57 690.07 264.42 692.8 261.11 696.19 257.39 700.24 253.26 703.05 250.37 705.74 247.6 708.3 244.95 709.13 244.12 709.93 243.3 710.72 242.47 711.5 241.64 712.25 240.79 712.95 239.93 713.65 239.06 714.29 238.17 714.87 237.26 716.69 234.7 718.14 231.89 719.21 228.83 720.28 225.94 720.82 222.5 720.82 218.54 720.82 210.52 718.75 204.28 714.62 199.81 710.57 195.43 704.57 193.24 696.64 193.24 695.48 193.24 694.35 193.28 693.23 193.36 692.12 193.44 691.04 193.59 690.01 193.79 688.98 194 687.92 194.27 686.85 194.6 686.11 194.77 685.36 194.99 684.62 195.28 683.88 195.57 683.17 195.88 682.51 196.21 681.85 196.54 681.21 196.91 680.59 197.33 679.97 197.74 679.37 198.16 678.79 198.57 676.47 200.39 674.61 202.7 673.21 205.52 671.8 208.25 671.1 211.56 671.1 215.44L671.1 217.92 668.62 217.92C668.62 217.92 645.67 217.92 645.67 217.92L643.19 217.92 643.19 215.44C643.27 208 644.72 201.36 647.53 195.53 650.34 189.7 654.14 184.72 658.94 180.59 663.74 176.54 669.36 173.48 675.81 171.41 682.26 169.26 689.21 168.19 696.65 168.19 699.38 168.19 702 168.31 704.53 168.56 707.05 168.81 709.49 169.18 711.84 169.68 714.2 170.18 716.45 170.84 718.6 171.66 725.13 173.98 730.63 177.28 735.1 181.58 737.33 183.73 739.29 186.13 740.99 188.77 742.68 191.42 744.11 194.27 745.27 197.33 747.59 203.45 748.74 210.27 748.74 217.79 748.74 220.77 748.51 223.64 748.06 226.41 747.61 229.18 746.92 231.85 746.01 234.41 744.19 239.45 741.75 244.29 738.69 248.92 735.71 253.39 732.32 257.64 728.52 261.69 727.69 262.52 726.91 263.32 726.16 264.11 725.42 264.9 724.65 265.68 723.87 266.47L721.57 268.77C720.83 269.51 720.04 270.28 719.21 271.06 718.38 271.85 717.6 272.61 716.85 273.36 714.7 275.34 712.92 277.41 711.52 279.56 710.11 281.71 709.04 284.03 708.3 286.51 706.81 291.55 706.07 297.01 706.07 302.88L706.07 305.36 703.59 305.36C703.59 305.36 680.64 305.36 680.64 305.36L678.16 305.36 678.16 302.88ZM677.19 342.19C677.19 337.81 678.55 334.13 681.28 331.15 684.01 328.09 687.98 326.56 693.19 326.56 694.84 326.56 696.39 326.73 697.84 327.06 699.28 327.39 700.63 327.89 701.87 328.55 703.11 329.21 704.23 330.08 705.22 331.15 706.54 332.64 707.55 334.31 708.26 336.17 708.96 338.03 709.31 340.04 709.31 342.19 709.31 346.57 707.95 350.21 705.22 353.1 702.41 356.08 698.4 357.57 693.19 357.57 687.98 357.57 684.01 356.08 681.28 353.1 678.55 350.21 677.19 346.57 677.19 342.19Z" fill="#FFFFFF"/></g></svg>