<svg viewBox="0 0 418.9 180.3" xmlns="http://www.w3.org/2000/svg" xmlns:xlink="http://www.w3.org/1999/xlink" id="Layer_1" xml:space="preserve" overflow="hidden"><g><linearGradient x1="210.167" y1="128.478" x2="210.167" y2="50.222" gradientUnits="userSpaceOnUse" id="SVGID_1_"><stop offset="0.005615" stop-color="#CFD8E8"/><stop offset="0.3034" stop-color="#FFFFFF"/><stop offset="1" stop-color="#CBD6E6"/></linearGradient><linearGradient x1="210.17" y1="115.031" x2="210.17" y2="63.6042" gradientUnits="userSpaceOnUse" id="SVGID_00000116938756042915953520000007725828420498152345_"><stop offset="0.005615" stop-color="#CFD8E8"/><stop offset="0.1236" stop-color="#EEF0F6"/><stop offset="0.3034" stop-color="#FFFFFF"/><stop offset="0.618" stop-color="#F2F3F8"/><stop offset="0.8652" stop-color="#E5E9F2"/><stop offset="1" stop-color="#CBD6E6"/></linearGradient><image width="1674" height="698" xlink:href="963283D9.png" overflow="visible" transform="matrix(0.24 0 0 0.24 9.36 6.48)"></image><image width="1533" height="588" xlink:href="963283DB.png" overflow="visible" transform="matrix(0.24 0 0 0.24 26.16 19.68)"></image><path d="M210.2 25C112.2 25 32.9 54.2 32.9 90.2 32.9 126.2 112.3 155.5 210.2 155.5 308.1 155.5 387.5 126.3 387.5 90.2 387.5 54.1 308.1 25 210.2 25M210.2 152.2C114.4 152.2 36.7 124.4 36.7 90.2 36.7 56 114.4 28.2 210.2 28.2 306 28.2 383.7 56 383.7 90.2 383.7 124.5 306 152.2 210.2 152.2Z" fill="url(#SVGID_1_)" fill-rule="evenodd" clip-rule="evenodd"/><path d="M307.5 73.3 289.9 99.7C280.9 89.3 272.3 92.9 262.9 101.5 261.9 102.4 260.7 103.4 259.7 104.6 244.9 119.3 238.8 115 238.5 103.7 240 102.1 241.4 100.8 242.9 99.4 240.1 112.9 260.2 106.6 252 94.8 247.2 87.6 242.2 91.9 234.1 101 233.5 82.6 221.9 95.7 213.5 101.1 212 102 210.6 102.7 209.4 103 208.8 100.1 206.9 94.6 205.1 94.6 201.3 94.6 201.6 95.8 202.3 103.9 203 112.3 200.2 119 194.8 122.4 192.3 124 189.1 124.9 185.4 124.7 174.7 124.3 177.8 106 190.7 100.3 192.8 99.3 194.1 98.4 194.8 97.5 196 96 196 94.8 194.8 94.3 193.8 93.7 191.7 93.6 188.9 94.6 181 97.3 173.2 106.5 169.5 116.5 164.9 120.9 164.1 123.1 163 126L164.9 127.2C166.5 125 167.7 123.5 170.3 121.6 173.4 131.4 184.4 134.8 194.7 129.8 201.6 126.4 208.2 119.2 212 107.9 212.3 107.3 212.7 106.7 213.3 106.1 219.8 97.6 228.7 93.9 223.6 109.5L213.3 125.5 212.7 126.2C210.8 129.1 211.5 131.5 213.3 132.2 215.1 132.9 218.1 131.9 220.4 127.9 224.1 121.6 227.9 115.9 231.9 111 235.6 118.5 240.6 123.2 252 115.4 252 125.2 255.2 129.8 262.7 130.1 266.7 130.3 271.8 129.1 278.4 127.2 288.5 137.9 299.7 131.8 311.6 113.8L308.2 113.8C288.8 135.1 282 126.1 293.2 109.5L317.7 72.9C317.8 72.8 318 72.6 318 72.5L318 72.1C317.6 70.3 309.3 70.6 307.5 73.3M280.5 116.2C277 123 269.9 124.9 264.9 123.7 264 123.4 263.3 123 262.8 122.4 261.5 120.6 261.8 117.7 262.8 114.8 263.5 112.6 264.9 110.4 266.3 108.6 270.7 103.3 276 97.7 280.3 100.7 284.1 103.1 284 109.6 280.5 116.2M190.5 85.2C190.9 86.2 192.3 87.3 193.6 87.8 193.3 86.9 193 85.4 193 84.4 193.6 84.2 194.2 84 194.8 83.7 203.5 79.7 204.1 71.2 197 69.4 196.3 69.3 195.5 69.1 194.8 69.1 190 69 187.9 74.1 188.6 82 185.1 83.2 179.6 82.7 173.8 82.3 180.4 73.6 187.3 65.7 194.8 60.1 194.9 60.1 195.1 59.9 195.1 59.9 201.9 62 207.9 63.7 213.5 64.9 246.3 72.5 257.3 64.8 262.9 51.4 263.2 50.7 263.5 49.9 263.8 49.2 263.5 49.3 263.2 49.5 262.9 49.6 248.2 56.9 230.9 57.2 213.5 55.3 207.2 54.6 201 53.7 194.8 52.5 185.5 50.9 176.4 49 167.9 47.7 134.3 42.1 121.8 64.9 128.5 77.4 135 89.1 154.7 87.2 159.2 64.5 133.5 99.3 115.1 35.1 188.6 58.3 180.4 64.3 172.6 72.8 165.2 82 157.4 81.8 150.7 83.5 148.7 90.5 153 86.8 157.5 85.6 162.4 85.4 156.1 93.3 149.9 101.4 143.9 108.8 121.1 136 99.1 109 125.2 91.9 115.9 88.4 106.2 100.1 106.1 111.7L106.1 112.1C106.1 118.6 109.2 124.9 117 128.4 127.4 133.1 139 129.1 153.4 110.2 159.3 102.6 165 94 171 85.8 177.3 86.5 183.8 87.1 190.5 85.2M194.8 73.1C195.4 73.1 196 73.1 196.4 73.4 198.3 74.1 197.4 77.7 194.8 79.7 194.1 80.3 193.3 80.7 192.3 80.9 191.9 76.1 193 73.4 194.8 73.1Z" fill="#231F20"/><path d="M305.5 73.3 287.9 99.7C278.9 89.3 270.3 92.9 260.9 101.5 259.9 102.4 258.7 103.4 257.7 104.6 242.9 119.3 236.8 115 236.5 103.7 238 102.1 239.4 100.8 240.9 99.4 238.1 112.9 258.2 106.6 250 94.8 245.2 87.6 240.2 91.9 232.1 101 231.5 82.6 219.9 95.7 211.5 101.1 210 102 208.6 102.7 207.4 103 206.8 100.1 204.9 94.6 203.1 94.6 199.3 94.6 199.6 95.8 200.3 103.9 201 112.3 198.2 119 192.8 122.4 190.3 124 187.1 124.9 183.4 124.7 172.7 124.3 175.8 106 188.7 100.3 190.8 99.3 192.1 98.4 192.8 97.5 194 96 194 94.8 192.8 94.3 191.8 93.7 189.7 93.6 186.9 94.6 179 97.3 171.2 106.5 167.5 116.5 163 120.9 162.1 123.1 161 126L162.9 127.2C164.5 125 165.7 123.5 168.3 121.6 171.4 131.4 182.4 134.8 192.7 129.8 199.6 126.4 206.2 119.2 210 107.9 210.3 107.3 210.7 106.7 211.3 106.1 217.8 97.6 226.7 93.9 221.6 109.5L211.3 125.5 210.7 126.2C208.8 129.1 209.5 131.5 211.3 132.2 213.1 132.9 216.2 131.9 218.4 127.9 222.1 121.6 225.9 115.9 229.9 111 233.6 118.5 238.6 123.2 250 115.4 250 125.2 253.2 129.8 260.7 130.1 264.7 130.3 269.8 129.1 276.4 127.2 286.5 137.9 297.7 131.8 309.6 113.8L306.2 113.8C286.8 135.1 280 126.1 291.2 109.5L315.7 72.9C315.8 72.8 316 72.6 316 72.5L316 72.1C315.6 70.3 307.2 70.6 305.5 73.3M278.4 116.2C274.9 123 267.8 124.9 262.8 123.7 261.9 123.4 261.2 123 260.7 122.4 259.4 120.6 259.7 117.7 260.7 114.8 261.4 112.6 262.8 110.4 264.2 108.6 268.6 103.3 273.9 97.7 278.2 100.7 282.1 103.1 281.9 109.6 278.4 116.2M188.5 85.2C188.9 86.2 190.3 87.3 191.6 87.8 191.3 86.9 191 85.4 191 84.4 191.6 84.2 192.2 84 192.8 83.7 201.5 79.7 202.1 71.2 195 69.4 194.3 69.3 193.5 69.1 192.8 69.1 188 69 185.9 74.1 186.6 82 183.1 83.2 177.6 82.7 171.8 82.3 178.4 73.6 185.3 65.7 192.8 60.1 193 60.1 193.1 59.9 193.1 59.9 199.9 62 205.9 63.7 211.5 64.9 244.3 72.5 255.3 64.8 260.9 51.4 261.2 50.7 261.5 49.9 261.8 49.2 261.5 49.3 261.2 49.5 260.9 49.6 246.2 56.9 228.9 57.2 211.5 55.3 205.2 54.6 199 53.7 192.8 52.5 183.5 50.9 174.4 49 165.9 47.7 132.3 42.1 119.8 64.9 126.5 77.4 133 89.1 152.7 87.2 157.2 64.5 131.5 99.3 113.1 35.1 186.6 58.3 178.4 64.3 170.6 72.8 163.2 82 155.4 81.8 148.7 83.5 146.7 90.5 151 86.8 155.5 85.6 160.4 85.4 154.1 93.3 147.9 101.4 141.9 108.8 119.1 136 97.1 109 123.2 91.9 113.9 88.4 104.2 100.1 104.1 111.7L104.1 112.1C104.1 118.6 107.2 124.9 115 128.4 125.4 133.1 137 129.1 151.4 110.2 157.3 102.6 163 94 169 85.8 175.3 86.5 181.7 87.1 188.5 85.2M192.8 73.1C193.4 73.1 194 73.1 194.4 73.4 196.3 74.1 195.4 77.7 192.8 79.7 192.1 80.3 191.3 80.7 190.3 80.9 189.8 76.1 191 73.4 192.8 73.1Z" fill="url(#SVGID_00000116938756042915953520000007725828420498152345_)" fill-rule="evenodd" clip-rule="evenodd"/></g></svg>