<svg viewBox="0 0 306.95 202.08" xmlns="http://www.w3.org/2000/svg" xmlns:xlink="http://www.w3.org/1999/xlink" id="Layer_1" overflow="hidden"><defs></defs><path d="M306.8 94.45 305.79 87.94 304.21 81.58 302.18 75.37 299.43 69.44 293.64 59.61 286.26 50.19 277.43 41.23 267.31 33.12 255.89 25.61 243.44 18.95 230 13.3 215.68 8.53 200.64 4.78 198.03 4.34 185.31 2.17 169.98 0.58 169.38 0.43 165.49 0.29 153.63 0.01 153.19 0.01 137.57 0.43 136.4 0.58 121.79 2.17 106.32 4.77 91.28 8.52 77.1 13.29 63.65 18.94 51.07 25.6 39.79 33.11 29.52 41.22 20.85 50.03 13.32 59.59 7.54 69.42 4.94 75.35 2.77 81.56 1.17 87.92 0.32 94.43 0.03 100.94 0.32 107.45 1.17 113.95 2.77 120.33 4.94 126.68 7.54 132.47 13.32 142.46 20.85 151.86 29.52 160.68 39.79 168.77 51.07 176.3 63.65 183.12 77.1 188.61 91.28 193.37 105.75 196.98 120.22 199.58 134.97 201.31 136.41 201.31 149.73 202.05 153.2 202.05 164.35 201.89 165.51 201.75 170 201.47 178.96 200.58 193.7 198.55 198.05 197.54 208.19 195.53 215.41 193.5 222.77 191.19 234.5 186.55 245.78 181.2 256.62 175.13 267.05 168.18 277.17 160.66 286.29 151.84 293.67 142.44 299.46 132.45 302.21 126.66 304.24 120.31 305.82 113.93 306.83 107.43 306.98 100.92 306.83 94.41 306.83 94.41ZM165.55 15.27 165.68 15.27 170.04 15.56 175.24 16 184.64 17.15 194.04 18.59 198.1 19.46 203.3 20.61 212.57 22.78 220.37 25.11 226.16 27.27 230.5 29.87 234.11 33.06 237 36.97 239.02 41.31 239.9 45.8 239.75 49.7 238.45 53.16 236.11 56.35 232.08 59.67 225.42 63.43 218.33 66.47 211.09 69.36 203.71 71.83 198.07 73.42 196.19 73.86 188.66 75.6 187.8 68.94 186.64 62.14 184.91 55.63 182.74 49.27 180.12 43.06 177.23 36.98 174.49 32.06 172.18 28.58 170.01 25.83 169.57 25.26 166.54 22.21 165.53 21.34 163.36 19.46 159.89 17 156.27 14.85 165.53 15.28 165.53 15.28ZM153.25 40.43 155.41 40.43 158.9 41.72 161.79 43.76 163.96 46.63 165.56 49.25 166.13 50.55 168.59 55.47 170.05 58.95 170.77 60.68 172.35 65.9 173.66 71.39 174.66 76.87 170.05 77.45 167.6 77.75 165.57 77.88 160.51 78.17 153.57 78.33 153.27 78.33 146.49 78.17 139.4 77.75 136.5 77.45 132.3 77.03 133.17 71.52 134.47 66.17 136.06 60.39 136.49 59.51 138.08 55.61 140.55 50.55 142.86 46.2 145.17 43.46 148.36 41.44 151.83 40.42 153.28 40.42ZM68.49 42.3 69.93 38.4 72.24 34.94 76 31.75 81.2 28.56 89.01 25.1 97.26 21.78 106.08 19.02 115.48 16.84 124.74 15.69 131.26 15.26 136.45 14.97 137.77 14.97 144.28 14.83 150.78 14.83 147.3 16.98 144.13 19.29 140.79 22.04 137.77 25.37 136.45 27.1 134.73 29.28 131.84 33.91 128.65 39.26 125.6 46.05 123.01 53.13 120.99 60.23 119.24 67.46 118.09 74.85 111.15 73.98 104.33 72.82 97.68 70.93 91.03 68.63 84.67 65.89 79.46 62.98 75.56 60.23 72.37 57.33 70.06 54.02 68.47 50.39 67.89 46.34 68.47 42.28 68.47 42.28ZM136.47 187.83 130.84 187.25 121.14 185.95 111.45 183.79 101.76 181.03 92.51 177.86 83.4 173.94 72.4 168.45 61.84 161.8 51.72 153.4 43.77 145.03 37.69 136.77 32.78 128.09 28.58 118.99 26.26 111.61 24.53 104.08 23.66 96.41 23.52 88.75 24.1 82.1 25.7 75.59 28.01 69.36 31.19 63.58 35.23 58.24 39.86 53.46 41.02 58.51 43.05 63.15 45.65 67.63 48.83 71.68 52.59 75.15 56.64 78.04 63.87 82.96 72.11 87.3 81.09 90.92 92.23 94.4 104.81 97.57 116.1 99.89 115.8 109.88 116.24 119.85 117.26 129.7 118.55 138.94 120.57 148.07 123.19 156.9 126.51 165.43 130.71 173.81 135.33 181.34 136.49 182.78 140.83 188.13 136.49 187.84 136.49 187.84ZM164.69 149.78 162.08 153.53 159.05 156.13 155.41 157.45 153.25 157.58 151.95 157.58 148.64 156.72 145.74 154.98 143.13 152.38 140.81 148.32 137.94 142.12 136.48 138.05 135.05 134 132.58 125.03 130.99 115.78 130.27 106.38 129.96 101.46 136.47 102.33 137.79 102.62 145.45 103.34 153.12 103.64 160.78 103.64 165.56 103.34 168.59 103.04 170.05 102.89 176.27 102.18 175.97 106.38 175.11 115.06 173.37 124.91 170.77 134.59 170.05 136.46 167.6 143.26 165.57 147.75 164.7 149.77 164.7 149.77ZM283.29 101.19 282.58 107.12 281.42 113.05 279.68 118.82 277.52 124.33 273.47 132.27 268.71 139.52 263.49 146.03 256.98 152.1 248.88 158.46 239.04 164.97 228.19 171.05 217.06 176.39 207.09 180.02 198.11 182.77 196.95 183.05 186.68 185.51 176.27 187.54 170.05 188.4 165.84 188.98 170.05 183.33 170.48 182.48 174.66 175.81 178.29 168.72 181.04 160.63 183.49 152.38 185.66 144.13 187.4 135.75 188.85 127.35 189.87 118.82 190.58 109.72 190.87 100.6 198.11 98.43 198.98 98.14 206.95 95.82 214.6 93.22 221.83 90.62 229.5 88.04 236.58 84.7 243.52 80.52 249.74 75.6 255.38 69.94 259.72 64.6 263.35 58.81 266.22 52.57 270.72 58.24 274.48 64.31 277.81 70.68 280.41 77.46 282.01 83.26 283.01 89.19 283.45 95.11 283.3 101.19 283.3 101.19Z" fill="#D0181F" fill-rule="evenodd"/><path d="M306.8 94.45 305.79 87.94 304.21 81.58 302.18 75.37 299.43 69.44 293.64 59.61 286.26 50.19 277.43 41.23 267.31 33.12 255.89 25.61 243.44 18.95 230 13.3 215.68 8.53 200.64 4.78 198.03 4.34 185.31 2.17 169.98 0.58 169.38 0.43 165.49 0.29 153.63 0.01 153.19 0.01 137.57 0.43 136.4 0.58 121.79 2.17 106.32 4.77 91.28 8.52 77.1 13.29 63.65 18.94 51.07 25.6 39.79 33.11 29.52 41.22 20.85 50.03 13.32 59.59 7.54 69.42 4.94 75.35 2.77 81.56 1.17 87.92 0.32 94.43 0.03 100.94 0.32 107.45 1.17 113.95 2.77 120.33 4.94 126.68 7.54 132.47 13.32 142.46 20.85 151.86 29.52 160.68 39.79 168.77 51.07 176.3 63.65 183.12 77.1 188.61 91.28 193.37 105.75 196.98 120.22 199.58 134.97 201.31 136.41 201.31 149.73 202.05 153.2 202.05 164.35 201.89 165.51 201.75 170 201.47 178.96 200.58 193.7 198.55 198.05 197.54 208.19 195.53 215.41 193.5 222.77 191.19 234.5 186.55 245.78 181.2 256.62 175.13 267.05 168.18 277.17 160.66 286.29 151.84 293.67 142.44 299.46 132.45 302.21 126.66 304.24 120.31 305.82 113.93 306.83 107.43 306.98 100.92 306.83 94.41 306.83 94.41ZM165.55 15.27 165.68 15.27 170.04 15.56 175.24 16 184.64 17.15 194.04 18.59 198.1 19.46 203.3 20.61 212.57 22.78 220.37 25.11 226.16 27.27 230.5 29.87 234.11 33.06 237 36.97 239.02 41.31 239.9 45.8 239.75 49.7 238.45 53.16 236.11 56.35 232.08 59.67 225.42 63.43 218.33 66.47 211.09 69.36 203.71 71.83 198.07 73.42 196.19 73.86 188.66 75.6 187.8 68.94 186.64 62.14 184.91 55.63 182.74 49.27 180.12 43.06 177.23 36.98 174.49 32.06 172.18 28.58 170.01 25.83 169.57 25.26 166.54 22.21 165.53 21.34 163.36 19.46 159.89 17 156.27 14.85 165.53 15.28 165.53 15.28ZM153.25 40.43 155.41 40.43 158.9 41.72 161.79 43.76 163.96 46.63 165.56 49.25 166.13 50.55 168.59 55.47 170.05 58.95 170.77 60.68 172.35 65.9 173.66 71.39 174.66 76.87 170.05 77.45 167.6 77.75 165.57 77.88 160.51 78.17 153.57 78.33 153.27 78.33 146.49 78.17 139.4 77.75 136.5 77.45 132.3 77.03 133.17 71.52 134.47 66.17 136.06 60.39 136.49 59.51 138.08 55.61 140.55 50.55 142.86 46.2 145.17 43.46 148.36 41.44 151.83 40.42 153.28 40.42ZM68.49 42.3 69.93 38.4 72.24 34.94 76 31.75 81.2 28.56 89.01 25.1 97.26 21.78 106.08 19.02 115.48 16.84 124.74 15.69 131.26 15.26 136.45 14.97 137.77 14.97 144.28 14.83 150.78 14.83 147.3 16.98 144.13 19.29 140.79 22.04 137.77 25.37 136.45 27.1 134.73 29.28 131.84 33.91 128.65 39.26 125.6 46.05 123.01 53.13 120.99 60.23 119.24 67.46 118.09 74.85 111.15 73.98 104.33 72.82 97.68 70.93 91.03 68.63 84.67 65.89 79.46 62.98 75.56 60.23 72.37 57.33 70.06 54.02 68.47 50.39 67.89 46.34 68.47 42.28 68.47 42.28ZM136.47 187.83 130.84 187.25 121.14 185.95 111.45 183.79 101.76 181.03 92.51 177.86 83.4 173.94 72.4 168.45 61.84 161.8 51.72 153.4 43.77 145.03 37.69 136.77 32.78 128.09 28.58 118.99 26.26 111.61 24.53 104.08 23.66 96.41 23.52 88.75 24.1 82.1 25.7 75.59 28.01 69.36 31.19 63.58 35.23 58.24 39.86 53.46 41.02 58.51 43.05 63.15 45.65 67.63 48.83 71.68 52.59 75.15 56.64 78.04 63.87 82.96 72.11 87.3 81.09 90.92 92.23 94.4 104.81 97.57 116.1 99.89 115.8 109.88 116.24 119.85 117.26 129.7 118.55 138.94 120.57 148.07 123.19 156.9 126.51 165.43 130.71 173.81 135.33 181.34 136.49 182.78 140.83 188.13 136.49 187.84 136.49 187.84ZM164.69 149.78 162.08 153.53 159.05 156.13 155.41 157.45 153.25 157.58 151.95 157.58 148.64 156.72 145.74 154.98 143.13 152.38 140.81 148.32 137.94 142.12 136.48 138.05 135.05 134 132.58 125.03 130.99 115.78 130.27 106.38 129.96 101.46 136.47 102.33 137.79 102.62 145.45 103.34 153.12 103.64 160.78 103.64 165.56 103.34 168.59 103.04 170.05 102.89 176.27 102.18 175.97 106.38 175.11 115.06 173.37 124.91 170.77 134.59 170.05 136.46 167.6 143.26 165.57 147.75 164.7 149.77 164.7 149.77ZM283.29 101.19 282.58 107.12 281.42 113.05 279.68 118.82 277.52 124.33 273.47 132.27 268.71 139.52 263.49 146.03 256.98 152.1 248.88 158.46 239.04 164.97 228.19 171.05 217.06 176.39 207.09 180.02 198.11 182.77 196.95 183.05 186.68 185.51 176.27 187.54 170.05 188.4 165.84 188.98 170.05 183.33 170.48 182.48 174.66 175.81 178.29 168.72 181.04 160.63 183.49 152.38 185.66 144.13 187.4 135.75 188.85 127.35 189.87 118.82 190.58 109.72 190.87 100.6 198.11 98.43 198.98 98.14 206.95 95.82 214.6 93.22 221.83 90.62 229.5 88.04 236.58 84.7 243.52 80.52 249.74 75.6 255.38 69.94 259.72 64.6 263.35 58.81 266.22 52.57 270.72 58.24 274.48 64.31 277.81 70.68 280.41 77.46 282.01 83.26 283.01 89.19 283.45 95.11 283.3 101.19 283.3 101.19Z" fill="#D0181F" fill-rule="evenodd"/></svg>