<svg viewBox="0 0 115.97 57.97" xmlns="http://www.w3.org/2000/svg" xmlns:xlink="http://www.w3.org/1999/xlink" id="_Í_ã_1" overflow="hidden"><defs></defs><path d="M115.97 28.98C115.97 44.97 90.01 57.97 57.97 57.97 25.93 57.97 0 44.97 0 28.98 0 12.99 25.98 0 57.97 0 89.96 0 115.97 12.97 115.97 28.98L115.97 28.98ZM55.24 25.04C60.27 24.07 65.1 22.36 68.95 21.01 81.23 16.65 87.13 12.15 88.3 11.15 89.8 9.8 88.65 9.18 87.25 8.76 78.83 6.24 66.09 4.42 57.91 4.74 52.04 4.95 48.65 11.28 47.35 14.06 41.21 26.97 52.28 25.59 55.24 25.04L55.24 25.04ZM17.37 43.18C17.68 42.69 27.39 20.2 38.88 7.97 40.18 6.53 38.73 6.32 36.84 6.68 17.96 10.41 4.75 18.98 4.75 28.96 4.75 34.41 8.7 39.4 15.27 43.44 16.28 44.07 17.09 43.63 17.37 43.17L17.37 43.17ZM60.69 32.97C55.71 33.9 50.86 35.62 46.99 36.97 34.69 41.34 28.8 45.82 27.66 46.84 26.16 48.17 27.32 48.82 28.71 49.24 37.13 51.77 49.84 53.53 58.02 53.26 63.93 53.04 67.3 46.73 68.62 43.95 74.75 31.04 63.65 32.4 60.69 32.97L60.69 32.97ZM111.18 29.02C111.18 23.58 107.27 18.58 100.69 14.54 99.64 13.89 98.84 14.34 98.57 14.75 98.23 15.28 88.57 37.79 77.05 50.02 75.71 51.43 77.2 51.65 79.09 51.27 97.96 47.56 111.18 38.98 111.18 29.01L111.18 29.01Z" fill="#004484" fill-rule="evenodd"/></svg>